<?xml version="1.0" encoding="UTF-8" ?>
<!DOCTYPE svg PUBLIC "-//W3C//DTD SVG 1.1//EN" "http://www.w3.org/Graphics/SVG/1.1/DTD/svg11.dtd">
<svg width="615pt" height="985pt" viewBox="0 0 615 985" version="1.1" xmlns="http://www.w3.org/2000/svg">
<path fill="#000000" opacity="1.00" d=" M 324.53 0.00 L 339.36 0.00 C 351.18 2.18 361.70 8.63 370.80 16.20 C 387.40 35.34 383.97 61.98 385.49 85.27 C 386.33 91.92 389.29 103.55 398.54 100.48 C 407.62 96.13 411.33 109.50 404.77 113.87 C 394.01 120.90 375.94 116.35 373.63 132.55 C 377.78 143.27 390.57 141.29 399.72 142.85 C 415.82 152.72 436.39 150.39 454.19 156.73 C 469.99 164.26 486.13 170.56 499.90 181.28 C 522.41 185.22 545.43 189.13 568.28 185.00 C 579.65 183.17 587.08 197.06 598.83 193.15 C 603.65 192.49 611.41 185.02 615.00 191.12 L 615.00 192.94 C 605.53 197.17 594.80 201.69 591.50 212.53 C 589.49 221.95 578.15 227.47 580.44 238.02 C 580.41 252.04 572.28 264.12 561.75 272.75 C 539.06 299.25 512.93 322.79 483.19 341.36 C 481.01 354.19 468.16 361.92 459.17 368.75 C 469.19 376.00 463.65 393.76 477.00 394.88 C 484.97 396.24 484.38 407.22 478.62 410.75 C 469.58 415.03 459.45 412.95 449.84 413.63 C 473.18 446.34 474.71 488.57 481.69 526.81 C 478.71 539.45 467.76 556.73 452.86 553.26 C 453.78 558.25 459.18 562.62 456.21 568.01 C 449.57 577.00 455.13 588.46 450.28 597.85 C 457.32 601.84 456.83 610.26 450.60 614.75 C 446.56 628.15 446.29 642.69 446.52 656.70 C 464.43 662.18 460.90 686.63 453.00 699.07 C 440.70 717.01 464.54 737.63 451.80 754.81 C 447.41 761.98 438.67 759.81 432.99 755.87 C 447.84 806.78 413.80 856.34 423.75 906.95 C 441.99 929.89 463.19 949.05 484.17 969.56 C 485.94 969.21 489.40 966.80 490.25 968.97 C 488.52 979.09 510.57 974.91 505.90 985.00 L 499.52 985.00 C 473.54 977.84 446.41 974.36 421.57 963.47 C 406.04 956.56 387.21 961.28 372.82 951.27 C 373.18 921.73 389.50 895.40 386.67 865.34 C 384.37 844.77 374.86 825.53 374.16 804.65 C 372.15 782.82 380.42 761.15 376.67 739.44 C 379.83 727.03 369.36 714.31 376.64 701.89 C 373.01 689.84 373.65 676.91 370.22 664.82 C 360.75 642.82 372.38 617.80 360.20 596.52 C 359.46 584.70 354.39 570.10 359.55 559.17 C 351.36 551.30 353.02 537.17 351.52 528.37 C 336.26 546.38 337.44 571.70 328.10 592.31 C 324.18 610.76 322.38 631.12 310.32 647.30 C 302.59 657.47 307.64 671.71 299.36 681.29 C 302.08 693.61 298.42 707.65 306.50 718.43 C 315.86 726.71 306.72 740.36 310.94 750.25 C 315.87 776.86 325.67 804.18 318.33 831.35 C 309.58 863.66 306.80 899.56 320.96 930.71 C 319.44 940.94 329.56 952.13 322.44 961.65 C 273.58 969.74 223.91 975.04 174.19 974.88 C 175.62 964.23 197.29 973.56 199.62 961.47 C 201.94 959.79 203.43 962.97 205.45 963.62 C 154.00 801.09 101.75 638.52 49.92 476.20 C 39.50 479.26 35.45 494.03 24.31 494.80 C 28.10 480.69 47.44 472.74 48.74 457.31 C 45.51 438.41 37.96 422.43 34.11 404.41 C 18.63 406.52 9.95 393.52 0.00 385.31 L 0.00 376.13 C 1.99 373.26 2.18 369.86 0.00 367.03 L 0.00 362.66 C 5.96 355.46 13.15 349.24 20.80 343.93 C 34.31 342.26 50.89 346.54 61.09 334.95 C 78.48 318.31 100.13 305.56 114.59 286.19 C 125.01 294.23 130.71 280.34 141.93 277.91 C 146.61 264.29 157.78 253.61 171.68 249.70 C 193.19 242.48 201.52 220.01 217.67 206.61 C 220.22 189.74 236.43 181.28 251.69 177.78 C 262.47 170.23 274.83 164.78 286.12 158.14 C 288.84 150.27 309.30 148.73 300.38 138.69 C 286.52 131.49 283.30 116.77 276.46 105.33 C 279.92 91.25 261.33 80.60 266.15 64.94 C 274.77 48.34 271.63 26.74 285.89 12.89 C 296.58 3.71 311.30 2.71 324.53 0.00 M 457.02 242.25 C 456.29 246.49 455.88 250.96 453.90 254.87 C 438.17 265.71 443.94 289.09 436.18 305.18 C 433.61 326.73 420.54 344.15 409.05 361.95 C 411.47 363.51 418.15 371.32 417.93 363.06 C 417.39 355.50 428.32 354.76 426.64 346.94 C 431.48 341.62 441.11 343.68 445.05 337.05 C 460.73 315.96 468.22 290.33 480.38 267.29 C 490.26 271.98 496.07 258.08 502.98 253.95 C 494.27 235.76 471.96 249.85 457.02 242.25 M 240.56 281.49 C 234.98 284.79 228.95 292.38 231.73 298.66 C 222.78 307.89 212.25 316.05 198.69 315.35 C 186.32 314.78 180.64 327.60 177.81 337.65 C 170.05 350.41 152.25 355.31 138.74 349.27 C 132.33 344.65 124.32 350.30 117.83 351.70 C 104.20 369.26 76.52 361.64 61.34 378.78 C 61.81 386.26 53.14 389.48 48.11 392.11 C 56.96 412.05 59.11 434.38 69.35 454.69 C 84.82 459.11 101.30 462.60 117.15 463.93 C 120.98 466.72 118.01 471.10 113.84 470.63 C 101.74 468.42 89.31 468.84 77.13 467.02 C 120.74 631.42 164.82 795.69 209.42 959.82 C 234.48 954.98 250.76 930.62 269.91 914.87 C 281.48 896.54 278.75 873.36 273.75 853.23 C 267.47 825.32 260.06 797.43 258.63 768.71 C 252.64 756.26 237.72 745.89 242.80 728.22 C 236.10 719.63 233.44 708.00 236.57 697.34 C 229.07 686.30 229.48 669.77 240.61 661.35 C 235.62 625.67 237.88 589.77 238.08 553.97 C 239.54 545.39 226.27 547.34 225.07 539.50 C 217.97 496.29 232.66 452.54 251.64 414.14 C 241.97 411.39 257.88 410.57 255.41 404.47 C 255.46 398.46 260.95 396.29 265.96 396.54 C 275.08 386.98 278.18 376.05 292.21 372.00 C 270.83 352.21 250.54 329.55 245.07 299.93 C 240.14 295.35 244.88 284.24 240.56 281.49 Z" />
</svg>
