<?xml version="1.0"?>
<svg xmlns="http://www.w3.org/2000/svg" viewBox="0 0 50 50">
    <path d="M 43.101562 2.0214844 C 42.50625 2.0121094 41.925391 2.2 41.400391 2.5 L 27.599609 11 L 6 11 C 4.3 11 3 12.3 3 14 C 3 15.7 4.3 17 6 17 L 20 17 L 20 44.5 C 20 45.9 21.1 47 22.5 47 C 23.9 47 25 45.9 25 44.5 L 25 30.699219 L 28.919922 28.349609 L 44.048828 24.9375 L 44.048828 24.935547 A 2.5 2.5 0 0 0 46 22.5 A 2.5 2.5 0 0 0 43.5 20 A 2.5 2.5 0 0 0 42.951172 20.064453 L 42.949219 20.058594 L 29 23.205078 L 29 17 L 44.699219 7.5 C 46.099219 6.7 46.499609 4.8003906 45.599609 3.4003906 C 45.199609 2.7003906 44.499219 2.2996094 43.699219 2.0996094 C 43.499219 2.0496094 43.3 2.0246094 43.101562 2.0214844 z M 33 30 C 30.2 30 28 32.2 28 35 C 28 37.8 30.2 40 33 40 C 35.8 40 38 37.8 38 35 C 38 32.2 35.8 30 33 30 z"/>
</svg>
