<svg xmlns="http://www.w3.org/2000/svg" xmlns:xlink="http://www.w3.org/1999/xlink" version="1.1" x="0px" y="0px" viewBox="0 0 512 512" style="enable-background:new 0 0 512 512;" xml:space="preserve"><g><g><g><g><g><path d="M245.991,101.001c-1.961,0-3.941-0.575-5.677-1.774c-8.325-5.754-16.73-8.672-24.981-8.672       c-13.549,0-22.541,7.785-22.627,7.863c-4.097,3.704-10.42,3.385-14.124-0.713c-3.704-4.097-3.384-10.421,0.713-14.124       c0.588-0.532,14.657-13.026,36.039-13.026c12.391,0,24.622,4.111,36.353,12.219c4.543,3.14,5.681,9.369,2.541,13.912       C252.285,99.493,249.164,101,245.991,101.001z"/></g><g><path d="M125.991,101.001c-1.961,0-3.941-0.575-5.677-1.774c-8.325-5.754-16.73-8.672-24.981-8.672       c-13.549,0-22.541,7.785-22.627,7.863c-4.097,3.704-10.42,3.385-14.124-0.713c-3.704-4.097-3.384-10.421,0.713-14.124       c0.588-0.532,14.657-13.026,36.039-13.026c12.391,0,24.622,4.111,36.353,12.219c4.543,3.14,5.681,9.369,2.541,13.912       C132.285,99.493,129.164,101,125.991,101.001z"/></g></g><g><path d="M167.83,179.313h-23.661c-5.523,0-10-4.477-10-10c0-5.522,4.477-10,10-10h23.661c5.523,0,10,4.478,10,10      C177.83,174.836,173.353,179.313,167.83,179.313z"/></g><g><path d="M156,272.974c-28.58,0-51.831-23.251-51.831-51.83c0-5.523,4.477-10,10-10s10,4.477,10,10      c0,17.551,14.279,31.83,31.831,31.83s31.831-14.279,31.831-31.83c0-5.523,4.477-10,10-10s10,4.477,10,10      C207.83,249.723,184.579,272.974,156,272.974z"/></g><g><path d="M421.871,315.655c-11.627,0-40.249-3.794-54.861-38.938c-2.121-5.1,0.295-10.952,5.395-13.072      c5.098-2.122,10.951,0.294,13.072,5.394c9.63,23.159,26.936,26.617,36.395,26.617c2.029,0,3.27-0.179,3.282-0.181      c5.447-0.896,10.553,2.801,11.449,8.251c0.896,5.449-2.836,10.601-8.286,11.497      C427.878,315.295,425.504,315.655,421.871,315.655z"/></g><g><path d="M321.204,257.538c-0.916,0-1.847-0.126-2.771-0.393c-12.192-3.511-28.816-12.72-38.771-36.661      c-2.12-5.1,0.295-10.952,5.395-13.073c5.099-2.119,10.951,0.295,13.072,5.395c5.542,13.328,14.234,21.78,25.837,25.12      c5.308,1.528,8.371,7.069,6.843,12.377C329.547,254.686,325.548,257.538,321.204,257.538z"/></g><g><path d="M312.911,347.673c-1.854,0-3.729-0.515-5.403-1.593l-19.895-12.808c-4.644-2.989-5.984-9.178-2.995-13.821      c2.989-4.643,9.178-5.984,13.821-2.995l19.895,12.808c4.644,2.989,5.984,9.177,2.995,13.821      C319.418,346.054,316.198,347.673,312.911,347.673z"/></g><g><path d="M287.438,442.665c-1.854,0-3.729-0.515-5.403-1.593c-4.644-2.989-5.984-9.178-2.995-13.821      c3.317-5.154,5.071-11.098,5.071-17.189c0-10.896-5.46-20.917-14.606-26.805c-5.153-3.318-11.098-5.071-17.19-5.071      c-10.896,0-20.916,5.46-26.804,14.605c-2.99,4.644-9.178,5.983-13.821,2.995c-4.644-2.99-5.985-9.178-2.995-13.821      c9.586-14.89,25.893-23.779,43.62-23.779c9.94,0,19.628,2.854,28.016,8.255c14.891,9.586,23.78,25.894,23.78,43.621      c0,9.938-2.854,19.626-8.255,28.016C293.945,441.046,290.726,442.665,287.438,442.665z"/></g><g><path d="M284.893,501c-15.295,0-30.384-2.457-44.848-7.303c-11.146-3.733-21.844-8.876-31.798-15.284      c-14.359-9.245-26.775-20.813-36.904-34.384c-3.303-4.426-2.393-10.692,2.033-13.995c4.425-3.304,10.692-2.394,13.995,2.033      c8.693,11.648,19.359,21.583,31.702,29.529c8.559,5.51,17.752,9.93,27.326,13.137c12.411,4.158,25.363,6.267,38.494,6.267      c35.473,0,69.063-15.306,92.156-41.994c3.787-4.377,7.289-9.054,10.409-13.9l89.337-138.772      c0.688-1.068,1.036-2.229,1.036-3.451c0-2.438-1.456-5.309-4.709-6.222c-31.611-8.873-68.383-26.225-103.54-48.857      c-27.307-17.579-52.116-37.364-71.752-57.086v31.766c0,6.709-0.48,13.485-1.428,20.141c-3.976,27.941-16.112,53.829-35.1,74.863      c-18.858,20.892-43.165,35.576-70.293,42.466c-8.791,2.231-17.81,3.615-26.907,4.131c-0.723,5.436-5.698,9.284-11.147,8.604      c-5.48-0.682-9.371-5.678-8.688-11.158c0.377-3.034,0.861-6.098,1.437-9.104c0.903-4.714,5.027-8.118,9.82-8.118      c0.021,0,0.042,0,0.063,0l0.421,0.006c10.169,0,20.292-1.261,30.079-3.745c48.011-12.193,83.541-51.745,90.514-100.762      c0.815-5.727,1.229-11.555,1.229-17.323v-57.164c0-3.885,2.25-7.418,5.77-9.062c3.521-1.644,7.675-1.1,10.651,1.396      c1.272,1.065,2.347,2.124,3.284,3.236c19.915,23.62,49.348,48.515,82.873,70.098c33.527,21.584,68.373,38.068,98.118,46.418      c11.366,3.189,19.305,13.667,19.305,25.478c0,5.052-1.459,9.989-4.22,14.277l-89.337,138.772      c-3.628,5.636-7.699,11.073-12.102,16.161C365.277,483.174,326.175,501,284.893,501z M157.691,403.325      c-4.418,0-8.461-2.951-9.655-7.423l-0.27-1.024c-1.393-5.345,1.811-10.806,7.155-12.198c5.345-1.393,10.806,1.811,12.199,7.154      l0.239,0.908c1.425,5.336-1.745,10.816-7.081,12.242C159.413,403.215,158.545,403.325,157.691,403.325z"/></g><g><path d="M156,344.313l-0.536-0.006c-9.045-0.032-18.122-0.928-26.951-2.663c-5.419-1.064-8.949-6.321-7.885-11.74      c1.064-5.42,6.319-8.95,11.74-7.885c7.586,1.49,15.389,2.261,23.193,2.288l0.448,0.006c10.169,0,20.292-1.261,30.079-3.745      c48.011-12.193,83.541-51.745,90.514-100.762c0.815-5.727,1.229-11.555,1.229-17.323V37.44c0-3.979-3.322-6.44-6.4-6.44      c-0.638,0-1.286,0.1-1.927,0.296C238.122,40.946,197.811,46.261,156,46.261S73.877,40.946,42.494,31.296      C41.855,31.1,41.208,31,40.569,31c-3.078,0-6.4,2.462-6.4,6.44v165.042c0,25.136,7.589,49.263,21.947,69.773      c3.167,4.524,2.067,10.76-2.458,13.928c-4.526,3.166-10.76,2.065-13.927-2.458c-16.723-23.89-25.563-51.983-25.563-81.243V37.44      c0-14.579,11.843-26.44,26.4-26.44c2.634,0,5.259,0.396,7.804,1.18C77.903,21.26,116.126,26.261,156,26.261      s78.096-5.001,107.626-14.081c2.548-0.783,5.173-1.18,7.804-1.18c14.558,0,26.4,11.861,26.4,26.44v165.042      c0,6.709-0.48,13.485-1.428,20.141c-3.976,27.941-16.112,53.829-35.1,74.863c-18.858,20.892-43.165,35.576-70.293,42.466      C179.615,342.846,167.836,344.313,156,344.313z M84.379,323.182c-1.861,0-3.743-0.519-5.422-1.604l-0.907-0.593      c-4.611-3.039-5.886-9.241-2.847-13.853c3.04-4.61,9.241-5.885,13.853-2.847l0.764,0.499c4.637,3,5.965,9.19,2.965,13.828      C90.871,321.57,87.658,323.182,84.379,323.182z"/></g><g><path d="M327.83,121c-5.522,0-10-4.478-10-10V31c0-5.523,4.478-10,10-10s10,4.477,10,10v80      C337.83,116.522,333.353,121,327.83,121z"/></g><g><path d="M327.83,151.313c-5.522,0-10-4.478-10-10v-0.625c0-5.523,4.478-10,10-10s10,4.477,10,10v0.625      C337.83,146.835,333.353,151.313,327.83,151.313z"/></g><g><path d="M107.83,450.688c-5.523,0-10-4.478-10-10v-80c0-5.523,4.477-10,10-10s10,4.477,10,10v80      C117.83,446.21,113.353,450.688,107.83,450.688z"/></g><g><path d="M107.83,481c-5.523,0-10-4.478-10-10v-0.625c0-5.523,4.477-10,10-10s10,4.477,10,10V471      C117.83,476.522,113.353,481,107.83,481z"/></g></g></g></g></svg>
