<svg xmlns="http://www.w3.org/2000/svg" xmlns:xlink="http://www.w3.org/1999/xlink" version="1.1" x="0px" y="0px" viewBox="0 0 100 100" style="enable-background:new 0 0 100 100;" xml:space="preserve"><path d="M10.3,89.559c0.195,0.195,0.451,0.293,0.707,0.293s0.512-0.098,0.707-0.293c9.928-9.928,22.144-17.949,36.321-23.872v8.009  c-7.611,3.674-15.386,8.369-22.776,14.382c-0.428,0.349-0.493,0.979-0.145,1.407c0.198,0.243,0.486,0.369,0.776,0.369  c0.222,0,0.445-0.073,0.631-0.224c22.619-18.403,48.944-24.314,62.623-26.2c0.547-0.076,0.929-0.58,0.854-1.127  c-0.076-0.548-0.583-0.929-1.127-0.854c-9.032,1.245-23.498,4.225-38.835,11.302v-2.294c0.388,0.034,0.889,0.065,1.471,0.065  c2.105,0,5.196-0.396,7.226-2.426c1.995-1.995,2.41-5.011,2.424-7.113c15.77-4.758,27.773-5.319,27.893-5.324  c0.552-0.023,0.98-0.49,0.957-1.041c-0.023-0.552-0.479-0.988-1.041-0.957c-0.077,0.003-4.907,0.227-12.44,1.58v-1.864  c0.316,0.025,0.703,0.044,1.142,0.044c1.852,0,4.578-0.35,6.373-2.145c2.878-2.879,2.041-8.151,2.003-8.375  c-0.07-0.422-0.4-0.752-0.822-0.822c-0.223-0.037-5.496-0.876-8.375,2.003c-0.116,0.116-0.217,0.242-0.321,0.365v-5.128  c0.346,0.032,0.805,0.061,1.34,0.061c1.852,0,4.579-0.35,6.374-2.145c2.879-2.879,2.041-8.151,2.003-8.375  c-0.07-0.422-0.4-0.752-0.822-0.822c-0.223-0.038-5.496-0.876-8.375,2.003c-0.19,0.19-0.361,0.391-0.52,0.599v-6.173  c1.118-0.908,4.086-3.635,4.086-7.014c0-4.071-4.321-7.207-4.505-7.338c-0.348-0.249-0.815-0.249-1.163,0  c-0.184,0.131-4.505,3.267-4.505,7.338c0,3.379,2.968,6.106,4.086,7.014v1.29c-0.049-0.053-0.09-0.11-0.141-0.161  c-2.879-2.879-8.151-2.041-8.375-2.003c-0.422,0.07-0.752,0.4-0.822,0.822c-0.037,0.223-0.875,5.496,2.003,8.375  c1.795,1.795,4.521,2.145,6.373,2.145c0.36,0,0.681-0.014,0.962-0.032v5.122c-0.11-0.132-0.218-0.265-0.341-0.388  c-2.878-2.878-8.151-2.04-8.375-2.003c-0.422,0.07-0.752,0.4-0.822,0.822c-0.037,0.223-0.875,5.496,2.003,8.375  c1.795,1.795,4.521,2.145,6.374,2.145c0.448,0,0.841-0.021,1.161-0.046v6.685c-3.956,0.77-8.53,1.837-13.481,3.312  c-0.023-0.192-0.043-0.312-0.048-0.344c-0.07-0.422-0.4-0.752-0.822-0.822c-0.142-0.024-2.09-0.333-4.349-0.026  c-0.024-0.013-0.04-0.035-0.066-0.047c-1.866-0.835-3.785-1.624-5.725-2.385v-1.036c0.407,0.043,0.995,0.087,1.701,0.087  c2.105,0,5.196-0.396,7.226-2.426c3.26-3.26,2.307-9.257,2.264-9.511c-0.07-0.422-0.4-0.752-0.822-0.822  c-0.254-0.042-6.25-0.995-9.511,2.265c-0.331,0.331-0.608,0.696-0.858,1.074v-7.671c1.222-0.981,4.706-4.117,4.706-8.004  c0-4.611-4.915-8.177-5.124-8.327c-0.348-0.249-0.815-0.249-1.163,0c-0.209,0.149-5.124,3.716-5.124,8.327  c0,3.887,3.484,7.023,4.706,8.004v1.958c-0.134-0.163-0.269-0.327-0.421-0.479c-3.26-3.261-9.257-2.306-9.511-2.264  c-0.422,0.07-0.752,0.4-0.822,0.822c-0.042,0.254-0.996,6.25,2.265,9.511c2.03,2.03,5.121,2.426,7.226,2.426  c0.481,0,0.91-0.021,1.264-0.047v5.36c-0.737-0.276-1.465-0.569-2.207-0.832c-0.034-0.012-0.068-0.006-0.102-0.014  c-0.87-0.468-1.808-0.773-2.728-0.956c-7.091-2.362-13.554-3.875-18.787-4.844V46.29c0.228,0.014,0.479,0.026,0.768,0.026  c1.566,0,3.879-0.297,5.409-1.827c2.447-2.447,1.739-6.901,1.708-7.09c-0.07-0.422-0.4-0.752-0.822-0.822  c-0.189-0.031-4.609-0.732-7.063,1.684v-3.62c0.264,0.02,0.569,0.038,0.934,0.038c1.566,0,3.879-0.297,5.409-1.827  c2.447-2.447,1.739-6.901,1.708-7.09c-0.07-0.422-0.4-0.752-0.822-0.822c-0.189-0.031-4.643-0.739-7.09,1.708  c-0.05,0.05-0.091,0.106-0.139,0.158v-4.575c0.992-0.821,3.387-3.09,3.387-5.894c0-3.461-3.65-6.11-3.805-6.221  c-0.348-0.249-0.815-0.249-1.163,0c-0.155,0.111-3.806,2.76-3.806,6.221c0,2.804,2.395,5.074,3.387,5.894v0.579  c-2.478-2.254-6.731-1.585-6.915-1.554c-0.422,0.07-0.752,0.4-0.822,0.822c-0.031,0.188-0.739,4.643,1.708,7.09  c1.53,1.53,3.843,1.827,5.409,1.827c0.224,0,0.431-0.007,0.62-0.016v3.613c-2.45-2.438-6.892-1.732-7.081-1.7  c-0.422,0.07-0.752,0.4-0.822,0.822c-0.031,0.188-0.739,4.643,1.708,7.09c1.53,1.53,3.843,1.827,5.409,1.827  c0.297,0,0.553-0.012,0.785-0.027v4.942c-6.816-1.155-11.091-1.331-11.168-1.334c-0.534-0.011-1.016,0.412-1.036,0.963  c-0.02,0.552,0.411,1.016,0.963,1.036c0.122,0.004,11.197,0.458,26.268,4.835c-0.09,0.123-0.162,0.261-0.188,0.419  c-0.033,0.196-0.598,3.795,0.63,6.929c-10.781-3.726-20.28-5.531-26.536-6.394c-0.544-0.073-1.052,0.307-1.127,0.854  c-0.075,0.547,0.307,1.052,0.854,1.127c6.652,0.917,17.022,2.912,28.691,7.204c1.305,1.181,2.974,1.761,4.547,2.02  c-2.872,1.289-5.662,2.664-8.365,4.128c-7.864-3.073-16.121-5.46-24.547-7.093c-0.543-0.102-1.067,0.25-1.172,0.792  c-0.105,0.542,0.25,1.067,0.792,1.172c7.754,1.503,15.359,3.66,22.641,6.402c-2.615,1.491-5.148,3.065-7.592,4.721  c-4.731-1.729-9.646-3.232-14.619-4.462c-0.535-0.134-1.079,0.194-1.211,0.73c-0.133,0.536,0.194,1.079,0.73,1.211  c4.438,1.097,8.824,2.424,13.076,3.928c-4.884,3.471-9.41,7.275-13.543,11.408C9.909,88.536,9.909,89.168,10.3,89.559z   M78.26,45.496c1.617-1.616,4.534-1.622,5.895-1.523c0.117,1.583-0.02,4.378-1.53,5.888c-1.614,1.615-4.522,1.622-5.889,1.523  C76.638,50.02,76.646,47.11,78.26,45.496z M74.493,32.9c-1.367,0.098-4.275,0.09-5.889-1.523c-1.617-1.617-1.622-4.533-1.523-5.895  c1.585-0.115,4.379,0.021,5.888,1.53C74.583,28.625,74.592,31.535,74.493,32.9z M74.293,46.94c-1.368,0.096-4.274,0.09-5.889-1.523  c-1.617-1.617-1.622-4.533-1.523-5.896c1.584-0.117,4.378,0.02,5.888,1.53C74.384,42.666,74.392,45.575,74.293,46.94z   M78.459,31.456c1.618-1.617,4.534-1.623,5.895-1.523c0.117,1.583-0.02,4.378-1.53,5.888c-1.614,1.615-4.521,1.623-5.889,1.523  C76.837,35.979,76.845,33.07,78.459,31.456z M72.438,17.454c0-2.287,2.058-4.352,3.091-5.245c1.202,1.036,3.082,3.109,3.082,5.245  c0,2.283-2.051,4.346-3.086,5.241C74.49,21.8,72.438,19.737,72.438,17.454z M52.307,45.273c1.955-1.954,5.497-1.911,7.03-1.788  c0.127,1.531,0.173,5.065-1.789,7.028c-1.955,1.954-5.497,1.913-7.03,1.788C50.39,50.77,50.344,47.236,52.307,45.273z   M45.329,29.258c0-2.763,2.533-5.237,3.706-6.234c1.172,0.997,3.706,3.471,3.706,6.234s-2.533,5.237-3.706,6.234  C47.862,34.496,45.329,32.021,45.329,29.258z M47.988,47.184c-1.536,0.124-5.075,0.166-7.029-1.788  c-1.954-1.954-1.912-5.494-1.788-7.028c1.535-0.124,5.075-0.166,7.029,1.788c1.461,1.461,1.806,3.807,1.835,5.54v0.096  C48.04,46.336,48.017,46.819,47.988,47.184z M25.598,39.699c1.234-1.234,3.439-1.292,4.596-1.223  c0.065,1.157,0.005,3.374-1.22,4.599c-1.235,1.235-3.44,1.293-4.599,1.223C24.307,43.143,24.363,40.935,25.598,39.699z   M25.764,28.062c1.234-1.234,3.439-1.292,4.596-1.223c0.065,1.157,0.005,3.374-1.22,4.599c-1.234,1.234-3.441,1.291-4.596,1.223  C24.479,31.504,24.539,29.288,25.764,28.062z M22.029,40.611c-1.157,0.062-3.374,0.005-4.599-1.22  c-1.234-1.234-1.291-3.44-1.223-4.596c1.155-0.066,3.373-0.006,4.599,1.22C22.041,37.25,22.097,39.455,22.029,40.611z   M20.824,16.337c0-1.747,1.522-3.348,2.387-4.116c0.865,0.769,2.387,2.369,2.387,4.116s-1.522,3.348-2.387,4.116  C22.346,19.685,20.824,18.084,20.824,16.337z M22.195,28.975c-1.158,0.065-3.374,0.005-4.599-1.22  c-1.234-1.234-1.291-3.44-1.223-4.596c1.154-0.067,3.373-0.006,4.599,1.22c1.045,1.045,1.243,2.781,1.239,3.992v0.165  C22.208,28.693,22.203,28.842,22.195,28.975z M38.941,54.534c1.537-0.122,5.076-0.165,7.029,1.788  c1.954,1.954,1.912,5.494,1.788,7.028c-1.533,0.126-5.075,0.167-7.029-1.788S38.817,56.068,38.941,54.534z M59.105,59.652  c0.124,1.534,0.166,5.075-1.788,7.029c-1.954,1.953-5.494,1.909-7.029,1.788c-0.124-1.534-0.166-5.075,1.788-7.029  C54.031,59.486,57.567,59.528,59.105,59.652z M52.76,58.59c-0.759,0.35-1.478,0.816-2.098,1.436  c-0.232,0.232-0.437,0.48-0.628,0.736V57.44C50.958,57.809,51.854,58.204,52.76,58.59z"/><path d="M42.687,89.852c0.186,0,0.374-0.051,0.541-0.16c16.738-10.791,34.237-15.767,45.97-18.041  c0.542-0.105,0.896-0.63,0.792-1.172c-0.105-0.542-0.63-0.895-1.172-0.792c-11.905,2.308-29.667,7.36-46.673,18.324  c-0.464,0.299-0.598,0.918-0.298,1.382C42.036,89.69,42.358,89.852,42.687,89.852z"/><path d="M89.978,79.043c-0.133-0.537-0.679-0.866-1.211-0.73c-9.521,2.354-18.616,5.624-27.032,9.717  c-0.497,0.242-0.703,0.84-0.462,1.337c0.173,0.356,0.529,0.562,0.9,0.562c0.147,0,0.296-0.032,0.437-0.101  c8.29-4.032,17.251-7.254,26.637-9.575C89.783,80.122,90.11,79.58,89.978,79.043z"/></svg>
