<svg xmlns="http://www.w3.org/2000/svg" data-name="Layer 2" viewBox="0 0 100 100" x="0px" y="0px"><title>alchemy</title><path d="M8.66,87.59,10.9,63.28a17.28,17.28,0,0,0,31.9,0L45,87.59l2-.18L44.16,56.16a.25.25,0,0,1,0-.07,1,1,0,0,1,0-.17H9.57a1.34,1.34,0,0,0,0,.2l0,0L6.66,87.41l1,.09ZM43.12,56.25Zm-32.5,0h0Z"/><path d="M87.54,47.54a5.06,5.06,0,0,0,3.14-8.81L88,36.31l-.57.17-1.21.36-.83.22-1,.26-.83.19-.92.18-.82.15L81,38l-.81.11-.66.07-.8.08-.51,0-1.42.06h-.85l-.73,0h-.08l8.77,7.93A5,5,0,0,0,87.54,47.54Z"/><path d="M86.27,34.75l-12-10.83-6.79,7.51,5,4.55C73.56,36.22,78.32,37.08,86.27,34.75Z"/><rect x="62.47" y="24.84" width="12.58" height="1.79" transform="translate(3.54 59.44) rotate(-47.85)"/><path d="M55.76,86.5H78.57a4.59,4.59,0,0,0,3.83-7.13l-5.69-8.54a19.6,19.6,0,0,1-1.15-2l-.42-.21-.5-.24-.52-.22-.48-.2-.47-.16-.47-.15-.44-.11-.45-.11-.39-.07L71,67.33l-.35,0c-.15,0-.29,0-.44,0h-.74l-.28,0-.42.05-.25,0-.42.08-.21.06-.42.13-.18.06c-.14,0-.29.1-.42.16L66.7,68l-.44.19-.07,0c-.72.35-1.39.76-2,1.15l-.42.26-.12.07-.35.21-.11.06c-.3.17-.6.33-.91.47l-.1,0-.38.16-.09,0a4.45,4.45,0,0,1-.94.23l-.13,0-.36,0h-.31l-.22,0-.17,0-.23,0-.16,0-.24-.07-.17-.07-.24-.1-.17-.09-.25-.14-.1-.06c-.11.18-.24.37-.36.57l-5.69,8.53a4.58,4.58,0,0,0,.58,5.79A4.52,4.52,0,0,0,55.76,86.5Z"/><path d="M60.88,52.07v8A19.35,19.35,0,0,1,59,68.5c1.25.86,2.22.34,4.16-.85,2.51-1.54,5.84-3.59,11.32-1.5a19.64,19.64,0,0,1-1-6.08v-8Z"/><polygon points="58.32 50.07 59.88 50.07 74.45 50.07 76.01 50.07 76.01 47.21 58.32 47.21 58.32 50.07"/><path d="M10.76,53.93H42.94a16.39,16.39,0,0,0-4.76-9,12.1,12.1,0,0,1-2.44-3.38l-.4-.07-.52-.05c-.22,0-.45,0-.67,0s-.33,0-.5,0l-.7,0-.49,0-.74.12-.46.08c-.26,0-.53.11-.79.18l-.42.1q-.43.1-.87.24l-.34.09-1,.32-.18.06-1.21.39-.7.23-.32.11-.42.13-.36.11-.39.12-.36.1-.43.12-.31.08-.68.16-.28.05-.44.08-.3,0-.41.05-.29,0-.42,0H20l-.29,0h-.31l-.3,0-.28,0a2.25,2.25,0,0,1-.35-.09l-.21,0a4.87,4.87,0,0,1-.53-.21L17.61,44l-.35-.19-.18-.14a2.4,2.4,0,0,1-.26-.18,12,12,0,0,1-1.25,1.41A16.16,16.16,0,0,0,10.76,53.93Z"/><path d="M19.19,18.58V36a12.62,12.62,0,0,1-1.31,5.66c1.49,1.48,4,.75,7.91-.53,2.86-.93,6-2,9.15-1.77a12.68,12.68,0,0,1-.44-3.3V18.58Zm3.89,13.33a1,1,0,0,1,0-2.08,1,1,0,0,1,0,2.08Zm7,4.31a.78.78,0,1,1,.78-.78A.78.78,0,0,1,30.11,36.22Zm.26-10.49a1,1,0,1,1,1.05-1A1,1,0,0,1,30.37,25.73Z"/><rect x="16.31" y="13.5" width="21.08" height="3.08"/></svg>
