<svg xmlns="http://www.w3.org/2000/svg" viewBox="0 0 28 36.25" x="0px" y="0px"><path d="M76.5,25.3205959 L76.5100021,25.3085849 C81.0384895,24.6654788 83.2137259,21.1976581 83.9708968,19.6478088 L81.0136759,18.8554238 L86.0453294,15.9503973 L88.9503559,20.9820508 L86.0228735,20.1976343 L85.9776244,20.3711032 C85.901403,20.663309 85.7423483,21.141171 85.4837061,21.744285 C85.0568444,22.739661 84.4965804,23.7343743 83.7833758,24.6668662 C81.7211902,27.3631072 78.8192816,29 75.0100021,29 L75.0050005,28.9999991 L75,29 C71.1907206,29 68.2888119,27.3631072 66.2266263,24.6668662 C65.5134217,23.7343743 64.9531577,22.739661 64.5262961,21.744285 C64.2676539,21.141171 64.1085991,20.663309 64.0323777,20.3711032 L63.9871286,20.1976343 L61.0596463,20.9820508 L63.9646727,15.9503973 L68.9963262,18.8554238 L66.0391053,19.6478088 C66.7962763,21.1976581 68.9715126,24.6654788 73.5,25.3085849 L73.5,14.5 L69.75,14.5 L69.75,12 L73.5,12 L73.5,8.97772319 C71.8929858,8.37141245 70.75,6.81918555 70.75,5 C70.75,2.65278981 72.6527898,0.75 75,0.75 C77.3472102,0.75 79.25,2.65278981 79.25,5 C79.25,6.81918555 78.1070142,8.37141245 76.5,8.97772319 L76.5,12 L80.25,12 L80.25,14.5 L76.5,14.5 L76.5,25.3205959 L76.5,25.3205959 Z M75,6.75 C75.9664983,6.75 76.75,5.96649831 76.75,5 C76.75,4.03350169 75.9664983,3.25 75,3.25 C74.0335017,3.25 73.25,4.03350169 73.25,5 C73.25,5.96649831 74.0335017,6.75 75,6.75 Z" transform="translate(-61)"/></svg>