<svg xmlns="http://www.w3.org/2000/svg" xmlns:xlink="http://www.w3.org/1999/xlink" viewBox="0 0 100 100" version="1.1" x="0px" y="0px"><title>cow</title><desc>Created with Sketch.</desc><g stroke="none" stroke-width="1" fill="none" fill-rule="evenodd"><g fill="#000000"><path d="M29.6455315,30.0854549 C29.0954295,30.0828326 28.537524,29.6514574 28.3967988,29.1119221 L27.4126008,25.338542 C27.2730468,24.8034969 27.0470981,24.8023754 26.9094791,25.3300981 L25.7221663,29.883042 C25.7221663,29.883042 24.5430946,30.2257373 23.7974075,30.6158036 C22.0493711,31.5301953 22.6976809,33.578948 25.237991,33.5789479 L27.2551969,44.8004124 C27.352262,45.3403736 27.8696798,45.7785833 28.4321513,45.7792047 L37.2787548,45.7889783 C37.8317037,45.7895892 38.3667951,45.3490832 38.4725712,44.8101166 C38.4725712,44.8101166 40.0024959,37.0694428 40.5814015,33.578948 C43.4928367,33.578948 43.387681,31.2165772 42.1331298,30.7733076 L39.9176924,29.9470342 L38.7041723,25.2355706 C38.5672542,24.7039895 38.3501884,24.7125835 38.2232237,25.2386815 L37.2780633,29.1551037 C37.1493608,29.6884029 36.593646,30.1185757 36.0489791,30.1159793 L29.6455315,30.0854549 Z"/><path d="M42.450395,35.9568086 L40.558711,46.1548355 C40.3570721,47.2418662 39.2973994,48.126707 38.1983891,48.1311562 L30.0946876,48.1639629 L33.4863304,60.7347728 C33.6314818,61.2727632 34.2056692,61.7148682 34.7532907,61.7220387 L43.7707621,61.8401123 C44.8744171,61.8545635 45.7691062,62.7662788 45.7691061,63.8617053 C45.7691061,63.8617053 45.7691056,71.0559948 45.7691059,73.7443314 C45.7691063,76.432668 49.3294461,76.43194 49.3294461,73.7443313 C49.3294461,71.0567227 49.3294466,62.2468788 49.3294466,62.2468788 C49.3294466,61.6967445 49.7364094,61.0854617 50.2600335,60.8730443 C50.2600335,60.8730443 58.1308173,57.6712551 60.8925152,56.6418352 C63.6542131,55.6124152 63.7067387,58.9100453 65.5715984,60.3913442 C67.4364582,61.8726432 70.781634,61.8367994 72.3232958,62.9347704 C73.4463272,63.734593 73.8637662,65.2268664 73.8637662,65.2268664 C73.8637662,65.2268664 75.1139368,72.0680807 75.4807775,74.1897538 C75.8476183,76.3114268 79.232365,76.0661235 78.973582,73.9504737 C78.714799,71.834824 77.7268223,58.0026609 77.7268223,58.0026609 C77.6869283,57.4476597 77.3719859,56.6505684 77.01855,56.2163754 L73.4254414,51.8022731 C73.0741674,51.3707361 72.7881779,50.5749684 72.786653,50.0201155 L72.7566906,39.1179438 C72.7521411,37.4625347 71.4074895,36.113313 69.746529,36.104336 L42.450395,35.9568086 Z"/><path d="M37.8210451,64.051104 L41.812029,64.051104 C41.812029,64.051104 38.6088222,72.3776771 37.7634596,74.5430058 C36.9180969,76.7083344 33.515365,75.7261831 34.4691028,73.0660091 C35.4228407,70.405835 37.8210451,64.051104 37.8210451,64.051104 Z"/><path d="M64.2705039,61.2150329 L66.7980075,64.1167962 C66.7980075,64.1167962 63.3594386,72.9473254 62.7015405,74.5726492 C61.7934786,76.8159975 58.324874,75.4728384 59.5307863,72.9231371 C60.828876,70.1785422 64.2705039,61.2150329 64.2705039,61.2150329 Z"/></g></g></svg>
