<svg xmlns="http://www.w3.org/2000/svg" xmlns:xlink="http://www.w3.org/1999/xlink" version="1.1" x="0px" y="0px" viewBox="0 0 100 100" style="enable-background:new 0 0 90 90;" xml:space="preserve"><g transform="translate(5)"><path d="M73.9,67.9H56.4c-0.8,0-1.6-0.5-1.9-1.2c0-0.1-1.6-3.1-7.1-3.1c-5.5,0-7,3-7.1,3.1c-0.3,0.7-1.1,1.2-1.9,1.2H21   c-1.1,0-2-0.9-2.1-2c0-0.6-0.1-5.9,3-9.1c1.5-1.5,3.4-2.3,5.7-2.3c0,0,0.1,0,0.1,0c0,0,2.5,0.1,4-1.4c0.8-0.8,1.2-1.9,1.2-3.4   c0-1.4-0.4-2.5-1.2-3.3c-1.5-1.5-4.2-1.7-5.1-1.7C6.6,44.8,1.2,31.6,1,31c-0.2-0.6-0.2-1.4,0.2-1.9c0.4-0.6,1-0.9,1.7-0.9h23.1   v-2.6c0-1.1,0.9-2.1,2.1-2.1h59.3c1.1,0,2.1,0.9,2.1,2.1v11c0,1.1-0.9,2.1-2.1,2.1h-4.9c-0.2,0-13-0.1-18.3,5.1   c-1.4,1.4-2.1,3.1-2.1,5.1l0,1c0,1.5,0.4,2.6,1.2,3.4c1.5,1.4,4,1.3,4,1.3c0,0,0.1,0,0.1,0c2.3,0,4.2,0.8,5.7,2.3   c3.1,3.2,3,8.5,3,9.1C76,67.1,75,67.9,73.9,67.9z M57.5,63.8h14.2c-0.2-1.4-0.7-3.1-1.7-4.1c-0.7-0.7-1.5-1-2.7-1   c-0.7,0-4.3,0-7-2.5c-1.7-1.6-2.5-3.7-2.5-6.4l0-1c0-3.1,1.1-5.8,3.4-8c6.5-6.4,20.6-6.3,21.2-6.3h2.8v-6.9H30.1v2.6   c0,1.1-0.9,2.1-2.1,2.1H6.5c2.5,3.3,8.3,8.3,19.9,8.3c0.7,0,5.1,0,8.1,2.8c1.6,1.6,2.5,3.7,2.5,6.3c0,2.7-0.8,4.8-2.5,6.4   c-2.6,2.5-6.3,2.5-7,2.5c-1.1,0-2,0.3-2.7,1.1c-1,1-1.5,2.7-1.7,4.1h14.2c1.2-1.6,4.2-4.3,10.1-4.3c0,0,0,0,0,0c0,0,0,0,0,0   C53.3,59.5,56.3,62.2,57.5,63.8z"/></g></svg>
