<svg xmlns="http://www.w3.org/2000/svg" data-name="Layer 2" viewBox="0 0 100 100" x="0px" y="0px"><title>GANE_ICON_100</title><path d="M50.08,24.86c6.93,0,14-2.31,14-6.73s-7-6.73-14-6.73-14,2.31-14,6.73S43.15,24.86,50.08,24.86Zm0-10.43c6.58,0,11,2.23,11,3.7s-4.37,3.7-11,3.7-11-2.23-11-3.7S43.5,14.43,50.08,14.43Z"/><path d="M70.75,9.58a11.47,11.47,0,0,0-8.48-3.84H37.88a11.47,11.47,0,0,0-8.48,3.84C15.28,10,6,24.29,6,33.77a1.51,1.51,0,0,0,1,1.41l19,7.5V54.44a13.64,13.64,0,0,0,.53,3.77c-5.61,4.42-14,14.5-14,35.28A1.51,1.51,0,0,0,14,95H37.63a1.5,1.5,0,0,0,1.07-.46,1.52,1.52,0,0,0,.43-1.09s0-.91.07-2.36l10.37,3.82a1.49,1.49,0,0,0,1,0L61,91.09c.09,1.45.07,2.35.07,2.36a1.52,1.52,0,0,0,.43,1.09,1.5,1.5,0,0,0,1.07.46H86.19a1.51,1.51,0,0,0,1.5-1.51c0-20.79-8.4-30.87-14-35.29a13.59,13.59,0,0,0,.53-3.76V42.85l19.67-7.67a1.51,1.51,0,0,0,1-1.41C94.83,24.18,84.76,10,70.75,9.58Zm.45,44.54v.32a10.49,10.49,0,0,1-.69,3.78,8.94,8.94,0,0,1-8.23,6.09H37.88a9,9,0,0,1-8.24-6.09A10.51,10.51,0,0,1,29,54.44v-.32l20.61,7.59a1.49,1.49,0,0,0,1,0ZM44.78,72.86l4.79,1.76a1.49,1.49,0,0,0,1,0l4.78-1.76a27.25,27.25,0,0,1,3,5.82l-8.31,3.06-8.31-3.05A27.17,27.17,0,0,1,44.78,72.86Zm5.3-1.28-3.31-1.21a18.51,18.51,0,0,1,3.31-2.76,18.4,18.4,0,0,1,3.3,2.76ZM71.2,50.9,50.08,58.68,29,50.9V44l20.61,7.59a1.49,1.49,0,0,0,1,0L71.2,44ZM50.08,48.53,29,40.76V33.83l20.61,7.59a1.49,1.49,0,0,0,1,0l20.6-7.58v6.92ZM62.27,8.77c4.92,0,8.93,4.42,8.93,9.86v12L50.08,38.39,29,30.61v-12a10.42,10.42,0,0,1,2.21-6.48,1.51,1.51,0,0,0,.2-.25,8.53,8.53,0,0,1,6.51-3.13ZM9,32.75C9.6,25,16.94,14.51,27.25,12.82A13.64,13.64,0,0,0,26,18.63v20.8ZM15.49,92c.39-18.11,7.78-27.09,12.2-30.86l0,.06c3.87,6.83,11.08,6.15,17.83,6.15A23,23,0,0,0,43,70.12a30.43,30.43,0,0,0-4.61,8.95v0a46.31,46.31,0,0,0-2,9.73c-.13,1.27-.19,2.35-.22,3.15Zm34.6-.1L39.49,88a43.65,43.65,0,0,1,1.31-6.43l8.77,3.22a1.49,1.49,0,0,0,1,0l8.76-3.23A43.77,43.77,0,0,1,60.67,88Zm34.6.1H64c0-.8-.09-1.87-.22-3.15a46.42,46.42,0,0,0-2-9.74l0,0a30.44,30.44,0,0,0-4.6-8.93,23.24,23.24,0,0,0-2.52-2.78c.48.45,3.8.05,4.59,0a25.84,25.84,0,0,0,5.37-.47,11.69,11.69,0,0,0,7.87-5.75l0,0C76.89,64.88,84.29,73.87,84.68,92ZM74.2,39.61V31.77s0,0,0-.07V18.63a13.63,13.63,0,0,0-1.3-5.81c10.5,1.68,18.24,12.29,18.89,19.94Z"/></svg>
