<svg xmlns:svg="http://www.w3.org/2000/svg" xmlns:inkscape="http://www.inkscape.org/namespaces/inkscape" xmlns:dc="http://purl.org/dc/elements/1.1/" xmlns:cc="http://creativecommons.org/ns#" xmlns:sodipodi="http://sodipodi.sourceforge.net/DTD/sodipodi-0.dtd" xmlns:rdf="http://www.w3.org/1999/02/22-rdf-syntax-ns#" xmlns="http://www.w3.org/2000/svg" xmlns:xlink="http://www.w3.org/1999/xlink" version="1.1" x="0px" y="0px" viewBox="0 0 540 540" enable-background="new 0 0 540 540" xml:space="preserve"><g><path d="M464.129,298.393l-25.643-46.888l-25.639,46.888l-46.891,25.643l46.891,25.643l25.639,46.889l25.643-46.889l46.89-25.643   L464.129,298.393z M453.076,338.625l-14.589,26.678L423.9,338.625l-26.681-14.59l26.681-14.59l14.587-26.677l14.589,26.677   l26.68,14.59L453.076,338.625z"/><path d="M351.273,129.436L331.83,93.88l-19.441,35.556l-35.555,19.444l35.555,19.443l19.441,35.556l19.443-35.556l35.557-19.443   L351.273,129.436z M340.221,157.271l-8.391,15.343l-8.389-15.343l-15.345-8.391l15.345-8.392l8.389-15.343l8.391,15.343   l15.345,8.392L340.221,157.271z"/><polygon points="417.3,208.245 438.248,208.244 438.248,229.192 453.248,229.192 453.248,208.242 474.198,208.241 474.197,193.241    453.248,193.242 453.248,172.294 438.248,172.294 438.248,193.244 417.299,193.245  "/><polygon points="192.008,148.878 207.008,148.878 207.008,124.005 231.879,124.005 231.879,109.005 207.008,109.005 207.008,84.13    192.008,84.13 192.008,109.005 167.133,109.005 167.133,124.005 192.008,124.005  "/><path d="M201.668,269.569c0,16.659,13.553,30.212,30.211,30.212c16.66,0,30.213-13.553,30.213-30.212s-13.553-30.213-30.213-30.213   C215.221,239.356,201.668,252.91,201.668,269.569z M247.092,269.569c0,8.388-6.824,15.212-15.213,15.212   c-8.388,0-15.211-6.824-15.211-15.212c0-8.389,6.823-15.213,15.211-15.213C240.268,254.356,247.092,261.181,247.092,269.569z"/><path d="M256.802,369.19c-37.968,0-73.662-14.785-100.508-41.632c-42.389-42.389-53.631-107.254-27.973-161.408l8.994-18.982   l-18.983,8.994c-16.261,7.704-31.004,18.107-43.818,30.921c-29.684,29.683-46.032,69.148-46.032,111.128   c0,41.979,16.348,81.444,46.032,111.128c29.683,29.684,69.149,46.031,111.129,46.031c41.979,0,81.445-16.348,111.129-46.032   c12.813-12.814,23.216-27.557,30.92-43.816l8.996-18.984l-18.984,8.995C298.844,364.467,277.785,369.19,256.802,369.19z    M286.164,398.731c-26.85,26.852-62.55,41.639-100.521,41.639c-37.973,0-73.672-14.787-100.522-41.639   c-26.851-26.85-41.639-62.549-41.639-100.521c0-37.973,14.788-73.672,41.639-100.521c6.7-6.699,13.979-12.669,21.769-17.86   c-17.345,55.216-2.917,116.62,38.799,158.336c29.679,29.679,69.141,46.024,111.114,46.024c15.979,0,31.998-2.479,47.239-7.253   C298.846,384.735,292.869,392.025,286.164,398.731z"/><path d="M82.482,298.211h-15c0,6.727,0.566,13.471,1.684,20.044l14.788-2.514C82.977,309.995,82.482,304.098,82.482,298.211z"/><path d="M88.199,332.25l-14.165,4.936c5.86,16.821,15.3,31.819,28.057,44.576c22.317,22.317,51.99,34.608,83.552,34.608v-15   c-27.555,0-53.46-10.73-72.945-30.216C101.552,360.01,93.31,346.92,88.199,332.25z"/></g></svg>
