<svg xmlns="http://www.w3.org/2000/svg" viewBox="0 0 100 125" x="0px" y="0px"><title>•SET16-v3</title><path d="M51.834,22.259a5.052,5.052,0,0,0-3.962,1.793,6.286,6.286,0,0,0-1.343,5.017L49.636,45A2.363,2.363,0,0,0,51.9,46.586a2.281,2.281,0,0,0,2.2-1.581l3.046-15.968a6.116,6.116,0,0,0-1.273-4.967A5.113,5.113,0,0,0,51.834,22.259Z"/><path d="M52.29,54.9a3.328,3.328,0,1,0,3.328,3.328A3.333,3.333,0,0,0,52.29,54.9Z"/><path d="M80.017,30.369C75.971,11.48,53.751,9.574,42.244,12.514A26.23,26.23,0,0,0,24.417,28.758a15.645,15.645,0,0,0-.86,7.763,15.56,15.56,0,0,1,.448,3.1c-.081,2.4-5.1,8.867-6.155,10.806-.722,1.323-.974,2.439-.353,3.527.705,1.234,3.03,1.606,4.277,2.64a4.348,4.348,0,0,1,1.333,2.5c.668,3.191.253,3.544.253,6.767,0,5.794,6.191,5,8.175,4.6,2.062-.475,6.589-.871,6.589,4.684,0,.715-.044,12.211-.044,12.211H70.856s-1.828-15.4,0-22.3C73.236,55.775,83.985,49.253,80.017,30.369ZM52.29,64.741A6.512,6.512,0,1,1,58.8,58.229,6.519,6.519,0,0,1,52.29,64.741Zm7.994-35.166-.006.039-3.1,16.216A5.44,5.44,0,0,1,51.9,49.77a5.559,5.559,0,0,1-5.344-3.939l-.034-.14L43.392,29.62a9.541,9.541,0,0,1,2.059-7.638,8.526,8.526,0,0,1,12.85.027A9.3,9.3,0,0,1,60.284,29.575Z"/></svg>
