<svg xmlns="http://www.w3.org/2000/svg" xmlns:xlink="http://www.w3.org/1999/xlink" xml:space="preserve" version="1.1" style="shape-rendering:geometricPrecision;text-rendering:geometricPrecision;image-rendering:optimizeQuality;" viewBox="0 0 22 22" x="0px" y="0px" fill-rule="evenodd" clip-rule="evenodd"><g transform="translate(1,2.5)"><path class="fil0" d="M10.893 7.993l-8.499 8.499c-0.179,0.178 -0.468,0.178 -0.646,0l-1.614 -1.615c-0.179,-0.178 -0.179,-0.467 0,-0.645l9.112 -9.113c-0.359,-0.443 -0.772,-0.887 -1.245,-1.331 -0.183,-0.172 -0.192,-0.461 -0.019,-0.644l0.02 -0.02 3.012 -2.991c0.177,-0.177 0.464,-0.177 0.641,-0.001l0.001 -0.001 1.296 1.282 0.856 -0.856c0.179,-0.178 0.468,-0.178 0.646,0l1.614 1.614c0.178,0.179 0.178,0.468 0,0.646l-0.667 0.667c0.23,0.148 0.471,0.29 0.722,0.424 0.862,0.461 1.845,0.817 2.909,0.922 0.376,0.037 0.414,0.36 0.429,0.655 0.097,1.842 -0.994,3.652 -2.503,5.038 -1.487,1.366 -3.398,2.333 -4.97,2.509 -0.091,0.011 -0.186,0.018 -0.283,0.023 -0.299,0.016 -0.528,-0.256 -0.47,-0.545 0.217,-1.354 0.208,-2.781 -0.249,-4.237 -0.029,-0.093 -0.06,-0.187 -0.093,-0.28zm2.707 -5.937c0.297,0.284 0.647,0.591 1.044,0.894l0.456 -0.456 -0.969 -0.968 -0.531 0.53zm-3.802 3.803l-8.696 8.696 0.969 0.968 8.44 -8.44c-0.197,-0.406 -0.433,-0.815 -0.713,-1.224zm1.537 -4.762l-2.371 2.355c1.523,1.519 2.421,3.049 2.892,4.55 0.44,1.4 0.505,2.768 0.357,4.076 1.324,-0.244 2.88,-1.079 4.128,-2.225 1.284,-1.18 2.226,-2.676 2.215,-4.165 -1.045,-0.157 -2.008,-0.522 -2.861,-0.977 -1.3,-0.694 -2.343,-1.598 -3.028,-2.297l-1.332 -1.317z"/></g></svg>
