<svg version="1.0" xmlns="http://www.w3.org/2000/svg"
 width="512.000000pt" height="512.000000pt" viewBox="0 0 512.000000 512.000000"
 preserveAspectRatio="xMidYMid meet">
<g transform="translate(0.000000,512.000000) scale(0.100000,-0.100000)"
fill="#000000" stroke="none">
<path d="M4045 5098 c-22 -11 -53 -32 -69 -46 -17 -17 -97 -164 -201 -372
l-173 -345 -161 -160 c-143 -142 -161 -163 -161 -193 0 -23 10 -43 35 -70 l34
-37 -429 -430 c-443 -443 -446 -447 -419 -497 9 -18 5 -27 -37 -69 -27 -27
-53 -49 -59 -49 -5 0 -90 80 -188 178 l-178 178 12 50 c10 42 9 60 -6 110 -16
59 -20 62 -513 557 -355 356 -511 505 -544 523 -99 51 -221 23 -283 -65 -24
-34 -30 -54 -33 -110 -3 -57 0 -75 21 -117 19 -36 156 -179 524 -546 495 -493
498 -497 557 -513 50 -15 68 -16 110 -6 l50 12 156 -156 155 -155 -1123 -1123
c-875 -876 -1122 -1128 -1122 -1147 0 -35 465 -500 500 -500 19 0 271 247
1147 1122 l1123 1123 788 -788 c750 -750 789 -787 823 -787 45 0 69 25 69 71
0 31 -52 86 -787 821 l-788 788 499 499 500 500 38 -35 c70 -62 80 -58 263
127 l160 161 345 173 c209 105 355 184 371 201 38 41 69 111 69 155 0 78 -33
118 -458 541 -291 290 -420 412 -451 427 -55 26 -113 25 -166 -1z m-2633
-1286 c452 -452 498 -500 498 -530 0 -42 -30 -72 -72 -72 -30 0 -78 46 -530
498 -540 539 -527 524 -473 577 53 54 38 67 577 -473z m2198 -207 l155 -155
-50 -50 -50 -50 -157 157 -158 158 47 47 c26 27 50 48 53 48 3 0 75 -70 160
-155z m-210 -210 l155 -155 -53 -52 -52 -53 -157 157 -158 158 50 50 c27 27
52 50 55 50 3 0 75 -70 160 -155z m-2530 -2530 l155 -155 -50 -50 -50 -50
-157 157 -158 158 47 47 c26 27 50 48 53 48 3 0 75 -70 160 -155z m-210 -210
l155 -155 -53 -52 -52 -53 -157 157 -158 158 50 50 c27 27 52 50 55 50 3 0 75
-70 160 -155z m-210 -210 l155 -155 -53 -52 -52 -53 -157 157 -158 158 50 50
c27 27 52 50 55 50 3 0 75 -70 160 -155z"/>
</g>
</svg>
