<svg height='100px' width='100px'  fill="#000000" xmlns="http://www.w3.org/2000/svg" xmlns:xlink="http://www.w3.org/1999/xlink" version="1.1" x="0px" y="0px" viewBox="0 0 100 100" enable-background="new 0 0 100 100" xml:space="preserve"><path d="M88.914,20c-0.804-3-4.389-4.678-7.318-4.832c-0.078-0.005-1.938-0.17-4.772-0.17C67.328,14.998,56.452,17,52.398,20H50  h-2.398c-4.054-3-14.951-5.002-24.446-5.002c-2.835,0-4.716,0.166-4.794,0.17C15.432,15.322,11.89,17,11.086,20c0,0-2.086,0-2.086,2  s0,55,0,57c0,3,3,3,3,3h30.803c0,0-0.011,0.022-0.011,0.044c0,2.062,3.209,3.721,7.208,3.778c3.999-0.058,7.208-1.717,7.208-3.778  c0-0.021-0.011-0.044-0.011-0.044H88c0,0,3,0,3-3c0-2,0-55,0-57S88.914,20,88.914,20z M47,79c-3-2.423-10.054-5.257-28.725-5.257  c-2.255,0-3.872-1.604-4.31-3.732c-0.054-0.308-0.104-46.521-0.051-46.835c0.442-2.173,2.166-3.895,4.441-4.014  c0.012-0.001,1.789-0.099,4.594-0.099c15.188,0,24.05,2.596,24.05,6.942V79z M86.034,70.011c-0.438,2.128-2.055,3.732-4.31,3.732  C63.054,73.743,56,76.577,53,79V26.004c0-4.347,8.862-6.942,24.05-6.942c2.805,0,4.582,0.098,4.594,0.099  c2.275,0.12,3.999,1.841,4.441,4.014C86.139,23.489,86.088,69.703,86.034,70.011z"></path><path d="M58,36.521c4.182-1.241,12.546-1.919,23-1.919V30c-8.363,0-15.682,0.627-23,2.101V36.521z"></path><path d="M58,51.224c4.182-1.242,12.546-1.92,23-1.92v-4.601c-8.363,0-15.682,0.626-23,2.101V51.224z"></path><path d="M58,65.925c4.182-1.24,12.546-1.92,23-1.92v-4.6c-8.363,0-15.682,0.626-23,2.101V65.925z"></path><path d="M19,34.602c10.454,0,18.818,0.679,23,1.919v-4.42C34.682,30.627,27.363,30,19,30V34.602z"></path><path d="M19,49.304c10.454,0,18.818,0.678,23,1.92v-4.42c-7.318-1.475-14.637-2.101-23-2.101V49.304z"></path><path d="M19,64.005c10.454,0,18.818,0.68,23,1.92v-4.419c-7.318-1.475-14.637-2.101-23-2.101V64.005z"></path></svg>