<svg xmlns="http://www.w3.org/2000/svg" xmlns:xlink="http://www.w3.org/1999/xlink" version="1.1" x="0px" y="0px" viewBox="0 0 100 100" style="enable-background:new 0 0 100 100;" xml:space="preserve"><path d="M54.00195,50.26465c0-2.51758-2.04102-4.56543-4.5498-4.56543s-4.5498,2.04785-4.5498,4.56543  s2.04102,4.56641,4.5498,4.56641S54.00195,52.78223,54.00195,50.26465z M46.90234,50.26465  c0-1.41504,1.14355-2.56543,2.5498-2.56543s2.5498,1.15039,2.5498,2.56543s-1.14355,2.56641-2.5498,2.56641  S46.90234,51.67969,46.90234,50.26465z"/><path d="M55.09961,59.05762c-3.21777,0-5.83594,2.62793-5.83594,5.85742s2.61816,5.85742,5.83594,5.85742  s5.83594-2.62793,5.83594-5.85742S58.31738,59.05762,55.09961,59.05762z M55.09961,68.77246  c-2.11523,0-3.83594-1.73047-3.83594-3.85742s1.7207-3.85742,3.83594-3.85742s3.83594,1.73047,3.83594,3.85742  S57.21484,68.77246,55.09961,68.77246z"/><path d="M68.88184,53.33594c-2.80859,0-5.09375,2.29297-5.09375,5.1123s2.28516,5.1123,5.09375,5.1123  c2.80957,0,5.09473-2.29297,5.09473-5.1123S71.69141,53.33594,68.88184,53.33594z M68.88184,61.56055  c-1.70605,0-3.09375-1.39648-3.09375-3.1123s1.3877-3.1123,3.09375-3.1123s3.09473,1.39648,3.09473,3.1123  S70.58789,61.56055,68.88184,61.56055z"/><path d="M21.46582,57.00293c2.72168,0,4.93652-2.22168,4.93652-4.95312s-2.21484-4.95312-4.93652-4.95312  s-4.93555,2.22168-4.93555,4.95312S18.74414,57.00293,21.46582,57.00293z M21.46582,49.09668  c1.61914,0,2.93652,1.3252,2.93652,2.95312s-1.31738,2.95312-2.93652,2.95312s-2.93555-1.3252-2.93555-2.95312  S19.84668,49.09668,21.46582,49.09668z"/><path d="M23.07617,73.76172c-2.88672,0-5.23535,2.35742-5.23535,5.25488s2.34863,5.25391,5.23535,5.25391  s5.23535-2.35645,5.23535-5.25391S25.96289,73.76172,23.07617,73.76172z M23.07617,82.27051  c-1.78418,0-3.23535-1.45996-3.23535-3.25391c0-1.79492,1.45117-3.25488,3.23535-3.25488s3.23535,1.45996,3.23535,3.25488  C26.31152,80.81055,24.86035,82.27051,23.07617,82.27051z"/><path d="M28.9375,59.82324c-3.05469,0-5.54004,2.49414-5.54004,5.55957s2.48535,5.55957,5.54004,5.55957  s5.53906-2.49414,5.53906-5.55957S31.99219,59.82324,28.9375,59.82324z M28.9375,68.94238  c-1.95215,0-3.54004-1.59668-3.54004-3.55957s1.58789-3.55957,3.54004-3.55957c1.95117,0,3.53906,1.59668,3.53906,3.55957  S30.88867,68.94238,28.9375,68.94238z"/><path d="M82.62207,34.33398h-3.65332v-7.323c1.08405-0.22473,2.06854-0.80798,2.79004-1.68188  c0.94141-1.13965,1.31738-2.63965,1.03418-4.11426c-0.33105-1.71582-1.62891-3.1748-3.30762-3.71484  c-0.49902-0.16016-1.00879-0.24023-1.5166-0.24023c-0.00098,0-0.00098,0-0.00098,0c0.09277-0.85254,0.01758-1.7168-0.22852-2.55859  c-0.68359-2.3418-2.65332-4.14062-5.01758-4.58301c-2.65137-0.49707-5.23926,0.62695-6.67969,2.7793  c-1.26367-0.65527-2.79883-0.78613-4.16504-0.33691c-1.08398-1.40723-2.68848-2.33105-4.43555-2.52051  c-2.47168-0.26855-4.81445,0.85547-6.1543,2.85742c-1.50977-0.78223-3.39258-0.79688-4.90723-0.03223  c-1.13184-1.21191-2.70996-1.94922-4.37891-2.01172c-1.68262-0.0625-3.30176,0.53711-4.54004,1.68848  c-1.18848,1.10547-1.89648,2.5918-2.00781,4.20215c-1.97168,0.78223-3.34082,2.67578-3.42188,4.84473  c-0.05859,1.54102,0.44922,2.95117,1.43066,3.9707c0.76538,0.79443,1.75958,1.28662,2.9043,1.46948v2.98755h-25.4082  c-0.27734,0-0.54199,0.11523-0.73047,0.31738c-0.18945,0.20215-0.28613,0.47363-0.26758,0.75l2.58008,38.0127  c0.19727,3.15527,0.05859,6.33203-0.40137,9.37891l-1.51953,6.9834c-0.1875,1.23535,0.15723,2.50293,0.92188,3.3916  C12.17773,89.5918,13.03223,90,13.94629,90h24.77832c0.91211,0,1.76465-0.40625,2.40137-1.14453  c0.76367-0.88477,1.11133-2.14941,0.91797-3.43945l-0.37079-1.77344h37.33856c1.24316,0,2.25391-1.01074,2.25391-2.25391v-4.20508  c0-1.24316-1.01074-2.25391-2.25391-2.25391h-0.04297v-7.85254h3.65332C86.69043,67.07715,90,63.63672,90,59.4082V42.00293  C90,37.77441,86.69043,34.33398,82.62207,34.33398z M78.96875,41.63574h2.6582c0.73145,0,1.32617,0.59766,1.32617,1.33203v15.31055  c0,1.1084-0.89746,2.00977-2.00098,2.00977h-1.9834V41.63574z M34.0293,21.66406c0.05762-1.54199,1.14551-2.86328,2.64453-3.21289  c0.47266-0.10938,0.79883-0.54297,0.77148-1.02832c-0.00684-0.12891-0.01074-0.25879-0.00488-0.39551  c0.04395-1.15918,0.53418-2.23242,1.38281-3.02051c0.80566-0.75,1.84375-1.1582,2.9375-1.1582  c0.05469,0,0.11035,0.00098,0.16504,0.00293c1.37793,0.05273,2.61816,0.74121,3.40234,1.89062  c0.1543,0.22559,0.39355,0.37891,0.66309,0.42285c0.26465,0.04395,0.54492-0.02246,0.76367-0.18652  c1.24609-0.93848,3.05859-0.88086,4.24219,0.11523c0.24121,0.20215,0.56641,0.28027,0.87109,0.20801  c0.30664-0.07129,0.5625-0.28418,0.68848-0.57324c0.80176-1.83203,2.69238-2.91504,4.66797-2.7002  c1.40625,0.15234,2.68262,1.00195,3.41504,2.27148c0.26855,0.46582,0.85938,0.63672,1.33398,0.38477  c1.20312-0.63574,2.73535-0.46777,3.77832,0.40918c0.24121,0.20215,0.56543,0.28027,0.87109,0.20801  c0.30762-0.07129,0.5625-0.28418,0.68848-0.57324c0.85449-1.9541,2.92773-3.04199,5.04199-2.64453  c1.63086,0.30469,2.99121,1.55273,3.46582,3.17773c0.28223,0.96777,0.24902,1.93652-0.10059,2.88086  c-0.13379,0.36426-0.0459,0.77441,0.22754,1.0498c0.27344,0.27637,0.68457,0.36719,1.04785,0.23828  c0.61621-0.2207,1.24805-0.23047,1.87793-0.02637c0.99414,0.31934,1.76172,1.17871,1.95605,2.18945  c0.17383,0.89941-0.04395,1.77344-0.6123,2.46191c-0.55664,0.6748-1.37598,1.06152-2.24707,1.06152H72.8418  c-1.74414,0-3.16309,1.42188-3.16309,3.16895v8.9248c0,1.79883-1.45703,3.26172-3.24805,3.26172  c-1.79004,0-3.24707-1.46289-3.24707-3.26172v-8.9248c0-1.74707-1.41895-3.16895-3.16309-3.16895h-22.6543  c-1.0166,0-1.86816-0.32715-2.46289-0.94531C34.30176,23.54785,33.99219,22.65723,34.0293,21.66406z M38.36621,27.11719h21.6543  c0.6416,0,1.16309,0.52441,1.16309,1.16895v8.9248c0,2.90137,2.35352,5.26172,5.24707,5.26172s5.24805-2.36035,5.24805-5.26172  v-8.9248c0-0.64453,0.52148-1.16895,1.16309-1.16895h4.12695v19.23633c-8.61047-0.03198-12.84839-1.76221-17.32617-3.59668  c-4.35876-1.7854-8.87524-3.6239-17.48712-3.73706l0.54376-7.93481c0.01855-0.27637-0.07812-0.54883-0.26758-0.75098  c-0.18848-0.20215-0.45312-0.31738-0.73047-0.31738h-3.33496V27.11719z M40.62988,32.0166l-0.93884,13.70264  c-3.87793-0.67529-6.61621-1.78516-9.48889-2.9624c-4.39526-1.7998-8.948-3.6543-17.69873-3.73999l-0.4751-7.00024H40.62988z   M39.61133,87.54883C39.43457,87.75488,39.13574,88,38.72461,88H13.94629c-0.41309,0-0.71094-0.24609-0.88867-0.45312  c-0.38965-0.45312-0.5625-1.12109-0.47266-1.72461l1.51953-6.98438c0.49316-3.25,0.63867-6.56934,0.43164-9.87109l-1.89685-27.94849  c8.2569,0.09924,12.41962,1.79346,16.80408,3.59009c2.89679,1.18579,5.90143,2.40527,10.11029,3.11609l-1.43158,20.89368  c-0.20508,3.25488-0.06836,6.5332,0.41797,9.80176l1.53613,7.34668C40.1748,86.43164,40.00098,87.09766,39.61133,87.54883z   M79.26562,77.18359v4.20508c0,0.13965-0.11426,0.25391-0.25391,0.25391H41.25494l-0.74713-3.57324  c-0.05597-0.37817-0.09186-0.75977-0.13806-1.13965h38.64197C79.15137,76.92969,79.26562,77.04395,79.26562,77.18359z   M40.17126,74.92969c-0.1557-2.05469-0.18298-4.12256-0.0531-6.17969l1.90039-27.73242  c8.29828,0.09131,12.46979,1.78967,16.86621,3.59082c4.45935,1.82654,9.07648,3.71179,18.08398,3.74487v26.57642H40.17126z   M88,59.4082c0,3.12598-2.41211,5.66895-5.37793,5.66895h-3.65332v-2.78906h1.9834c2.20605,0,4.00098-1.79883,4.00098-4.00977  V42.96777c0-1.83691-1.49219-3.33203-3.32617-3.33203h-2.6582v-3.30176h3.65332c2.96582,0,5.37793,2.54297,5.37793,5.66895V59.4082z  "/></svg>
