<svg xmlns="http://www.w3.org/2000/svg" xmlns:xlink="http://www.w3.org/1999/xlink" version="1.1" x="0px" y="0px" viewBox="0 0 33 41.25" enable-background="new 0 0 33 33" xml:space="preserve"><path d="M13.258,13.421c0.349-0.127,0.764-0.23,1.216-0.324c-1.275-0.322-2.362-0.799-2.729-1.691  c-0.413-1.004,0.127-1.633,0.817-1.803c1.03-0.252,2.156-0.381,2.028-1.215c-0.108-0.693-1.343-1.048-2.396-0.814  c-1.206,0.268-2.62,1.231-2.439,3.304c0.142,1.619,1.046,2.513,2.36,3.085C12.508,13.72,12.919,13.544,13.258,13.421z"/><path d="M20.806,7.573c-1.053-0.233-2.289,0.121-2.396,0.814c-0.128,0.834,0.998,0.963,2.028,1.215  c0.69,0.17,1.23,0.799,0.817,1.803c-0.82,1.997-5.245,1.916-7.335,2.678c-0.972,0.354-2.549,1.123-2.55,2.748  c0,1.236,0.714,2.063,1.625,2.621c0.505-0.369,1.147-0.625,1.855-0.803c0.007-0.002,0.018-0.004,0.025-0.006  c-0.868-0.334-1.618-0.838-1.702-1.635c-0.086-0.818,0.678-1.471,2.278-1.782c3.796-0.739,7.495-0.927,7.794-4.35  C23.426,8.805,22.012,7.841,20.806,7.573z"/><path d="M17.973,21.106c0.437,0.238,0.789,0.572,0.807,1.043c0.038,0.963-0.777,1.358-1.606,1.588  c-1.403,0.388-3.174,0.92-3.552,2.222c-0.396,1.36,1.113,1.845,1.325,1.907c0.213,0.06,0.341,0.061,0.383,0.001  c0.1-0.124-0.346-0.477-0.608-0.906c-0.262-0.429-0.194-1.349,1.858-1.821c1.641-0.379,3.998-1.07,3.862-3.074  c-0.042-0.621-0.268-1.119-0.622-1.521C19.172,20.817,18.507,20.991,17.973,21.106z"/><path d="M20.674,14.944c-0.685,0.211-1.441,0.371-2.237,0.52c0.992,0.354,1.459,0.896,1.391,1.545  c-0.18,1.703-3.388,2.07-4.316,2.303c-1.584,0.396-2.847,1.188-2.953,2.754c-0.067,0.988,0.474,1.656,1.234,2.125  c0.387-0.287,0.863-0.511,1.362-0.693c-0.545-0.256-0.962-0.654-0.934-1.348c0.037-0.92,1.346-1.319,2.075-1.506  c0.678-0.165,5.337-0.656,5.335-3.813C21.63,15.995,21.211,15.388,20.674,14.944z"/><path d="M19.006,25.278c-0.402,0.159-0.821,0.285-1.222,0.39c0.697,0.458,0.676,0.994,0.494,1.293  c-0.262,0.43-0.709,0.782-0.608,0.906c0.042,0.06,0.17,0.059,0.383-0.001c0.211-0.063,1.72-0.547,1.325-1.907  C19.304,25.704,19.175,25.479,19.006,25.278z"/><path d="M17.165,18.091v-2.397c-0.349,0.063-0.7,0.126-1.053,0.194c-0.095,0.02-0.187,0.039-0.277,0.061v2.495  C16.246,18.356,16.711,18.243,17.165,18.091z"/><path d="M16.512,23.075c0.225-0.063,0.447-0.137,0.653-0.231v-1.581c-0.087,0.016-0.159,0.03-0.208,0.042  c-0.315,0.081-0.739,0.202-1.122,0.388v1.578C16.065,23.2,16.293,23.136,16.512,23.075z"/><path d="M15.835,26.356v1.842c0,0.367,0.298,0.666,0.665,0.666s0.665-0.299,0.665-0.666v-2.377  C16.556,25.968,16.127,26.155,15.835,26.356z"/><path d="M18.436,6.071c0-1.068-0.867-1.936-1.936-1.936s-1.936,0.867-1.936,1.936c0,0.836,0.53,1.545,1.271,1.816v4.957  c0.441-0.077,0.891-0.156,1.33-0.248V7.888C17.906,7.616,18.436,6.907,18.436,6.071z"/><path d="M10.14,17.006c-0.029-0.81,0.248-1.735,0.709-2.233c-1.289-0.857-2.141-1.943-2.305-3.822  C8.473,10.129,8.568,9.425,8.78,8.825c0.314-0.889,0.546-1.082,0.092-1.109C8.417,7.688,7.17,8.084,5.947,8.745  c-5.609,3.03-6.359,6.15-4.613,6.119c0.821-0.015,1.896,0.004,2.56,0c-0.593,0.629-2.295,2.333,0.602,2.281h2.56  c-0.593,0.63-2.295,2.332,0.602,2.281h3.654C10.664,18.908,10.181,18.149,10.14,17.006z"/><path d="M22.86,17.006c0.029-0.81-0.248-1.735-0.709-2.233c1.289-0.857,2.141-1.943,2.305-3.822  c0.072-0.821-0.023-1.525-0.235-2.125c-0.314-0.889-0.546-1.082-0.092-1.109c0.455-0.028,1.702,0.368,2.925,1.029  c5.609,3.03,6.359,6.15,4.613,6.119c-0.821-0.015-1.896,0.004-2.56,0c0.593,0.629,2.295,2.333-0.602,2.281h-2.56  c0.593,0.63,2.295,2.332-0.602,2.281h-3.654C22.336,18.908,22.819,18.149,22.86,17.006z"/></svg>