<svg xmlns="http://www.w3.org/2000/svg" data-name="Warstwa 1" viewBox="0 0 24 30" x="0px" y="0px"><path d="M14.24,9.13a3.36,3.36,0,0,0,1.12-2.49c0-1.3-1.79-5.27-2.68-5.61a.55.55,0,0,0-.51.08c-.28.21-.25.54-.2,1.05a2.47,2.47,0,0,1,0,.34c0,1.34-.87,1.81-1.79,2.31-.74.4-1.57.86-1.57,1.83A3.36,3.36,0,0,0,9.76,9.13,2.48,2.48,0,0,0,8,11.5v11a.5.5,0,0,0,.5.5h7a.5.5,0,0,0,.5-.5v-11A2.48,2.48,0,0,0,14.24,9.13ZM9.64,6.64c0-.34.32-.55,1-.95A3.57,3.57,0,0,0,13,3a11.33,11.33,0,0,1,1.39,3.69,2.36,2.36,0,1,1-4.72,0ZM15,22H9V11.5A1.5,1.5,0,0,1,10.5,10h3A1.5,1.5,0,0,1,15,11.5Z"/></svg>
