<svg xmlns="http://www.w3.org/2000/svg" data-name="Слой 1" viewBox="0 0 100 100" x="0px" y="0px"><title>кепка</title><g><path d="M91.04468,43.70007a33.45929,33.45929,0,0,0-4.19977-8.20056c-2.18726-2.83032-5.52252-4.74969-9.02271-6.2077-3.99585-1.66461-7.83966-3.71106-12.43469-3.65192-1.7887.023-3.62054-.80658-5.4541-1.07214a21.86734,21.86734,0,0,0-9.55084.6297,2.47424,2.47424,0,0,1-1.08978.049,9.25374,9.25374,0,0,0-5.26929.44073c-0.612.25781-1.0376,0.86469-1.658,1.08789-1.87152.67346-3.78333,1.26941-5.70355,1.8371C29.50336,30.72833,22.69458,33.41144,16.98291,37.86c-3.077,2.39655-6.05048,4.937-7.31189,8.5752-1.44312,4.1626-1.90283,8.3147,2.62146,11.71149-1.05035,1.451-2.066,2.78394-2.99976,4.16351-1.31628,1.94458-.20459,5.81158,2.04346,7.03845a2.98782,2.98782,0,0,0,1.63788.26129c2.3504-.26575,4.68237-0.935,7.02753-0.84534a50.996,50.996,0,0,1,10.061,1.30463A66.94862,66.94862,0,0,1,39.80023,73.528,20.65841,20.65841,0,0,0,53.8006,74.635c3.07538-.8916,5.98663-2.19043,8.95947-3.33008a32.16988,32.16988,0,0,1,8.261-2.47784A22.19806,22.19806,0,0,0,75.48938,67.406a1.85332,1.85332,0,0,1,.7345-0.19495,6.96571,6.96571,0,0,0,5.789-1.46338,35.46929,35.46929,0,0,0,4.99628-5.37262c2.53571-3.55072,3.5462-7.737,4.54456-11.84955A8.38282,8.38282,0,0,0,91.04468,43.70007ZM48.6814,26.3313c-0.23193,1.40472-1.19781,1.57678-3.49915.60809C46.47357,26.715,47.54736,26.52838,48.6814,26.3313Zm-6.30914,2.92017a2.42183,2.42183,0,0,1,3.866,1.45679c0.55383,2.92657-.19464,5.66644-1.17743,8.33173-0.79913,2.16711-2.03564,4.19525-2.704,6.39374-0.75946,2.49811-.97784,5.15027-1.66418,7.67377-0.62311,2.2915.43347,4.41754,0.76208,6.61487,0.12683,0.848.34747,1.68878,0.60187,2.89545-2.85315-.20441-5.37909-0.27277-7.8797-0.59338-3.02991-.38855-6.03217-1.04065-9.058-1.48511-2.78259-.40869-5.61084-3.35138-5.04413-6.1972a17.63567,17.63567,0,0,1,4.55023-8.40356c3.59851-4.01208,7.44781-7.84558,11.3587-11.61188A64.55817,64.55817,0,0,1,42.37225,29.25146ZM11.9917,56.02936a6.90567,6.90567,0,0,1-1.8988-6.24579c0.60388-4.41736,3.19086-7.82452,6.92108-10.50226A68.80773,68.80773,0,0,1,34.74677,30.537c1.56488-.54395,3.12177-1.10461,4.68231-1.65765L39.66,29.17468c-2.12518,1.94061-4.16882,3.96063-6.3913,5.80652-5.88043,4.88385-10.81976,10.40643-14.06281,17.09308a6.08,6.08,0,0,0-.06921,6.05865C16.0589,59.1626,13.84058,57.75275,11.9917,56.02936Zm38.22876,18.0191a14.54044,14.54044,0,0,1-7.02515-.6944c-3.89807-1.55548-7.80756-3.10516-11.79132-4.43719a22.61466,22.61466,0,0,0-5.11-.68909c-4.11243-.36627-8.22748-0.68341-12.3418-1.01013C11.91284,67.05573,9.658,65.34753,9.9613,63.9693a6.84585,6.84585,0,0,1,3.93256-4.83051c0.69043-.31812,1.97083.39038,2.99225,0.54932,1.07526,0.1673,2.16437.22748,3.2453,0.35773a3.50815,3.50815,0,0,1,1.23193.26392,23.55475,23.55475,0,0,0,11.17041,2.73639c2.46234,0.04669,4.93561.45251,7.40051,0.52679,3.88171,0.117,7.35553,1.6936,10.86725,2.95764a64.478,64.478,0,0,0,12.40759,3.16736A34.32688,34.32688,0,0,1,50.22046,74.04846ZM75.03,64.531c-1.01715,2.68842-3.83508,3.54205-6.754,3.49786-3.45917-.05243-6.93677-0.50275-10.40314-0.83453a31.9511,31.9511,0,0,1-9.826-2.99158c-1.30573-.57629-2.657-1.06085-3.96222-1.63824a1.53286,1.53286,0,0,1-.83728-0.74969,30.902,30.902,0,0,1-1.252-6.62347,4.30555,4.30555,0,0,1,.55878-3.91022c0.99689-2.39581,2.09308-4.75989,2.93011-7.207a56.61307,56.61307,0,0,0,2.2865-8.248,35.211,35.211,0,0,0,.07788-6.14917c-0.00037-.9527,2.0769-1.95514,3.20728-1.56085a63.3034,63.3034,0,0,1,15.90656,8.53638,14.54393,14.54393,0,0,1,5.09363,5.89624A60.40494,60.40494,0,0,1,76.07574,53.6178,18.83379,18.83379,0,0,1,75.03,64.531Zm11.28613-6.0957a49.47917,49.47917,0,0,1-3.04205,4.6449,13.36951,13.36951,0,0,1-2.748,2.24567,2.67947,2.67947,0,0,1-3.25476.11243c0.13245-3.24792.71576-6.3985,0.27917-9.47858C76.907,51.42,77.08209,46.69366,74.09064,42.47754A32.85067,32.85067,0,0,0,62.8407,32.43719a69.94658,69.94658,0,0,0-10.9931-5.20441,2.99566,2.99566,0,0,1-.62054-0.34027c-0.15088-.09619-0.28149-0.21948-0.65875-0.52008a6.8524,6.8524,0,0,1,1.48047-.51611,35.25527,35.25527,0,0,1,11.26965.80347c2.67139,0.63367,5.38849,1.07184,8.06781,1.6756a30.71423,30.71423,0,0,1,11.91833,5.67932,12.16754,12.16754,0,0,1,4.76855,7.21289c0.00665,0.03162-.0022.0661,0.00177,0.09808,0.01178,0.04272.01215,0.08789,0.02264,0.131a4.22592,4.22592,0,0,1,.36493,1.378l0.06213-.04889c0.15668,0.71765.29706,1.32574,0.42151,1.93573A18.20049,18.20049,0,0,1,86.31616,58.4353Z"/><path d="M12.32367,58.1759c0.01324,0.01837.01276,0.03687,0,0h0Z"/></g></svg>
