<svg xmlns="http://www.w3.org/2000/svg" xmlns:xlink="http://www.w3.org/1999/xlink" version="1.1" x="0px" y="0px" viewBox="0 0 100 100" style="enable-background:new 0 0 100 100;" xml:space="preserve"><style type="text/css">
	.st0{fill:none;stroke:#000000;stroke-width:2;stroke-linecap:round;stroke-linejoin:round;stroke-miterlimit:10;}
	.st1{fill:none;stroke:#000000;stroke-width:2;stroke-miterlimit:10;}
</style><path d="M23.666,58.254c0,8.811,4.33,16.919,11.619,21.833l-2.092,8.834c-0.07,0.298-0.001,0.611,0.189,0.851  c0.189,0.24,0.479,0.38,0.784,0.38h31.667c0.306,0,0.595-0.14,0.784-0.38c0.19-0.239,0.259-0.553,0.189-0.851l-2.092-8.834  c7.29-4.915,11.619-13.023,11.619-21.833c0-9.514-5.09-18.22-13.337-22.903c0.157-0.82,0.236-1.635,0.236-2.431  c0-2.353-0.631-4.657-1.829-6.692l1.888-7.492c2.521-0.385,4.459-2.566,4.459-5.193v-2.391c0-0.553-0.448-1-1-1h-33.5  c-0.552,0-1,0.447-1,1v2.391c0,2.511,1.778,4.598,4.138,5.114c0.075,0.034,0.159,0.045,0.242,0.06  c0.027,0.005,0.052,0.016,0.08,0.02l1.888,7.492c-1.198,2.035-1.829,4.34-1.829,6.692c0,0.796,0.079,1.61,0.236,2.431  C28.756,40.034,23.666,48.74,23.666,58.254z M35.431,88.151l1.732-7.312h25.674l1.732,7.312H35.431z M63.042,78.791  c-0.021,0.013-0.035,0.033-0.054,0.048H37.011c-0.02-0.015-0.033-0.035-0.054-0.048c-2.693-1.714-4.969-3.891-6.76-6.39h39.605  C68.011,74.9,65.735,77.077,63.042,78.791z M71.084,70.401H28.915c-2.095-3.631-3.249-7.794-3.249-12.147  c0-4.436,1.203-8.678,3.369-12.353h41.928c2.166,3.674,3.369,7.917,3.369,12.353C74.333,62.607,73.179,66.771,71.084,70.401z   M38.929,34.657c-0.095-0.588-0.161-1.17-0.161-1.737c0-1.942,0.53-3.835,1.495-5.529l19.485,0.021  c0.957,1.688,1.484,3.574,1.484,5.508c0,0.567-0.066,1.15-0.161,1.737H38.929z M59.546,25.411l-19.098-0.02l-1.674-6.641h22.449  L59.546,25.411z M34.249,13.542v-1.391h31.5v1.391c0,1.743-1.381,3.159-3.105,3.238c-0.05-0.008-0.096-0.03-0.148-0.03H37.058  C35.476,16.531,34.249,15.184,34.249,13.542z M38.609,36.75c0.046-0.024,0.08-0.062,0.121-0.093h22.539  c0.041,0.031,0.075,0.068,0.121,0.093c3.325,1.765,6.115,4.231,8.251,7.151H30.358C32.494,40.981,35.284,38.515,38.609,36.75z"/></svg>
