<svg xmlns="http://www.w3.org/2000/svg" viewBox="0 0 70 70" x="0px" y="0px"><g data-name="Ebene 1" transform="translate(-15,-15)"><path d="M78.88,28.24a3.87,3.87,0,0,0-1.79-.84v0h-.22a3.31,3.31,0,0,0-.63,0H25.05l-.08,0a4,4,0,0,0-.79.26c-4.32,2-7,11.86-7.14,20.66h0V72.67H68.68a1.06,1.06,0,0,0,.5-.13.94.94,0,0,0,.29-.06L83,66.31V41.77l0,0C82.74,35.31,81.22,30.2,78.88,28.24ZM43.42,55.44a4.67,4.67,0,0,0,3.9-2.11H64.83V67.67H22V53.33H39.53A4.66,4.66,0,0,0,43.42,55.44Zm2.66-5.11v.45a2.66,2.66,0,1,1-5.32,0v-2.9a2.66,2.66,0,1,1,5.32,0v2.45ZM28.7,29.49a1.18,1.18,0,0,0,.18-.13H69.6C67,32.55,65.41,39,64.9,45.09H47.31l-.15,0a4.62,4.62,0,0,0-7.45,0H22.11C22.86,37.28,26.09,30.68,28.7,29.49ZM48,47.09H65.83a1,1,0,0,0,1-.82s0-.08,0-.13c.55-8.4,2.93-15.4,5.66-16.65a1.18,1.18,0,0,0,.18-.13h.23l-.13.18-.23.3c-.15.2-.29.4-.43.62s-.13.21-.2.32c-.17.27-.33.56-.48.86l-.1.17c-.19.37-.37.76-.54,1.16-.05.1-.09.22-.14.33q-.18.45-.36.93l-.16.43c-.11.31-.21.63-.31,1,0,.14-.09.28-.13.42-.13.42-.25.84-.36,1.28,0,0,0,.09,0,.14-.13.49-.24,1-.35,1.49l-.09.41c-.07.37-.15.75-.22,1.13l-.09.51c-.06.37-.12.74-.17,1.12,0,.16-.05.31-.07.47-.07.5-.13,1-.19,1.5a.22.22,0,0,1,0,.08c0,.53-.1,1.07-.14,1.6l0,.46-.06,1.14c0,.18,0,.36,0,.54s0,.29,0,.43H48.08v-.45A4.15,4.15,0,0,0,48,47.09Zm33-4.4L69.86,47.76V47.6c0-.27,0-.54,0-.81s0-.67.06-1,0-.54.06-.8l.09-1,.09-.77.12-.91.12-.75c0-.29.09-.58.14-.86s.1-.48.14-.72.11-.55.17-.81.11-.46.16-.69.13-.51.2-.76.11-.44.17-.65l.21-.71c.07-.2.13-.41.2-.6s.15-.45.23-.66.13-.38.2-.56l.25-.6c.07-.17.14-.34.22-.5s.17-.37.26-.55.14-.3.22-.44.18-.33.27-.49l.23-.39.29-.42c.08-.11.15-.22.23-.32a3.65,3.65,0,0,1,.31-.36l.21-.25a3.27,3.27,0,0,1,.35-.3,1.29,1.29,0,0,1,.18-.16,2.92,2.92,0,0,1,.52-.32,1.63,1.63,0,0,1,.45-.14h0l.22,0a1.69,1.69,0,0,1,1.08.45C79.23,31.14,80.88,35.64,81,42.69ZM25,29.5a1.7,1.7,0,0,1,.42-.14h.29C22.8,32.57,20.47,39.14,20,46c0,0,0,0,0,0a0,0,0,0,0,0,0,.76.76,0,0,0,0,.16,1.18,1.18,0,0,0,0,.2.54.54,0,0,0,.1.16.86.86,0,0,0,.1.16l.15.12a1.4,1.4,0,0,0,.16.1.67.67,0,0,0,.19,0,.49.49,0,0,0,.16.05H38.84a5.16,5.16,0,0,0-.08.79v.45H19C19.22,38.57,22.21,30.77,25,29.5ZM67.83,70.67H19V50.33H38.76v.45a4.87,4.87,0,0,0,.06.55H20V69.67H66.83V51.33H48a4.89,4.89,0,0,0,0-.55v-.45H67.83V70.67ZM81,65,69.83,70.12V50L81,44.89ZM75.25,31.2c-1.6,1.83-3.51,6.64-4.18,13.26l-.17,1.73L80,42.05l0-.67c-.27-6.34-1.8-9.24-2.26-10a1.52,1.52,0,0,0-1.18-.72A1.42,1.42,0,0,0,75.25,31.2Zm2.66,9.59-4.64,2.12a26.51,26.51,0,0,1,3.06-9.82A22.54,22.54,0,0,1,77.91,40.79ZM80,46.44l-9.15,4.18V68.56L80,64.38ZM78,63.1l-5.15,2.35V51.9L78,49.55Z"/></g></svg>
