<svg xmlns="http://www.w3.org/2000/svg" xmlns:xlink="http://www.w3.org/1999/xlink" version="1.1" x="0px" y="0px" viewBox="0 0 100 100" enable-background="new 0 0 100 100" xml:space="preserve"><g><g><g><g><g><path fill="none" d="M50.001,22.097c-15.385,0-27.904,12.518-27.904,27.904s12.518,27.903,27.904,27.903       s27.903-12.517,27.903-27.903S65.386,22.097,50.001,22.097z"/><path d="M50.001,5C25.186,5,5,25.186,5,50.001C5,74.815,25.186,95,50.001,95C74.815,95,95,74.815,95,50.001       C95,25.186,74.815,5,50.001,5z M50.001,77.904c-15.385,0-27.904-12.517-27.904-27.903s12.518-27.904,27.904-27.904       s27.903,12.518,27.903,27.904S65.386,77.904,50.001,77.904z"/></g></g></g></g></g></svg>
