<svg xmlns="http://www.w3.org/2000/svg" xmlns:xlink="http://www.w3.org/1999/xlink" xml:space="preserve" style="shape-rendering:geometricPrecision;text-rendering:geometricPrecision;image-rendering:optimizeQuality;" viewBox="0 0 20 20" x="0px" y="0px" fill-rule="evenodd" clip-rule="evenodd"><defs><style type="text/css">
   
    .fil0 {fill:black}
   
  </style></defs><g><path class="fil0" d="M9.7159 19.3428c2.0772,0.1097 5.2996,3.5224 7.0735,0.0017 1.8667,-3.7046 -2.7819,-4.1528 -3.559,-5.4327 -3.158,-5.2021 -3.4872,-4.1903 -6.8605,0.0053 -0.8625,1.0728 -5.7669,1.5949 -3.5284,5.4428 2.1071,3.622 4.6179,-0.1363 6.8744,-0.0171z"/><path class="fil0" d="M13.4707 3.0101c2.8344,1.3345 1.4531,7.0357 -1.0408,6.8795 -2.4939,-0.1563 -2.4591,-5.9153 0.3079,-6.9254l0.665 -2.9579 0.0679 3.0038z"/><path class="fil0" d="M7.407 2.9698c3.0338,1.0241 2.6246,6.82 0.1266,6.9278 -2.498,0.1078 -3.433,-5.6036 -0.8607,-6.8961l0.1611 -3.0016 0.573 2.9699z"/><path class="fil0" d="M18.3502 7.7829c1.0014,-0.6164 1.4297,-1.5974 1.4077,-2.4611 0.294,1.0012 0.0513,2.3716 -0.7212,3.2769 0.5506,1.6706 -1.7374,4.9334 -3.7458,4.1933 -2.7482,-1.0127 1.0253,-5.9937 3.0593,-5.0091z"/><path class="fil0" d="M1.5286 7.7829c-1.0014,-0.6164 -1.4296,-1.5974 -1.4076,-2.4611 -0.294,1.0012 -0.0514,2.3716 0.7211,3.2769 -0.5506,1.6706 1.7374,4.9334 3.7459,4.1933 2.7482,-1.0127 -1.0254,-5.9937 -3.0594,-5.0091z"/></g></svg>
