<?xml version="1.0" encoding="UTF-8" standalone="no"?>
<svg
   xmlns:dc="http://purl.org/dc/elements/1.1/"
   xmlns:cc="http://creativecommons.org/ns#"
   xmlns:rdf="http://www.w3.org/1999/02/22-rdf-syntax-ns#"
   xmlns:svg="http://www.w3.org/2000/svg"
   xmlns="http://www.w3.org/2000/svg"
   xmlns:sodipodi="http://sodipodi.sourceforge.net/DTD/sodipodi-0.dtd"
   xmlns:inkscape="http://www.inkscape.org/namespaces/inkscape"
   width="7.11111in"
   height="7.11111in"
   viewBox="0 0 512 512"
   version="1.1"
   id="svg11"
   sodipodi:docname="cloak-dagger.svg"
   inkscape:version="1.0.1 (c497b03c, 2020-09-10)">
  <metadata
     id="metadata17">
    <rdf:RDF>
      <cc:Work
         rdf:about="">
        <dc:format>image/svg+xml</dc:format>
        <dc:type
           rdf:resource="http://purl.org/dc/dcmitype/StillImage" />
        <dc:title></dc:title>
      </cc:Work>
    </rdf:RDF>
  </metadata>
  <defs
     id="defs15" />
  <sodipodi:namedview
     pagecolor="#ffffff"
     bordercolor="#666666"
     borderopacity="1"
     objecttolerance="10"
     gridtolerance="10"
     guidetolerance="10"
     inkscape:pageopacity="0"
     inkscape:pageshadow="2"
     inkscape:window-width="899"
     inkscape:window-height="762"
     id="namedview13"
     showgrid="false"
     inkscape:zoom="1.2099611"
     inkscape:cx="341.33329"
     inkscape:cy="341.33329"
     inkscape:window-x="2077"
     inkscape:window-y="118"
     inkscape:window-maximized="0"
     inkscape:current-layer="svg11" />
  <path
     id="Selection"
     fill="none"
     stroke="black"
     stroke-width="1"
     d="M 0.00,0.00            C 0.00,0.00 0.00,512.00 0.00,512.00              0.00,512.00 512.00,512.00 512.00,512.00              512.00,512.00 512.00,0.00 512.00,0.00              512.00,0.00 0.00,0.00 0.00,0.00 Z            M 377.00,189.00            C 360.08,189.15 336.83,195.85 322.00,203.90              317.97,206.09 310.67,210.86 307.00,213.65              305.11,215.09 301.25,218.49 299.00,218.83              295.02,219.43 291.22,213.71 289.00,211.00              296.21,200.94 313.16,190.36 324.00,183.99              329.36,180.84 335.09,176.87 341.00,175.00              341.00,175.00 330.25,151.00 330.25,151.00              322.95,136.41 315.50,121.74 305.20,109.00              299.81,102.34 290.18,93.16 281.00,93.08              272.83,93.01 267.28,98.37 262.09,104.00              260.33,105.91 256.52,111.80 254.00,111.80              251.24,111.80 246.79,105.11 244.83,103.04              240.40,98.35 233.61,93.56 227.00,93.10              215.96,92.32 206.89,101.13 200.32,109.00              185.35,126.96 176.82,153.14 167.00,174.00              184.14,181.38 206.84,195.88 220.00,209.00              217.86,211.98 213.15,218.43 209.00,217.84              206.72,217.51 202.03,213.62 200.00,212.15              195.49,208.88 189.94,205.35 185.00,202.78              170.17,195.08 147.74,189.15 131.00,189.00              132.94,176.47 143.88,149.75 149.75,138.00              167.45,102.59 182.76,79.24 211.00,51.00              220.54,41.46 230.46,32.88 242.00,25.81              245.16,23.87 251.28,19.70 255.00,20.20              258.16,20.62 265.16,25.44 268.00,27.33              278.91,34.61 288.73,42.73 298.00,52.00              322.67,76.67 340.73,104.98 356.25,136.00              363.16,149.82 373.62,174.20 377.00,189.00 Z            M 217.00,144.29            C 222.46,143.89 234.16,145.45 235.51,152.09              237.18,160.30 223.78,162.92 218.00,162.48              211.20,161.97 197.16,156.63 206.15,148.39              206.98,147.63 208.01,146.97 209.00,146.45              211.47,145.16 214.29,144.74 217.00,144.29 Z            M 286.00,144.29            C 291.46,143.89 303.16,145.45 304.51,152.09              306.18,160.30 292.78,162.92 287.00,162.48              280.20,161.97 266.16,156.63 275.15,148.39              275.98,147.63 277.01,146.97 278.00,146.45              280.47,145.16 283.29,144.74 286.00,144.29 Z            M 187.00,224.00            C 178.89,238.51 175.09,243.54 169.05,260.00              151.66,307.42 150.79,361.75 165.28,410.00              173.37,436.93 190.77,470.61 215.00,486.00              210.72,487.57 205.37,485.73 201.00,484.79              201.00,484.79 167.00,474.19 167.00,474.19              154.77,469.45 142.54,463.93 131.00,457.69              123.09,453.41 119.06,453.28 119.00,444.00              119.00,444.00 119.00,430.00 119.00,430.00              119.00,430.00 120.00,416.00 120.00,416.00              120.00,416.00 120.00,412.00 120.00,412.00              120.00,412.00 120.96,401.00 120.96,401.00              122.79,359.00 130.62,317.32 142.42,277.00              146.86,261.85 153.69,245.12 160.75,231.00              162.45,227.61 166.66,217.82 170.21,216.70              174.08,215.48 183.55,221.93 187.00,224.00 Z            M 294.00,487.00            C 294.00,487.00 308.71,472.91 308.71,472.91              317.51,463.57 325.31,451.38 331.22,440.00              354.85,394.48 358.82,328.09 345.26,279.00              342.71,269.80 338.84,257.51 334.74,249.00              334.74,249.00 322.00,224.00 322.00,224.00              325.31,222.15 334.29,215.94 337.82,216.81              341.74,217.78 346.60,229.31 348.31,233.00              348.31,233.00 354.13,245.00 354.13,245.00              359.53,257.59 364.07,270.84 367.86,284.00              382.39,334.50 389.10,390.53 389.00,443.00              389.00,444.88 389.12,448.11 388.40,449.79              386.58,454.03 372.52,459.98 368.00,462.25              351.86,470.32 334.43,477.41 317.00,482.15              309.41,484.21 301.91,486.64 294.00,487.00 Z            M 268.00,239.00            C 262.98,256.34 260.92,271.04 263.15,289.00              263.64,292.91 265.17,303.82 268.42,305.98              270.29,307.22 273.79,307.00 276.00,307.00              276.00,307.00 308.00,307.00 308.00,307.00              308.00,307.00 308.00,326.00 308.00,326.00              308.00,326.00 278.00,320.00 278.00,320.00              278.00,320.00 278.00,357.00 278.00,357.00              278.00,357.00 277.04,369.00 277.04,369.00              277.04,369.00 277.04,381.00 277.04,381.00              276.82,396.35 272.65,421.95 268.87,437.00              267.07,444.17 258.25,471.69 255.00,477.00              251.80,471.77 243.42,444.17 241.63,437.00              230.75,393.52 231.00,363.95 231.00,320.00              231.00,320.00 200.00,326.00 200.00,326.00              200.00,326.00 200.00,307.00 200.00,307.00              200.00,307.00 242.00,307.00 242.00,307.00              243.68,296.07 247.45,286.58 246.96,275.00              246.32,259.60 241.71,246.85 241.00,239.00              241.00,239.00 268.00,239.00 268.00,239.00 Z" />
  <path
     style="fill:#000000;stroke:none;stroke-width:0.826473"
     d="M 0.82647286,341.33329 V 0.82647286 H 341.33329 681.84011 V 341.33329 681.84011 H 341.33329 0.82647286 Z M 412.82319,646.68857 c 29.21959,-7.57035 49.87182,-15.41065 82.32453,-31.25323 11.25647,-5.49512 17.43986,-9.03108 20.24789,-11.5787 l 4.04258,-3.66766 -0.12746,-22.83717 c -0.46319,-82.98973 -15.98258,-173.61136 -40.65209,-237.37787 -6.83363,-17.66378 -19.66448,-44.16908 -23.56718,-48.68383 -3.90566,-4.51819 -7.03772,-4.35182 -16.8579,0.89547 -4.07936,2.17975 -8.06589,4.43765 -8.85895,5.01756 -1.32499,0.96885 -0.63804,2.65013 8.47123,20.73269 13.19304,26.18914 19.88679,44.9864 25.35864,71.21164 7.10781,34.06594 8.16275,75.97083 2.8431,112.93479 -4.51609,31.38034 -11.63299,55.28652 -23.8661,80.16787 -11.82437,24.04998 -21.34287,37.32165 -39.59965,55.21391 -6.86765,6.73052 -12.48664,12.45025 -12.48664,12.7105 0,1.0636 12.66627,-0.87912 22.728,-3.48597 z m -126.24373,2.39818 c 1.02276,-0.27408 1.84779,-0.7339 1.83339,-1.0218 -0.0144,-0.2879 -2.51243,-2.19707 -5.55118,-4.24259 -11.48562,-7.7315 -26.94571,-25.56614 -37.45027,-43.20237 -20.22324,-33.95303 -32.30886,-74.22145 -36.39292,-121.25858 -1.25123,-14.41077 -0.50138,-52.32407 1.29149,-65.29851 4.17913,-30.24325 11.79891,-58.45356 21.87703,-80.99434 2.13399,-4.77288 7.10969,-14.3505 11.05713,-21.28361 3.94743,-6.9331 7.17715,-12.88765 7.17715,-13.23234 0,-0.85933 -11.99736,-7.88698 -16.33957,-9.57119 -8.67667,-3.36538 -11.06707,-1.1554 -21.23257,19.62995 -15.28496,31.25312 -24.23428,57.08247 -34.24588,98.83975 -9.60619,40.06642 -15.4101,78.99325 -18.29899,122.73122 -2.01914,30.56999 -2.39514,38.75744 -2.42087,52.71419 -0.0283,15.38222 0.52755,18.50635 3.81292,21.42848 2.74466,2.44121 31.51311,16.808 45.74837,22.84646 11.42534,4.84652 51.76722,18.17978 64.87812,21.44264 3.80449,0.9468 11.53143,1.20298 14.25665,0.47264 z m 54.51162,-12.90927 c 3.46983,-4.55686 16.74975,-44.85253 20.49614,-62.19208 7.35261,-34.03033 9.05537,-53.9761 10.03653,-117.56576 0.24022,-15.56869 0.51989,-28.3067 0.62148,-28.3067 0.10159,0 8.50598,1.67361 18.67643,3.71913 10.17045,2.04552 18.98,3.71913 19.57677,3.71913 0.85191,0 1.08505,-2.93009 1.08505,-13.63681 v -13.6368 h -25.26175 c -16.58752,0 -25.83738,-0.30806 -26.93811,-0.89715 -5.60573,-3.00011 -9.76097,-28.57771 -8.12476,-50.01198 0.89816,-11.7658 2.29326,-19.95682 5.38301,-31.6052 1.12604,-4.24519 2.04735,-7.87134 2.04735,-8.05811 0,-0.18677 -8.71657,-0.33957 -19.37015,-0.33957 h -19.37015 l 0.46154,3.09927 c 0.25385,1.7046 1.69753,8.86392 3.20819,15.9096 5.49517,25.62931 5.71297,36.18541 1.18516,57.43987 -1.45252,6.8184 -2.77888,12.86198 -2.94747,13.43018 -0.23743,0.80023 -6.64619,1.03309 -28.43254,1.03309 h -28.12601 v 13.6368 c 0,12.43916 0.12702,13.63618 1.44632,13.62968 0.79548,-0.004 9.97647,-1.67039 20.4022,-3.70327 10.42572,-2.03287 19.01579,-3.61029 19.08904,-3.50538 0.0732,0.10492 0.57176,17.29874 1.1078,38.20851 0.53604,20.90976 1.34059,41.73688 1.78788,46.28248 3.57009,36.28053 9.60861,65.25644 20.54094,98.56592 5.85655,17.84417 8.94785,25.81824 10.00895,25.81824 0.34293,0 0.9775,-0.46489 1.41016,-1.03309 z m 63.58376,-346.4851 c 12.92575,-9.2663 24.41016,-16.54819 31.21465,-19.79222 16.40286,-7.82004 39.87164,-14.36112 58.42861,-16.28489 l 9.59177,-0.99436 -0.68841,-3.06389 C 499.65803,233.69731 485.80261,199.86693 471.58844,172.31959 439.57537,110.2776 401.65058,64.804429 356.90067,34.804889 341.90953,24.755095 339.237,24.142521 330.22155,28.689734 c -14.28394,7.204533 -32.6553,21.602582 -50.87372,39.870861 -33.01038,33.100715 -54.14348,62.677315 -76.79539,107.478125 -13.82963,27.35215 -25.79019,58.16089 -28.59587,73.65891 l -0.54228,2.99548 7.30414,0.5904 c 19.85265,1.60469 42.98715,7.637 60.19841,15.69668 8.85918,4.14858 16.23512,8.58293 26.86037,16.1482 9.09891,6.47851 10.57997,7.07166 14.46007,5.79111 2.92322,-0.96475 11.98706,-10.08284 11.98706,-12.05881 0,-1.66323 -11.13148,-11.34921 -22.4935,-19.57255 -12.77602,-9.24673 -26.17112,-17.41519 -37.98944,-23.16635 -4.85561,-2.36288 -8.85367,-4.64808 -8.88458,-5.07823 -0.0995,-1.38408 17.30102,-40.99179 23.16489,-52.72888 9.51648,-19.04818 17.89187,-31.08991 28.73796,-41.31804 10.23525,-9.65209 20.08216,-13.3181 29.37669,-10.93695 7.61306,1.95037 11.65083,4.74472 21.63217,14.97062 5.03979,5.16326 9.61419,9.38775 10.16534,9.38775 2.32476,0 5.82725,-2.6731 9.15614,-6.98796 9.03719,-11.71386 18.54376,-17.97152 27.30219,-17.97152 17.44152,0 38.59666,23.84631 61.36895,69.17578 3.77448,7.5133 17.31133,37.74717 16.98425,37.93347 -0.13833,0.0788 -3.04086,1.53156 -6.45006,3.22836 -7.7151,3.83992 -29.71098,17.38676 -39.84983,24.54276 -8.63496,6.09454 -22.13563,18.84387 -22.13563,20.90373 0,0.75291 2.19277,3.60988 4.87282,6.34882 4.3491,4.44465 5.22769,4.97989 8.17449,4.97989 2.45078,0 4.33662,-0.74195 7.31765,-2.87901 z m -98.24095,-74.76753 c 5.86833,-2.57839 8.45227,-5.74945 8.45227,-10.37282 0,-6.82334 -5.91357,-11.18751 -17.35894,-12.81076 -14.23013,-2.01819 -27.2706,4.37091 -27.2706,13.36108 0,4.59329 4.30875,8.34346 12.81033,11.14959 5.27857,1.7423 18.02921,1.01815 23.36694,-1.32709 z m 92.99759,-0.33668 c 5.3919,-2.63801 7.55561,-5.51132 7.58492,-10.07249 0.0294,-4.57636 -2.19482,-7.59694 -7.3228,-9.94461 -12.16254,-5.56819 -28.17666,-3.69907 -35.01245,4.08656 -5.85614,6.66986 -1.85544,13.62473 10.12429,17.60018 2.14834,0.71292 6.24169,1.00252 11.69038,0.82705 7.0916,-0.22837 9.08627,-0.61335 12.93566,-2.49669 z"
     id="path19"
     transform="scale(0.75000011)" />
</svg>
