<svg xmlns="http://www.w3.org/2000/svg" xmlns:xlink="http://www.w3.org/1999/xlink" version="1.1" x="0px" y="0px" viewBox="0 0 100 100" enable-background="new 0 0 100 100" xml:space="preserve"><g><path fill="none" d="M88.27,11.73c-1.863-1.863-5.277-3.827-9.326-3.827c-0.073,0-0.146,0.001-0.219,0.002   c-4.683,0.082-9.425,2.663-14.092,7.67C53.988,26.993,44.435,40.599,36.759,51.532c-4.954,7.056-8.867,12.629-11.844,15.894   c-1.497,1.643-3.624,3.45-5.875,5.364c-4.882,4.15-10.957,9.315-11.133,13.645c-0.057,1.397,0.516,2.675,1.748,3.908   c1.233,1.233,2.512,1.811,3.909,1.748c4.33-0.175,9.495-6.251,13.645-11.133c1.913-2.251,3.721-4.378,5.363-5.874   c3.265-2.976,8.837-6.889,15.892-11.842c10.934-7.676,24.541-17.23,35.96-27.875c5.007-4.668,7.587-9.409,7.67-14.092   C92.167,17.129,90.166,13.626,88.27,11.73z M73.635,37.835c-4.991,4.226-12.575,9.102-16.034,9.103   c-0.538,0-0.975-0.118-1.288-0.374c-0.521-0.427-1.155-1.254-1.22-2.771c-0.165-3.838,3.329-9.531,9.585-15.619   c8.521-8.291,19.365-13.275,21.553-11.086c0,0,0,0,0,0c0.434,0.434,0.638,1.035,0.607,1.785   C86.689,22.498,80.567,31.96,73.635,37.835z"/><path fill="none" d="M57.991,43.573c0.002,0.189,0.021,0.338,0.045,0.452c1.801-0.396,7.275-2.946,13.722-8.405   c6.712-5.688,11.197-13.377,12.039-16.118c-2.669,0.558-9.826,3.681-17.094,10.752C60.242,36.542,57.966,41.257,57.991,43.573z"/><path d="M91.11,10.541c-0.052-0.076-0.085-0.162-0.152-0.229l-0.197-0.197c-0.018-0.018-0.042-0.023-0.06-0.04   c-0.143-0.155-0.274-0.294-0.378-0.398c-1.125-1.125-5.278-4.746-11.649-4.675c-5.501,0.097-10.94,2.987-16.164,8.592   C51.727,25.16,42.11,38.858,34.383,49.864c-4.701,6.695-8.761,12.478-11.613,15.606c-1.373,1.506-3.431,3.256-5.61,5.108   c-5.59,4.753-11.927,10.139-12.153,15.739c-0.09,2.221,0.784,4.266,2.597,6.079c1.728,1.729,3.668,2.603,5.77,2.603   c0.103,0,0.206-0.002,0.31-0.007c5.601-0.226,10.988-6.563,15.74-12.154c1.852-2.179,3.601-4.237,5.107-5.609   c3.128-2.852,8.91-6.911,15.604-11.611C61.14,57.891,74.838,48.273,86.405,37.49c5.605-5.225,8.496-10.664,8.592-16.165   C95.089,16.072,92.61,12.323,91.11,10.541z M84.425,35.367c-11.42,10.646-25.027,20.199-35.96,27.875   c-7.055,4.954-12.627,8.866-15.892,11.842c-1.642,1.497-3.449,3.623-5.363,5.874c-4.15,4.882-9.315,10.958-13.645,11.133   c-1.397,0.063-2.676-0.516-3.909-1.748c-1.233-1.233-1.805-2.511-1.748-3.908c0.175-4.33,6.251-9.495,11.133-13.645   c2.251-1.914,4.378-3.721,5.875-5.364c2.977-3.265,6.89-8.838,11.844-15.894c7.676-10.933,17.229-24.539,27.874-35.958   c4.667-5.007,9.409-7.587,14.092-7.67c0.073-0.001,0.146-0.002,0.219-0.002c4.049,0,7.463,1.964,9.326,3.827   c1.897,1.897,3.897,5.4,3.825,9.545C92.013,25.958,89.432,30.699,84.425,35.367z"/><path d="M86.231,17.087c-2.188-2.189-13.032,2.795-21.553,11.086c-6.256,6.089-9.75,11.782-9.585,15.619   c0.065,1.518,0.699,2.345,1.22,2.771c0.313,0.256,0.75,0.374,1.288,0.374c3.458,0,11.043-4.876,16.034-9.103   c6.932-5.874,13.054-15.336,13.203-18.962C86.87,18.122,86.665,17.521,86.231,17.087C86.231,17.087,86.231,17.087,86.231,17.087z    M71.759,35.619c-6.447,5.459-11.921,8.009-13.722,8.405c-0.025-0.113-0.043-0.262-0.045-0.452   c-0.025-2.316,2.251-7.031,8.712-13.32c7.268-7.071,14.425-10.194,17.094-10.752C82.956,22.242,78.47,29.931,71.759,35.619z"/></g></svg>
