<svg xmlns="http://www.w3.org/2000/svg" viewBox="0 0 80 80" x="0px" y="0px"><path d="M61,62.5A1.5,1.5,0,0,1,59.5,64h-39A1.5,1.5,0,0,1,19,62.5V29H9v3h7V62.5A4.5,4.5,0,0,0,20.5,67h39A4.5,4.5,0,0,0,64,62.5V32h7V29H61Z"/><path d="M65,24H60V21.5A4.5,4.5,0,0,0,55.5,17h-31A4.5,4.5,0,0,0,20,21.5V24H15v3H65ZM23,21.5A1.5,1.5,0,0,1,24.5,20h31A1.5,1.5,0,0,1,57,21.5V24H23Z"/><rect x="33" y="13" width="14" height="3"/><rect x="20" y="29" width="40" height="3"/><circle cx="40" cy="55.5" r="3.5"/><circle cx="50.5" cy="55.5" r="3.5"/><circle cx="29.5" cy="55.5" r="3.5"/><path d="M60,46V41.88L58.88,43a4.07,4.07,0,0,1-5.75,0L53,42.88a7.08,7.08,0,0,0-10,0l-.08.08a4.07,4.07,0,0,1-5.78,0,7,7,0,0,0-5-2.12,7.19,7.19,0,0,0-5,2l-.25.25a4.08,4.08,0,0,1-5.72,0L20,41.88V46a7.09,7.09,0,0,0,9-.74l.25-.25A4.07,4.07,0,0,1,35,45a7,7,0,0,0,5,2.12h0a7,7,0,0,0,5-2.07l.08-.08a4.07,4.07,0,0,1,5.75,0l.13.13A7.06,7.06,0,0,0,60,46Z"/></svg>
