<svg xmlns="http://www.w3.org/2000/svg" viewBox="0 0 80 80" x="0px" y="0px"><g transform="translate(10,10)"><path d="M55.91,30A29.81,29.81,0,0,0,33,15.15V12.73l1.95-2a3,3,0,0,0,.87-2.34,2.54,2.54,0,0,0-.16-.72A7.63,7.63,0,0,0,35,6.4L34.75,6c-.27-.48-.53-1-.8-1.52s-.46-.92-.68-1.39c-.32-.65-.64-1.31-1-2L32.12.89a3,3,0,0,0-4.24,0l-.49.87a15.91,15.91,0,0,0-.84,1.64l-.3.63c-.35.73-.72,1.44-1.1,2.14l-.22.38a4.15,4.15,0,0,0-.75,2,3,3,0,0,0,.87,2.22l1.95,2v2.42A29.81,29.81,0,0,0,4.09,30,4,4,0,1,0,4,38H5a3.37,3.37,0,0,0,.71-.09l0,0L23,43.72V46a1,1,0,0,1-.31.71A.93.93,0,0,1,22,47a3,3,0,0,0-3,3v7a3,3,0,0,0,3,3H38a3,3,0,0,0,3-3V50a3,3,0,0,0-3-3,1,1,0,0,1-1-1V43.72L54.32,38l0,0A3.37,3.37,0,0,0,55,38h1a4,4,0,1,0-.09-8ZM27,29.18A3.05,3.05,0,0,0,26,29a3,3,0,0,0-3,3v9.61L7.61,36.48c.06-.11.11-.22.16-.33A24.05,24.05,0,0,1,27,21.21ZM37,41.61V32a3,3,0,0,0-3-3,3,3,0,0,0-1,.18v-8A24.05,24.05,0,0,1,52.23,36.15a3.38,3.38,0,0,0,.16.33Z"/></g></svg>
