<svg xmlns="http://www.w3.org/2000/svg" xmlns:xlink="http://www.w3.org/1999/xlink" version="1.1" x="0px" y="0px" viewBox="0 0 70 70" style="enable-background:new 0 0 70 70;" xml:space="preserve"><g transform="translate(-10,-10)"><path d="M52.69098,52.53357c-4.11639-34.49506-7.3443-36.22046-7.7027-36.30066c-0.33521,0.0802-3.56281,1.8056-7.6792,36.30066  H52.69098z"/><path d="M45,70.19476h-3.47552v3.5722h6.95111V59.3017h-6.95111v3.82471H45c0.5528,0,1,0.44775,1,1c0,0.55231-0.4472,1-1,1h-3.47552  v3.06836H45c0.5528,0,1,0.44769,1,1C46,69.74701,45.5528,70.19476,45,70.19476z"/><path d="M62.54108,54.53357H27.45898c-0.7627,0-1.38379,0.62073-1.38379,1.38379c0,0.76324,0.62109,1.38434,1.38379,1.38434  h35.08209c0.7627,0,1.38385-0.62109,1.38385-1.38434C63.92493,55.1543,63.30377,54.53357,62.54108,54.53357z"/></g></svg>
