<svg xmlns="http://www.w3.org/2000/svg" xmlns:xlink="http://www.w3.org/1999/xlink" version="1.1" x="0px" y="0px" viewBox="0 0 512 512" enable-background="new 0 0 512 512" xml:space="preserve"><path d="M385,177.083c0-0.23-0.016-0.46-0.048-0.688L363.134,19.312C362.791,16.84,360.678,15,358.182,15h-88.199  c-0.006,0-0.012,0-0.018,0H161.818c-2.496,0-4.609,1.84-4.953,4.312l-21.818,157.083c-0.031,0.228-0.047,0.458-0.047,0.688  c0,74.199,53.384,134.89,120,137.797V485h-55c-2.761,0-5,2.238-5,5s2.239,5,5,5h120c2.762,0,5-2.238,5-5s-2.238-5-5-5h-55V314.88  C331.615,311.973,385,251.282,385,177.083z M260,305c-63.307,0-114.83-57.2-115-127.574L166.171,25h94.486L225.84,77.227  c-1.023,1.534-1.118,3.507-0.248,5.133c0.87,1.625,2.564,2.64,4.408,2.64h40.657l-34.817,52.227  c-1.532,2.297-0.911,5.402,1.387,6.934c0.853,0.568,1.816,0.84,2.769,0.84c1.615,0,3.201-0.782,4.165-2.227l40-60  c1.022-1.534,1.118-3.507,0.248-5.133C283.538,76.015,281.844,75,280,75h-40.657l33.333-50h81.152L375,177.426  C374.83,247.8,323.307,305,260,305z"/></svg>
