<svg xmlns="http://www.w3.org/2000/svg" xmlns:xlink="http://www.w3.org/1999/xlink" version="1.1" x="0px" y="0px" viewBox="0 0 100 100" style="enable-background:new 0 0 100 100;" xml:space="preserve"><path d="M50,10c-19.5917969,0-35.5302734,15.9384766-35.5302734,35.5297852c0,9.1136475,3.3803711,17.6387329,9.5529785,24.234375  H23.25c-0.5527344,0-1,0.4477539-1,1v7.5849609h-1.296875c-2.140625,0-3.8828125,1.7421875-3.8828125,3.8833008V89  c0,0.5522461,0.4472656,1,1,1h63.859375c0.5527344,0,1-0.4477539,1-1v-6.7675781  c0-2.1411133-1.7421875-3.8833008-3.8828125-3.8833008H77.75v-7.5849609c0-0.5522461-0.4472656-1-1-1h-0.7698364  c6.1713867-6.5960083,9.5501099-15.1259155,9.5501099-24.234375C85.5302734,25.9384766,69.5917969,10,50,10z M80.9296875,82.2324219  V88h-61.859375v-5.7675781c0-1.0385742,0.8447266-1.8833008,1.8828125-1.8833008h58.09375  C80.0849609,80.3491211,80.9296875,81.1938477,80.9296875,82.2324219z M24.25,78.3491211v-6.5849609h51.5v6.5849609H24.25z   M73.2158203,69.7226562c-0.0126953,0.012146-0.0169067,0.0288696-0.0288086,0.0415039H26.8296509  c-6.6807251-6.3889771-10.3599243-14.9927979-10.3599243-24.234375C16.4697266,27.0415039,31.5117188,12,50,12  s33.5302734,15.0415039,33.5302734,33.5297852C83.5302734,54.7470703,79.8671875,63.3388672,73.2158203,69.7226562z"/><path d="M30.1132812,27.3232422c-4.3623047,4.8857422-6.7646484,11.1875-6.7646484,17.7441406  c0,3.7124023,0.7480469,7.3037109,2.2236328,10.6743164c0.1640625,0.3754883,0.53125,0.5996094,0.9169922,0.5996094  c0.1337891,0,0.2695312-0.0273438,0.4003906-0.0844727c0.5058594-0.2211914,0.7363281-0.8110352,0.5146484-1.3168945  c-1.3642578-3.1162109-2.0556641-6.4379883-2.0556641-9.8725586c0-6.0649414,2.2216797-11.8935547,6.2568359-16.4121094  c0.3671875-0.4121094,0.3320312-1.0439453-0.0800781-1.4121094C31.1152344,26.8764648,30.4804688,26.9111328,30.1132812,27.3232422z  "/><path d="M50,18.4155273c-5.1962891,0-10.2314453,1.4960938-14.5615234,4.3261719  c-0.4628906,0.3017578-0.5927734,0.921875-0.2900391,1.3837891c0.1914062,0.2939453,0.5117188,0.453125,0.8378906,0.453125  c0.1875,0,0.3769531-0.0527344,0.5458984-0.1630859c4.0039062-2.6166992,8.6611328-4,13.4677734-4c0.5527344,0,1-0.4477539,1-1  S50.5527344,18.4155273,50,18.4155273z"/></svg>
