<svg xmlns:rdf="http://www.w3.org/1999/02/22-rdf-syntax-ns#" xmlns="http://www.w3.org/2000/svg" xmlns:cc="http://creativecommons.org/ns#" xmlns:dc="http://purl.org/dc/elements/1.1/" version="1.1" x="0px" y="0px" viewBox="0 0 100 100"><g transform="translate(0,-952.36218)"><path style="baseline-shift:baseline;block-progression:tb;color:#000000;direction:ltr;text-indent:0;enable-background:accumulate;text-transform:none;" fill="#000" d="m5.2489,977.5a1.2501,1.2501,0,0,0,-1.125,1.25l-0.0625,47.219a1.2501,1.2501,0,0,0,1.25,1.25h0.0625,66.688a1.2501,1.2501,0,0,0,1.25,-1.25v-15.75l22.188-19.906a1.2501,1.2501,0,0,0,0.125,-1.7812l-8.25-9.1875a1.2501,1.2501,0,0,0,-1,-0.4375,1.2501,1.2501,0,0,0,-0.75,0.34375l-12.312,11.031v-11.531a1.2501,1.2501,0,0,0,-1.25,-1.25h-66.688a1.2501,1.2501,0,0,0,-0.125,0zm1.375,2.5,64.188,0,0,12.531-1.6562,1.5-11.5,10.312-7.75-4.8437a1.2501,1.2501,0,0,0,-0.84375,-0.1875,1.2501,1.2501,0,0,0,-0.71875,0.375l-11.812,12.406-12.312-7.0625a1.2501,1.2501,0,0,0,-1.5625,0.25l-16.094,18.531,0.0625-43.812zm79.719,1.9375,6.5625,7.3438-6.8438,6.1562-6.4688-7.25a1.2501,1.2501,0,0,0,-0.125,-0.0937l6.875-6.1562zm-53.375,5.9688c-3.3089,0-6,2.7241-6,6.0312,0,3.3072,2.6911,6,6,6s6.0312-2.6929,6.0312-6c0-3.3072-2.7223-6.0312-6.0312-6.0312zm44.656,1.8438a1.2501,1.2501,0,0,0,0.09375,0.0937l6.4688,7.25-12.844,11.562a1.2501,1.2501,0,0,0,-0.125,0.094l-9.6562,8.6562-6.9375-0.4062,0.375-6.9063,17.906-16.062,0.09375-0.0937a1.2501,1.2501,0,0,0,0.0625,-0.0937l4.5625-4.0938zm-44.656,0.6875c1.9574,0,3.5,1.5436,3.5,3.5s-1.5426,3.5-3.5,3.5-3.5312-1.5436-3.5312-3.5,1.5738-3.5,3.5312-3.5zm16.469,11.719,6.2812,3.9063-2.7812,2.5a1.2501,1.2501,0,0,0,-0.25,0.2812,1.2501,1.2501,0,0,0,0,0.031,1.2501,1.2501,0,0,0,-0.125,0.3125,1.2501,1.2501,0,0,0,0,0.031,1.2501,1.2501,0,0,0,-0.03125,0.094,1.2501,1.2501,0,0,0,0,0.031,1.2501,1.2501,0,0,0,0,0.094l-0.46875,8.6875v0.031a1.2501,1.2501,0,0,0,0,0.094,1.2501,1.2501,0,0,0,0,0.031,1.2501,1.2501,0,0,0,0,0.094,1.2501,1.2501,0,0,0,0,0.031,1.2501,1.2501,0,0,0,0.03125,0.094,1.2501,1.2501,0,0,0,0,0.031,1.2501,1.2501,0,0,0,0.03125,0.094,1.2501,1.2501,0,0,0,0.0625,0.125,1.2501,1.2501,0,0,0,0.0625,0.094,1.2501,1.2501,0,0,0,0.15625,0.2188,1.2501,1.2501,0,0,0,0.09375,0.062,1.2501,1.2501,0,0,0,0,0.031,1.2501,1.2501,0,0,0,0.09375,0.062,1.2501,1.2501,0,0,0,0.65625,0.25l8.7188,0.4688a1.2501,1.2501,0,0,0,0.25,0,1.2501,1.2501,0,0,0,0.125,-0.031,1.2501,1.2501,0,0,0,0.53125,-0.2812l7.9375-7.125v12.219h-61.719l14.781-17,12.25,7.0313a1.2501,1.2501,0,0,0,1.5312,-0.2188l11.781-12.375z"/></g></svg>
