<svg xmlns="http://www.w3.org/2000/svg" xmlns:xlink="http://www.w3.org/1999/xlink" version="1.1" x="0px" y="0px" viewBox="0 0 56 56" style="enable-background:new 0 0 56 56;" xml:space="preserve"><path d="M36.3699951,3.0700073C36.25,3.0199585,36.1300049,3,36,3h-3c-0.5499878,0-1,0.4500122-1,1  c0,2.1799927-1.7700195,3.9500122-4.0499878,3.9500122C25.7700195,7.9500122,24,6.1799927,24,4c0-0.5499878-0.4500122-1-1-1h-3  c-0.1300049,0-0.2999878,0.039978-0.4199829,0.0899658c-3.4100342,1.3699951-5.9000244,4.3300171-6.6500244,7.9299927  L9.0200195,29.7999878c-0.0599976,0.289978,0.0100098,0.5999756,0.1999512,0.8300171C9.4099731,30.8599854,9.7000122,31,10,31h5  c0.460022,0,0.8599854-0.3200073,0.9699707-0.7700195l3.25-13.5499878L19.9699707,19  c0.5900269,1.8200073,0.5400391,3.8399658-0.1499634,5.6900024c-3.1199951,8.3899536-4.0599976,17.6199951-2.8099976,27.4400024  C17.0700073,52.6300049,17.5,53,18,53h20c0.5,0,0.9199829-0.3699951,0.9899902-0.8699951  C40.210022,43,39.2199707,33.75,36.0499878,24.6199951c-0.6199951-1.7700195-0.6400146-3.710022-0.0700073-5.4700317  l0.8000488-2.4699707l3.25,13.5499878C40.1400146,30.6799927,40.539978,31,41,31h5  c0.2999878,0,0.5900269-0.1400146,0.7800293-0.3699951c0.1899414-0.2300415,0.2599487-0.5400391,0.1999512-0.8300171  l-3.9099731-18.7800293C42.3200073,7.4199829,39.8300171,4.4599609,36.3699951,3.0700073z"/></svg>
