<svg xmlns="http://www.w3.org/2000/svg" xmlns:xlink="http://www.w3.org/1999/xlink" version="1.1" x="0px" y="0px" viewBox="0 0 64 64" style="enable-background:new 0 0 64 64;" xml:space="preserve"><path d="M46.806,25.939L37,21.363V18.49c0.615-0.73,1-1.66,1-2.687c0-0.981,0.288-1.932,0.832-2.748  C39.596,11.908,40,10.574,40,9.197V9c0-4.411-3.589-8-8-8s-8,3.589-8,8v0.197c0,1.377,0.404,2.711,1.168,3.857  C25.712,13.871,26,14.821,26,15.803c0,1.027,0.385,1.957,1,2.687v2.873l-9.806,4.576C14.039,27.412,12,30.613,12,34.095v14.193  c0,3.236,0.766,6.478,2.213,9.373c0.568,1.136,1.591,1.926,2.787,2.213V63h30v-3.126c1.196-0.287,2.219-1.077,2.787-2.213  C51.234,54.766,52,51.524,52,48.288V34.095C52,30.613,49.961,27.412,46.806,25.939z M44.739,57.607l-10.974-7.545l1.79-1.231  l11.924,8.586C47.079,57.778,46.566,58,46.003,58C45.55,58,45.113,57.864,44.739,57.607z M17.997,58  c-0.562,0-1.075-0.222-1.475-0.581l12.041-8.605L27.4,47.187l-11.893,8.5c-0.279-0.659-0.521-1.333-0.724-2.019l33.52-24.134  c0.451,0.525,0.818,1.116,1.097,1.749l-19.967,14.44l1.172,1.621L44,37.657v2.942L19.261,57.607C18.887,57.864,18.45,58,17.997,58z   M14.044,33.484L18,36.332v0.99C17.459,37.139,16.8,37,16,37s-1.459,0.139-2,0.322v-3.227C14,33.889,14.026,33.687,14.044,33.484z   M30.266,40.057l-1.835,1.321L14.56,31.391c0.28-0.665,0.652-1.288,1.119-1.837L30.266,40.057z M20,43.026l3.142,2.16L20,47.448  V43.026z M24.866,43.944L20,40.599v-2.827l6.719,4.838L24.866,43.944z M14,39.502C14.352,39.29,15.012,39,16,39  c0.992,0,1.652,0.292,2,0.501v1.821C17.459,41.139,16.8,41,16,41s-1.459,0.139-2,0.322V39.502z M14,43.502  C14.352,43.29,15.012,43,16,43c0.992,0,1.652,0.292,2,0.501v1.821C17.459,45.139,16.8,45,16,45s-1.459,0.139-2,0.322V43.502z   M14,48.288v-0.786C14.352,47.29,15.012,47,16,47c0.992,0,1.652,0.292,2,0.501v1.387l-3.713,2.673  C14.097,50.481,14,49.384,14,48.288z M40.859,45.186L44,43.026v4.422L40.859,45.186z M32,51.276l3.383,2.326  C34.411,53.811,33.202,54,32,54c-1.199,0-2.409-0.189-3.382-0.398L32,51.276z M26.429,55.106C27.414,55.403,29.685,56,32,56  c2.315,0,4.586-0.597,5.571-0.894l2.284,1.57C38.012,57.242,34.987,58,32,58c-2.987,0-6.012-0.758-7.855-1.324L26.429,55.106z   M37.306,47.628l1.802-1.239l10.109,7.279c-0.202,0.685-0.445,1.358-0.723,2.016L37.306,47.628z M46,48.888v-1.386  C46.352,47.29,47.012,47,48,47s1.648,0.29,2,0.502v0.786c0,1.096-0.097,2.193-0.287,3.273L46,48.888z M48,45  c-0.8,0-1.459,0.139-2,0.322v-1.819C46.352,43.29,47.012,43,48,43s1.648,0.29,2,0.502v1.819C49.459,45.139,48.8,45,48,45z M48,41  c-0.8,0-1.459,0.139-2,0.322v-1.819C46.352,39.29,47.012,39,48,39s1.648,0.29,2,0.502v1.819C49.459,41.139,48.8,41,48,41z M48,37  c-0.8,0-1.459,0.139-2,0.322V36.21l3.946-2.854C49.973,33.601,50,33.846,50,34.095v3.227C49.459,37.139,48.8,37,48,37z   M46.746,28.191l-4.281,3.082l-1.753-1.262l3.968-2.856l1.28,0.597C46.235,27.88,46.494,28.031,46.746,28.191z M37.211,27.49  l3.22-2.319l2.172,1.014l-3.603,2.593L37.211,27.49z M38.355,24.203L35.5,26.258l-1.79-1.289l2.474-1.781L38.355,24.203z M29,19.805  C29.382,19.92,29.778,20,30.197,20h3.605c0.419,0,0.815-0.08,1.197-0.195v1.772l-3.001,2.16L29,21.579V19.805z M28.113,9.29  c2.612,1.743,5.724,2.705,8.867,2.709c0.018,0.083,0.03,0.147,0.033,0.165l0.034-0.006c-0.352,0.571-0.619,1.182-0.793,1.822  c-3.192-0.092-6.313-0.945-9.107-2.487C27.306,10.928,27.604,10.094,28.113,9.29z M29.472,7.8C30.136,7.321,30.964,7,32,7  c2.292,0,3.579,1.563,4.274,2.97C33.867,9.843,31.506,9.093,29.472,7.8z M35.983,15.971C35.895,17.103,34.957,18,33.803,18h-3.605  C28.985,18,28,17.015,28,15.803c0-0.602-0.091-1.193-0.242-1.767C30.345,15.204,33.136,15.861,35.983,15.971z M32,3  c3.297,0,5.98,2.674,5.998,5.967C36.951,6.958,35.06,5,32,5s-4.951,1.958-5.998,3.967C26.02,5.674,28.703,3,32,3z M27.815,23.19  l12.939,9.316l-1.79,1.289l-13.321-9.591L27.815,23.19z M19.319,27.155l7.856,5.656l1.168-1.623l-6.948-5.002l2.172-1.014  l13.686,9.854l-1.79,1.289l-5.341-3.845l-1.168,1.623l4.797,3.454l-1.774,1.278L17.228,28.205c0.259-0.167,0.528-0.321,0.812-0.453  L19.319,27.155z M19,61v-1.132c0.494-0.121,0.967-0.319,1.394-0.612l1.685-1.158C23.433,58.591,27.672,60,32,60  s8.567-1.409,9.922-1.902l1.685,1.158c0.427,0.293,0.9,0.492,1.394,0.612V61H19z"/></svg>
