<svg xmlns="http://www.w3.org/2000/svg" xmlns:xlink="http://www.w3.org/1999/xlink" version="1.1" x="0px" y="0px" viewBox="0 0 66 66" enable-background="new 0 0 66 66" xml:space="preserve"><g><path d="M64.6,23.5l-2.8-1.9c0-1.3-0.1-2.7-0.3-4l2.5-2.3c0.3-0.3,0.4-0.8,0.2-1.2l-2.5-4.8c-0.2-0.4-0.6-0.6-1-0.5   l-3.3,0.7c-0.9-1-1.9-1.8-3-2.5l0.1-3.4c0-0.4-0.3-0.8-0.7-1L48.4,1c-0.4-0.1-0.9,0-1.1,0.4l-1.9,2.8c-1.3,0-2.7,0.1-4,0.3   l-2.3-2.5c-0.3-0.3-0.8-0.4-1.1-0.2l-4.8,2.5c-0.4,0.2-0.6,0.6-0.5,1l0.7,3.3c-1,0.9-1.8,1.9-2.6,3l-3.4-0.1c-0.5,0-0.8,0.3-1,0.7   l-1.6,5.2c-0.1,0.4,0,0.9,0.4,1.1l2.8,1.9c0,1.3,0.1,2.7,0.3,4l-2.5,2.3c-0.3,0.3-0.4,0.8-0.2,1.2l2.5,4.8c0.2,0.4,0.6,0.6,1.1,0.5   l3.3-0.7c0.9,1,1.9,1.8,3,2.6l-0.1,3.4c0,0.4,0.3,0.8,0.7,0.9l5.2,1.6c0.1,0,0.2,0,0.3,0c0.3,0,0.6-0.2,0.8-0.4l1.9-2.8   c1.3,0,2.7-0.1,4-0.3l2.3,2.5c0.3,0.3,0.8,0.4,1.2,0.2l4.8-2.5c0.4-0.2,0.6-0.6,0.5-1l-0.7-3.3c1-0.9,1.8-1.9,2.5-3l3.4,0.1   c0.4,0,0.8-0.3,1-0.7l1.6-5.2C65.1,24.2,64.9,23.8,64.6,23.5z M44.9,28.6c-4.1,0-7.5-3.4-7.5-7.5s3.4-7.5,7.5-7.5   c4.1,0,7.5,3.4,7.5,7.5C52.4,25.2,49,28.6,44.9,28.6z"/><path d="M32.3,46l-2.4-0.7c-0.3-0.9-0.6-1.8-1.1-2.7l1.2-2.2c0.2-0.4,0.1-0.8-0.2-1.2l-3-3   c-0.3-0.3-0.8-0.4-1.2-0.2l-2.2,1.2c-0.9-0.5-1.7-0.8-2.7-1.1L20,33.7c-0.1-0.4-0.5-0.7-0.9-0.7h-4.2c-0.4,0-0.8,0.3-0.9,0.7   l-0.7,2.4c-0.9,0.3-1.8,0.6-2.7,1.1l-2.2-1.2c-0.4-0.2-0.9-0.1-1.2,0.2l-3,3C3.9,39.5,3.8,40,4,40.4l1.2,2.2   c-0.5,0.8-0.8,1.7-1.1,2.7L1.7,46C1.3,46.1,1,46.5,1,46.9v4.2c0,0.4,0.3,0.8,0.7,0.9l2.4,0.7c0.3,0.9,0.6,1.8,1.1,2.7L4,57.7   c-0.2,0.4-0.1,0.8,0.2,1.2l3,3C7.5,62.1,8,62.2,8.3,62l2.2-1.2c0.9,0.5,1.8,0.8,2.7,1.1l0.7,2.4c0.1,0.4,0.5,0.7,0.9,0.7h4.2   c0.4,0,0.8-0.3,0.9-0.7l0.7-2.4c0.9-0.3,1.8-0.6,2.7-1.1l2.2,1.2c0.4,0.2,0.9,0.1,1.2-0.2l3-3c0.3-0.3,0.4-0.8,0.2-1.2l-1.2-2.2   c0.5-0.8,0.8-1.7,1.1-2.7l2.4-0.7c0.4-0.1,0.7-0.5,0.7-0.9v-4.2C33,46.5,32.7,46.1,32.3,46z M17,54.6c-3.1,0-5.6-2.5-5.6-5.6   c0-3.1,2.5-5.7,5.6-5.7c3.1,0,5.6,2.5,5.6,5.7C22.6,52.1,20.1,54.6,17,54.6z"/></g></svg>
