<svg xmlns="http://www.w3.org/2000/svg" xmlns:xlink="http://www.w3.org/1999/xlink" version="1.1" x="0px" y="0px" viewBox="0 0 100 100" style="enable-background:new 0 0 100 100;" xml:space="preserve"><path d="M74.4,90.7C74.4,90.7,74.4,90.7,74.4,90.7c-1.5,1.2-1.8,0.9-2-1c-0.4-3.7-0.9-7.3-1.1-11c-0.2-2.8-1.3-5.3-1.9-8  c-0.1-0.7-0.3-1.4-1.1-1.4c-1,0-1.1,0.8-1.3,1.6c-1,6-3.1,11.6-5.3,17.2c-0.2,0.6-0.4,1.3-1.2,1.8c-0.9-1.5-1.7-3-2.6-4.4  c-0.3-0.6-0.7-1.2-1.5-1.1c-0.9,0.1-0.8,0.8-1,1.5c-0.2,0.6-0.5,1.2-0.9,1.8c-0.5,0.8-0.3,2.4-1.6,2.3c-1-0.1-0.9-1.5-1.2-2.4  c-0.4-1-0.8-1.9-0.9-3c-0.1-1.1-0.8-1.2-1.5-0.6c-1.3,1.1-2.3,2.4-3.2,3.9c-0.6,0.9-1,2-2.1,3c-0.9-1.3-1.3-2.6-1.7-3.8  c-0.4-1-0.7-1.9-1.5-2.7c-1-1-1.7-0.9-2.1,0.6c-0.5,1.8-1.7,3-3.1,4.8c-1.2-5.2-3.5-9.6-4-14.5c-0.1-1.2-0.4-2.4-0.9-3.5  c-0.5-1-1.3-1.1-1.9-0.1c-0.6,1.1-0.8,2.3-1,3.5c-0.7,4.9-1.9,9.6-3.9,14.1c-0.2,0.5-0.3,1.1-1.1,1.4c-0.6-0.5-1.1-1-1.6-1.5  c0,0.7-0.1,1.4-0.3,2c1.5,1,3,2,4.5,3c2.3,1.6,4.6,1.2,6.8,0c2.3-1.3,2.4-1.3,4.5,0.1c0.7,0.4,0.9,1.5,2.2,1.4  c-0.1-1.8,1.7-1.8,2.6-2.7c-0.8-1.2-1.7-1-2.8-0.7c-1.2,0.4-2-0.4-1.5-1.4c0.7-1.4,1.1-2.9,2.4-4c0.8,0.7,0.9,1.5,1.2,2.1  c0.5,1,1.2,2,1.4,3c0.3,2.5,1.8-0.2,2.5,0.7c0.3,0.4,0.9,0.7,1.3,1c0.4,0.3,0.8,0.8,1.3,1.1c0.4,0.3,0.8,0.3,1.2-0.2  c1.7-1.8,4.2-2.3,6.2-1.3c0.7,0.3,1.3,0.6,1.6-0.3c0.3-0.8,0.7-0.7,1.3-0.5c0.7,0.2,1.3,0.2,1.9-0.1c1.2-0.6,1.9-0.1,2.5,0.9  c1.3,1.9,3.4,2,5.5,1.9c0.8,0,1.2-0.4,1.1-1.5c-0.1-1.2,0.5-1.6,2.1-2.2c0.2,0.8-0.5,1.1-0.9,1.6c-0.3,0.3-0.4,0.6-0.1,1  c0.3,0.3,0.7,0.2,1,0.1c0.2-0.1,0.3-0.2,0.5-0.3c1.1-0.8,2.4-1.5,3.6-2.2C74.6,91.6,74.5,91.2,74.4,90.7z M31.7,92.4  c-0.9-0.7-0.2-2.4-1.5-2.5c-1.2-0.1-1.3,1.4-2.1,2c-0.6-0.5-1.1-1-1.7-1.4c-0.7-0.5-0.9-1.2-0.4-1.9c2.3-3.1,2.2-6.8,2.8-10.4  c0.1-0.7,0-1.5,0.8-2.4c1.1,2.7,1.5,5.4,2.2,8c0.6,2.2,0.7,4.5,1.4,6.6C33.5,91.9,32.5,92,31.7,92.4z M46.7,91.4  c1-1.5,1.1-3.2,2.8-4.4c0.4,1.2,0.7,2.2,1.1,3.7C48.9,89.9,48.2,91.5,46.7,91.4z M57.7,90.2c-0.6,0.9-1.7,0.3-2.5-0.1  c0.1-1.1,1.1-1.6,1.5-3C57.5,88.5,58.2,89.4,57.7,90.2z M65.1,93.5c0.9-0.5,1.5-0.3,2.2,0.6C66.3,94.4,65.7,94.3,65.1,93.5z   M70,90.3c-0.7,0.2-1.9,0.9-2.2-0.7c-0.1-0.6-0.8-0.7-1.4-0.5c-0.8,0.3-1.4-0.1-2.1-0.5c-0.6-0.4-0.8-0.8-0.4-1.4  c2-3.2,2.3-7.1,3.8-10.5c0.3-0.7,0.5-1.4,0.7-2.3c0.9,0.7,1,1.4,1,2c-0.2,4.1,0.3,8,1.1,12C70.6,89.2,71,90.1,70,90.3z"/><path d="M84.5,12.5c0-1,0.1-2.1,0.3-3c-0.4-0.7-0.7-1.5-1-2.2c-0.4-1.1-1.3-0.9-2.1-1c-1-0.1-1.2,0.6-1.3,1.4  c-0.2,1.3-1.3,2.7,0.4,3.8c0.5,0.3,0.2,1.1,0.3,1.6c0.1,2-0.1,4-0.3,5.9c-0.4,3.4-0.3,6.9-1.6,10c-2.6,6.6-4.3,13.5-6.7,20.1  c-0.5,1.3-0.7,2.9-2.3,4.2c0.6-5,0-9.5,0.5-14c0.2-1.7,0.5-3.3,0.5-5C71,29,70,23.9,68.7,18.7c-0.2-0.6-0.7-1.3-0.4-1.9  c1-1.7,0.1-3.1-0.6-4.5c-0.4-0.9-0.7-1.5,0-2.2c0.2-0.2,0.6-0.3,0.7-0.2c0.5,0.5,0.6,1.1,0.7,1.8c0.1,1,0.1,2.1,0.2,3.1  c0,0.4,0.4,0.7,0.8,0.6c0.2-0.1,0.4-0.4,0.4-0.6c0-0.5-0.1-0.9-0.1-1.4c-0.1-1.3-0.2-2.6-0.3-4c0-0.4,0-0.8,0.5-0.9  c0.6-0.2,0.8,0.4,0.9,0.8c0.2,1-0.1,2.1,0.8,2.9c1.6-1-0.5-3.1,1.1-4.2c1.2,1.1,0.4,2.6,1,3.7c2.1-0.5,3.1-1.6,2.7-3.7  C77,7.8,77,7.3,77.5,7.2c0.1,0.1,0.3,0.2,0.4,0.3c0.6,1-0.8,2.9,0.5,2.9c1.7,0.1,0.5-2,1.1-3c0.8-1.2,0.1-1.7-1-1.9  c-0.9-0.2-1.7-0.3-2.7,0c-1.7,0.5-3.4,1.6-5.4,0.8c-0.3-0.1-0.8,0.1-1,0.3C68,8,66.2,8.7,65.2,10.4c-0.9,1.5-2.2,1.9-3.5,0.9  c-1-0.7-1.6-0.7-2.5-0.1C58,12,57,11.9,55.7,11.5c-2.6-0.8-5.4-1.5-8.2-0.5c-0.6,0.2-1.3,0.4-1.9,0.2c-1.3-0.4-1.9,0.4-2.5,1.3  c-1.8,3-3.6,6-3.9,9.6c0,0.4-0.2,0.9-0.9,1.3c-0.5-1.9-0.9-3.7-1.3-5.5c-0.6-2.8-0.6-2.8,2.1-3.2c0.6-0.1,1.5-0.1,1.3-0.7  c-0.6-1.8,1.2-1.3,1.9-1.9c-0.7-1.5-1.7-1.9-3.3-1.7C37,10.7,35,11.3,33,11.9c0.2-1-0.5-1.5-1.1-2c-1.2-1-2.7-1.9-3.6-3.1  c-1.6-2.2-3.6-2.3-5.7-1.7c-1.4,0.4-2.3,0.2-3.3-0.6C18.7,4.2,18.4,4,18,3.8c-0.1,0.6-0.3,1.2-0.5,1.7c1.1,0.6,0.3,1.9,0.3,2.9  c-0.6,6-0.6,12-0.6,18.1c0,4.1,0.4,8.3,1.2,12.4c0.8,4,0.9,8.1,2.6,11.8c0.6,1.4,1.1,2.8,1.9,4.1c0.6,1,1.2,2,1.7,3  c0.1-0.5,0.3-1,0.5-1.5c0.1-0.9,0.2-1.8,0.5-2.7c-0.1-1.3-0.2-2.7-0.1-4.1c0.4-7.2,1.2-14.5,2.2-21.6c0.6-4.3,2.5-8.1,4.8-11.7  c0.3-0.5,0.7-1.3,1.5-1.1c0.8,0.1,0.7,0.9,1,1.6c0.9,2.6,1.1,5.5,2.5,8c0.3,0.5,0.4,1.1,1,1.2c0.8,0.1,1.2-0.5,1.5-1.1  c0.8-1.9,1.4-3.9,1.9-5.9c0.6-2.1,1-4.2,3.2-5.8c1.7,2.7,3.7,5.2,4.2,8.5c0.2,1.4,0.4,2.4,2.2,2.4c0.3-3,1.3-5.8,2.6-8.5  c0.3-0.7,0.6-1.5,1.6-1.3c0.7,0.1,1.3,0.6,1.5,1.5c0.4,2.4,1.5,4.7,1.7,7.1c0.1,0.7,0.2,1.3,1.1,1.4c0.9,0.1,1.2-0.5,1.2-1.2  c0.1-1.1,0.9-1.8,1.3-2.8c0.4-1.2,1.4-2.2,1.1-3.7c-0.1-0.5,0.3-1.2,0.8-1.4c0.8-0.2,1.2,0.4,1.5,1c0,0.1,0.1,0.2,0.1,0.3  c1.7,4,3.7,8,3.5,12.4c-0.4,7.2,0.9,14.5-0.7,21.6c-0.6,2.8,0.2,5.8-1.1,8.6c-0.2,0.3-0.1,0.5,0.2,0.7c0.3,0.2,0.8,0.2,1-0.1  c1-1.2,2.1-2.2,2.8-3.6c2.8-5.7,5.6-11.3,7.3-17.4c2.1-7.3,3.2-14.7,4.7-22.1c0.3-1.4,0-3-0.1-5C83.8,11.6,84.1,12,84.5,12.5z   M28.2,9.8c-1.1-0.2-1-1.2-1.3-1.8C27.6,8.3,28.2,8.7,28.2,9.8z M24.7,6.5c0.4-0.1,0.9-0.2,1.3,0.2c-0.2,0.5-0.7,0.4-1.1,0.7  c-0.3,0.2-0.5,0-0.7-0.2C24,6.7,24.4,6.6,24.7,6.5z M29.1,19.4c-2.6,4.8-3.4,9.9-4,15.1c-0.6,5-1.1,10.1-1.6,15.1  c0,0.4-0.2,0.7-0.3,1.4c-1.5-2.5-1.8-5-2.3-7.5c-1-5.1-1.6-10.2-1.8-15.4c-0.2-3.3,0-6.6,0-9.9c0-0.9,0.5-1.4,1.1-1.8  c1.5-1.1,2.3-2.8,3.5-4.2c0.5,1.6,0.6,1.6,1.7,0.5c0.5-0.5,0.9-0.7,1.4-0.1c0.4,0.5,0.9,0.7,1.4,0.8c1.1,0.2,2.1,0.2,2.2-1.3  c0-0.4,0.1-0.7,0.6-1c0.8-0.1,1.3,0.7,2.1,0.8C32.1,14.7,30.4,17,29.1,19.4z M52.1,14.9c-0.5,1-0.9,2-1.5,3.3  c-1.3-1.5-1.5-3.1-2.2-5.3c2.3,1.4,3.2-0.7,4.8-0.9C53.7,13.4,52.5,14,52.1,14.9z M59.9,19c-1.8-2-0.8-3.8-0.1-5.7  c0.2-0.5,0.4-0.5,0.8-0.4c0.6,0.2,1.3,0,1.9,0.7C61.7,15.3,60.8,17.1,59.9,19z M66,13.7c-0.2-0.3-0.2-0.7,0.2-0.9  c0.6,0.3,0.8,0.9,0.7,1.6C66.3,14.5,66.2,14,66,13.7z"/></svg>
