<svg xmlns="http://www.w3.org/2000/svg" xmlns:xlink="http://www.w3.org/1999/xlink" version="1.1" x="0px" y="0px" viewBox="0 0 69 69" style="enable-background:new 0 0 69 69;" xml:space="preserve"><g><path d="M44.86275,22.54105v6.20726c-4.64496-2.14133-9.10616-2.23591-13.55773-0.48956v-0.16584l12.08784-6.43459   C44.05893,21.30375,44.86275,21.78647,44.86275,22.54105z"/><path d="M44.86275,53.88633v6.20726c0,0.75457-0.80381,1.23729-1.46989,0.88272l-12.08784-6.43459v-0.16584   C36.04146,56.22514,40.42576,55.92872,44.86275,53.88633z"/><path d="M57.13501,40.79504c-4.69379-5.85876-12.05188-11.77002-19.63-11.77002c-11.14196,0-19.90948,12.18844-20.03003,12.28998   c0,0,4.10999,5.62,10.17999,9.26001c11.04363,6.62606,21.51234,1.20526,29.48004-8.73999l8.42999,8.95001v-18.94L57.13501,40.79504   z M25.16498,43.60504c-1.45001,0-2.58997-1.15002-2.58997-2.57001c0-1.42004,1.13995-2.57001,2.58997-2.57001   c1.41003,0,2.54999,1.14996,2.54999,2.57001C27.71497,42.45502,26.57501,43.60504,25.16498,43.60504z"/><g><path d="M19.35498,54.77502v3.23999c0,3.3431-2.71879,6.12-6.12,6.12c-3.37,0-6.12-2.73999-6.12-6.12v-9.84998    c-2.09998-0.46002-3.67999-2.32001-3.67999-4.56c0-2.24005,1.58002-4.11005,3.67999-4.57001V8.26501c0-0.54999,0.45001-1,1-1    s1,0.45001,1,1v30.77002c2.09998,0.45996,3.66998,2.32996,3.66998,4.57001c0,2.23999-1.57001,4.09998-3.66998,4.56v9.84998    c0,2.27002,1.84998,4.12,4.12,4.12c2.28318,0,4.12-1.8665,4.12-4.12v-1.41998l-3.58997,2.26996    c-0.46002,0.29004-1.08002,0.15002-1.38-0.31c-0.29004-0.46997-0.15002-1.08997,0.32001-1.38l5.12-3.23999    c0.29999-0.20001,0.69-0.20996,1.00995-0.03998C19.15497,54.07501,19.35498,54.41504,19.35498,54.77502z"/><path d="M25.315,22.88501c0,2.57001-2.09003,4.66998-4.66003,4.66998c-2.57996,0-4.67999-2.09998-4.67999-4.66998    c0-2.58002,2.10004-4.67999,4.67999-4.67999C23.22498,18.20502,25.315,20.30499,25.315,22.88501z"/><path d="M33.92499,14.815c0,2.15002-1.75,3.90002-3.89001,3.90002c-2.15997,0-3.90997-1.75-3.90997-3.90002    c0-2.14996,1.75-3.89996,3.90997-3.89996C32.17499,10.91504,33.92499,12.66504,33.92499,14.815z"/><path d="M49.53497,9.54504c0,2.56995-2.08997,4.65997-4.66998,4.65997S40.185,12.11499,40.185,9.54504    c0-2.58002,2.09998-4.68005,4.67999-4.68005S49.53497,6.96503,49.53497,9.54504z"/></g></g></svg>
