<svg xmlns="http://www.w3.org/2000/svg" xmlns:xlink="http://www.w3.org/1999/xlink" version="1.1" x="0px" y="0px" viewBox="0 0 100 100" enable-background="new 0 0 100 100" xml:space="preserve"><path d="M32,93v1.903c0,0,0.19,2.758,3.5,2.758s3.5-2.758,3.5-2.758V93H32z"/><rect x="32" y="15" width="7" height="48"/><rect x="32" y="64" width="7" height="2"/><path d="M39,14c0,0-0.381-2.758-3.69-2.758C32,11.242,32,14,32,14H39z"/><path fill="none" stroke="#000000" stroke-miterlimit="10" d="M37.186,9.796c-0.379,0.477-1.073,0.556-1.55,0.177L35.204,9.63  c-0.477-0.379-0.556-1.073-0.177-1.55l1.716-2.159c0.379-0.477,1.073-0.556,1.55-0.177l0.432,0.343  c0.477,0.379,0.556,1.073,0.177,1.55L37.186,9.796z"/><path fill="none" stroke="#000000" stroke-miterlimit="10" d="M38.912,7.6c-0.609,0.008-1.109-0.479-1.117-1.088l-0.007-0.552  c-0.008-0.609,0.48-1.109,1.089-1.117l2.758-0.035c0.609-0.008,1.109,0.479,1.117,1.088l0.007,0.552  c0.008,0.609-0.48,1.109-1.089,1.117L38.912,7.6z"/><path fill="none" stroke="#000000" stroke-miterlimit="10" d="M42.2,7.733c-0.564-0.229-0.836-0.873-0.606-1.437l0.208-0.511  c0.229-0.564,0.873-0.835,1.438-0.606l2.554,1.039c0.564,0.229,0.836,0.873,0.606,1.437l-0.208,0.511  c-0.229,0.564-0.874,0.836-1.438,0.606L42.2,7.733z"/><path fill="none" stroke="#000000" stroke-miterlimit="10" d="M44.793,8.771c-0.18-0.582,0.148-1.199,0.73-1.378l0.527-0.162  c0.583-0.179,1.199,0.148,1.378,0.73l0.81,2.637c0.179,0.582-0.148,1.199-0.73,1.378l-0.528,0.163  c-0.583,0.178-1.2-0.148-1.378-0.731L44.793,8.771z"/><path fill="none" stroke="#000000" stroke-miterlimit="10" d="M55.918,14.654c0.604-0.081,1.158,0.344,1.238,0.948l0.072,0.547  c0.081,0.604-0.345,1.159-0.948,1.239l-2.733,0.363c-0.604,0.08-1.158-0.344-1.239-0.948l-0.072-0.547  c-0.08-0.604,0.345-1.159,0.948-1.239L55.918,14.654z"/><path fill="none" stroke="#000000" stroke-miterlimit="10" d="M52.637,14.913c0.588,0.16,0.934,0.767,0.773,1.355L53.265,16.8  c-0.16,0.588-0.768,0.933-1.355,0.773l-2.66-0.728c-0.588-0.161-0.934-0.767-0.773-1.354l0.146-0.532  c0.161-0.588,0.768-0.935,1.355-0.774L52.637,14.913z"/><path fill="none" stroke="#000000" stroke-miterlimit="10" d="M49.938,14.191c0.248,0.556-0.004,1.208-0.562,1.455l-0.504,0.224  c-0.557,0.248-1.208-0.004-1.456-0.56l-1.118-2.522c-0.247-0.557,0.004-1.208,0.561-1.455l0.505-0.224  c0.557-0.247,1.209,0.004,1.456,0.562L49.938,14.191z"/><path fill="none" stroke="#000000" stroke-miterlimit="10" d="M57.352,17.69c-0.607-0.04-1.067-0.566-1.026-1.174l0.037-0.551  c0.04-0.608,0.566-1.067,1.174-1.026l2.752,0.185c0.608,0.041,1.067,0.566,1.027,1.174l-0.037,0.551  c-0.041,0.607-0.567,1.067-1.175,1.026L57.352,17.69z"/><path fill="none" stroke="#000000" stroke-miterlimit="10" d="M60.619,18.085c-0.545-0.273-0.765-0.937-0.49-1.48l0.248-0.493  c0.273-0.544,0.937-0.763,1.481-0.49l2.463,1.239c0.545,0.274,0.764,0.937,0.49,1.48l-0.248,0.493  c-0.273,0.544-0.938,0.764-1.481,0.49L60.619,18.085z"/><path fill="none" stroke="#000000" stroke-miterlimit="10" d="M63.121,19.327c-0.133-0.594,0.243-1.184,0.838-1.315l0.538-0.12  c0.596-0.132,1.185,0.243,1.316,0.837l0.597,2.693c0.132,0.595-0.243,1.184-0.837,1.316l-0.539,0.119  c-0.595,0.132-1.185-0.243-1.316-0.838L63.121,19.327z"/><path fill="none" stroke="#000000" stroke-miterlimit="10" d="M68.062,24.561c0.247,0.556-0.005,1.208-0.562,1.455l-0.504,0.223  c-0.558,0.248-1.208-0.004-1.456-0.561l-1.117-2.522c-0.246-0.557,0.004-1.208,0.562-1.456l0.504-0.223  c0.558-0.247,1.209,0.004,1.456,0.562L68.062,24.561z"/><path fill="none" stroke="#000000" stroke-miterlimit="10" d="M65.7,26.303c-0.076-0.604,0.352-1.156,0.956-1.232l0.547-0.069  c0.604-0.076,1.157,0.352,1.232,0.956l0.347,2.737c0.075,0.604-0.353,1.156-0.956,1.232l-0.548,0.069  c-0.604,0.076-1.156-0.352-1.232-0.956L65.7,26.303z"/><path fill="none" stroke="#000000" stroke-miterlimit="10" d="M68.278,33.137c-0.068,0.605-0.617,1.039-1.222,0.969l-0.548-0.063  c-0.605-0.069-1.038-0.617-0.97-1.222l0.317-2.74c0.07-0.605,0.617-1.04,1.222-0.97l0.549,0.063c0.604,0.07,1.039,0.618,0.97,1.223  L68.278,33.137z"/><path fill="none" stroke="#000000" stroke-miterlimit="10" d="M65.795,34.403c-0.18-0.582,0.148-1.199,0.73-1.377l0.527-0.162  c0.583-0.179,1.199,0.148,1.378,0.73l0.81,2.637c0.179,0.582-0.148,1.199-0.729,1.378l-0.528,0.162  c-0.583,0.178-1.199-0.149-1.378-0.731L65.795,34.403z"/><path fill="none" stroke="#000000" stroke-miterlimit="10" d="M66.062,36.709c0.345-0.501,1.032-0.628,1.533-0.282l0.454,0.313  c0.502,0.346,0.629,1.033,0.283,1.534l-1.565,2.271c-0.346,0.501-1.032,0.628-1.533,0.283l-0.455-0.313  c-0.502-0.346-0.628-1.033-0.282-1.534L66.062,36.709z"/><circle fill="none" stroke="#000000" stroke-miterlimit="10" cx="35.309" cy="11.168" r="1.103"/><circle fill="none" stroke="#000000" stroke-miterlimit="10" cx="64.542" cy="42.056" r="1.103"/><path d="M66.584,62.021c2.392-1.731,4.058-4.394,4.468-7.459l7.688-2.148l-7.707-0.92c-0.241-1.663-0.841-3.208-1.737-4.544  l3.519-8.149l-5.817,5.662c-1.886-1.503-4.27-2.407-6.867-2.407c-0.142,0-0.278,0.016-0.419,0.021l-3.24-7.267l0.219,7.8  c-1.822,0.598-3.43,1.66-4.694,3.044l-8.265-3.326l6.356,6.213c-0.629,1.388-0.988,2.923-0.988,4.546  c0,0.325,0.021,0.646,0.048,0.965l-7.711,3.22l8.477-0.036c0.736,1.811,1.939,3.376,3.458,4.558l-3.048,8.493l6.157-6.799  c1.144,0.401,2.369,0.631,3.649,0.631c1.169,0,2.293-0.185,3.35-0.521L68.66,70.8L66.584,62.021z"/><g><polygon points="39,70.051 39,68.637 32,75.637 32,77.051  "/><polygon points="39,72.879 39,71.465 32,78.465 32,79.879  "/><polygon points="39,67.223 39,67 37.808,67 32,72.808 32,74.223  "/><polygon points="33.564,67 32.15,67 32,67.15 32,68.564  "/><polygon points="39,75.707 39,74.293 32,81.293 32,82.707  "/><polygon points="36.393,67 34.979,67 32,69.979 32,71.393  "/><polygon points="39,81.363 39,79.949 32,86.949 32,88.363  "/><polygon points="39,91.264 38.264,92 39,92  "/><polygon points="39,89.85 39,88.436 35.435,92 36.85,92  "/><polygon points="39,87.021 39,85.606 32.607,92 34.021,92  "/><polygon points="39,78.535 39,77.121 32,84.121 32,85.535  "/><polygon points="39,84.192 39,82.777 32,89.777 32,91.192  "/></g></svg>
