<svg fill="#000000" xmlns:dc="http://purl.org/dc/elements/1.1/" xmlns:cc="http://creativecommons.org/ns#" xmlns:rdf="http://www.w3.org/1999/02/22-rdf-syntax-ns#" xmlns:svg="http://www.w3.org/2000/svg" xmlns="http://www.w3.org/2000/svg" xmlns:sodipodi="http://sodipodi.sourceforge.net/DTD/sodipodi-0.dtd" xmlns:inkscape="http://www.inkscape.org/namespaces/inkscape" version="1.1" x="0px" y="0px" viewBox="0 0 30 30" enable-background="new 0 0 30 30" xml:space="preserve"><g transform="translate(0,-3)"><g transform="matrix(0.34534316,0,0,0.34534316,9.9831638,5.1016947)"><path d="M 18.46875 5.125 C 14.508412 5.125 13.897527 8.0177897 13.84375 8.3125 C 10.490295 7.1114706 5.6153363 7.1818612 5.375 7.1875 C 5.1691672 7.1919895 4.9947784 7.3718706 5 7.5625 C 5.0052202 7.7531294 5.1717773 7.8787988 5.375 7.875 C 5.4031812 7.8744068 6.6622927 7.8829065 8.28125 8 C 8.3408686 8.0875231 8.96946 9.0291379 8.4375 10.375 C 8.3677407 10.552506 8.4474936 10.742395 8.625 10.8125 C 8.6664412 10.828731 8.7078681 10.84375 8.75 10.84375 C 8.8874466 10.84375 9.0086265 10.76072 9.0625 10.625 C 9.5183711 9.4715254 9.3130593 8.5805825 9.09375 8.0625 C 10.040364 8.1543709 11.057676 8.280902 12.03125 8.5 C 12.036691 8.5095057 12.02481 8.5221289 12.03125 8.53125 C 12.059568 8.5716551 12.734178 9.5544006 12.1875 10.9375 C 12.117741 11.115006 12.197494 11.304895 12.375 11.375 C 12.416441 11.391231 12.457868 11.40625 12.5 11.40625 C 12.637447 11.40625 12.789876 11.32322 12.84375 11.1875 C 13.271625 10.104864 13.079535 9.252519 12.875 8.71875 C 13.643461 8.939702 14.368218 9.2104296 14.9375 9.5625 C 16.277277 10.390978 17.798947 10.65625 19.15625 10.65625 C 19.438278 10.65625 19.70682 10.611698 19.96875 10.59375 C 19.776691 11.039385 19.566722 11.789639 19.90625 12.78125 C 18.644874 13.035137 17.6875 14.274953 17.6875 15.75 C 17.6875 17.408278 18.884107 18.75 20.375 18.75 C 21.865893 18.75 23.09375 17.408278 23.09375 15.75 C 23.09375 14.148598 21.951536 12.806934 20.53125 12.71875 C 20.031989 11.455616 20.630388 10.568151 20.65625 10.53125 C 21.777135 10.395271 22.580483 10.179887 22.65625 10.15625 C 22.851269 10.095124 22.941001 9.8993645 22.875 9.71875 C 22.808999 9.5381355 22.601269 9.4392196 22.40625 9.5 C 22.365421 9.5129451 18.340646 10.737502 15.46875 9.0625 C 15.6874 9.0863296 15.920097 9.125 16.125 9.125 C 19.6475 9.125 20.076828 5.7381034 20.09375 5.59375 C 20.115161 5.4079554 19.966354 5.2449961 19.78125 5.21875 C 19.321944 5.1531348 18.883162 5.125 18.46875 5.125 z M 18.46875 5.8125 C 18.742607 5.8125 19.045719 5.8123238 19.34375 5.84375 C 19.156229 6.6152466 18.470225 8.4375 16.125 8.4375 C 15.654988 8.4375 15.117812 8.3613768 14.5625 8.21875 C 14.780066 7.5135593 15.602747 5.8125 18.46875 5.8125 z M 20.25 13.15625 C 20.293586 13.153356 20.330792 13.15625 20.375 13.15625 C 21.619127 13.15625 22.625 14.321737 22.625 15.75 C 22.625 17.178263 21.618903 18.34375 20.375 18.34375 C 19.131096 18.34375 18.125 17.178263 18.125 15.75 C 18.125 14.372487 19.066945 13.234801 20.25 13.15625 z " transform="matrix(2.8956705,0,0,2.8956705,-28.907953,-14.772827)"></path></g><g transform="matrix(0.10214838,0.41839779,-0.41839779,0.10214838,37.717142,-13.753461)"><path d="m 72.9,71.1 c -0.1,0.2 0.1,-0.2 0,0 l 0,0 z"></path><path d="m 73.3,69.1 c 0.1,-1.6 -0.9,-3.3 -1.4,-4 -1.8,-2.7 -2.8,-4.4 -3.6,-5.7 -0.4,-0.6 -0.7,-1.2 -1.1,-1.7 -0.6,-0.9 -0.9,-1.9 -0.8,-2.8 0,0 0,0 0,0 -0.4,0.1 -0.9,0.2 -1.2,0.6 -0.9,0.8 -0.9,2.2 -0.1,3.1 0.1,0.1 5.6,6.9 8.2,10.5 0,0.1 0,0.1 0,0 0,0.1 0,0 0,0 z"></path><path d="m 80.6,74.6 c 0,-3.1 -0.1,-6.2 -0.7,-8.3 -0.4,-1 -8,-11.9 -8.4,-12.4 -0.8,-0.9 -2.2,-0.9 -3.1,-0.1 -0.9,0.8 -0.6,2.2 0,3.1 0.3,0.5 0.7,1.1 1.1,1.7 0.8,1.3 1.9,2.9 3.6,5.6 0,0 2.1,3.3 1.5,5.9 -0.6,2.3 -1.8,4 -3.6,5 -1.3,0.8 -2.6,0.9 -3.9,0.3 -1,-0.4 -2.2,-1.9 -3.9,-4.2 -1,-1.3 -1.9,-2.6 -2.5,-3 -1.2,-0.9 -3,-0.3 -4.4,0.7 1,1.5 3.6,5.9 6.1,10.4 1,1.8 1.7,3.5 2.3,4.9 0.8,1.8 1.5,3.4 2.4,4.6 1.9,2.7 5.7,5.1 7.3,6 l 0.1,0 9.3,-5.5 C 83.2,88.4 81.6,85.6 80.9,80.8 80.7,79.2 80.7,77 80.6,74.6 z"></path><path d="m 65.1,63.9 c 0.4,0.5 3.9,4.4 7,8.7 C 72.6,72 72.7,71.9 73,71.1 71.6,69 67.3,63.6 65.2,61 c -0.9,0.8 -0.9,2.1 -0.1,2.9 z"></path><path d="m 70.4,74 c 0.2,-0.1 0.3,-0.2 0.5,-0.3 -2.1,-3 -4.4,-5.8 -5.8,-7.4 -0.8,0.9 -0.8,1.9 0.1,2.8 0,0 2,2.4 4.2,5.3 -0.3,0 0.4,-0.1 1,-0.4 z"></path></g></g></svg>
