<svg xmlns="http://www.w3.org/2000/svg" xmlns:xlink="http://www.w3.org/1999/xlink" version="1.1" x="0px" y="0px" viewBox="0 0 100 100" enable-background="new 0 0 100 100" xml:space="preserve"><g><path d="M100,11c0,0-31.748,7.904-34.045,7.828c-7.104-0.236-12.85-6.956-19.548-5.31c-8.045,1.977-12.589,10.101-10.612,18.145   c1.977,8.045,10.288,12.964,18.333,10.988c5.972-1.467,9.777-10.044,14.897-13.273C70.59,28.391,100,21.001,100,21.001V11z"/><path d="M48.662,8.258c3.655,0,6.869,1.383,9.762,2.752C50.814,3.559,42.432,0,42.432,0s2.866,2.869,3.207,8.604   C46.63,8.385,47.635,8.258,48.662,8.258z"/><path d="M74.326,38.379c0,0,1.162,4.16-2.705,11.895c-1.211,2.412-3.447,4.99-6.123,7.676c2.91-5.41,5.039-11.855,5.039-20.107   c0-1.014-0.061-1.996-0.146-2.965c-1.073,1.017-2.209,2.335-3.321,3.631c-3.123,3.636-6.662,7.756-11.719,8.999   c-1.57,0.386-3.184,0.581-4.795,0.581c-8.218,0-15.441-4.882-18.541-12.193c-7.812,9.094-16.068,18.341-16.068,30.591   C15.947,83.575,45.004,100,45.004,100c-2.004-10,6.08-27,6.08-27S59,90,57,100c0,0,27.053-17.688,27.053-35.674   C84.053,45.947,74.326,38.379,74.326,38.379z"/></g></svg>
