<svg xmlns="http://www.w3.org/2000/svg" xmlns:xlink="http://www.w3.org/1999/xlink" version="1.1" x="0px" y="0px" viewBox="0 0 100 100" enable-background="new 0 0 100 100" xml:space="preserve"><g><path d="M50,27.715c2.475,0,4.49-2.047,4.49-4.563c0-2.517-2.016-4.563-4.49-4.563c-2.476,0-4.49,2.047-4.49,4.563   S47.524,27.715,50,27.715z M50,20.589c1.373,0,2.49,1.15,2.49,2.563c0,1.413-1.117,2.563-2.49,2.563s-2.49-1.149-2.49-2.563   S48.627,20.589,50,20.589z"/><path d="M56.053,81.156V62.68c0-0.553-0.447-1-1-1H54.49V34.701h10.775l0,0c0.002,0,0.002,0,0.002,0   c0.116,0,0.233-0.027,0.348-0.07c0.037-0.014,0.07-0.033,0.104-0.052c0.041-0.021,0.086-0.033,0.123-0.061l4.943-3.488   c0.266-0.188,0.424-0.492,0.424-0.817V16.094c0-0.325-0.158-0.63-0.424-0.817l-4.943-3.49c-0.029-0.021-0.063-0.024-0.094-0.041   c-0.059-0.034-0.119-0.061-0.186-0.082c-0.064-0.02-0.127-0.031-0.191-0.039c-0.037-0.004-0.068-0.021-0.105-0.021H34.734   c-0.037,0-0.068,0.017-0.104,0.021c-0.065,0.008-0.128,0.02-0.191,0.039c-0.067,0.021-0.127,0.048-0.187,0.082   c-0.031,0.017-0.065,0.021-0.094,0.041l-4.943,3.49c-0.266,0.188-0.423,0.492-0.423,0.817v14.118c0,0.325,0.158,0.63,0.423,0.817   l4.943,3.488c0.039,0.027,0.082,0.04,0.123,0.061c0.035,0.019,0.067,0.038,0.104,0.052c0.114,0.043,0.23,0.07,0.348,0.07l0,0l0,0   H45.51V61.68h-0.562c-0.552,0-1,0.447-1,1v18.478c0,3.991,2.715,7.239,6.052,7.239S56.053,85.148,56.053,81.156z M45.948,63.68   h8.104v2.799h-8.104V63.68z M45.948,73.711h8.104v3.234h-8.104V73.711z M54.053,68.479v3.232h-8.104v-3.232H54.053z M45.948,81.156   v-2.211h8.104v2.211c0,0.352-0.029,0.693-0.08,1.023h-7.945C45.977,81.85,45.948,81.508,45.948,81.156z M69.209,29.694   l-2.943,2.077V14.535l2.943,2.078V29.694z M30.791,16.613l2.943-2.078v17.236l-2.943-2.077V16.613z M35.734,13.604h28.532v19.097   H53.49h-6.98H35.734V13.604z M47.51,34.701h4.98V61.68h-4.98V34.701z M50,86.396c-1.362,0-2.563-0.881-3.298-2.217h6.596   C52.563,85.516,51.361,86.396,50,86.396z"/></g></svg>
