<svg xmlns="http://www.w3.org/2000/svg" data-name="Layer 1" viewBox="0 0 100 100" x="0px" y="0px"><g transform="translate(10,3)"><rect x="13.29" y="13.8" width="52.41" height="2.1" rx="1.05"/><path d="M49,89.27a.52.52,0,0,1-.53-.52V8A.52.52,0,0,1,49,7.52a.52.52,0,0,1,.52.52V88.75A.52.52,0,0,1,49,89.27Z" transform="translate(-10 -3.68)"/><path d="M42.68,88.22a.52.52,0,0,1-.53-.52V11.19a.53.53,0,0,1,.53-.53.52.52,0,0,1,.52.53V87.7A.52.52,0,0,1,42.68,88.22Z" transform="translate(-10 -3.68)"/><path d="M36.39,86.13a.53.53,0,0,1-.53-.53V13.28a.53.53,0,0,1,.53-.52.52.52,0,0,1,.52.52V85.6A.52.52,0,0,1,36.39,86.13Z" transform="translate(-10 -3.68)"/><path d="M55.25,88.22a.52.52,0,0,1-.52-.52V11.19a.52.52,0,0,1,.52-.53.53.53,0,0,1,.53.53V87.7A.52.52,0,0,1,55.25,88.22Z" transform="translate(-10 -3.68)"/><path d="M61.54,87.18a.52.52,0,0,1-.52-.53V13.28a.52.52,0,0,1,.52-.52.53.53,0,0,1,.53.52V86.65A.53.53,0,0,1,61.54,87.18Z" transform="translate(-10 -3.68)"/><path d="M74.12,17a1.5,1.5,0,0,1,.37.05A11.17,11.17,0,0,1,75,14.07a7.32,7.32,0,0,1,.46-1.2A4.34,4.34,0,0,1,76,12c.17-.26.43-.35.6-.54s.5-.24.67-.28a1.39,1.39,0,0,1,.83,0c.13.08.17,0,.32.32a4.24,4.24,0,0,1,.36,1.27A4,4,0,0,1,78.62,14c-.09.46-.37,1-.49,1.53l-.2,1a1.39,1.39,0,0,0,0,.41,1.55,1.55,0,0,0,1.64,1.44,6.43,6.43,0,0,0,2.54-.69,6.72,6.72,0,0,0,2.15-1.77,6.94,6.94,0,0,0,1.33-2.85,7.82,7.82,0,0,0-1.42-6.29A7.7,7.7,0,0,0,81.39,4.5a8.41,8.41,0,0,0-6.49-.32,6.42,6.42,0,0,0-1.39.68c-.43.26-.86.52-1.25.81a10.37,10.37,0,0,0-2,2.16A12,12,0,0,0,69,10.27a15.83,15.83,0,0,0-.59,2.4A20.23,20.23,0,0,0,68.22,17Z" transform="translate(-10 -3.68)"/><path d="M14.75,15.9a6.72,6.72,0,0,0,2.15,1.77,6.43,6.43,0,0,0,2.54.69,1.49,1.49,0,0,0,.42,0,1.55,1.55,0,0,0,1.19-1.83l-.2-.95c-.12-.53-.4-1.07-.49-1.53a4,4,0,0,1-.17-1.17,4.24,4.24,0,0,1,.36-1.27c.15-.3.19-.24.32-.32a1.39,1.39,0,0,1,.83,0c.17,0,.41.21.67.28s.43.28.6.54a4,4,0,0,1,.6.83,8.34,8.34,0,0,1,.47,1.2A11.61,11.61,0,0,1,24.49,17a1.5,1.5,0,0,1,.37-.05h5.9a20.91,20.91,0,0,0-.21-4.28,14.78,14.78,0,0,0-.6-2.4,11.16,11.16,0,0,0-1.24-2.43,10.43,10.43,0,0,0-2-2.17c-.39-.29-.82-.55-1.25-.81a6,6,0,0,0-1.39-.67,8.36,8.36,0,0,0-6.49.31,7.79,7.79,0,0,0-2.75,2.26,7.82,7.82,0,0,0-1.42,6.29A6.94,6.94,0,0,0,14.75,15.9Z" transform="translate(-10 -3.68)"/><path d="M86.7,47.91a79.86,79.86,0,0,0-3-7.45c-1.07-2.41-2.25-4.71-3.42-7S77.94,29,76.78,26.74c-.32-.6-.52-1-.74-1.52a13.17,13.17,0,0,1-.58-1.56,18.81,18.81,0,0,1-.77-3.3c0-.12,0-.24,0-.36a1.56,1.56,0,0,1-.53.1H68.55c.07.41.13.83.2,1.24.24,1.36.55,2.69.9,4,.18.66.38,1.33.59,2s.51,1.4.71,1.95c.88,2.37,1.76,4.7,2.58,7a72,72,0,0,1,3.56,13.91,32.38,32.38,0,0,1-.57,12.85,12.57,12.57,0,0,1-.47,1.35,13.41,13.41,0,0,1-.49,1.3L74.93,67a4.87,4.87,0,0,1-.31.6l-.38.56-.74,1.11-.86,1-.42.51c-.15.17-.33.31-.48.47l-1,.93a25.4,25.4,0,0,1-4.51,3.07,34.78,34.78,0,0,1-5.2,2.19c-3.6,1.18-7.45,2.37-11.35,2.35a33.37,33.37,0,0,1-11.33-2.26,26.57,26.57,0,0,1-9.62-5.27A19.2,19.2,0,0,1,23,63.17a33.62,33.62,0,0,1-.77-12.89,69.71,69.71,0,0,1,3.33-13.93c.79-2.33,1.65-4.67,2.52-7,.2-.55.48-1.28.71-1.95s.41-1.35.59-2c.35-1.34.66-2.67.9-4,.07-.41.13-.83.2-1.24H24.86a1.56,1.56,0,0,1-.53-.1l0,.36a19.78,19.78,0,0,1-.78,3.3,13.17,13.17,0,0,1-.58,1.56c-.22.5-.42.92-.74,1.52C21,29,19.86,31.22,18.73,33.52s-2.3,4.63-3.33,7a75.58,75.58,0,0,0-2.89,7.52,46.09,46.09,0,0,0-2.45,17c0,.76.16,1.55.25,2.33a17.19,17.19,0,0,0,.39,2.35l.55,2.34L12,74.37a32.51,32.51,0,0,0,4.72,8.48,35.31,35.31,0,0,0,6.82,6.78,45.43,45.43,0,0,0,3.92,2.7,37.6,37.6,0,0,0,4.21,2.11c5.74,2.5,12.09,3.15,18.08,3.18.78,0,1.53,0,2.3-.06s1.54,0,2.3-.12c1.51-.18,3-.26,4.55-.58l2.26-.41,2.24-.59a38.49,38.49,0,0,0,4.37-1.55c.72-.28,1.4-.68,2.1-1s1.4-.67,2.06-1.12a42.93,42.93,0,0,0,3.91-2.68,36.91,36.91,0,0,0,6.84-6.73,32.23,32.23,0,0,0,6.66-17.87A45.16,45.16,0,0,0,86.7,47.91ZM69,86.09a41.87,41.87,0,0,1-19.39,4.73c-.8,0-1.6,0-2.4-.07l-.55,0a39.87,39.87,0,0,1-17.35-5.15,2.1,2.1,0,1,1,2.1-3.63,35.53,35.53,0,0,0,15.51,4.59l.54,0A37.74,37.74,0,0,0,67,82.39a2.1,2.1,0,1,1,2,3.7Z" transform="translate(-10 -3.68)"/></g></svg>
