<?xml version="1.0" encoding="UTF-8" standalone="no"?>
<svg
   xmlns:dc="http://purl.org/dc/elements/1.1/"
   xmlns:cc="http://creativecommons.org/ns#"
   xmlns:rdf="http://www.w3.org/1999/02/22-rdf-syntax-ns#"
   xmlns:svg="http://www.w3.org/2000/svg"
   xmlns="http://www.w3.org/2000/svg"
   xmlns:sodipodi="http://sodipodi.sourceforge.net/DTD/sodipodi-0.dtd"
   xmlns:inkscape="http://www.inkscape.org/namespaces/inkscape"
   version="1.1"
   x="0px"
   y="0px"
   viewBox="0 0 90 112.5"
   xml:space="preserve"
   id="svg12"
   sodipodi:docname="helm.svg"
   inkscape:version="1.0.1 (c497b03c, 2020-09-10)"><metadata
     id="metadata18"><rdf:RDF><cc:Work
         rdf:about=""><dc:format>image/svg+xml</dc:format><dc:type
           rdf:resource="http://purl.org/dc/dcmitype/StillImage" /></cc:Work></rdf:RDF></metadata><defs
     id="defs16" /><sodipodi:namedview
     pagecolor="#ffffff"
     bordercolor="#666666"
     borderopacity="1"
     objecttolerance="10"
     gridtolerance="10"
     guidetolerance="10"
     inkscape:pageopacity="0"
     inkscape:pageshadow="2"
     inkscape:window-width="1316"
     inkscape:window-height="843"
     id="namedview14"
     showgrid="false"
     inkscape:zoom="7.3333333"
     inkscape:cx="45"
     inkscape:cy="56.25"
     inkscape:window-x="1962"
     inkscape:window-y="80"
     inkscape:window-maximized="0"
     inkscape:current-layer="svg12" /><path
     d="M 51.666,19.635 C 46.925201,18.458084 46.337096,18.252954 38.334,19.634 26.986,22.627 18.838,33.091 18.838,44.914 V 73.82 c 0,0.481 0.343,0.895 0.816,0.983 6.589,1.23 12.226,6.665 15.078,14.537 0.144,0.396 0.52,0.659 0.94,0.659 h 3.536 c 0.516,0 0.947,-0.392 0.996,-0.905 0.69,-7.27 0.264,-19.295 -1.646,-26.836 -0.06,-0.235 -0.203,-0.441 -0.402,-0.579 -3.869,-2.662 -6.702,-6.934 -8.628,-13.022 l 11.842,4.238 0.731,5.45 c 0.067,0.497 0.49,0.867 0.991,0.867 h 3.814 c 0.501,0 0.925,-0.37 0.991,-0.867 l 0.731,-5.45 11.842,-4.238 c -1.927,6.089 -4.76,10.36 -8.628,13.022 -0.199,0.138 -0.343,0.344 -0.402,0.579 -1.909,7.538 -2.336,19.564 -1.646,26.836 0.05,0.513 0.481,0.906 0.997,0.906 h 3.537 c 0.421,0 0.797,-0.264 0.94,-0.659 2.852,-7.872 8.488,-13.307 15.077,-14.537 0.474,-0.089 0.816,-0.502 0.816,-0.983 V 44.914 C 71.162,33.092 63.014,22.628 51.666,19.635 Z M 69.162,73.01 C 62.412,74.604 56.683,80.126 53.635,88 h -1.927 c -0.55,-7.04 -0.122,-17.854 1.584,-24.893 4.491,-3.224 7.652,-8.395 9.656,-15.792 0.098,-0.359 -0.013,-0.743 -0.286,-0.996 -0.274,-0.254 -0.669,-0.333 -1.016,-0.207 l -14.264,5.105 c -0.353,0.126 -0.604,0.438 -0.654,0.809 l -0.696,5.187 H 43.968 L 43.272,52.026 C 43.222,51.655 42.97,51.343 42.618,51.217 L 28.354,46.112 c -0.349,-0.124 -0.741,-0.046 -1.016,0.207 -0.273,0.253 -0.384,0.637 -0.287,0.996 2.003,7.396 5.164,12.567 9.657,15.792 1.706,7.04 2.133,17.854 1.583,24.893 H 36.366 C 33.317,80.126 27.589,74.603 20.838,73.01 V 44.914 c 0,-10.869 7.456,-20.494 17.861,-23.308 7.124893,-1.195054 7.451246,-1.111646 12.6,0 10.404,2.813 17.861,12.439 17.861,23.308 V 73.01 Z"
     id="path10"
     sodipodi:nodetypes="ccssccssccccccssccccccssccsccccccccccccccccccccccsccscc" /></svg>
