<svg xmlns="http://www.w3.org/2000/svg" xmlns:xlink="http://www.w3.org/1999/xlink" version="1.1" x="0px" y="0px" viewBox="0 0 66 82.5" enable-background="new 0 0 66 66" xml:space="preserve"><g><path d="M17.3,50.2C17.3,50.2,17.3,50.2,17.3,50.2c2.8,0,5.9-0.9,9.3-2.6c1.6,0.8,3.4,1.5,5.4,2V64c0,0.6,0.4,1,1,1s1-0.4,1-1V49.6   c2-0.6,3.8-1.3,5.4-2c3.4,1.7,6.5,2.6,9.3,2.6c3.3,0,6.1-1.2,8.4-3.6c7.4-7.8,6.6-25.4,6.5-26.2c0-0.5-0.4-0.9-0.9-0.9   c-0.5-0.1-0.9,0.2-1.1,0.7c0,0-1.6,4-12.7,8.4C37,33.3,37.7,42.9,38.2,45.9c-1.3,0.6-2.7,1.2-4.2,1.6V33.9c1.6-1.4,7.5-6.9,7.9-15   c0.3-6-2.6-12-8.7-17.6C33,1.1,32.8,1,32.5,1c-0.3,0-0.5,0.1-0.7,0.3C31.4,1.7,22.6,11.7,24,22c0.6,4.8,3.3,8.8,8,12v13.5   c-1.5-0.5-2.9-1-4.2-1.6c0.5-3,1.2-12.6-10.8-17.4C6,24.1,4.3,20.1,4.3,20.1c-0.2-0.5-0.6-0.7-1.1-0.7c-0.5,0.1-0.8,0.5-0.9,0.9   c0,0.7-0.8,18.4,6.5,26.2C11.2,48.9,14,50.2,17.3,50.2z M49.8,30.3c6.6-2.6,10.1-5.1,11.9-6.9c-0.1,5.3-0.9,16.4-6,21.8   c-1.9,2-4.2,3-7,3c-2.1,0-4.5-0.6-7.1-1.7c2.7-1.5,4.7-3.2,6.3-4.7c0.6,0.3,1.4,0.5,2.3,0.5c1.3,0,2.9-0.5,4.4-1.8   c0.4-0.4,0.5-1,0.1-1.4c-0.4-0.4-1-0.5-1.4-0.1c-1.6,1.4-3,1.5-3.9,1.2c1.7-1.9,2.5-3.3,2.6-3.5c0.3-0.5,0.1-1.1-0.4-1.4   c-0.5-0.3-1.1-0.1-1.4,0.4c0,0-1.6,2.7-5,5.7c-0.6-1.3,0.2-3.4,0.2-3.4h0c0.2-0.5-0.1-1.1-0.6-1.3c-0.5-0.2-1.1,0.1-1.3,0.6   c-0.1,0.2-1.3,3.3,0,5.4c-1.1,0.8-2.3,1.6-3.6,2.3C39.6,42,39.6,34.4,49.8,30.3z M26,21.7c-1-7.8,4.7-15.8,6.7-18.3   c5.1,5,7.5,10.1,7.3,15.3c-0.3,5.7-3.8,10.2-5.9,12.3v-7.4c2.1-0.3,3.3-1.8,3.7-2.7c0.2-0.5,0-1.1-0.5-1.3c-0.5-0.2-1.1,0-1.3,0.5   c0,0-0.6,1.2-1.9,1.5v-4c0-0.6-0.4-1-1-1s-1,0.4-1,1v8.5c-0.9-0.6-1.1-1.7-1.2-1.9c-0.1-0.5-0.6-0.9-1.1-0.9   c-0.5,0.1-0.9,0.6-0.9,1.1c0.1,1.1,1,3,3.1,3.8v3.1C28.5,28.8,26.5,25.5,26,21.7z M16.2,30.3c10.1,4,10.1,11.6,9.7,14.6   c-1.3-0.7-2.5-1.5-3.6-2.3c1.3-2.1,0.1-5.3,0-5.4c-0.2-0.5-0.8-0.8-1.3-0.6c-0.5,0.2-0.8,0.8-0.6,1.3c0,0,0.8,2.1,0.2,3.4   c-3.4-2.9-5-5.6-5-5.6c-0.3-0.5-0.9-0.6-1.4-0.4c-0.5,0.3-0.6,0.9-0.4,1.4c0.1,0.1,0.9,1.6,2.6,3.5c-0.9,0.2-2.3,0.2-3.9-1.2   c-0.4-0.4-1-0.3-1.4,0.1c-0.4,0.4-0.3,1,0.1,1.4c1.6,1.4,3.1,1.8,4.4,1.8c0.9,0,1.7-0.2,2.3-0.5c1.6,1.5,3.7,3.2,6.3,4.7   c-2.6,1.2-5,1.8-7.1,1.8c0,0,0,0,0,0c-2.8,0-5-1-7-3c-5.1-5.4-5.9-16.5-6-21.8C6.1,25.2,9.6,27.7,16.2,30.3z"/></g></svg>