<svg xmlns="http://www.w3.org/2000/svg" xmlns:xlink="http://www.w3.org/1999/xlink" version="1.1" x="0px" y="0px" viewBox="0 0 100 100" enable-background="new 0 0 100 100" xml:space="preserve"><path fill="#000000" d="M51.9,96.6c-0.6,0-1.1-0.3-1.4-0.9c-0.1-0.1-4-8.3-11.6-9.4c-0.9-0.1-1.8-0.2-2.7-0.2  c-6.9,0-12.8,3.7-12.8,3.8c-0.6,0.4-1.5,0.3-2-0.3l-9.4-11.2c-0.3-0.3-0.4-0.8-0.3-1.2c0.1-0.4,0.3-0.8,0.7-1  c0.2-0.1,15.8-9.3,14-25.4c-1.7-15.9-12.2-17.5-12.3-17.5c-0.4-0.1-0.8-0.3-1-0.7c-0.2-0.4-0.3-0.8-0.2-1.2L16.3,19  c0.2-0.8,1-1.2,1.7-1.1c0,0,1,0.2,2.5,0.2c4.9,0,13.9-1.6,19-12.7c0.2-0.5,0.8-0.9,1.4-0.9h21c0.7,0,1.3,0.5,1.5,1.2  c0.1,0.5,2.9,12,21.7,12c0.7,0,1.3,0.4,1.4,1.1l3.3,12c0.2,0.7-0.2,1.5-0.9,1.8c-0.6,0.2-13.6,5.6-13.6,20.1  c0,14.6,13.6,23,13.8,23.1c0.4,0.2,0.6,0.6,0.7,1s0,0.9-0.3,1.2l-9,11.7c-0.5,0.6-1.3,0.8-2,0.4c-0.1,0-5.7-3.6-12.2-3.6  c-1.1,0-2.1,0.1-3.1,0.3c-7.5,1.4-10,8.7-10.1,8.7C53.1,96.2,52.6,96.6,51.9,96.6C51.9,96.6,51.9,96.6,51.9,96.6z M36.3,83.1  c1.1,0,2.1,0.1,3.1,0.2c6.3,1,10.4,5.6,12.4,8.6c1.7-2.8,5-6.9,11-8c1.2-0.2,2.4-0.3,3.7-0.3c5.6,0,10.4,2.2,12.6,3.3l7.2-9.4  c-3.8-2.7-13.8-11.2-13.8-24.7c0-13.7,10.6-20.4,14.2-22.3L84,20.8C66.9,20.3,62,11,60.8,7.6h-19C35.7,19.8,25,21.1,20.5,21.1  c0,0,0,0,0,0c-0.7,0-1.2,0-1.7-0.1l-2.6,9.6c3.6,1.1,11.7,5.3,13.3,19.8c1.6,15.1-9.8,24.4-14,27.3l7.5,8.9  C25.2,85.5,30.4,83.1,36.3,83.1z"/></svg>
