<svg xmlns="http://www.w3.org/2000/svg" xmlns:xlink="http://www.w3.org/1999/xlink" version="1.1" x="0px" y="0px" viewBox="0 0 100 100" enable-background="new 0 -9.417 100 139.5" xml:space="preserve"><path d="M83.796,45.964c1.411-3.235,1.413-4.172,1.649-9.393c-0.126-2.536-0.553-4.933-1.205-7.171  c-0.077,0.116-0.153,0.231-0.23,0.347c-6.056,9.094-12.317,18.498-17.361,28.392c-2.137,4.191-4.327,8.711-5.868,13.367  c-0.032,0.1-0.072,0.195-0.12,0.288l-0.209,0.41l-0.242,0.476c-2.676,5.175-3.53,9.266-2.689,12.874  c0.935,4.006,3.284,7.999,6.791,11.605c0.582-2.699-0.062-6.187,1.748-6.182c4.332,0.125,6.42,0.17,10.741-0.483  c3.261-0.496,5.276-1.394,5.903-4.373c0.734-3.49-0.903-4.622-0.577-6.351c0.448-2.389,1.761-1.015,2.062-5.375  c1.699-3.201-1-6.312,1.047-8.107c2.104-1.321,3.634-0.484,5.642-2.496C94.493,59.554,82.148,50.188,83.796,45.964z"/><path d="M63.56,99.255c-0.041-0.04-0.078-0.082-0.118-0.122c-3.743-3.681-6.705-8.132-7.869-13.125  c-1.155-4.954,0.61-9.896,2.86-14.247c0.151-0.293,0.298-0.589,0.449-0.883c1.564-4.728,3.765-9.293,5.985-13.647  c5.394-10.583,12.008-20.371,18.565-30.227c0.837-1.259,1.675-2.519,2.508-3.782c0.276-0.418,0.455-0.833,0.557-1.236  c0.868-1.354,0.924-3.136-0.646-4.546c-3.41-3.062-5.847-6.937-8.652-10.526c-3.319-4.249-7.757-7.139-12.609-9.369  c-5.375-2.471-11.466-4.587-17.426-4.587c-3.263,0-6.486,0.634-9.532,2.191C29.57-0.728,23.74,9.08,19.712,16.799  c-4.676,8.96-7.559,18.784-9.396,28.685c-1.842,9.917-2.518,20.034-2.595,30.106c-0.066,8.654-0.764,17.877,6.902,23.605  c3.617,2.703,8.883,3.635,13.232,4.212c3.856,0.512,7.741,0.773,11.625,0.773c1.769,0,3.537-0.054,5.304-0.164  c4.648-0.289,9.293-0.396,13.927-0.656c0.961-0.054,1.91-0.295,2.8-0.666c0.055,0.038,0.112,0.062,0.167,0.118  c1.943,1.956,1.891,10.564,1.84,18.891c-0.01,1.565-0.02,3.181-0.02,4.832c0,1.104,0.896,2,2,2s2-0.896,2-2  c0-1.643,0.01-3.25,0.02-4.808c0.066-10.798,0.113-18.599-3.003-21.734C64.225,99.699,63.898,99.462,63.56,99.255z"/></svg>
