<svg xmlns:dc="http://purl.org/dc/elements/1.1/" xmlns:cc="http://creativecommons.org/ns#" xmlns:rdf="http://www.w3.org/1999/02/22-rdf-syntax-ns#" xmlns:svg="http://www.w3.org/2000/svg" xmlns="http://www.w3.org/2000/svg" xmlns:sodipodi="http://sodipodi.sourceforge.net/DTD/sodipodi-0.dtd" xmlns:inkscape="http://www.inkscape.org/namespaces/inkscape" viewBox="0 0 10 10" version="1.1" x="0px" y="0px"><g transform="translate(0,-288.53332)"><path d="m 2.22597,289.26044 c 0,0 0.003,2.02855 0.003,3.04374 0,0.11245 0.0759,0.24398 0.20875,0.39636 0.13285,0.15238 0.31375,0.31988 0.48475,0.50798 0.171,0.18809 0.33456,0.39892 0.41804,0.65422 0.0681,0.20812 0.0363,0.43038 -0.0398,0.68575 0.33367,0.0681 0.75684,0.13768 1.18393,0.13849 0.40596,7.9e-4 0.81341,-0.07 1.20508,-0.1664 -0.003,-0.002 -0.003,-0.004 -0.003,-0.006 -0.09,-0.18399 -0.18402,-0.33586 -0.24442,-0.39636 -0.26495,-0.26496 -0.56687,-0.56948 -0.80666,-0.89658 -0.23979,-0.32708 -0.42376,-0.67975 -0.42376,-1.04904 v -2.91197 z m 0.48265,2.14612 v 0 c 8e-5,0 -5e-5,0 0.003,0 0.0694,0.003 0.12451,0.0597 0.12607,0.12919 l 0.0254,0.61133 c 0.0185,0.0875 0.0852,0.19279 0.19328,0.31265 0.11009,0.12215 0.25644,0.257 0.39844,0.41031 0.28403,0.30662 0.56287,0.70904 0.49815,1.2578 -0.0167,0.18105 -0.28998,0.14837 -0.26355,-0.0315 0.0528,-0.44825 -0.16385,-0.75969 -0.42994,-1.04697 -0.13306,-0.14365 -0.27623,-0.27628 -0.39844,-0.41186 -0.12221,-0.13559 -0.22865,-0.27642 -0.26146,-0.44751 0,-0.006 -0.003,-0.0127 -0.003,-0.0191 l -0.0254,-0.62529 c -0.003,-0.0727 0.0524,-0.13459 0.12504,-0.13849 0.004,-2.6e-4 0.008,-5.3e-4 0.0124,-5.3e-4 z" style="color:#000000;font-style:normal;font-variant:normal;font-weight:normal;font-stretch:normal;font-size:medium;line-height:normal;font-family:sans-serif;font-variant-ligatures:normal;font-variant-position:normal;font-variant-caps:normal;font-variant-numeric:normal;font-variant-alternates:normal;font-feature-settings:normal;text-indent:0;text-align:start;text-decoration:none;text-decoration-line:none;text-decoration-style:solid;text-decoration-color:#000000;letter-spacing:normal;word-spacing:normal;text-transform:none;writing-mode:lr-tb;direction:ltr;text-orientation:mixed;dominant-baseline:auto;baseline-shift:baseline;text-anchor:start;white-space:normal;shape-padding:0;clip-rule:nonzero;display:inline;overflow:visible;visibility:visible;opacity:1;isolation:auto;mix-blend-mode:normal;color-interpolation:sRGB;color-interpolation-filters:linearRGB;solid-color:#000000;solid-opacity:1;vector-effect:none;fill:#000000;fill-opacity:1;fill-rule:nonzero;stroke:none;stroke-width:0.26458332px;stroke-linecap:round;stroke-linejoin:round;stroke-miterlimit:4;stroke-dasharray:none;stroke-dashoffset:0;stroke-opacity:1;color-rendering:auto;image-rendering:auto;shape-rendering:auto;text-rendering:auto;enable-background:accumulate"/><path style="color:#000000;font-style:normal;font-variant:normal;font-weight:normal;font-stretch:normal;font-size:medium;line-height:normal;font-family:sans-serif;font-variant-ligatures:normal;font-variant-position:normal;font-variant-caps:normal;font-variant-numeric:normal;font-variant-alternates:normal;font-feature-settings:normal;text-indent:0;text-align:start;text-decoration:none;text-decoration-line:none;text-decoration-style:solid;text-decoration-color:#000000;letter-spacing:normal;word-spacing:normal;text-transform:none;writing-mode:lr-tb;direction:ltr;text-orientation:mixed;dominant-baseline:auto;baseline-shift:baseline;text-anchor:start;white-space:normal;shape-padding:0;clip-rule:nonzero;display:inline;overflow:visible;visibility:visible;opacity:1;isolation:auto;mix-blend-mode:normal;color-interpolation:sRGB;color-interpolation-filters:linearRGB;solid-color:#000000;solid-opacity:1;vector-effect:none;fill:#000000;fill-opacity:1;fill-rule:nonzero;stroke:none;stroke-width:0.26458332px;stroke-linecap:round;stroke-linejoin:round;stroke-miterlimit:4;stroke-dasharray:none;stroke-dashoffset:0;stroke-opacity:1;color-rendering:auto;image-rendering:auto;shape-rendering:auto;text-rendering:auto;enable-background:accumulate" d="m 5.7942,294.76811 c -0.42672,0.1091 -0.86913,0.1769 -1.30844,0.1819 -0.40566,0.005 -0.77708,-0.0462 -1.20094,-0.13487 -0.0671,-0.014 -0.0942,0.003 -0.12145,0.0429 -0.0275,0.04 -0.0412,0.11175 -0.0175,0.18345 l 0.25993,0.79323 c 0.0522,0.15973 0.20912,0.26731 0.4041,0.30851 0.83491,0.17625 1.50008,0.16939 2.2226,0 0.0818,-0.0192 0.14759,-0.0564 0.17777,-0.092 0.0302,-0.0356 0.0414,-0.0617 0.0175,-0.13436 0,0 -0.12004,-0.37676 -0.28112,-0.79323 -0.047,-0.12143 -0.10065,-0.23608 -0.15246,-0.35554 z m -2.11354,0.4129 a 0.13230489,0.13230489 0 0 1 0.13073,0.093 l 0.12867,0.38499 a 0.13279669,0.13279669 0 0 1 -0.25165,0.0837 l -0.12919,-0.38447 a 0.13230489,0.13230489 0 0 1 0.10747,-0.1757 0.13230489,0.13230489 0 0 1 0.014,-0.002 z"/></g></svg>
