<svg xmlns="http://www.w3.org/2000/svg" xmlns:xlink="http://www.w3.org/1999/xlink" version="1.1" x="0px" y="0px" viewBox="0 0 100 100" enable-background="new 0 0 100 100" xml:space="preserve"><g><path d="M74.309,29.413c-5.538-3.692-1.055-12.659-3.165-11.34c-2.11,1.319-8.703,11.34-0.527,16.878   c8.175,5.538,12.395,13.977,10.549,18.973c-1.846,4.996-25.459,6.09-25.459,6.09s0.03,0.049,0.081,0.135   c6.725,1.354,14.324,9.793,16.669,18.302c0.357,1.294,0.491,2.489,0.471,3.607c0.349-0.076,0.6-0.38,0.725-0.966   c1.386-6.487,17.535-10.539,19.117-23.198C94.352,45.236,79.847,33.105,74.309,29.413z"/><path d="M18.834,53.924c-1.846-4.996,2.373-13.435,10.549-18.973c8.175-5.538,1.582-15.559-0.527-16.878   c-2.11-1.319,2.373,7.648-3.165,11.34C20.153,33.105,5.648,45.236,7.23,57.894c1.582,12.659,17.732,16.71,19.117,23.198   c0.125,0.586,0.375,0.89,0.725,0.966c-0.02-1.118,0.114-2.313,0.471-3.607c2.345-8.509,9.943-16.947,16.669-18.302   c0.052-0.086,0.081-0.135,0.081-0.135S20.68,58.92,18.834,53.924z"/></g></svg>
