<svg xmlns="http://www.w3.org/2000/svg" xmlns:xlink="http://www.w3.org/1999/xlink" version="1.1" x="0px" y="0px" viewBox="0 0 55 55" style="enable-background:new 0 0 55 55;" xml:space="preserve"><g transform="translate(3,3)"><path d="M30,4h2v2h-2V4z M35.3,6.8L36,4.9l-1.9-0.6l-0.6,1.9L35.3,6.8z M36.7,7.5l1.6,1.2l1.2-1.6l-1.6-1.2L36.7,7.5z M39.3,9.7  l1.2,1.6l1.6-1.2l-1.2-1.6L39.3,9.7z M41.2,12.7l0.6,1.9l1.9-0.6L43.1,12L41.2,12.7z M44,16h-2v2h2V16z M43.7,20.1l-1.9-0.6  l-0.6,1.9l1.9,0.6L43.7,20.1z M39.3,24.3l1.6,1.2l1.2-1.6l-1.6-1.2L39.3,24.3z M36.7,26.5l1.2,1.6l1.6-1.2l-1.2-1.6L36.7,26.5z   M33.4,27.8l0.6,1.9l1.9-0.6l-0.6-1.9L33.4,27.8z M30,30h2v-2h-2V30z M48,17c0,5.5-1.8,9.6-3.3,13.2C43.3,33.4,42,36.4,42,40v8h-2  v-8c0-4,1.4-7.2,2.8-10.6C44.4,25.8,46,22.1,46,17c0-8.3-6.7-15-15-15c-5.7,0-10.7,3.2-13.3,8H31c3.9,0,7,3.1,7,7s-3.1,7-7,7  s-7-3.1-7-7h2c0,2.8,2.2,5,5,5s5-2.2,5-5s-2.2-5-5-5H16.9c-0.6,1.6-0.9,3.2-0.9,5c0,0.2,0,0.3-0.1,0.5L10.1,28H15c0.6,0,1,0.4,1,1v6  c0,0.5,0.2,1,0.6,1.4S17.5,37,18,37h4c0.6,0,1,0.4,1,1v10h-2v-9h-3c-1.1,0-2.1-0.4-2.8-1.2C14.4,37.1,14,36.1,14,35v-5H9  c-0.6,0-1-0.4-1-1v-1c0-0.2,0-0.3,0.1-0.5L14,16.7c0-1.6,0.3-3.2,0.8-4.7H8.9C8.3,13.6,8,15.2,8,17c0,0.2,0,0.3-0.1,0.5L2.1,28H6v2  H1c-0.6,0-1-0.4-1-1v-1c0-0.2,0-0.3,0.1-0.5L6,16.7c0-1.6,0.3-3.2,0.8-4.7H3.4l2.3,2.3l-1.4,1.4l-4-4c-0.4-0.4-0.4-1,0-1.4l4-4  l1.4,1.4L3.4,10h4.1C10.2,4.1,16.1,0,23,0h8C40.4,0,48,7.6,48,17z M23,2L23,2c-5.8,0-10.7,3.2-13.3,8h5.8C17.1,6.6,19.7,3.8,23,2z   M14,37h-4c-0.5,0-1-0.2-1.4-0.6S8,35.5,8,35v-3H6v3c0,1.1,0.4,2.1,1.2,2.8C7.9,38.6,8.9,39,10,39h3v9h2V38C15,37.4,14.6,37,14,37z"/></g></svg>
