<svg xmlns="http://www.w3.org/2000/svg" xmlns:xlink="http://www.w3.org/1999/xlink" version="1.1" x="0px" y="0px" viewBox="0 0 64 64" style="enable-background:new 0 0 64 64;" xml:space="preserve"><path d="M39,13H25c-0.4,4.7,3.1,8,7,8C36.9,21,39.4,16.5,39,13z"/><path d="M38.9,9.1L25,11h14C39,11,39,9.4,38.9,9.1z"/><path d="M37,5.2L25.1,8.8l13.3-1.7C38.1,6.4,37.6,5.7,37,5.2z"/><path d="M26,6.3L35,3.7C30.8,1.6,27.3,4.3,26,6.3z"/><path d="M42.2,29.1l5.6,31.8c1.3-0.3,2.2-1.4,2.2-2.8V38.2C50,33.6,46.6,29.8,42.2,29.1z"/><polygon points="40.1,29 41.9,61 45.8,61 "/><polygon points="38,61 39.9,61 38.1,29 "/><polygon points="32.1,61 36,61 36,29 "/><path d="M26,58c0.2,3.7,4.1,3,4.1,3l0.7-6H29C27.3,55,25.9,56.4,26,58z"/><path d="M23.2,29c-5.1,0-9.2,4.1-9.2,9.2V61h6V38c0-0.5,0.5-1,1-1s1,0.5,1,1v23h3c-0.6-0.8-1-1.9-1-3c0-2.8,2.2-5,5-5h2l2.8-24H23.2  z"/></svg>
