<svg xmlns="http://www.w3.org/2000/svg" viewBox="0 0 64 80" x="0px" y="0px"><title>15-ink</title><g data-name="15-ink"><path d="M42,64H16a1,1,0,0,1-1-1V59a1,1,0,0,1,1-1H42a1,1,0,0,1,1,1v4A1,1,0,0,1,42,64ZM17,62H41V60H17Z"/><path d="M42,60H16a1,1,0,0,1-.977-1.217L18.676,42.35A2.981,2.981,0,0,1,21.6,40H36.4a2.982,2.982,0,0,1,2.928,2.35l3.653,16.433A1,1,0,0,1,42,60ZM17.247,58H40.753L37.371,42.783A.992.992,0,0,0,36.4,42H21.6a.992.992,0,0,0-.975.783Z"/><path d="M36,42H22a1,1,0,0,1-1-1V37a1,1,0,0,1,1-1H36a1,1,0,0,1,1,1v4A1,1,0,0,1,36,42ZM23,40H35V38H23Z"/><rect x="19" y="44" width="17" height="2"/><rect x="17" y="54" width="21" height="2"/><path d="M39,38H19a1,1,0,0,1-1-1V31a1,1,0,0,1,1-1H39a1,1,0,0,1,1,1v6A1,1,0,0,1,39,38ZM20,36H38V32H20Z"/><rect x="22" y="34" width="2" height="3"/><rect x="26" y="34" width="2" height="3"/><rect x="30" y="34" width="2" height="3"/><rect x="34" y="34" width="2" height="3"/><path d="M45,54a1,1,0,0,1-1-1c0-30.241,17.759-40.454,18.515-40.874A1,1,0,0,1,64,13C64,53.534,45.775,54,45,54ZM61.986,14.9c-4.171,3.144-15.607,13.857-15.977,36.948C49.6,51.042,61.52,46.019,61.986,14.9Z"/><path d="M49,57H45a1,1,0,0,1-1-1V53h2v2h2V52h2v4A1,1,0,0,1,49,57Z"/><path d="M47,64a1,1,0,0,1-.962-.726l-2-7,1.924-.548L47,59.36l1.038-3.634,1.924.548-2,7A1,1,0,0,1,47,64Z"/><rect x="49.5" y="46.379" width="2" height="4.243" transform="translate(-19.504 49.914) rotate(-45)"/><rect x="52.5" y="43.379" width="2" height="4.243" transform="translate(-16.504 51.157) rotate(-45)"/><rect x="54.5" y="39.379" width="2" height="4.243" transform="translate(-13.089 51.399) rotate(-45)"/><rect x="56.5" y="35.379" width="2" height="4.243" transform="translate(-9.675 51.642) rotate(-45)"/><rect x="58.5" y="31.379" width="2" height="4.243" transform="translate(-6.261 51.885) rotate(-45)"/><rect x="59.5" y="26.379" width="2" height="4.243" transform="translate(-2.433 51.127) rotate(-45)"/><rect x="60" y="22.586" width="2" height="2.828" transform="translate(0.896 50.163) rotate(-45)"/><rect x="61" y="17.586" width="2" height="2.828" transform="translate(4.724 49.406) rotate(-45)"/><path d="M55,64H50V62h4V51h2V63A1,1,0,0,1,55,64Z"/><path d="M13,64H9a1,1,0,0,1-1-1V13a1,1,0,0,1,.293-.707l12-12A1,1,0,0,1,21,0H55a1,1,0,0,1,1,1V16H54V2H21.414L10,13.414V62h3Z"/><path d="M21,14H9V12H20V1h2V13A1,1,0,0,1,21,14Z"/><rect x="21" y="17" width="26" height="2"/><rect x="17" y="21" width="30" height="2"/><rect x="17" y="25" width="26" height="2"/><rect x="17" y="17" width="2" height="2"/></g></svg>