<svg xmlns="http://www.w3.org/2000/svg" xmlns:xlink="http://www.w3.org/1999/xlink" xml:space="preserve" version="1.1" style="shape-rendering:geometricPrecision;text-rendering:geometricPrecision;image-rendering:optimizeQuality;" viewBox="0 0 846.66 1058.325" x="0px" y="0px" fill-rule="evenodd" clip-rule="evenodd"><defs><style type="text/css">
   
    .fil0 {fill:black;fill-rule:nonzero}
   
  </style></defs><g><path class="fil0" d="M344.4 106.6l-49.96 155.01 255.16 0 -49.96 -155.01 -155.24 0zm246.44 146.24l86.67 -49.55 -126.42 -73.79 39.75 123.34zm4.71 45.71l-90.92 301.29 166.6 -344.56 -75.68 43.27zm-173.53 429.58l128.1 -424.45 -256.2 0 128.1 424.45zm-129.67 -596.73l-123.19 71.89 84.46 48.28 38.73 -120.17zm42.71 453.99l-87.12 -288.65 -72.5 -41.46 159.62 330.11zm188.11 -520.86l223.77 130.59 -283.85 587.01c-26.51,-0.07 -53.01,-0.07 -79.52,0l-283.85 -587.01 223.77 -130.59 199.68 0z"/></g></svg>