<svg xmlns:dc="http://purl.org/dc/elements/1.1/" xmlns:cc="http://creativecommons.org/ns#" xmlns:rdf="http://www.w3.org/1999/02/22-rdf-syntax-ns#" xmlns:svg="http://www.w3.org/2000/svg" xmlns="http://www.w3.org/2000/svg" xmlns:sodipodi="http://sodipodi.sourceforge.net/DTD/sodipodi-0.dtd" xmlns:inkscape="http://www.inkscape.org/namespaces/inkscape" version="1.1" x="0px" y="0px" viewBox="0 0 100 100"><g transform="translate(0,-952.36218)"><path d="m 48,958.36221 c 3.27818,0 6,2.69159 6,5.9332 0,3.2418 -2.72182,5.9333 -6,5.9333 -3.27818,0 -6,-2.6915 -6,-5.9333 0,-3.2416 2.72182,-5.9332 6,-5.9332 z m 16,4.9443 c 3.27818,0 6,2.69169 6,5.9333 0,3.2418 -2.72182,5.9333 -6,5.9333 -3.27818,0 -6,-2.6915 -6,-5.9333 0,-3.2416 2.72182,-5.9333 6,-5.9333 z m -32,2.96669 c 3.27818,0 6,2.6916 6,5.9333 0,3.24171 -2.72182,5.93321 -6,5.93321 -3.27818,0 -6,-2.6915 -6,-5.93321 0,-3.2417 2.72182,-5.9333 6,-5.9333 z m 41,10.8777 c 3.27818,0 6,2.6916 6,5.93321 0,3.2418 -2.72182,5.9333 -6,5.9333 -3.27818,0 -6,-2.6915 -6,-5.9333 0,-3.2416 2.72182,-5.93321 6,-5.93321 z m -21,2.9666 c 3.31371,0 6,2.6564 6,5.9333 0,3.2768 -2.68629,5.93321 -6,5.93321 -3.31371,0 -6,-2.6564 -6,-5.93321 0,-3.27689 2.68629,-5.9333 6,-5.9333 z m -25,4.9444 c 3.27818,0 6,2.6916 6,5.9333 0,3.2417 -2.72182,5.9332 -6,5.9332 -3.27818,0 -6,-2.6915 -6,-5.9332 0,-3.2417 2.72182,-5.9333 6,-5.9333 z m 33.34375,7.911 c 1.02071,0 2.56808,0.5781 3.0625,1.9469 l 3.0625,5.9023 5.09375,-5.9023 c 2.93715,-1.0771 4.58322,1.3687 3.0625,3.9555 l -7.15625,8.838 c -1.02072,0.9844 -3.04178,0.9844 -4.0625,0 l -4,-7.911 -0.0937,44.3451 c -1.02072,2.953 -4.07303,2.953 -5.09375,0 l 0,-23.6403 -5.125,0 0,23.6403 c -1.02072,2.953 -4.07303,2.953 -5.09375,0 l 0,-44.2832 -3.0625,8.838 c -1.02072,1.9688 -2.04963,2.945 -3.28125,2.565 l -10.09375,-3.2757 c -1.35434,-1.7392 -0.82296,-4.535 1.625,-4.5426 l 7.65625,2.1631 3.0625,-8.7144 c 0.77072,-2.216 2.05232,-3.9247 4.09375,-3.9247 l 16.34375,0 z" style="color:#000000;enable-background:accumulate;" fill="#000000" stroke="none" marker="none" visibility="visible" display="inline" overflow="visible"/></g></svg>
