<svg xmlns="http://www.w3.org/2000/svg" xmlns:xlink="http://www.w3.org/1999/xlink" version="1.1" x="0px" y="0px" viewBox="0 0 100 100" enable-background="new 0 0 100 100" xml:space="preserve"><g><path d="M19.3,77.1l-2.1,2.1l0.1,0.5L5.2,93.9c-0.4,0.5,0,1.1,0.5,1.1c0.1,0,0.3-0.1,0.4-0.2l14-12.3l0.7,0.2l2.1-2.1l-0.8-2.8   L19.3,77.1z"/><path d="M94.8,8.8c0.3-0.3,0.3-0.9,0-1.2l-2.3-2.3C92.3,5.1,92,5,91.8,5c-0.2,0-0.4,0.1-0.6,0.2L79.4,16c0,0-0.1,0.1-0.1,0.1   c-0.2-0.2-0.5-0.3-0.8-0.3c-0.3,0-0.6,0.1-0.8,0.3c-0.5,0.5-0.5,1.2,0,1.7l4.5,4.5c0.2,0.2,0.5,0.3,0.8,0.3c0.3,0,0.6-0.1,0.8-0.3   c0.4-0.4,0.5-1.2,0-1.6c0,0,0.1-0.1,0.1-0.1L94.8,8.8z"/><path d="M77.4,19.8l-9,9l-7-7c-0.3-0.3-0.8,0-0.6,0.4l-1.4,6.4c-1.2,4.4-3.5,8.4-6.6,11.8L21.6,76l1,0.3l0.9,0.2l0.2,0.9l0.3,1   l35.6-31.2c3.4-3.1,7.4-5.4,11.9-6.6l6.3-1.4c0.4,0.1,0.7-0.3,0.4-0.6l-7-7l9-9L77.4,19.8z"/></g></svg>
