<svg xmlns="http://www.w3.org/2000/svg" viewBox="0 0 30 30" x="0px" y="0px"><path fill="#000" fill-rule="evenodd" d="M7 28h16v-2H7v2zm18-9a3.004 3.004 0 0 1-2.994-2.803L25 9.462l2.994 6.735A3.004 3.004 0 0 1 25 19zM15 6c-1.103 0-2-.897-2-2s.897-2 2-2 2 .897 2 2-.897 2-2 2zM5 19a3.004 3.004 0 0 1-2.994-2.803L5 9.462l2.994 6.735A3.004 3.004 0 0 1 5 19zM26 6.788V3.181l-.804-.161a60.616 60.616 0 0 0-6.675-.877C17.849.875 16.532 0 15 0c-1.532 0-2.849.875-3.521 2.143-3.633.275-6.546.85-6.675.877L4 3.181v3.607l-4 9V16c0 2.757 2.243 5 5 5s5-2.243 5-5v-.212l-4-9V4.835a62.365 62.365 0 0 1 5.019-.647A3.989 3.989 0 0 0 14 7.858V22h-4v2h10v-2h-4V7.858a3.989 3.989 0 0 0 2.981-3.67c2.153.187 4.013.474 5.019.647v1.953l-4 9V16c0 2.757 2.243 5 5 5s5-2.243 5-5v-.212l-4-9z"/></svg>
