<svg xmlns="http://www.w3.org/2000/svg" viewBox="0 0 512 512" x="0px" y="0px"><title>legging, sport, clothes, yoga, stocking</title><g data-name="17. Leggings"><path d="M387.41,65.48H124.59a8,8,0,0,1-7.83-9.65,365.62,365.62,0,0,1,10-36.81A16,16,0,0,1,142,8H370a16,16,0,0,1,15.21,11,365.62,365.62,0,0,1,10,36.81A8,8,0,0,1,387.41,65.48Zm-269.79,32a8,8,0,0,0-8,7.39c-6.29,84.54,18.91,107.62,12.21,215.31a733.3,733.3,0,0,0,9.41,170.62A16,16,0,0,0,147,504h62a16,16,0,0,0,15.83-13.67L256,278.1l31.17,212.23A16,16,0,0,0,303,504h62a16,16,0,0,0,15.75-13.2,732.91,732.91,0,0,0,9.41-170.62c-6.78-109,18.61-129.29,12.21-215.31a8,8,0,0,0-8-7.39Z"/></g></svg>
