<svg xmlns="http://www.w3.org/2000/svg" xmlns:xlink="http://www.w3.org/1999/xlink" version="1.1" x="0px" y="0px" viewBox="0 0 48 60" style="enable-background:new 0 0 48 48;" xml:space="preserve"><g><path d="M24,45c7.17,0,13-5.83,13-13V22c0-0.55-0.45-1-1-1h-1v-7c0-6.07-4.93-11-11-11S13,7.93,13,14v7h-1c-0.55,0-1,0.45-1,1v10   C11,39.17,16.83,45,24,45z M15,14c0-4.96,4.04-9,9-9s9,4.04,9,9v7h-1v-7c0-4.41-3.59-8-8-8s-8,3.59-8,8v7h-1V14z M30,14v7H18v-7   c0-3.31,2.69-6,6-6S30,10.69,30,14z M13,23h22v9c0,6.07-4.93,11-11,11s-11-4.93-11-11V23z"/><path d="M21,35c0,1.65,1.35,3,3,3s3-1.35,3-3v-1.4c0.65-0.73,1-1.64,1-2.6c0-2.21-1.79-4-4-4s-4,1.79-4,4c0,0.95,0.35,1.87,1,2.6   V35z M24,29c1.1,0,2,0.9,2,2c0,0.56-0.24,1.09-0.66,1.46c-0.04,0.03-0.07,0.07-0.1,0.12h0l-0.15,0.22   c-0.03,0.07-0.05,0.13-0.06,0.18c-0.01,0.03-0.02,0.07-0.03,0.12L25,35c0,0.55-0.45,1-1,1s-1-0.45-1-1v-1.79   c0-0.05-0.01-0.1-0.02-0.15l-0.07-0.26c-0.03-0.07-0.07-0.12-0.1-0.16c-0.02-0.02-0.04-0.06-0.07-0.1l-0.08-0.08   C22.24,32.09,22,31.56,22,31C22,29.9,22.9,29,24,29z"/></g></svg>