<svg xmlns:dc="http://purl.org/dc/elements/1.1/" xmlns:cc="http://creativecommons.org/ns#" xmlns:rdf="http://www.w3.org/1999/02/22-rdf-syntax-ns#" xmlns:svg="http://www.w3.org/2000/svg" xmlns="http://www.w3.org/2000/svg" xmlns:sodipodi="http://sodipodi.sourceforge.net/DTD/sodipodi-0.dtd" xmlns:inkscape="http://www.inkscape.org/namespaces/inkscape" viewBox="0 0 100 100" version="1.1" x="0px" y="0px"><g style="display:inline;opacity:1"><path style="color:#000000;font-style:normal;font-variant:normal;font-weight:normal;font-stretch:normal;font-size:medium;line-height:normal;font-family:sans-serif;text-indent:0;text-align:start;text-decoration:none;text-decoration-line:none;text-decoration-style:solid;text-decoration-color:#000000;letter-spacing:normal;word-spacing:normal;text-transform:none;direction:ltr;block-progression:tb;writing-mode:lr-tb;baseline-shift:baseline;text-anchor:start;white-space:normal;clip-rule:nonzero;display:inline;overflow:visible;visibility:visible;opacity:1;isolation:auto;mix-blend-mode:normal;color-interpolation:sRGB;color-interpolation-filters:linearRGB;solid-color:#000000;solid-opacity:1;fill:#000000;fill-opacity:1;fill-rule:nonzero;stroke:none;stroke-width:4;stroke-linecap:round;stroke-linejoin:miter;stroke-miterlimit:4;stroke-dasharray:none;stroke-dashoffset:0;stroke-opacity:1;color-rendering:auto;image-rendering:auto;shape-rendering:auto;text-rendering:auto;enable-background:accumulate" d="M 60.214844 7.8222656 A 2.0002 2.0002 0 0 0 58.798828 8.3730469 L 55.048828 11.945312 A 2.0002 2.0002 0 0 0 54.777344 14.521484 L 13.257812 43.289062 L 10.117188 41.138672 C 7.9151488 39.623697 5.6492635 42.933412 7.8574219 44.439453 L 9.7382812 45.728516 L 6.71875 47.820312 A 2.0002 2.0002 0 0 0 6.6816406 51.083984 L 9.5019531 53.130859 L 7.8242188 54.263672 C 5.5368557 55.740699 7.8383242 59.148692 10.0625 57.578125 L 12.947266 55.630859 L 55.113281 86.226562 A 2.0002 2.0002 0 0 0 55.408203 88.771484 L 58.980469 92.164062 A 2.0002 2.0002 0 0 0 61.84375 92.052734 C 73.907644 78.666089 80.367618 65.107753 80.796875 51.480469 L 89.248047 51.498047 L 82.984375 56.4375 C 80.892951 58.089605 83.369078 61.227201 85.462891 59.578125 L 96.339844 51 C 96.819318 50.621655 97.098258 50.04437 97.099609 49.433594 C 97.101009 48.821831 96.822857 48.243692 96.34375 47.863281 L 85.570312 39.298828 C 83.482961 37.646316 80.998835 40.771442 83.080078 42.431641 L 89.457031 47.498047 L 80.767578 47.478516 C 80.031262 34.275053 73.58825 21.223575 61.638672 8.4550781 A 2.0002 2.0002 0 0 0 60.214844 7.8222656 z M 60 12.753906 C 70.494879 24.441571 76.034363 35.979871 76.751953 47.470703 L 74.210938 47.464844 C 73.495444 36.496907 68.689443 25.501358 59.869141 14.578125 A 2.0002 2.0002 0 0 0 59.3125 13.410156 L 60 12.753906 z M 57.328125 17.621094 C 65.399656 27.7767 69.534092 37.686551 70.207031 47.457031 L 28.802734 47.367188 L 21.560547 42.402344 L 57.328125 17.621094 z M 18.041016 44.839844 L 21.693359 47.34375 L 19.160156 47.333984 L 16.789062 45.708984 L 18.041016 44.839844 z M 13.269531 48.146484 L 15.060547 49.373047 L 13.029297 50.746094 L 11.314453 49.501953 L 13.269531 48.146484 z M 19.308594 51.335938 L 21.837891 51.34375 L 17.703125 54.136719 L 16.476562 53.248047 L 19.308594 51.335938 z M 28.951172 51.367188 L 70.291016 51.457031 C 70.003765 61.976882 65.72579 72.493653 57.599609 83.087891 L 21.146484 56.636719 L 28.951172 51.367188 z M 74.292969 51.464844 L 76.798828 51.470703 C 76.382208 63.371142 70.811173 75.441303 60.150391 87.757812 L 59.4375 87.080078 C 68.737199 75.461558 73.984014 63.569708 74.292969 51.464844 z "/></g></svg>
