<svg xmlns="http://www.w3.org/2000/svg" xmlns:xlink="http://www.w3.org/1999/xlink" version="1.1" x="0px" y="0px" viewBox="0 0 100 100" enable-background="new 0 0 100 100" xml:space="preserve"><path d="M89.67,62.989c-0.896-2.981-4.474-6.412-4.325-13.123C85.793,31.375,83.258,28.69,74.011,26.9  c2.685-9.097,21.027-41.905-9.544-2.684C20.921,20.637,13.913,63.885,7.5,94.605h60.248c-3.878-10.737-10.737-23.265-8.501-27.888  c2.387-3.579,7.904,6.413,15.51,11.483C85.196,84.763,93.398,71.191,89.67,62.989L89.67,62.989z M79.678,69.85  c-1.938,1.491-7.009-4.623-9.544-7.755c-15.658-20.58-27.588,2.685-17.448,23.115l-32.211,0.447  c2.833-16.255,8.65-64.722,53.239-49.361c4.475,1.79,1.79,10.29,3.281,17.299C77.889,59.858,83.406,67.016,79.678,69.85z"/></svg>
