<svg xmlns="http://www.w3.org/2000/svg" viewBox="0 0 100 100" x="0px" y="0px"><path d="M80.62,33.83l-2.4-1.27a13.36,13.36,0,0,0-1.59-4.26l3-6.91a.75.75,0,0,0-1-1l-6.92,3a13.54,13.54,0,0,0-5.57-1.76L65,19.38a.78.78,0,0,0-1.33,0l-1.26,2.4a13.49,13.49,0,0,0-4.26,1.58l-6.91-3a.77.77,0,0,0-.83.16.75.75,0,0,0-.16.83l3,6.91a13.48,13.48,0,0,0-1.76,5.58l-2.23,1.17a.74.74,0,0,0,0,1.32l2.3,1.21-1.65,1.65a3.49,3.49,0,0,0,0,4.93l.23.22a4.17,4.17,0,0,0-2.56,3.77L19.87,75.77a3.08,3.08,0,1,0,4.36,4.35l27.61-27.6a4.24,4.24,0,0,0,2.88-1.23h0A4.42,4.42,0,0,0,55.61,50l.23.22a3.46,3.46,0,0,0,4.93,0l1.73-1.72c.4.07.79.12,1.17.16l1.17,2.22a.77.77,0,0,0,.67.4.75.75,0,0,0,.66-.4l1.27-2.41a13.29,13.29,0,0,0,4.25-1.58l6.92,3a.72.72,0,0,0,.29.06.75.75,0,0,0,.69-1l-3-6.91a13.5,13.5,0,0,0,1.77-5.57l2.22-1.18a.74.74,0,0,0,0-1.32Zm-6,3a2.56,2.56,0,0,0,2.15.28,12,12,0,0,1-8.61,9.61,2.7,2.7,0,0,0-2.67-3.18h0a2.68,2.68,0,0,0-2.32,1.31,2.72,2.72,0,0,0-.32,2,.57.57,0,0,0-.21-.13,11.9,11.9,0,0,1-5.93-3.47,11.06,11.06,0,0,1-3.11-4.86l.14,0a2.76,2.76,0,0,0,1.41-.4A2.71,2.71,0,0,0,53,33.11a12,12,0,0,1,8.62-9.62,2.71,2.71,0,0,0,2.67,3.19h0a2.72,2.72,0,0,0,2.33-1.32,2.69,2.69,0,0,0,.27-2.16,12.05,12.05,0,0,1,6.54,3.37,11.88,11.88,0,0,1,3.07,5.25,2.66,2.66,0,0,0-1.86.34,2.72,2.72,0,0,0,0,4.66Zm2.84-14.3-1.84,4.3a14.18,14.18,0,0,0-1.15-1.31,13.1,13.1,0,0,0-1.32-1.15ZM64.29,21.33l1.08,2.06a1.23,1.23,0,0,1-1.08,1.79h0a1.22,1.22,0,0,1-1.05-.59,1.19,1.19,0,0,1,0-1.21Zm-12,1.19,4.3,1.84a14.3,14.3,0,0,0-1.32,1.15,13,13,0,0,0-1.14,1.32Zm.86,12.11a1.2,1.2,0,0,1,1.2,0,1.17,1.17,0,0,1,.59,1,1.22,1.22,0,0,1-1.79,1.08l-2-1.08ZM30.29,71.94l-2.23-2.23,1.41-1.41,2.23,2.23Zm-2.47,2.47-2.24-2.23L27,70.77,29.23,73Zm-4.65,4.65a1.58,1.58,0,0,1-2.24,0,1.61,1.61,0,0,1,0-2.23l3.59-3.59,2.24,2.23Zm9.59-9.59-2.23-2.24L47.81,50l0,0a3.5,3.5,0,0,0,.25.47c.05.08.08.15.12.22a4.31,4.31,0,0,0,.51.62,3.67,3.67,0,0,0,.62.5,1.86,1.86,0,0,0,.19.11,3.46,3.46,0,0,0,.5.27l0,0Zm20.9-19.24h0a2.78,2.78,0,0,1-3.89,0A2.71,2.71,0,0,1,49,48.42a2.66,2.66,0,0,1,.79-2.08,2.71,2.71,0,0,1,1.81-.79,2,2,0,0,1,.42,0,.68.68,0,0,1,.2,0,2,2,0,0,1,.35.09l.18,0a2.21,2.21,0,0,1,.34.18l.15.08a3.55,3.55,0,0,1,.44.35,2.78,2.78,0,0,1,0,3.89Zm6.05-1.12a2,2,0,0,1-2.81,0L56,48.17c0-.1,0-.21,0-.31s0-.23,0-.34a4.07,4.07,0,0,0-.13-.5,2.81,2.81,0,0,0-.1-.31,3.06,3.06,0,0,0-.26-.51c0-.08-.08-.17-.13-.25a4,4,0,0,0-1.21-1.21l-.3-.16-.44-.23-.38-.12-.42-.11-.4,0c-.1,0-.19,0-.28,0l-.95-.94a2,2,0,0,1,0-2.81L52.21,39a12.42,12.42,0,0,0,3.45,5.38A12.52,12.52,0,0,0,61,47.79Zm5.8-.24-1.08-2a1.17,1.17,0,0,1,0-1.2A1.2,1.2,0,0,1,65.51,45h0a1.17,1.17,0,0,1,1,.59,1.2,1.2,0,0,1,0,1.2Zm12-1.19-4.3-1.84a12.84,12.84,0,0,0,1.31-1.15,11.85,11.85,0,0,0,1.14-1.32Zm-.87-12.11a1.2,1.2,0,0,1-1.2,0,1.23,1.23,0,0,1,0-2.1,1.32,1.32,0,0,1,.63-.17,1.15,1.15,0,0,1,.57.14l2,1.08Z"/><path d="M62.72,32.92a3.08,3.08,0,1,0,4.36,0A3.17,3.17,0,0,0,62.72,32.92ZM66,36.22a1.61,1.61,0,0,1-2.23,0,1.59,1.59,0,0,1,0-2.24,1.6,1.6,0,0,1,1.12-.46A1.58,1.58,0,0,1,66,36.22Z"/><path d="M64.61,34.41a.78.78,0,0,0-.24.16.77.77,0,0,0-.22.53.93.93,0,0,0,0,.29.81.81,0,0,0,.17.24.63.63,0,0,0,.24.16.72.72,0,0,0,.29.06.75.75,0,0,0,.53-.22.78.78,0,0,0,.16-.24.72.72,0,0,0,.06-.29.77.77,0,0,0-.22-.53A.76.76,0,0,0,64.61,34.41Z"/></svg>
