<svg xmlns="http://www.w3.org/2000/svg" xmlns:xlink="http://www.w3.org/1999/xlink" version="1.1" x="0px" y="0px" viewBox="0 0 100 100" style="enable-background:new 0 0 100 100;" xml:space="preserve"><path d="M88,8H64H36H12c-3.3,0-6,2.7-6,6v28v16v28c0,3.3,2.7,6,6,6h24h28h24c3.3,0,6-2.7,6-6V58V42V14C94,10.7,91.3,8,88,8z M64,72  H52V60h12h12v12H64z M36,72H24V60h12h12v12H36z M10,72V60h10v12H10z M36,28h12v12H36H24V28H36z M64,28h12v12H64H52V28H64z M90,28v12  H80V28H90z M90,56H78H66V44h12h12V56z M50,56H38V44h12h12v12H50z M22,56H10V44h12h12v12H22z M20,40H10V28h10V40z M80,60h10v12H80V60  z M90,14v10H78H66V12h22C89.1,12,90,12.9,90,14z M62,24H50H38V12h24V24z M12,12h22v12H22H10V14C10,12.9,10.9,12,12,12z M10,86V76h12  h12v12H12C10.9,88,10,87.1,10,86z M38,76h12h12v12H38V76z M88,88H66V76h12h12v10C90,87.1,89.1,88,88,88z"/></svg>
