<svg xmlns="http://www.w3.org/2000/svg" xmlns:xlink="http://www.w3.org/1999/xlink" xml:space="preserve" version="1.0" style="shape-rendering:geometricPrecision;text-rendering:geometricPrecision;image-rendering:optimizeQuality;" viewBox="0 0 10000 12500" x="0px" y="0px" fill-rule="evenodd" clip-rule="evenodd"><defs><style type="text/css">
   
    .fil0 {fill:black;fill-rule:nonzero}
   
  </style></defs><g><path class="fil0" d="M8324 1828l-6496 6496c300,265 694,426 1124,426l4096 0c936,0 1702,-766 1702,-1702l0 -4096c0,-430 -161,-824 -426,-1124zm-3238 5288l2560 0 0 530 -2560 0 0 -530zm0 -1380l2560 0 0 530 -2560 0 0 -530z"/><path class="fil0" d="M1676 8172l6496 -6496c-300,-265 -694,-426 -1124,-426l-4096 0c-936,0 -1702,766 -1702,1702l0 4096c0,430 161,824 426,1124zm2223 -5818l0 1015 1015 0 0 530 -1015 0 0 1015 -530 0 0 -1015 -1015 0 0 -530 1015 0 0 -1015 530 0z"/></g></svg>