<svg xmlns="http://www.w3.org/2000/svg" viewBox="0 0 160 160" x="0px" y="0px"><g data-name="Layer 1" transform="translate(18,4)"><path d="M63.58,152.66c-10.14,0-37.23-10.26-45.51-35.59C10.14,113.49,0,104.05,0,92.35,0,84.5,2.62,77.55,7.25,73,4,50.31,8.11,31.53,19.18,18.58,29.42,6.6,45.19,0,63.58,0c18,0,33.44,6.43,43.58,18.11,11.24,13,15.59,31.94,12.62,55,4.64,4.67,7.38,11.73,7.38,19.26,0,10.87-9.13,21.32-18.16,25C100.6,142.48,73.66,152.66,63.58,152.66ZM63.58,6C47,6,32.83,11.85,23.75,22.47,13.59,34.36,10,52.05,13.42,73.63a3,3,0,0,1-1.05,2.78C8.38,79.73,6,85.69,6,92.35c0,9.43,9.29,17.32,15.57,19.69a3,3,0,0,1,1.82,2c6.74,22.95,31.48,32.66,40.19,32.66S96.89,137,103.71,114.2a3,3,0,0,1,1.94-2c7.34-2.38,15.51-11.12,15.51-19.85,0-6.44-2.44-12.36-6.51-15.83a3,3,0,0,1-1-2.71c3.12-22-.69-39.87-11-51.76C93.64,11.7,79.78,6,63.58,6Zm41.19,34.09a3,3,0,0,0-6,0A37.84,37.84,0,0,1,61,77.89,29.68,29.68,0,0,1,31.33,48.25,23.13,23.13,0,0,1,54.44,25.14,17.91,17.91,0,0,1,72.34,43,13.73,13.73,0,0,1,58.62,56.74,10.39,10.39,0,0,1,48.25,46.37a7.71,7.71,0,0,1,7.7-7.7,3,3,0,0,0,0-6,13.72,13.72,0,0,0-13.7,13.7A16.4,16.4,0,0,0,58.62,62.74,19.74,19.74,0,0,0,78.34,43a23.92,23.92,0,0,0-23.9-23.89A29.14,29.14,0,0,0,25.33,48.25,35.68,35.68,0,0,0,61,83.89,43.84,43.84,0,0,0,104.77,40.09Zm-45.6,2.72A3.83,3.83,0,1,0,63,46.64,3.83,3.83,0,0,0,59.17,42.81Z"/></g></svg>
