<svg xmlns:dc="http://purl.org/dc/elements/1.1/" xmlns:cc="http://creativecommons.org/ns#" xmlns:rdf="http://www.w3.org/1999/02/22-rdf-syntax-ns#" xmlns:svg="http://www.w3.org/2000/svg" xmlns="http://www.w3.org/2000/svg" xmlns:sodipodi="http://sodipodi.sourceforge.net/DTD/sodipodi-0.dtd" xmlns:inkscape="http://www.inkscape.org/namespaces/inkscape" version="1.1" x="0px" y="0px" viewBox="0 0 100 125"><g transform="translate(0,-952.36218)"><path style="text-indent:0;text-transform:none;direction:ltr;block-progression:tb;baseline-shift:baseline;color:#000000;enable-background:accumulate;" d="m 32.982633,958.87913 c -0.193935,0.8214 0.20257,1.7466 0.932125,2.1749 11.290095,6.9246 20.253765,13.6209 28.102645,21.0303 L 6.5623567,1035.6726 c -0.749813,0.7395 -0.749813,2.0959 0,2.8352 l 5.0015823,4.985 c 0.74183,0.7472 2.102819,0.7472 2.844649,0 l 53.735745,-55.23957 c 7.44865,7.9924 14.08997,16.99447 21.16295,28.00927 0.50844,0.7725 1.59767,1.1028 2.45162,0.7432 0.85396,-0.3595 1.37579,-1.368 1.17453,-2.2699 -2.76826,-11.9559 -6.57427,-23.52577 -17.44302,-34.05347 l 1.93811,-1.994 c 0.72303,-0.7451 0.70816,-2.075 -0.0312,-2.804 l -3.00095,-2.991 c -0.37452,-0.3775 -0.90533,-0.5961 -1.43795,-0.5919 l -0.18756,0 c -0.44382,0.048 -0.86957,0.2487 -1.18788,0.5607 l -2.09441,2.0252 c -10.33771,-10.0779 -21.12099,-14.7055 -34.10454,-17.4786 -1.153969,-0.2576 -2.071306,0.5975 -2.40139,1.4704 z m 14.62396,6.4434 c 16.32132,7.1607 31.81746,21.5006 38.07454,38.78907 -11.0304,-15.59287 -22.24691,-27.60277 -38.07454,-38.78907 z m 17.31798,19.5659 c 0.15565,0.1559 0.31405,0.3106 0.46889,0.4673 l -52.454089,53.89987 -2.125673,-2.1186 z m -9.59679,23.21117 -3.59489,5.39 -5.3767,1.7759 c -0.29474,0.1024 -0.56477,0.2747 -0.78149,0.4985 l -3.00096,2.991 c -0.37134,0.366 -0.58976,0.8815 -0.59393,1.402 l 0,4.8291 c -0.53223,0.3835 -1.05467,0.7608 -1.62552,1.1529 l -4.376383,0 c -0.398118,-8e-4 -0.795647,0.1202 -1.125356,0.3426 l -3.000949,1.994 c -0.537423,0.3645 -0.876121,1.0035 -0.875277,1.6513 l 0,3.1778 -1.406694,1.4021 c -0.371346,0.366 -0.589766,0.8815 -0.593938,1.4021 l 0,3.9879 c -3.31e-4,0.8764 0.649103,1.7125 1.500474,1.9316 3.696811,0.9212 7.835813,3.0534 12.503953,3.0534 2.52034,0.018 4.71218,-0.054 7.00222,-0.3428 0.0927,1.1372 0.88201,2.2306 1.84433,2.3368 13.25444,1.016 19.40481,-0.997 30.16579,-0.997 0.27785,0.01 0.55663,-0.049 0.81276,-0.1559 l 9.00285,-3.9879 c 0.58528,-0.2564 1.0308,-0.8085 1.15662,-1.4332 l 1.00031,-4.9849 c 0.10656,-0.5505 -0.0335,-1.1437 -0.37512,-1.589 l -2.59457,-3.4583 0,-3.3336 c -0.005,-0.3865 -0.12647,-0.7705 -0.34386,-1.0906 l -2.00063,-2.9909 c -0.28113,-0.4384 -0.74092,-0.7591 -1.25039,-0.8724 l -4.53269,-0.9035 -7.56489,-6.605 c -1.0583,-0.7526 -1.90294,-0.4207 -2.90717,0.062 -4.35514,-3.1225 -9.62223,-4.2147 -14.28577,-7.197 -1.22932,-0.5943 -1.81944,-0.3046 -2.78213,0.5612 z m 2.37575,3.6452 c 3.64448,1.9311 6.79093,3.1791 10.22199,4.985 -2.31042,0.9584 -4.88066,1.8981 -7.68994,2.8663 -2.00814,-0.948 -4.13227,-2.1004 -5.6893,-3.1778 1.0581,-1.5356 2.10921,-3.1173 3.15725,-4.6735 z m -6.56457,6.169 c 1.76152,1.0559 3.89702,2.0124 6.68961,2.6171 -0.34757,0.2419 -0.61459,0.5967 -0.75024,0.997 -0.16847,0.5037 -0.36678,1.0472 -0.59393,1.5889 -0.86629,-0.088 -1.70026,-0.3912 -2.75087,-0.8101 -2.13128,-0.6418 -3.57792,-1.4206 -5.50174,-0.997 -0.82664,0.3297 -1.55964,0.6839 -2.25071,1.0593 l 0,-1.402 2.06315,-2.0251 z m 22.50711,0.5919 4.18883,3.6453 c -2.41748,1.8836 -6.6271,4.1437 -10.84718,4.985 5.7551,0 10.13949,-1.3419 13.19167,-2.9288 0.38731,0.4473 0.95215,0.6937 1.4067,0.9036 l 4.22008,0.8411 1.18788,1.776 0,3.396 c -0.002,0.4346 0.14293,0.8687 0.40638,1.2151 l 2.43827,3.2714 -0.6252,3.1156 -7.65867,3.3959 c -3.0787,0.016 -5.74561,0.1554 -8.31513,0.3428 1.65166,-1.2333 4.38451,-2.0954 10.7534,-3.3649 -3.61759,0.3575 -7.00222,0 -12.0038,0.997 l -2.68835,2.6793 c -4.47905,0.3562 -8.97645,0.673 -14.87971,0.3739 1.12926,-3.9265 1.38837,-8.4811 0.71898,-12.0261 1.31176,-0.829 2.42247,-1.8769 3.25103,-3.1156 0.92558,-1.3838 1.51101,-2.8565 2.03189,-4.2372 5.14139,-1.7359 9.52444,-3.5018 13.22293,-5.2654 z m -24.32019,6.7297 c 1.87966,0.2453 3.35489,0.985 5.00158,1.5267 -0.655,0.7388 -1.34742,1.2576 -1.96937,1.4643 -0.98359,0.3121 -1.60336,1.474 -1.31291,2.4612 0.79726,3.3742 0.64843,6.6236 -0.0625,9.6585 -2.62906,0.8084 -5.3596,0.7469 -8.00254,0.7477 -2.92345,0 -6.32198,-1.3861 -10.003162,-2.4613 l 0,-1.7137 1.406695,-1.4019 c 3.811527,-0.04 8.128237,-2.7578 10.597107,-4.393 -3.80497,1.5169 -7.01995,1.8697 -10.003169,1.402 l 0,-1.3398 1.625519,-1.0592 4.37638,0 c 0.39813,8e-4 0.79566,-0.1203 1.12536,-0.3427 2.96306,-1.9688 4.63454,-3.4262 7.22103,-4.5488 z" fill="#000000" fill-opacity="1" stroke="none" marker="none" visibility="visible" display="inline" overflow="visible"/></g></svg>