<svg xmlns="http://www.w3.org/2000/svg" xmlns:xlink="http://www.w3.org/1999/xlink" version="1.1" x="0px" y="0px" viewBox="0 0 512 512" style="enable-background:new 0 0 512 512;" xml:space="preserve"><g><path d="M476.447,414.518V279.437c0-3.899-2.267-7.443-5.807-9.078L369.892,223.82V96.99c0-3.899-2.267-7.443-5.807-9.078   l-103.892-47.99c-2.66-1.229-5.727-1.229-8.387,0l-103.892,47.99c-3.54,1.635-5.807,5.179-5.807,9.078v126.83L41.359,270.358   c-3.54,1.635-5.807,5.179-5.807,9.078v135.081c0,3.899,2.267,7.443,5.807,9.078l104.957,48.482c1.33,0.614,2.762,0.922,4.193,0.922   s2.863-0.308,4.193-0.922L256,425.287l101.297,46.792c1.33,0.614,2.762,0.922,4.193,0.922s2.863-0.308,4.193-0.922l104.957-48.482   C474.181,421.961,476.447,418.417,476.447,414.518z M243.336,150.381v111.646l-81.228-37.522V112.86L243.336,150.381z    M263.336,152.189l86.556-39.983v112.299l-86.556,39.983V152.189z M151.365,241.574l81.184,37.502l-81.681,37.316l-81.182-37.088   L151.365,241.574z M162.108,333.246l81.228-37.109v112.97l-81.228,37.521V333.246z M257.041,413.419L256,415.672l-1.041-2.253   H257.041z M263.336,294.349l86.556,39.543v112.735l-86.556-39.982V294.349z M359.717,316.393l-80.97-36.991l81.888-37.827   l80.976,37.405L359.717,316.393z M256,60.016l79.592,36.766l-80.299,37.093L175.7,97.108L256,60.016z M55.553,294.836   l86.556,39.543v113.725l-86.556-39.982V294.836z M369.892,448.104V333.732l86.556-39.543v113.932L369.892,448.104z"/></g></svg>
