<svg xmlns="http://www.w3.org/2000/svg" xmlns:xlink="http://www.w3.org/1999/xlink" version="1.1" x="0px" y="0px" viewBox="0 0 48 48" enable-background="new 0 0 48 48" xml:space="preserve"><path d="M29.849,13.051c0-3.223-2.623-5.846-5.847-5.846s-5.847,2.623-5.847,5.846c0,3.224,2.623,5.846,5.847,5.846  S29.849,16.273,29.849,13.051z"/><path d="M42.549,8.953c-0.712-1.531-2.421-2.354-4.063-1.965l-1.137,0.271c-0.932,0.224-1.722,0.797-2.223,1.613  c-0.502,0.816-0.655,1.779-0.432,2.711c0.358,1.5,1.629,2.549,3.084,2.719c-0.647,0.963-0.998,2.095-1.002,3.281  c-0.004,1.445,0.513,2.809,1.451,3.889c-2.176,0.008-4.308,0.719-6.057,2.041c-4.868-3.657-11.473-3.658-16.341,0  c-1.754-1.327-3.893-2.037-6.075-2.04c0.691-0.793,1.179-1.747,1.373-2.809c0.28-1.528-0.046-3.073-0.911-4.361  c1.471-0.167,2.749-1.229,3.098-2.751c0.439-1.91-0.755-3.836-2.662-4.293L9.516,6.988c-1.64-0.389-3.351,0.435-4.063,1.965  c-2.221,4.781-3.382,9.877-3.451,15.148c0,0.001,0,0.001,0,0.001c-0.029,2.254,1.084,4.328,2.98,5.547  c1.89,1.215,4.072,1.928,6.314,2.059l0,0c0.483,0.027,0.889,0.396,0.961,0.877l1.228,8.098c0.022,0.15,0.113,0.27,0.232,0.342  l-0.031,0.084h0.292l0,0h0.001l19.965-0.006c0.025,0.004,0.051,0.006,0.076,0.006c0.242,0,0.457-0.178,0.494-0.426l1.228-8.098  c0.073-0.48,0.477-0.85,0.961-0.877l0,0c2.241-0.131,4.426-0.844,6.313-2.059c1.896-1.219,3.01-3.293,2.981-5.547c0,0,0,0,0-0.001  C45.933,18.83,44.771,13.733,42.549,8.953z"/></svg>
