<svg xmlns="http://www.w3.org/2000/svg" xmlns:xlink="http://www.w3.org/1999/xlink" version="1.1" x="0px" y="0px" viewBox="0 285 285 285" enable-background="new 0 285 285 285" xml:space="preserve"><circle cx="61.973" cy="355.254" r="41.719"/><path d="M219.972,455.99c-4.961-7.645-15.18-9.82-22.823-4.857c-20.24,13.136-35.449,18.684-45.217,16.49  c-7.621-1.713-13.758-8.331-23.139-18.988c-10.58-12.018-23.748-26.975-45.117-35.065c-1.551-0.587-3.134-0.919-4.707-1.028  c-17.362-5.18-38.622-6.564-52.23,7.045c-3.71,3.71-13.238,10.998-13.238,39.833v87.079h94.975l-3.282-74.73  c10.565,11.98,21.699,24.052,39.504,28.053c3.763,0.846,7.642,1.271,11.664,1.271c16.592,0,35.605-7.256,58.752-22.277  C222.758,473.854,224.933,463.635,219.972,455.99z"/><path d="M187.567,396.892c-1.669-1.104-3.839-1.746-6.503-1.917c-2.672-0.163-5.287,0.083-7.842,0.75  c-2.562,0.669-4.783,1.729-6.674,3.168c-1.892,1.446-2.892,3.229-3.001,5.343c-0.111,1.889,0.667,3.414,2.334,4.58  c1.674,1.166,3.751,2.002,6.255,2.505c2.505,0.497,5.203,0.645,8.093,0.42c2.895-0.226,5.586-0.891,8.092-2.002  c2.505-1.118,4.589-2.675,6.255-4.679c1.67-2,2.503-4.503,2.503-7.508v-48.207l41.372-16.844l-0.168,48.375  c-1.888-1.444-4.283-2.309-7.169-2.586c-2.9-0.275-5.676-0.088-8.342,0.585c-2.668,0.663-4.953,1.725-6.845,3.168  c-1.887,1.448-2.781,3.11-2.669,5.004c0.11,2.229,1.005,4.032,2.669,5.423c1.669,1.393,3.778,2.392,6.341,3.003  c2.554,0.611,5.283,0.837,8.17,0.67c2.894-0.172,5.563-0.842,8.01-2.008c2.443-1.166,4.504-2.776,6.168-4.834  c1.667-2.058,2.506-4.588,2.506-7.594v-68.229l-59.556,24.356v59.057H187.567z"/></svg>
