<svg xmlns="http://www.w3.org/2000/svg" xmlns:xlink="http://www.w3.org/1999/xlink" version="1.1" x="0px" y="0px" viewBox="0 0 100 100" style="enable-background:new 0 0 100 100;" xml:space="preserve"><path d="M17.3,82H14c-0.6,0-1,0.4-1,1s0.4,1,1,1h3.3c0.4,1.4,1.5,2.6,2.9,2.9v2.8c0,0.6,0.4,1,1,1s1-0.4,1-1V87  c1.4-0.4,2.6-1.5,2.9-2.9h11.9c0.4,1.4,1.5,2.6,2.9,2.9v2.8c0,0.6,0.4,1,1,1s1-0.4,1-1V87c1.4-0.4,2.6-1.5,2.9-2.9h11.9  c0.4,1.4,1.5,2.6,2.9,2.9v2.8c0,0.6,0.4,1,1,1s1-0.4,1-1V87c1.4-0.4,2.6-1.5,2.9-2.9h11.9c0.4,1.4,1.5,2.6,2.9,2.9v2.8  c0,0.6,0.4,1,1,1s1-0.4,1-1V87c1.4-0.4,2.6-1.5,2.9-2.9h2.8c0.6,0,1-0.4,1-1s-0.4-1-1-1h-2.8c-0.4-1.4-1.5-2.6-2.9-2.9V65.3  c1.4-0.4,2.6-1.5,2.9-2.9h2.8c0.6,0,1-0.4,1-1s-0.4-1-1-1h-2.8c-0.4-1.4-1.5-2.6-2.9-2.9V43.7c1.4-0.4,2.6-1.5,2.9-2.9h2.8  c0.6,0,1-0.4,1-1s-0.4-1-1-1h-2.8c-0.4-1.4-1.5-2.6-2.9-2.9V22.1c1.4-0.4,2.6-1.5,2.9-2.9h2.8c0.6,0,1-0.4,1-1s-0.4-1-1-1h-2.8  c-0.4-1.4-1.5-2.6-2.9-2.9v-2.8c0-0.6-0.4-1-1-1s-1,0.4-1,1v2.8c-1.4,0.4-2.6,1.5-2.9,2.9H64.7c-0.4-1.4-1.5-2.6-2.9-2.9v-2.8  c0-0.6-0.4-1-1-1s-1,0.4-1,1v2.8c-1.4,0.4-2.6,1.5-2.9,2.9H44.9c-0.4-1.4-1.5-2.6-2.9-2.9v-2.8c0-0.6-0.4-1-1-1s-1,0.4-1,1v2.8  c-1.4,0.4-2.6,1.5-2.9,2.9H25.1c-0.4-1.4-1.5-2.6-2.9-2.9v-2.8c0-0.6-0.4-1-1-1s-1,0.4-1,1v2.8c-1.4,0.4-2.6,1.5-2.9,2.9H14  c-0.6,0-1,0.4-1,1s0.4,1,1,1h3.3c0.4,1.4,1.5,2.6,2.9,2.9v13.8c-1.4,0.4-2.6,1.5-2.9,2.9H14c-0.6,0-1,0.4-1,1s0.4,1,1,1h3.3  c0.4,1.4,1.5,2.6,2.9,2.9v13.8c-1.4,0.4-2.6,1.5-2.9,2.9H14c-0.6,0-1,0.4-1,1s0.4,1,1,1h3.3c0.4,1.4,1.5,2.6,2.9,2.9v13.8  C18.8,79.5,17.6,80.6,17.3,82z M21.2,85.1c-1.1,0-2.1-0.9-2.1-2.1c0-1.1,0.9-2.1,2.1-2.1s2.1,0.9,2.1,2.1  C23.3,84.2,22.3,85.1,21.2,85.1z M25.1,62.4h11.9c0.4,1.4,1.5,2.6,2.9,2.9v13.8c-1.4,0.4-2.6,1.5-2.9,2.9H25.1  c-0.4-1.4-1.5-2.6-2.9-2.9V65.3C23.6,65,24.8,63.8,25.1,62.4z M25.1,40.8h11.9c0.4,1.4,1.5,2.6,2.9,2.9v13.8  c-1.4,0.4-2.6,1.5-2.9,2.9H25.1c-0.4-1.4-1.5-2.6-2.9-2.9V43.7C23.6,43.3,24.8,42.2,25.1,40.8z M25.1,19.1h11.9  c0.4,1.4,1.5,2.6,2.9,2.9v13.8c-1.4,0.4-2.6,1.5-2.9,2.9H25.1c-0.4-1.4-1.5-2.6-2.9-2.9V22.1C23.6,21.7,24.8,20.6,25.1,19.1z   M44.9,19.1h11.9c0.4,1.4,1.5,2.6,2.9,2.9v13.8c-1.4,0.4-2.6,1.5-2.9,2.9H44.9c-0.4-1.4-1.5-2.6-2.9-2.9V22.1  C43.4,21.7,44.6,20.6,44.9,19.1z M64.7,19.1h11.9c0.4,1.4,1.5,2.6,2.9,2.9v13.8c-1.4,0.4-2.6,1.5-2.9,2.9H64.7  c-0.4-1.4-1.5-2.6-2.9-2.9V22.1C63.2,21.7,64.3,20.6,64.7,19.1z M76.6,60.4H64.7c-0.4-1.4-1.5-2.6-2.9-2.9V43.7  c1.4-0.4,2.6-1.5,2.9-2.9h11.9c0.4,1.4,1.5,2.6,2.9,2.9v13.8C78.1,57.8,77,59,76.6,60.4z M76.6,82H64.7c-0.4-1.4-1.5-2.6-2.9-2.9  V65.3c1.4-0.4,2.6-1.5,2.9-2.9h11.9c0.4,1.4,1.5,2.6,2.9,2.9v13.8C78.1,79.5,77,80.6,76.6,82z M56.9,82H44.9  c-0.4-1.4-1.5-2.6-2.9-2.9V65.3c1.4-0.4,2.6-1.5,2.9-2.9h11.9c0.4,1.4,1.5,2.6,2.9,2.9v13.8C58.3,79.5,57.2,80.6,56.9,82z M41,37.7  c1.1,0,2.1,0.9,2.1,2.1s-0.9,2.1-2.1,2.1s-2.1-0.9-2.1-2.1S39.8,37.7,41,37.7z M44.9,40.8h11.9c0.4,1.4,1.5,2.6,2.9,2.9v13.8  c-1.4,0.4-2.6,1.5-2.9,2.9H44.9c-0.4-1.4-1.5-2.6-2.9-2.9V43.7C43.4,43.3,44.6,42.2,44.9,40.8z M60.8,37.7c1.1,0,2.1,0.9,2.1,2.1  s-0.9,2.1-2.1,2.1c-1.1,0-2.1-0.9-2.1-2.1S59.6,37.7,60.8,37.7z M60.8,63.5c-1.1,0-2.1-0.9-2.1-2.1s0.9-2.1,2.1-2.1  c1.1,0,2.1,0.9,2.1,2.1S61.9,63.5,60.8,63.5z M41,59.3c1.1,0,2.1,0.9,2.1,2.1s-0.9,2.1-2.1,2.1s-2.1-0.9-2.1-2.1S39.8,59.3,41,59.3z   M41,85.1c-1.1,0-2.1-0.9-2.1-2.1c0-1.1,0.9-2.1,2.1-2.1s2.1,0.9,2.1,2.1C43.1,84.2,42.1,85.1,41,85.1z M60.8,85.1  c-1.1,0-2.1-0.9-2.1-2.1c0-1.1,0.9-2.1,2.1-2.1c1.1,0,2.1,0.9,2.1,2.1C62.9,84.2,61.9,85.1,60.8,85.1z M82.6,83  c0,1.1-0.9,2.1-2.1,2.1c-1.1,0-2.1-0.9-2.1-2.1c0-1.1,0.9-2.1,2.1-2.1C81.7,81,82.6,81.9,82.6,83z M82.6,61.4c0,1.1-0.9,2.1-2.1,2.1  c-1.1,0-2.1-0.9-2.1-2.1s0.9-2.1,2.1-2.1C81.7,59.3,82.6,60.3,82.6,61.4z M82.6,39.8c0,1.1-0.9,2.1-2.1,2.1c-1.1,0-2.1-0.9-2.1-2.1  s0.9-2.1,2.1-2.1C81.7,37.7,82.6,38.6,82.6,39.8z M80.6,16.1c1.1,0,2.1,0.9,2.1,2.1s-0.9,2.1-2.1,2.1c-1.1,0-2.1-0.9-2.1-2.1  S79.4,16.1,80.6,16.1z M60.8,16.1c1.1,0,2.1,0.9,2.1,2.1s-0.9,2.1-2.1,2.1c-1.1,0-2.1-0.9-2.1-2.1S59.6,16.1,60.8,16.1z M41,16.1  c1.1,0,2.1,0.9,2.1,2.1s-0.9,2.1-2.1,2.1s-2.1-0.9-2.1-2.1S39.8,16.1,41,16.1z M19.1,18.1c0-1.1,0.9-2.1,2.1-2.1s2.1,0.9,2.1,2.1  s-0.9,2.1-2.1,2.1S19.1,19.3,19.1,18.1z M19.1,39.8c0-1.1,0.9-2.1,2.1-2.1s2.1,0.9,2.1,2.1s-0.9,2.1-2.1,2.1S19.1,40.9,19.1,39.8z   M19.1,61.4c0-1.1,0.9-2.1,2.1-2.1s2.1,0.9,2.1,2.1s-0.9,2.1-2.1,2.1S19.1,62.5,19.1,61.4z"/></svg>
