<svg xmlns="http://www.w3.org/2000/svg" viewBox="0 0 80 80" x="0px" y="0px"><g transform="translate(6,6)"><path fill="#000000" fill-rule="evenodd" d="M440.923048,482.549442 C440.599536,483.681734 439.372637,484.290827 438.275107,483.864009 L420.275107,476.864009 C419.083802,476.400724 418.626871,474.954142 419.335899,473.8906 C421.785253,470.21657 423,466.268641 423,462 C423,460.668204 422.691262,459.332438 422.051766,457.748926 C421.776317,457.06686 421.443999,456.345257 420.992933,455.434533 C420.759262,454.96274 419.879772,453.23168 419.711146,452.894427 C417.161623,447.795382 416,444.033936 416,439 C416,427.40202 425.40202,418 437,418 L438,418 C438.319666,418 438.63929,418.00726 438.958627,418.021776 C450.606193,418.551211 459.619219,428.42262 459.089784,440.070186 L459.021565,441.570995 L463.341641,450.211146 C463.619352,450.766567 463.763932,451.37902 463.763932,452 C463.763932,454.209139 461.973071,456 459.763932,456 L459,456 L459,458 C459,458.702526 458.631402,459.353539 458.028992,459.714986 L453.225505,461.397078 L457.414214,463.585786 C457.789286,463.960859 458,464.469567 458,465 C458,465.32019 457.97555,465.639912 457.926863,465.956378 C457.39867,469.389633 454.187282,471.74465 450.754027,471.216457 L444.438643,470.24486 L440.923048,482.549442 Z M465.464741,465.464741 L463.989442,463.989445 C463.679553,463.679555 463.607547,463.203995 463.811806,462.816256 C463.862915,462.719238 463.899506,462.632448 463.92158,462.555887 C464.009473,462.251028 464.023483,461.929374 463.963611,461.619161 C463.940168,461.497699 463.885599,461.354921 463.799904,461.190828 C463.597635,460.803533 463.670238,460.329762 463.979196,460.020804 L465.467619,458.532373 C465.856937,458.143055 466.488146,458.143055 466.877464,458.532373 C466.92433,458.579239 466.966406,458.630662 467.003066,458.685879 C467.22887,459.025976 467.416315,459.384024 467.565402,459.753924 C468.287425,461.545329 468.109794,463.61471 467.032508,465.269341 C467.02156,465.286157 467.010001,465.303482 466.997833,465.321314 L466.9978,465.321292 C466.686517,465.777468 466.064368,465.894927 465.608191,465.583643 C465.556778,465.54856 465.508753,465.508753 465.464741,465.464741 Z M471.163268,471.163268 L469.741816,469.741781 C469.372298,469.372263 469.349615,468.780532 469.68976,468.38381 C469.814714,468.238071 469.917148,468.112138 469.997061,468.006011 C472.702305,464.413359 472.667197,459.41271 469.891735,455.856604 C469.8366,455.785962 469.769954,455.705046 469.691796,455.613858 L469.69183,455.613828 C469.351798,455.217106 469.374525,454.625475 469.743992,454.256008 L471.164494,452.835482 C471.555025,452.444951 472.188201,452.444951 472.578732,452.835482 C472.593949,452.850699 472.60867,452.866402 472.622874,452.882569 C472.681504,452.949303 472.73347,453.009929 472.778773,453.064448 C477.043517,458.19671 477.07353,465.660998 472.868811,470.826082 C472.800274,470.910273 472.717515,471.007384 472.620534,471.117415 L472.620497,471.117382 C472.255334,471.531682 471.623455,471.571516 471.209155,471.206353 C471.193411,471.192477 471.178108,471.178108 471.163268,471.163268 Z M476.83154,476.83154 L475.415576,475.415566 C475.037226,475.037216 475.023739,474.428081 475.38497,474.033355 C475.457722,473.953857 475.521198,473.88305 475.575397,473.820933 C481.510241,467.019088 481.474656,456.818899 475.46864,450.057807 C475.442861,450.028787 475.414736,449.997551 475.384266,449.9641 L475.384249,449.964115 C475.02453,449.569204 475.038696,448.961304 475.416422,448.583578 L476.832704,447.167335 C477.223218,446.776821 477.856365,446.776821 478.246879,447.167335 C478.257275,447.17773 478.26744,447.188354 478.277367,447.199198 C478.290337,447.213365 478.302822,447.227071 478.314824,447.240316 C485.834565,455.538719 485.894576,468.190683 478.494856,476.558572 C478.431965,476.629692 478.35799,476.711258 478.272933,476.803271 L478.272899,476.80324 C477.898023,477.208774 477.265375,477.233627 476.859841,476.858751 C476.85023,476.849867 476.840795,476.840795 476.83154,476.83154 Z" transform="translate(-416 -418)"/></g></svg>
