<svg xmlns="http://www.w3.org/2000/svg" xmlns:xlink="http://www.w3.org/1999/xlink" version="1.1" x="0px" y="0px" viewBox="0 0 100 100" style="enable-background:new 0 0 100 100;" xml:space="preserve"><path d="M92.7,67.4h-6.1C87,62.7,86.7,58,85.6,53c-4.3-20.5-17-32.3-37.8-35.2c-6.4-1.1-11.2-4.1-14.4-6.9s-4.8-5.3-4.8-5.4  c0,0,0,0,0,0c0-0.1-0.1-0.1-0.1-0.2c0,0-0.1-0.1-0.1-0.1c0,0-0.1-0.1-0.1-0.1C28.2,5,28.2,5,28.1,5c0,0-0.1-0.1-0.1-0.1  c-0.1,0-0.1-0.1-0.2-0.1c-0.1,0-0.1,0-0.1-0.1c-0.1,0-0.2,0-0.2-0.1c0,0,0,0,0,0c0,0-0.1,0-0.1,0c-0.1,0-0.1,0-0.2,0s-0.1,0-0.2,0  c-0.1,0-0.1,0-0.2,0c-0.1,0-0.2,0-0.2,0.1c0,0-0.1,0-0.1,0c-0.1,0-0.2,0.1-0.2,0.1c0,0-0.1,0-0.1,0.1c0,0,0,0,0,0  c-0.1,0-0.1,0.1-0.2,0.2c0,0-0.1,0.1-0.1,0.1c0,0-0.1,0.1-0.1,0.2c0,0-0.1,0.1-0.1,0.1c0,0.1-0.1,0.1-0.1,0.2c0,0-0.1,0.1-0.1,0.2  c0,0,0,0.1-0.1,0.2c0,0.1,0,0.1-0.1,0.2c0,0,0,0,0,0c0,0.2-0.8,4-0.7,8.4c0.1,5.1,1.3,8.8,3.5,11l-20.3,25C4.4,54.6,4.6,60.2,8,63.9  l6.5,6.9c1.9,2,4.4,3.1,7.1,3.1h0.1c2.7,0,5.2-1,7.1-2.9l7.8-7.8c1.8,1.1,3.8,1.7,5.8,2c-0.4,3.2-2,6-4.5,8.2  c-5.3,4.5-8.4,11.1-8.4,18v2c0,1.1,0.9,2,2,2h40c6.6,0,12-5.4,12-12v0c6.2-0.5,11-5.7,11-12v-2C94.7,68.3,93.8,67.4,92.7,67.4z   M52.7,91.4h-19c0-5.8,2.5-11.2,7-15c3.4-2.8,5.5-6.8,6-11.2c7.9-1,14.1-7.7,14.1-15.9c0-3.4-1.1-6.7-3.1-9.5  c-0.7-0.9-1.9-1.1-2.8-0.4c-0.9,0.7-1.1,1.9-0.4,2.8c1.5,2.1,2.3,4.5,2.3,7.1c0,6.6-5.4,12-12,12c-2.6,0-5-0.8-7.1-2.3c0,0,0,0,0,0  c-0.1,0-0.1-0.1-0.2-0.1c-0.1,0-0.1-0.1-0.2-0.1c-0.1,0-0.1,0-0.2-0.1c-0.1,0-0.1,0-0.2-0.1c0,0-0.1,0-0.2,0c-0.1,0-0.1,0-0.2,0  c-0.1,0-0.1,0-0.2,0c-0.1,0-0.1,0-0.2,0c-0.1,0-0.1,0-0.2,0c-0.1,0-0.1,0-0.2,0.1c0,0-0.1,0-0.2,0.1c-0.1,0-0.1,0.1-0.2,0.1  c0,0-0.1,0.1-0.1,0.1c-0.1,0-0.1,0.1-0.2,0.1c0,0,0,0,0,0l-8.9,8.9c-1.2,1.2-2.7,1.8-4.3,1.8c-1.6,0-3.2-0.7-4.3-1.9l-6.5-6.9  c-2.1-2.2-2.2-5.6-0.3-7.9l21.6-26.6c0-0.1,0.1-0.1,0.1-0.2c0,0,0,0,0-0.1c0,0,0,0,0,0c0-0.1,0.1-0.1,0.1-0.2c0-0.1,0-0.1,0.1-0.2  c0-0.1,0-0.1,0-0.2c0-0.1,0-0.1,0-0.2v-0.2c0-0.1,0-0.1,0-0.2c0-0.1,0-0.1,0-0.2c0-0.1,0-0.1,0-0.2c0-0.1,0-0.1-0.1-0.2  c0-0.1,0-0.1-0.1-0.2c0,0-0.1-0.1-0.1-0.2c0-0.1-0.1-0.1-0.1-0.2c0,0-0.1-0.1-0.1-0.1c0-0.1-0.1-0.1-0.2-0.2c0,0,0,0,0,0  c0,0-0.1-0.1-0.1-0.1c0,0-0.1-0.1-0.1-0.1c-3.1-1.8-3.5-7.6-3.3-12.1c3.4,3.6,9.6,8.6,18.8,10.2c0,0,0,0,0,0h0  c19.2,2.6,30.5,13.1,34.4,32c1,4.8,1.3,9.2,0.8,13.6h-7.9c-12.1,0-22,9.9-22,22V91.4z M82.7,79.4h-1c-1.1,0-2,0.9-2,2v2  c0,4.4-3.6,8-8,8h-15v-2c0-9.9,8.1-18,18-18h16C90.7,75.8,87.1,79.4,82.7,79.4z"/></svg>
