<svg xmlns="http://www.w3.org/2000/svg" xmlns:xlink="http://www.w3.org/1999/xlink" version="1.1" x="0px" y="0px" viewBox="0 0 100 100" enable-background="new 0 0 100 100" xml:space="preserve"><g><g><rect x="23" y="43.4" transform="matrix(-0.3139 -0.9494 0.9494 -0.3139 38.2629 120.0249)" width="79.1" height="5.6"/><rect x="34.9" y="6.6" transform="matrix(-0.9495 -0.3138 0.3138 -0.9495 58.944 101.865)" width="5.6" height="79.1"/><rect x="10.2" y="34.4" width="79.7" height="5.6"/><rect x="54.7" y="20.7" transform="matrix(-0.5843 -0.8115 0.8115 -0.5843 42.0987 142.5215)" width="5.6" height="79.6"/><rect x="2.7" y="57.7" transform="matrix(-0.8123 -0.5833 0.5833 -0.8123 41.8032 134.4126)" width="79.7" height="5.6"/></g><path d="M50,5c24.8,0,45,20.2,45,45c0,24.8-20.2,45-45,45S5,74.8,5,50C5,25.2,25.2,5,50,5z M50,89.4c21.7,0,39.4-17.7,39.4-39.4   c0-21.7-17.7-39.4-39.4-39.4S10.6,28.3,10.6,50C10.6,71.7,28.3,89.4,50,89.4z"/></g></svg>
