<svg xmlns="http://www.w3.org/2000/svg" xmlns:xlink="http://www.w3.org/1999/xlink" version="1.1" x="0px" y="0px" viewBox="0 0 48 48" enable-background="new 0 0 48 48" xml:space="preserve"><g><path d="M30,15.169V10c0-0.552-0.448-1-1-1h-1V4h1c0.552,0,1-0.448,1-1s-0.448-1-1-1h-2h-6h-4c-0.552,0-1,0.448-1,1v2   c0,0.552,0.448,1,1,1s1-0.448,1-1V4h2v5h-1c-0.552,0-1,0.448-1,1v5.169C11.99,17.593,8,23.465,8,30c0,8.822,7.178,16,16,16   s16-7.178,16-16C40,23.465,36.01,17.593,30,15.169z M22,4h4v5h-4V4z M24,44c-6.685,0-12.282-4.712-13.665-10.987   c1.038,0.062,1.583,0.403,2.248,0.83C13.43,34.385,14.39,35,16.244,35c1.855,0,2.816-0.615,3.664-1.158   C20.643,33.372,21.223,33,22.493,33c1.271,0,1.852,0.372,2.588,0.842C25.93,34.385,26.891,35,28.747,35s2.817-0.615,3.665-1.158   C33.148,33.372,33.729,33,35,33c0.552,0,1-0.448,1-1s-0.448-1-1-1c-1.856,0-2.817,0.615-3.666,1.158   C30.599,32.628,30.017,33,28.747,33s-1.852-0.372-2.587-0.842C25.311,31.615,24.349,31,22.493,31c-1.855,0-2.816,0.615-3.664,1.158   C18.094,32.628,17.513,33,16.244,33c-1.268,0-1.848-0.372-2.582-0.842c-0.839-0.538-1.792-1.145-3.611-1.156   C10.027,30.67,10,30.338,10,30c0-0.335,0.016-0.668,0.039-0.999c1.239,0.008,1.817,0.375,2.543,0.841   C13.43,30.385,14.39,31,16.244,31c1.855,0,2.816-0.615,3.664-1.158C20.643,29.372,21.223,29,22.493,29   c1.271,0,1.852,0.372,2.588,0.842C25.93,30.385,26.891,31,28.747,31s2.817-0.615,3.665-1.158C33.148,29.372,33.729,29,35,29   c0.552,0,1-0.448,1-1s-0.448-1-1-1c-1.856,0-2.817,0.615-3.666,1.158C30.599,28.628,30.017,29,28.747,29s-1.852-0.372-2.587-0.842   C25.311,27.615,24.349,27,22.493,27c-1.855,0-2.816,0.615-3.664,1.158C18.094,28.628,17.513,29,16.244,29   c-1.268,0-1.848-0.372-2.582-0.842c-0.793-0.509-1.697-1.074-3.331-1.145c1.021-4.664,4.38-8.582,9.002-10.21   C19.732,16.662,20,16.284,20,15.86V11h1h2v13c0,0.552,0.448,1,1,1s1-0.448,1-1V11h2h1v4.86c0,0.424,0.268,0.802,0.667,0.943   C34.25,18.77,38,24.073,38,30C38,37.72,31.72,44,24,44z"/></g></svg>
