<svg xmlns="http://www.w3.org/2000/svg" xmlns:xlink="http://www.w3.org/1999/xlink" version="1.1" x="0px" y="0px" viewBox="0 0 100 100" enable-background="new 0 0 100 100" xml:space="preserve"><path d="M89.761,48.034c-1.126,0-3.318,0.275-5.032,0.708c-0.857-0.432-1.953-0.708-2.516-0.708c-0.539,0-1.023,0.252-1.357,0.653  c-0.039-0.252-0.257-0.445-0.52-0.445c-0.208,0-0.387,0.121-0.473,0.296v-0.234c0-0.353-0.286-0.639-0.639-0.639h-0.122  c-0.178,0-0.338,0.073-0.454,0.19c-0.466-6.321-2.978-12.073-6.876-16.597c0.165,0.001,0.331-0.061,0.457-0.187l0.086-0.086  c0.249-0.249,0.249-0.654,0-0.903l-0.165-0.165c0.184,0.063,0.397,0.022,0.544-0.125c0.187-0.187,0.203-0.478,0.051-0.684  c0.52,0.048,1.041-0.114,1.423-0.496c0.398-0.398,0.978-1.368,1.278-2.279c1.518-0.906,3.262-2.261,4.059-3.058  c1.424-1.424,1.956-3.2,1.188-3.968c-0.768-0.768-2.544-0.236-3.968,1.188c-0.796,0.796-2.152,2.541-3.058,4.059  c-0.912,0.3-1.881,0.88-2.279,1.278c-0.381,0.381-0.543,0.903-0.496,1.423c-0.206-0.152-0.498-0.135-0.684,0.051h0  c-0.147,0.147-0.188,0.359-0.125,0.544l-0.165-0.165c-0.249-0.249-0.654-0.249-0.903,0l-0.086,0.086  c-0.126,0.126-0.188,0.292-0.187,0.457c-4.524-3.898-10.276-6.41-16.597-6.876c0.117-0.116,0.19-0.276,0.19-0.454v-0.122  c0-0.353-0.286-0.639-0.639-0.639h-0.234c0.175-0.086,0.296-0.265,0.296-0.473c0-0.263-0.193-0.481-0.445-0.52  c0.401-0.334,0.653-0.818,0.653-1.357c0-0.563-0.275-1.659-0.708-2.516c0.433-1.714,0.708-3.906,0.708-5.032  c0-2.014-0.88-3.646-1.966-3.646c-1.086,0-1.966,1.632-1.966,3.646c0,1.126,0.275,3.318,0.708,5.032  c-0.432,0.857-0.708,1.953-0.708,2.516c0,0.539,0.252,1.023,0.653,1.357c-0.252,0.039-0.445,0.257-0.445,0.52  c0,0.208,0.121,0.387,0.296,0.473h-0.234c-0.353,0-0.639,0.286-0.639,0.639v0.122c0,0.178,0.073,0.338,0.19,0.454  c-6.321,0.466-12.073,2.978-16.597,6.876c0.001-0.165-0.061-0.331-0.187-0.457l-0.086-0.086c-0.249-0.249-0.654-0.249-0.903,0  l-0.165,0.165c0.063-0.184,0.022-0.397-0.125-0.544c-0.187-0.187-0.478-0.203-0.685-0.051c0.048-0.52-0.114-1.041-0.496-1.423  c-0.398-0.398-1.368-0.978-2.279-1.278c-0.906-1.518-2.261-3.262-3.058-4.059c-1.424-1.424-3.2-1.956-3.968-1.188  c-0.768,0.768-0.236,2.544,1.188,3.968c0.796,0.796,2.541,2.152,4.059,3.058c0.3,0.912,0.88,1.881,1.278,2.279  c0.381,0.381,0.903,0.543,1.423,0.496c-0.152,0.206-0.135,0.498,0.051,0.684c0.147,0.147,0.359,0.188,0.544,0.125l-0.165,0.165  c-0.249,0.249-0.249,0.654,0,0.903l0.086,0.086c0.126,0.126,0.292,0.188,0.457,0.187c-3.898,4.524-6.41,10.276-6.876,16.597  c-0.116-0.117-0.276-0.19-0.454-0.19h-0.122c-0.353,0-0.639,0.286-0.639,0.639v0.234c-0.086-0.175-0.265-0.296-0.473-0.296  c-0.263,0-0.481,0.193-0.52,0.445c-0.334-0.401-0.818-0.653-1.357-0.653c-0.563,0-1.659,0.275-2.516,0.708  c-1.714-0.433-3.906-0.708-5.032-0.708c-2.014,0-3.646,0.88-3.646,1.966c0,1.086,1.632,1.966,3.646,1.966  c1.126,0,3.318-0.275,5.032-0.708c0.857,0.432,1.953,0.708,2.516,0.708c0.539,0,1.023-0.252,1.357-0.653  c0.039,0.252,0.257,0.445,0.52,0.445c0.208,0,0.387-0.121,0.473-0.296v0.234c0,0.353,0.286,0.639,0.639,0.639h0.122  c0.178,0,0.338-0.073,0.454-0.19c0.466,6.321,2.978,12.073,6.876,16.597c-0.165-0.001-0.331,0.061-0.457,0.187l-0.086,0.086  c-0.249,0.249-0.249,0.654,0,0.903l0.165,0.165c-0.184-0.063-0.397-0.022-0.544,0.125c-0.187,0.187-0.203,0.478-0.051,0.684  c-0.52-0.048-1.041,0.114-1.423,0.496c-0.398,0.398-0.978,1.368-1.278,2.279c-1.518,0.906-3.262,2.261-4.059,3.058  c-1.424,1.424-1.956,3.2-1.188,3.968c0.768,0.768,2.544,0.236,3.968-1.188c0.796-0.796,2.152-2.541,3.058-4.059  c0.912-0.3,1.881-0.88,2.279-1.278c0.381-0.381,0.543-0.903,0.496-1.423c0.206,0.152,0.498,0.135,0.685-0.051  c0.147-0.147,0.188-0.359,0.125-0.544l0.165,0.165c0.249,0.249,0.654,0.249,0.903,0l0.086-0.086  c0.126-0.126,0.188-0.292,0.187-0.457c4.524,3.898,10.276,6.41,16.597,6.876c-0.117,0.116-0.19,0.276-0.19,0.454v0.122  c0,0.353,0.286,0.639,0.639,0.639h0.234c-0.175,0.086-0.296,0.265-0.296,0.473c0,0.263,0.193,0.481,0.445,0.52  c-0.401,0.334-0.653,0.818-0.653,1.357c0,0.563,0.275,1.659,0.708,2.516c-0.433,1.714-0.708,3.906-0.708,5.032  c0,2.014,0.88,3.646,1.966,3.646c1.086,0,1.966-1.632,1.966-3.646c0-1.126-0.275-3.318-0.708-5.032  c0.432-0.857,0.708-1.953,0.708-2.516c0-0.539-0.252-1.023-0.653-1.357c0.252-0.039,0.445-0.257,0.445-0.52  c0-0.208-0.121-0.387-0.296-0.473h0.234c0.353,0,0.639-0.286,0.639-0.639v-0.122c0-0.178-0.073-0.338-0.19-0.454  c6.321-0.466,12.073-2.978,16.597-6.876c-0.001,0.165,0.061,0.331,0.187,0.457l0.086,0.086c0.249,0.249,0.654,0.249,0.903,0  l0.165-0.165c-0.063,0.184-0.022,0.397,0.125,0.544h0c0.187,0.187,0.478,0.203,0.684,0.051c-0.048,0.52,0.114,1.041,0.496,1.423  c0.398,0.398,1.368,0.978,2.279,1.278c0.906,1.518,2.261,3.262,3.058,4.059c1.424,1.424,3.2,1.956,3.968,1.188  c0.768-0.768,0.236-2.544-1.188-3.968c-0.796-0.796-2.541-2.152-4.059-3.058c-0.3-0.912-0.88-1.881-1.278-2.279  c-0.381-0.381-0.903-0.543-1.423-0.496c0.152-0.206,0.135-0.498-0.051-0.684c-0.147-0.147-0.359-0.188-0.544-0.125l0.165-0.165  c0.249-0.249,0.249-0.654,0-0.903l-0.086-0.086c-0.126-0.126-0.292-0.188-0.457-0.187c3.898-4.524,6.41-10.276,6.876-16.597  c0.116,0.117,0.276,0.19,0.454,0.19h0.122c0.353,0,0.639-0.286,0.639-0.639v-0.234c0.086,0.175,0.265,0.296,0.473,0.296  c0.263,0,0.481-0.193,0.52-0.445c0.334,0.401,0.818,0.653,1.357,0.653c0.563,0,1.659-0.275,2.516-0.708  c1.714,0.433,3.906,0.708,5.032,0.708c2.014,0,3.646-0.88,3.646-1.966C93.407,48.914,91.774,48.034,89.761,48.034z M71.36,47.524  h-0.423c-0.352,0-0.637,0.285-0.637,0.637v0.313c-0.095-0.182-0.285-0.306-0.505-0.306h-0.137c-0.289,0-0.527,0.215-0.564,0.494  c-0.404-0.446-0.99-0.726-1.642-0.726c-0.847,0-2.69,0.474-3.737,1.169c-1.047-0.695-2.89-1.169-3.737-1.169  c-0.652,0-1.237,0.28-1.642,0.726c-0.037-0.279-0.276-0.494-0.564-0.494h-0.137c-0.219,0-0.41,0.124-0.505,0.306V48.16  c0-0.352-0.285-0.637-0.637-0.637h-0.138c-0.001-0.003-0.002-0.005-0.003-0.008l0.173-0.173c0.249-0.249,0.249-0.652,0-0.9  l-0.221-0.221c0.196,0.061,0.418,0.014,0.573-0.141l0.097-0.097c0.204-0.204,0.221-0.525,0.05-0.748  c0.601,0.029,1.213-0.187,1.674-0.647c0.599-0.599,1.567-2.237,1.816-3.469c1.232-0.249,2.87-1.217,3.469-1.816  c0.461-0.461,0.677-1.073,0.647-1.674c0.223,0.171,0.544,0.154,0.748-0.05l0.097-0.097c0.155-0.155,0.202-0.377,0.141-0.573  l0.221,0.221c0.249,0.249,0.652,0.249,0.9,0l0.299-0.299c0.249-0.249,0.249-0.652,0-0.9l-0.221-0.221  c0.196,0.061,0.418,0.014,0.573-0.141l0.051-0.051c2.904,3.491,4.781,7.863,5.166,12.65h-0.105c-0.219,0-0.41,0.124-0.505,0.306  V48.16C71.996,47.809,71.711,47.524,71.36,47.524z M62.422,65.38l0.097,0.097c0.155,0.155,0.377,0.202,0.573,0.141l-0.221,0.221  c-0.249,0.249-0.249,0.652,0,0.9l0.299,0.299c0.249,0.249,0.652,0.249,0.9,0l0.221-0.221c-0.061,0.196-0.014,0.418,0.141,0.573  l0.051,0.051c-3.491,2.904-7.863,4.781-12.65,5.166v-0.105c0-0.219-0.124-0.41-0.306-0.505h0.313c0.352,0,0.637-0.285,0.637-0.637  v-0.423c0-0.352-0.285-0.637-0.637-0.637h-0.313c0.182-0.095,0.306-0.285,0.306-0.505v-0.137c0-0.289-0.215-0.527-0.494-0.564  c0.446-0.404,0.726-0.99,0.726-1.642c0-0.847-0.474-2.69-1.169-3.737c0.695-1.047,1.169-2.89,1.169-3.737  c0-0.652-0.28-1.237-0.726-1.642c0.279-0.037,0.494-0.276,0.494-0.564v-0.137c0-0.219-0.124-0.41-0.306-0.505h0.313  c0.352,0,0.637-0.285,0.637-0.637v-0.149l0.181,0.181c0.249,0.249,0.652,0.249,0.9,0l0.221-0.221  c-0.061,0.196-0.014,0.418,0.141,0.573l0.097,0.097c0.204,0.204,0.525,0.221,0.748,0.05c-0.029,0.601,0.187,1.213,0.647,1.674  c0.599,0.599,2.237,1.567,3.469,1.816c0.249,1.232,1.217,2.87,1.816,3.469c0.461,0.461,1.073,0.677,1.674,0.647  C62.201,64.855,62.217,65.175,62.422,65.38z M35.526,66.634l0.221,0.221c0.249,0.249,0.652,0.249,0.9,0l0.299-0.299  c0.249-0.249,0.249-0.652,0-0.9l-0.221-0.221c0.196,0.061,0.418,0.014,0.573-0.141l0.097-0.097c0.204-0.204,0.221-0.525,0.05-0.748  c0.601,0.029,1.213-0.187,1.674-0.647c0.599-0.599,1.567-2.237,1.816-3.469c1.232-0.249,2.87-1.217,3.469-1.816  c0.461-0.461,0.677-1.073,0.647-1.674c0.223,0.171,0.544,0.154,0.748-0.05l0.097-0.097c0.155-0.155,0.202-0.377,0.141-0.573  l0.221,0.221c0.249,0.249,0.652,0.249,0.9,0l0.105-0.105v0.256c0,0.352,0.285,0.637,0.637,0.637h0.313  c-0.182,0.095-0.306,0.285-0.306,0.505v0.137c0,0.289,0.215,0.527,0.494,0.564c-0.446,0.404-0.726,0.99-0.726,1.642  c0,0.847,0.474,2.69,1.169,3.737c-0.695,1.047-1.169,2.89-1.169,3.737c0,0.652,0.28,1.237,0.726,1.642  c-0.279,0.037-0.494,0.276-0.494,0.564v0.137c0,0.219,0.124,0.41,0.306,0.505h-0.313c-0.352,0-0.637,0.285-0.637,0.637v0.423  c0,0.352,0.285,0.637,0.637,0.637h0.313c-0.182,0.095-0.306,0.285-0.306,0.505v0.082c-4.777-0.439-9.13-2.365-12.59-5.31  l0.066-0.066C35.54,67.052,35.587,66.829,35.526,66.634z M37.578,34.62l-0.097-0.097c-0.155-0.155-0.377-0.202-0.573-0.141  l0.221-0.221c0.249-0.249,0.249-0.652,0-0.9l-0.299-0.299c-0.249-0.249-0.652-0.249-0.9,0l-0.221,0.221  c0.061-0.196,0.014-0.418-0.141-0.573l-0.051-0.051c3.491-2.904,7.863-4.781,12.65-5.166v0.105c0,0.219,0.124,0.41,0.306,0.505  H48.16c-0.352,0-0.637,0.285-0.637,0.637v0.423c0,0.352,0.285,0.637,0.637,0.637h0.313c-0.182,0.095-0.306,0.285-0.306,0.505v0.137  c0,0.289,0.215,0.527,0.494,0.564c-0.446,0.404-0.726,0.99-0.726,1.642c0,0.847,0.474,2.69,1.169,3.737  c-0.695,1.047-1.169,2.89-1.169,3.737c0,0.652,0.28,1.237,0.726,1.642c-0.279,0.037-0.494,0.276-0.494,0.564v0.137  c0,0.219,0.124,0.41,0.306,0.505H48.16c-0.333,0-0.602,0.256-0.631,0.581c-0.05,0.02-0.101,0.039-0.15,0.06l-0.036-0.036  c-0.249-0.249-0.652-0.249-0.9,0l-0.221,0.221c0.061-0.196,0.014-0.418-0.141-0.573l-0.097-0.097  c-0.204-0.204-0.525-0.221-0.748-0.05c0.029-0.601-0.187-1.213-0.647-1.674c-0.599-0.599-2.237-1.567-3.469-1.816  c-0.249-1.232-1.217-2.87-1.816-3.469c-0.461-0.461-1.073-0.677-1.674-0.647C37.799,35.145,37.783,34.825,37.578,34.62z   M54.948,43.158c-0.224-0.171-0.544-0.154-0.748,0.05l-0.097,0.097c-0.155,0.155-0.202,0.377-0.141,0.573l-0.221-0.221  c-0.237-0.237-0.613-0.245-0.863-0.031c-0.047-0.022-0.095-0.043-0.143-0.064v-0.056c0-0.352-0.285-0.637-0.637-0.637h-0.313  c0.182-0.095,0.306-0.285,0.306-0.505v-0.137c0-0.289-0.215-0.527-0.494-0.564c0.446-0.404,0.726-0.99,0.726-1.642  c0-0.847-0.474-2.69-1.169-3.737c0.695-1.047,1.169-2.89,1.169-3.737c0-0.652-0.28-1.237-0.726-1.642  c0.279-0.037,0.494-0.276,0.494-0.564v-0.137c0-0.219-0.124-0.41-0.306-0.505h0.313c0.352,0,0.637-0.285,0.637-0.637V28.64  c0-0.352-0.285-0.637-0.637-0.637h-0.313c0.182-0.095,0.306-0.285,0.306-0.505v-0.082c4.777,0.439,9.129,2.365,12.59,5.31  l-0.066,0.066c-0.155,0.155-0.202,0.377-0.141,0.573l-0.221-0.221c-0.249-0.249-0.652-0.249-0.9,0l-0.299,0.299  c-0.249,0.249-0.249,0.652,0,0.9l0.221,0.221c-0.196-0.061-0.418-0.014-0.573,0.141l-0.097,0.097  c-0.204,0.204-0.221,0.525-0.05,0.748c-0.601-0.029-1.213,0.187-1.674,0.647c-0.599,0.599-1.567,2.237-1.816,3.469  c-1.232,0.249-2.87,1.217-3.469,1.816C55.135,41.945,54.919,42.557,54.948,43.158z M32.727,35.319l0.066,0.066  c0.155,0.155,0.377,0.202,0.573,0.141l-0.221,0.221c-0.249,0.249-0.249,0.652,0,0.9l0.299,0.299c0.249,0.249,0.652,0.249,0.9,0  l0.221-0.221c-0.061,0.196-0.014,0.418,0.141,0.573l0.097,0.097c0.204,0.204,0.525,0.221,0.748,0.05  c-0.029,0.601,0.187,1.213,0.647,1.674c0.599,0.599,2.237,1.567,3.469,1.816c0.249,1.232,1.217,2.87,1.816,3.469  c0.461,0.461,1.073,0.677,1.674,0.647c-0.171,0.223-0.154,0.544,0.05,0.748l0.097,0.097c0.155,0.155,0.377,0.202,0.573,0.141  l-0.221,0.221c-0.249,0.249-0.249,0.652,0,0.9l0.088,0.088c-0.002,0.006-0.004,0.011-0.007,0.017h-0.232  c-0.352,0-0.637,0.285-0.637,0.637v0.313c-0.095-0.182-0.285-0.306-0.505-0.306h-0.137c-0.289,0-0.527,0.215-0.564,0.494  c-0.404-0.446-0.99-0.726-1.642-0.726c-0.847,0-2.69,0.474-3.737,1.169c-1.047-0.695-2.89-1.169-3.737-1.169  c-0.652,0-1.237,0.28-1.642,0.726c-0.037-0.279-0.276-0.494-0.564-0.494h-0.137c-0.219,0-0.41,0.124-0.505,0.306v-0.313  c0-0.352-0.285-0.637-0.637-0.637H28.64c-0.352,0-0.637,0.285-0.637,0.637v0.313c-0.095-0.182-0.285-0.306-0.505-0.306h-0.082  C27.855,43.131,29.781,38.779,32.727,35.319z M27.499,51.833c0.219,0,0.41-0.124,0.505-0.306v0.313c0,0.352,0.285,0.637,0.637,0.637  h0.423c0.352,0,0.637-0.285,0.637-0.637v-0.313c0.095,0.182,0.285,0.306,0.505,0.306h0.137c0.289,0,0.527-0.215,0.564-0.494  c0.404,0.446,0.99,0.726,1.642,0.726c0.847,0,2.69-0.474,3.737-1.169c1.047,0.695,2.89,1.169,3.737,1.169  c0.652,0,1.237-0.28,1.642-0.726c0.037,0.279,0.276,0.494,0.564,0.494h0.137c0.219,0,0.41-0.124,0.505-0.306v0.313  c0,0.352,0.285,0.637,0.637,0.637h0.149l-0.181,0.181c-0.249,0.249-0.249,0.652,0,0.9l0.221,0.221  c-0.196-0.061-0.418-0.014-0.573,0.141l-0.097,0.097c-0.204,0.204-0.221,0.525-0.05,0.748c-0.601-0.029-1.213,0.187-1.674,0.647  c-0.599,0.599-1.567,2.237-1.816,3.469c-1.232,0.249-2.87,1.217-3.469,1.816c-0.461,0.461-0.677,1.073-0.647,1.674  c-0.223-0.171-0.544-0.154-0.748,0.05l-0.097,0.097c-0.155,0.155-0.202,0.377-0.141,0.573l-0.221-0.221  c-0.249-0.249-0.652-0.249-0.9,0l-0.299,0.299c-0.249,0.249-0.249,0.652,0,0.9l0.221,0.221c-0.196-0.061-0.418-0.014-0.573,0.141  l-0.051,0.051c-2.904-3.491-4.781-7.863-5.166-12.65H27.499z M67.273,64.681l-0.066-0.066c-0.155-0.155-0.377-0.202-0.573-0.141  l0.221-0.221c0.249-0.249,0.249-0.652,0-0.9l-0.299-0.299c-0.249-0.249-0.652-0.249-0.9,0l-0.221,0.221  c0.061-0.196,0.014-0.418-0.141-0.573l-0.097-0.097c-0.204-0.204-0.525-0.221-0.748-0.05c0.029-0.601-0.187-1.213-0.647-1.674  c-0.599-0.599-2.237-1.567-3.469-1.816c-0.249-1.232-1.217-2.87-1.816-3.469c-0.461-0.461-1.073-0.677-1.674-0.647  c0.171-0.224,0.154-0.544-0.05-0.748l-0.097-0.097c-0.155-0.155-0.377-0.202-0.573-0.141l0.221-0.221c0.249-0.249,0.249-0.652,0-0.9  l-0.105-0.105h0.256c0.352,0,0.637-0.285,0.637-0.637v-0.313c0.095,0.182,0.285,0.306,0.505,0.306h0.137  c0.289,0,0.527-0.215,0.564-0.494c0.404,0.446,0.99,0.726,1.642,0.726c0.847,0,2.69-0.474,3.737-1.169  c1.047,0.695,2.89,1.169,3.737,1.169c0.652,0,1.237-0.28,1.642-0.726c0.037,0.279,0.276,0.494,0.564,0.494h0.137  c0.219,0,0.41-0.124,0.505-0.306v0.313c0,0.352,0.285,0.637,0.637,0.637h0.423c0.352,0,0.637-0.285,0.637-0.637v-0.313  c0.095,0.182,0.285,0.306,0.505,0.306h0.082C72.145,56.869,70.219,61.221,67.273,64.681z"/></svg>
