<svg xmlns:dc="http://purl.org/dc/elements/1.1/" xmlns:cc="http://creativecommons.org/ns#" xmlns:rdf="http://www.w3.org/1999/02/22-rdf-syntax-ns#" xmlns:svg="http://www.w3.org/2000/svg" xmlns="http://www.w3.org/2000/svg" xmlns:sodipodi="http://sodipodi.sourceforge.net/DTD/sodipodi-0.dtd" xmlns:inkscape="http://www.inkscape.org/namespaces/inkscape" viewBox="0 0 100 100" version="1.1" x="0px" y="0px"><g style="display:inline;opacity:1"><path style="opacity:1;fill:#000000;fill-opacity:1;stroke:none;stroke-width:3;stroke-linecap:butt;stroke-linejoin:round;stroke-miterlimit:4;stroke-dasharray:none;stroke-opacity:1" d="M 16.919922 7.5703125 C -0.53409413 37.516641 26.908904 55.087547 42.931641 58.583984 C 43.416607 55.781559 46.829546 55.320051 50.634766 55.173828 C 26.662989 44.157056 30.690264 27.549717 29.798828 23.734375 C 20.98641 20.73945 20.596293 13.284322 16.919922 7.5703125 z M 37.628906 8.5820312 L 29.419922 13.757812 L 82.707031 91.035156 L 89.398438 85.984375 L 37.628906 8.5820312 z M 28.927734 16.607422 L 24.732422 19.285156 C 25.298804 19.828021 25.890208 20.3696 26.785156 20.892578 L 30.357422 18.75 L 28.927734 16.607422 z M 33.392578 22.767578 L 31.339844 23.927734 C 31.380544 25.522147 31.383304 26.852134 31.339844 27.857422 L 35.177734 25.267578 L 33.392578 22.767578 z M 45.625 40.625 L 38.927734 45.535156 L 41.072266 47.410156 L 47.322266 43.035156 L 45.625 40.625 z M 50 46.964844 L 44.822266 50.535156 L 47.767578 52.142578 L 51.517578 49.197266 L 50 46.964844 z "/></g></svg>
