<svg xmlns:dc="http://purl.org/dc/elements/1.1/" xmlns:cc="http://creativecommons.org/ns#" xmlns:rdf="http://www.w3.org/1999/02/22-rdf-syntax-ns#" xmlns:svg="http://www.w3.org/2000/svg" xmlns="http://www.w3.org/2000/svg" xmlns:sodipodi="http://sodipodi.sourceforge.net/DTD/sodipodi-0.dtd" xmlns:inkscape="http://www.inkscape.org/namespaces/inkscape" viewBox="0 0 12.7 12.7" version="1.1" x="0px" y="0px"><g transform="translate(0,-284.29998)"><path style="" d="m 8.3143448,292.69899 v 0" fill="#000000" stroke="none"/><path style="" d="m 12.036454,294.74367 a 1.101998,1.101998 0 0 1 -1.258715,0.89593 8.2473007,8.2473007 0 0 0 -3.8473565,0.30093 0.48331535,0.48331535 0 0 1 -0.6279698,-0.52592 2.2708673,2.2708673 0 0 1 0.5376775,-1.18053 1.5363268,1.5363268 0 0 0 1.3314001,-0.88723 1.508802,1.508802 0 0 0 2.8884007,-0.53584 l 0.167314,-3.5504 a 8.7587378,8.7587378 0 0 1 0.809249,5.48306 z" fill="#000000" stroke="none"/><path style="" d="m 8.043381,292.69899 a 1.2655922,1.2655922 0 0 1 -2.5306144,0 v -4.07386 a 0.13545754,0.13545754 0 0 0 -0.2708771,0 v 3.86432 a 1.258684,1.258684 0 0 1 -2.5173437,0 v -3.41916 a 0.1354819,0.1354819 0 0 0 -0.2709638,0 v 3.47867 a 0.96235833,0.96235833 0 0 1 -1.92441535,0 v -4.35238 a 1.3940009,1.3940009 0 0 1 1.90342515,-1.29126 0.21658777,0.21658777 0 0 0 0.2583003,-0.0798 1.9438368,1.9438368 0 0 1 2.5446657,-0.61026 0.21658777,0.21658777 0 0 0 0.2954234,-0.0869 1.509976,1.509976 0 0 1 2.6216874,-0.0624 0.21658777,0.21658777 0 0 0 0.2694892,0.088 1.9275456,1.9275456 0 0 1 2.5719012,1.16576 0.79265667,0.79265667 0 0 1 0.0399,0.28917 l -0.244943,5.18935 A 1.2380672,1.2380672 0 0 1 8.3143448,292.74 v -4.70557 a 0.59199233,0.59199233 0 0 1 0.1148387,-0.35367 0.13546124,0.13546124 0 0 0 -0.2184884,-0.16019 0.86272707,0.86272707 0 0 0 -0.1673141,0.51456 z" fill="#000000" stroke="none"/></g></svg>
