<svg xmlns="http://www.w3.org/2000/svg" xmlns:xlink="http://www.w3.org/1999/xlink" version="1.1" x="0px" y="0px" viewBox="0 0 30 30" xml:space="preserve"><g transform="translate(-150 -80)"><g xmlns="http://www.w3.org/2000/svg" xmlns:xlink="http://www.w3.org/1999/xlink"><path d="M174.192,85.808c-5.076-5.077-13.308-5.077-18.385,0c-5.076,5.077-5.076,13.308,0,18.385    c5.077,5.077,13.309,5.077,18.385,0C179.27,99.115,179.27,90.885,174.192,85.808z M157.929,102.071    c-3.905-3.905-3.904-10.237,0-14.143c3.905-3.905,10.237-3.905,14.143,0c3.905,3.905,3.905,10.237,0,14.143    C168.166,105.977,161.835,105.977,157.929,102.071z"/><path d="M169.243,90.758c-2.34-2.34-6.146-2.34-8.485,0c-2.34,2.339-2.34,6.146,0,8.484c2.339,2.34,6.145,2.34,8.485,0    C171.582,96.903,171.582,93.097,169.243,90.758z M165,99c-2.21,0-4-1.791-4-4c0-2.211,1.791-4,4-4c2.21,0,4,1.79,4,4    C169,97.209,167.21,99,165,99z"/><circle cx="165" cy="95" r="3"/><path d="M158.637,88.637c-1.515,1.514-2.372,3.434-2.582,5.409l7.991-7.991C162.07,86.264,160.15,87.122,158.637,88.637z"/><path d="M165.954,103.945c1.976-0.209,3.895-1.066,5.41-2.581c1.514-1.515,2.372-3.435,2.581-5.41L165.954,103.945z"/><path d="M158.004,94.926l-1.83,1.83c0.145,0.727,0.387,1.436,0.711,2.117l1.527-1.527    C158.134,96.564,157.995,95.746,158.004,94.926z"/><path d="M167.346,88.412l1.527-1.527c-0.682-0.324-1.391-0.566-2.118-0.711l-1.829,1.83    C165.746,87.995,166.564,88.134,167.346,88.412z"/><path d="M162.654,101.588l-1.526,1.527c0.681,0.324,1.39,0.566,2.117,0.711l1.83-1.83    C164.255,102.005,163.436,101.866,162.654,101.588z"/><path d="M171.997,95.074l1.829-1.829c-0.144-0.728-0.387-1.437-0.711-2.118l-1.526,1.527    C171.866,93.436,172.005,94.255,171.997,95.074z"/><path d="M170.601,90.813l1.429-1.429c-0.206-0.258-0.426-0.509-0.665-0.748c-0.239-0.239-0.49-0.459-0.749-0.666l-1.429,1.429    c0.265,0.198,0.523,0.41,0.764,0.651C170.19,90.291,170.402,90.549,170.601,90.813z"/><path d="M159.399,99.187l-1.429,1.429c0.207,0.258,0.427,0.51,0.666,0.749c0.239,0.239,0.49,0.458,0.748,0.665l1.429-1.429    c-0.264-0.198-0.522-0.41-0.763-0.651C159.81,99.709,159.598,99.451,159.399,99.187z"/></g></g></svg>
