<svg xmlns="http://www.w3.org/2000/svg" xmlns:xlink="http://www.w3.org/1999/xlink" version="1.1" x="0px" y="0px" viewBox="0 0 100 100" style="enable-background:new 0 0 100 100;" xml:space="preserve"><path d="M45.87,31.45L27.25,48.17c-0.59,0.53-0.92,1.27-0.92,2.05c0,0.78,0.34,1.52,0.93,2.04l18.52,16.51l-18.52,16.4  c-1.18,1.04-1.26,2.81-0.17,3.95c0.57,0.6,1.35,0.9,2.14,0.9c0.7,0,1.41-0.24,1.97-0.74l18.86-16.7l18.88,16.83  c0.56,0.5,1.27,0.74,1.97,0.74c0.78,0,1.56-0.3,2.13-0.89c1.09-1.13,1.02-2.9-0.16-3.95L54.34,68.78l18.97-16.8  c0.6-0.53,0.94-1.28,0.94-2.06c0-0.78-0.35-1.53-0.95-2.06L54.44,31.39l18.45-16.57c1.17-1.05,1.24-2.82,0.14-3.95  c-1.09-1.13-2.93-1.19-4.11-0.14l-18.8,16.89L30.6,10.57c-1.19-1.04-3.02-0.95-4.1,0.19c-1.08,1.14-0.99,2.91,0.2,3.95L45.87,31.45z   M50.18,35.22l16.86,14.73L50.07,64.97L33.5,50.2L50.18,35.22z"/></svg>
