<?xml version="1.0" encoding="UTF-8" standalone="no"?>
<svg
   xmlns:dc="http://purl.org/dc/elements/1.1/"
   xmlns:cc="http://creativecommons.org/ns#"
   xmlns:rdf="http://www.w3.org/1999/02/22-rdf-syntax-ns#"
   xmlns:svg="http://www.w3.org/2000/svg"
   xmlns="http://www.w3.org/2000/svg"
   xmlns:sodipodi="http://sodipodi.sourceforge.net/DTD/sodipodi-0.dtd"
   xmlns:inkscape="http://www.inkscape.org/namespaces/inkscape"
   viewBox="0 0 45.690071 45.690071"
   x="0px"
   y="0px"
   version="1.1"
   id="svg12"
   sodipodi:docname="sack.svg"
   inkscape:version="1.0.1 (c497b03c, 2020-09-10)">
  <metadata
     id="metadata18">
    <rdf:RDF>
      <cc:Work
         rdf:about="">
        <dc:format>image/svg+xml</dc:format>
        <dc:type
           rdf:resource="http://purl.org/dc/dcmitype/StillImage" />
      </cc:Work>
    </rdf:RDF>
  </metadata>
  <defs
     id="defs16" />
  <sodipodi:namedview
     pagecolor="#ffffff"
     bordercolor="#666666"
     borderopacity="1"
     objecttolerance="10"
     gridtolerance="10"
     guidetolerance="10"
     inkscape:pageopacity="0"
     inkscape:pageshadow="2"
     inkscape:window-width="1456"
     inkscape:window-height="936"
     id="namedview14"
     showgrid="false"
     inkscape:zoom="9.7176471"
     inkscape:cx="22.588378"
     inkscape:cy="36.22276"
     inkscape:window-x="1719"
     inkscape:window-y="56"
     inkscape:window-maximized="0"
     inkscape:current-layer="svg12" />
  <path
     fill="#000000"
     fill-rule="evenodd"
     d="m 27.576567,12.966339 v 3.623048 c 2.789502,1.607134 4.749783,4.684288 6.076119,8.789173 0.670662,2.075634 1.135039,4.287689 1.432269,6.49797 0.103886,0.772521 0.179596,1.490469 0.23163,2.136202 0.01832,0.227362 0.03239,0.429938 0.04275,0.605514 0.0047,0.0803 0.008,0.143076 0.01011,0.187414 0.400772,3.764218 -2.564425,6.850515 -6.587667,6.850515 H 14.331129 c -4.040357,0 -7.0457367,-3.111608 -6.5862013,-6.866567 0.00209,-0.04365 0.00524,-0.103277 0.00966,-0.178129 0.010352,-0.175521 0.024405,-0.378033 0.042713,-0.605321 0.051997,-0.645524 0.1276716,-1.363236 0.231524,-2.135503 0.2971343,-2.209557 0.761458,-4.420887 1.4321297,-6.495848 1.3261036,-4.102772 3.2861816,-7.178584 6.0753806,-8.785433 V 12.966339 L 12.035083,5.8160233 c -0.24847,-0.5074316 -0.06801,-1.1098352 0.425333,-1.419841 0.273365,-0.1717756 0.73294,-0.4011049 1.359947,-0.6227273 2.435482,-0.8608473 5.276787,-0.8608473 8.274543,0.5519383 2.353459,1.1091402 4.50662,1.1091402 6.35211,0.456832 0.443236,-0.1566666 0.74175,-0.3056258 0.869726,-0.386043 1.010812,-0.6351689 2.270167,0.3801666 1.761076,1.419841 z M 11.764471,26.036278 c -0.626761,1.939105 -1.065493,4.028559 -1.346715,6.119788 -0.09857,0.733007 -0.170276,1.413051 -0.219321,2.021922 -0.01706,0.211751 -0.03005,0.398997 -0.03951,0.559475 -0.0055,0.09398 -0.0086,0.156723 -0.0098,0.185956 l -0.0081,0.09505 c -0.3131976,2.411094 1.566329,4.367973 4.190079,4.367973 h 14.450644 c 2.607528,0 4.46287,-1.939865 4.188877,-4.379542 l -0.0058,-0.07654 c -0.0012,-0.02925 -0.0043,-0.09202 -0.0098,-0.186041 -0.0095,-0.160541 -0.02248,-0.347861 -0.03955,-0.559693 -0.04908,-0.609103 -0.120823,-1.289404 -0.219432,-2.022688 -0.281326,-2.09202 -0.720132,-4.182266 -1.346919,-6.122113 -1.21348,-3.755604 -2.971279,-6.442432 -5.274097,-7.648413 h -9.037163 c -2.302684,1.20585 -4.060203,3.891353 -5.273418,7.644866 z m 6.17991,-12.184331 v 2.269733 h 7.22414 v -2.269733 z m -0.43365,-2.269733 h 8.09144 L 27.681715,7.3353337 C 25.63829,7.7040592 23.376566,7.4670531 21.017995,6.3555037 18.68694,5.2569218 16.552386,5.246464 14.718671,5.8802216 Z"
     id="path10"
     style="stroke-width:0.584467" />
</svg>
