<svg xmlns="http://www.w3.org/2000/svg" viewBox="0 0 46 85" x="0px" y="0px"><path fill="#000000" fill-rule="evenodd" d="M580,433.439274 L580,439.824251 C584.633635,442.656538 587.889853,448.079474 590.093026,455.313602 C591.207061,458.971537 591.978436,462.86989 592.472164,466.765117 C592.644728,468.126548 592.770491,469.391803 592.856924,470.529794 C592.887356,470.930478 592.910719,471.287483 592.927933,471.596904 C592.935805,471.738414 592.941275,471.84905 592.944721,471.927188 C593.610443,478.560951 588.684962,484 582.001964,484 L557.998036,484 C551.28661,484 546.294381,478.516345 547.057714,471.898898 C547.061179,471.821971 547.066425,471.716892 547.073758,471.584978 C547.090954,471.275654 547.114297,470.918762 547.144709,470.518207 C547.231081,469.380586 547.356784,468.115747 547.529293,466.754763 C548.022862,462.860814 548.794149,458.963738 549.9082,455.306988 C552.110987,448.076583 555.366869,442.656012 560,439.824228 L560,433.439274 L554.184081,420.838116 C553.771347,419.943858 554.071105,418.882229 554.8906,418.335899 C555.344686,418.033175 556.108085,417.629023 557.149605,417.238453 C561.195177,415.721363 565.914862,415.721363 570.894427,418.211146 C574.803751,420.165808 578.380362,420.165808 581.445901,419.016231 C582.182159,418.740134 582.678019,418.47762 582.8906,418.335899 C584.569658,417.216527 586.661569,419.005875 585.815919,420.838116 L580,433.439274 Z M553.734567,456.472714 C552.693457,459.89004 551.96468,463.572331 551.497542,467.25775 C551.333804,468.549545 551.214697,469.748 551.133229,470.821028 C551.104897,471.1942 551.083314,471.524188 551.067591,471.807002 C551.058384,471.972633 551.053252,472.083199 551.051305,472.134717 L551.037908,472.302229 C550.517655,476.55135 553.639732,480 557.998036,480 L582.001964,480 C586.333323,480 589.415226,476.581333 588.960097,472.281838 L588.950416,472.14695 C588.948465,472.095404 588.943326,471.984788 588.934108,471.819087 C588.918369,471.536161 588.896765,471.206044 588.868411,470.832728 C588.786882,469.759291 588.667713,468.560383 588.503914,467.2681 C588.036603,463.581288 587.307704,459.897601 586.266549,456.478966 C584.250841,449.860382 581.330966,445.125327 577.50576,443 L562.494229,443 C558.669246,445.125095 555.749836,449.857815 553.734567,456.472714 Z M564,435 L564,439 L576,439 L576,435 L564,435 Z M563.279665,431 L576.720335,431 L580.17466,423.51563 C576.780332,424.165443 573.023388,423.747762 569.105573,421.788854 C565.233462,419.852799 561.687761,419.834369 558.641782,420.951254 L563.279665,431 Z" transform="translate(-547 -416)"/></svg>
