<svg xmlns="http://www.w3.org/2000/svg" xmlns:xlink="http://www.w3.org/1999/xlink" version="1.1" x="0px" y="0px" viewBox="-250.2 655.9 100 100" style="enable-background:new -250.2 655.9 100 100;" xml:space="preserve"><style type="text/css">
	.st0{fill:none;stroke:#020200;stroke-width:6.1973;stroke-linecap:round;stroke-linejoin:round;}
	.st1{fill:none;stroke:#020200;stroke-width:6.4261;stroke-linecap:round;}
	.st2{fill:none;stroke:#020200;stroke-width:6.4261;stroke-linecap:round;stroke-linejoin:round;}
	.st3{fill:none;stroke:#020200;stroke-width:6;stroke-linecap:round;stroke-linejoin:round;}
	.st4{fill:none;stroke:#020200;stroke-width:6;stroke-linecap:round;}
	.st5{fill:#020200;}
</style><g><path d="M-172.4,734.3c-2-1.5-4.6-2-6.9-1.3c-2.1,0.6-3.8,1.9-4.8,3.8c-1,1.9-1.3,4-0.7,6.1c0.4,1.5,2,2.4,3.5,1.9   c1.5-0.4,2.4-2,1.9-3.5c-0.2-0.6-0.1-1.2,0.2-1.8c0.3-0.6,0.8-1,1.4-1.1c0.5-0.1,1.3-0.1,2,0.4c1,0.8,1.2,2.2,1.2,3.3   c0,4.1-3.5,7.6-7.6,7.6c-4.2,0-7.6-3.4-7.6-7.6c0-8.5,6.7-15.4,17.7-26.8l2.1-2.2c11.7-12.1,19.4-20,19.4-30.5   c0-6-4.1-11.1-9.6-12.7c0,0-0.1,0-0.1,0c-34.7-9.5-43.9-12.1-46.5-12.7c-0.1-0.1-0.3-0.1-0.5-0.2c-1-0.2-2.2-0.4-3.3-0.4   c-7.2,0-13.2,6-13.2,13.2c0,5,2.6,7.7,5.3,8.8c0.2,0.1,0.4,0.2,0.6,0.2c0,0,0.1,0,0.1,0c0,0,0,0,0.1,0c0,0,0,0,0,0   c3.5,1,46.1,12.7,46.6,12.8c0.1,0,0.2,0,0.2,0c1.4,0.4,2.8,0.4,4.2,0c2.1-0.6,3.8-1.9,4.8-3.8c1-1.9,1.3-4,0.7-6.1   c-0.4-1.5-2-2.4-3.5-1.9c-1.5,0.4-2.4,2-1.9,3.5c0.2,0.6,0.1,1.3-0.2,1.8c-0.3,0.6-0.8,1-1.4,1.1c-0.5,0.1-1.3,0.1-2-0.4   c-1-0.8-1.2-2.2-1.2-3.3c0-4.1,3.5-7.6,7.6-7.6c4.2,0,7.6,3.4,7.6,7.6c0,8.2-7.1,15.5-17.8,26.6l-2.1,2.2   c-11.6,12-19.3,19.9-19.3,30.7c0,1.6,0.3,3.1,0.8,4.5c-26.1-7.2-33.8-9.3-36.1-9.9c-0.1-0.1-0.3-0.1-0.4-0.2   c-3.3-0.9-5.5-3.9-5.5-7.3c0-8.5,6.7-15.4,17.7-26.8l2.1-2.1c4-4.1,7.4-7.6,10.2-10.9c1-1.2,0.9-3-0.3-4c-1.2-1-3-0.9-4,0.3   c-2.8,3.2-6.1,6.7-10,10.7l-2.1,2.1c-11.6,12-19.3,19.9-19.3,30.7c0,5.9,4,11.1,9.6,12.7c0,0,0.1,0,0.1,0   c1.8,0.5,46.3,12.7,46.8,12.8c0.1,0,0.1,0,0.2,0c1.1,0.3,2.2,0.4,3.4,0.4c7.2,0,13.2-6,13.2-13.2   C-168.9,738.8-170.2,736-172.4,734.3z M-210.4,662.2c0.6,0,1.4,0.1,1.9,0.2c0,0,0,0,0,0c1.3,0.4,23.1,6.3,36.4,10   c-2.9,2.4-4.9,6.1-4.9,10.2c0,0.6,0,1.1,0.1,1.7c-28.1-7.7-36.4-10-39-10.7c-0.1,0-0.2-0.1-0.2-0.1c-1.3-0.4-2-1.7-2-3.7   C-218,665.7-214.5,662.2-210.4,662.2z M-175.6,700.7c-0.3,0-0.7-0.1-1-0.2c-2.5-0.9-22.3-6.3-24.9-6.9c-1.7-0.4-2.7-2.1-2.3-3.7   c0.4-1.7,2.1-2.7,3.7-2.3c2.6,0.6,22.5,6.1,25.4,7.1c1.6,0.5,2.5,2.3,1.9,3.9C-173.1,699.9-174.3,700.7-175.6,700.7z M-189,705.9   c-0.3,0-0.7-0.1-1-0.2c-1.8-0.6-16.2-4.6-18.1-5c-1.7-0.4-2.7-2.1-2.3-3.7c0.4-1.7,2.1-2.7,3.7-2.3c1.9,0.5,16.5,4.4,18.6,5.2   c1.6,0.5,2.5,2.3,1.9,3.9C-186.5,705.1-187.7,705.9-189,705.9z M-202.4,720c-0.3,0-0.7-0.1-1-0.2c-1.9-0.6-16.2-4.6-18.1-5   c-1.7-0.4-2.7-2.1-2.3-3.7c0.4-1.7,2.1-2.7,3.7-2.3c1.9,0.5,16.4,4.4,18.6,5.2c1.6,0.5,2.5,2.3,1.9,3.9   C-199.9,719.1-201.1,720-202.4,720z M-188.9,714.8c-0.3,0-0.7-0.1-1-0.2c-2.6-0.9-22.3-6.3-24.9-6.9c-1.7-0.4-2.7-2.1-2.3-3.7   c0.4-1.7,2.1-2.7,3.7-2.3c2.5,0.6,22.4,6,25.4,7.1c1.6,0.5,2.5,2.3,1.9,3.9C-186.4,714-187.6,714.8-188.9,714.8z"/></g></svg>
