<svg xmlns="http://www.w3.org/2000/svg" xmlns:xlink="http://www.w3.org/1999/xlink" version="1.1" x="0px" y="0px" viewBox="0 0 100 100" enable-background="new 0 0 100 100" xml:space="preserve"><g><g><path fill="#000000" d="M50,5c-1.267,0-2.533,0.4-3.6,1.2C35.768,14.174,28.075,17,17,17c-3.314,0-6,2.686-6,6v27    c0,13.34,6.537,25.348,18.903,34.727c8.942,6.782,17.862,9.832,18.238,9.959C48.762,94.895,49.41,95,50.057,95    c0.649,0,1.299-0.105,1.922-0.316c0.374-0.127,9.268-3.178,18.183-9.963C82.486,75.342,89,63.336,89,50V23c0-3.314-2.686-6-6-6    c-11.075,0-18.768-2.826-29.4-10.8C52.533,5.4,51.267,5,50,5L50,5z"/></g></g></svg>
