<svg xmlns="http://www.w3.org/2000/svg" xmlns:xlink="http://www.w3.org/1999/xlink" viewBox="0 0 30 30" version="1.1" x="0px" y="0px"><g stroke="none" stroke-width="1" fill="none" fill-rule="evenodd" transform="translate(3,3)"><g fill="#000000"><path d="M8.42,3.9996 L10.301,3.9996 C11.233,6.5976 11.233,9.4036 10.301,11.9996 L8.42,11.9996 C9.211,9.3846 9.211,6.6156 8.42,3.9996 M14.315,11.9996 L12.415,11.9996 C13.206,9.3846 13.206,6.6156 12.415,3.9996 L14.315,3.9996 C15.245,6.5956 15.245,9.4046 14.315,11.9996 M22.397,10.9996 L21.731,10.9996 C20.921,10.9916 20.088,10.9966 19.491,11.5906 C19.142,11.9396 18.965,12.4136 18.965,12.9996 C18.965,14.3506 17.851,15.9996 16.551,15.9996 L12,16.0056 L12,13.9996 L15,13.9996 C15.408,13.9996 15.775,13.7516 15.928,13.3726 L16.017,13.1526 C17.346,9.8296 17.346,6.1696 16.017,2.8466 L16.016,2.8456 L15.928,2.6266 C15.775,2.2476 15.408,1.9996 15,1.9996 L12,1.9996 L12,0.9996 C12,0.4476 11.553,-0.0004 11,-0.0004 C10.447,-0.0004 10,0.4476 10,0.9996 L10,1.9996 L7,1.9996 C6.668,1.9996 6.357,2.1646 6.172,2.4396 C5.985,2.7146 5.948,3.0636 6.072,3.3726 L6.159,3.5896 C7.297,6.4336 7.297,9.5656 6.16,12.4076 L6.072,12.6266 C5.948,12.9356 5.985,13.2846 6.172,13.5596 C6.357,13.8346 6.668,13.9996 7,13.9996 L10,13.9996 L10,16.0076 L4.325,16.0156 C4.263,15.9856 4.087,15.8146 3.941,15.5366 C3.714,15.1006 3.395,14.5186 3.395,14.5186 C3.219,14.1986 2.883,13.9996 2.518,13.9996 L1,13.9996 C0.447,13.9996 0,14.4476 0,14.9996 L0,20.3436 C0,22.3596 1.64,23.9996 3.655,23.9996 L18.068,23.9996 C20.741,23.9996 23,21.8046 23,19.2066 L23,16.3236 C23.585,16.0946 24,15.5256 24,14.8616 L24,12.6026 C24,11.7186 23.28,10.9996 22.397,10.9996"/></g></g></svg>
