<svg xmlns:dc="http://purl.org/dc/elements/1.1/" xmlns:cc="http://creativecommons.org/ns#" xmlns:rdf="http://www.w3.org/1999/02/22-rdf-syntax-ns#" xmlns:svg="http://www.w3.org/2000/svg" xmlns="http://www.w3.org/2000/svg" xmlns:sodipodi="http://sodipodi.sourceforge.net/DTD/sodipodi-0.dtd" xmlns:inkscape="http://www.inkscape.org/namespaces/inkscape" version="1.1" x="0px" y="0px" viewBox="0 0 36 36"><g transform="translate(0,-1016.3622)"><g transform="matrix(1.2793753,0,0,1.2793753,284.74045,-123.90756)"><path style="text-indent:0;text-transform:none;direction:ltr;block-progression:tb;baseline-shift:baseline;color:#000000;enable-background:accumulate;" d="m -144.53125,236.6875 c -0.11155,0.0277 -0.21279,0.0952 -0.28125,0.1875 -0.0109,0.01 -0.0213,0.0204 -0.0312,0.0312 -0.0243,0.0288 -0.0453,0.0603 -0.0625,0.0937 l -4.90625,5.875 c -0.14962,0.16854 -0.16332,0.44237 -0.0312,0.625 l 3,4 c 0.19401,0.25003 0.63826,0.23294 0.8125,-0.0312 l 1.09375,-1.625 0,15.34375 c 3e-5,0.26179 0.23821,0.49997 0.5,0.5 l 14,0 c 0.26179,-3e-5 0.49997,-0.23821 0.5,-0.5 l 0,-15.34375 1.09375,1.625 c 0.17424,0.26419 0.61849,0.28128 0.8125,0.0312 l 3,-4 c 0.13207,-0.18263 0.11837,-0.45646 -0.0312,-0.625 l -5,-6 c -0.0901,-0.11263 -0.23086,-0.18302 -0.375,-0.1875 l -3.46875,0 c -0.0897,0.008 -0.17715,0.0407 -0.25,0.0937 -0.0104,-3.3e-4 -0.0208,-3.3e-4 -0.0312,0 -0.0352,0.0269 -0.0668,0.0585 -0.0937,0.0937 -0.0226,0.0189 -0.0436,0.0399 -0.0625,0.0625 -0.0109,0.01 -0.0213,0.0204 -0.0312,0.0312 -3.3e-4,0.0104 -3.3e-4,0.0208 0,0.0312 -0.0135,0.0301 -0.024,0.0616 -0.0312,0.0937 -0.0187,0.05 -0.0293,0.10295 -0.0312,0.15625 0,1.6628 -1.3372,3 -3,3 -1.6628,0 -3,-1.3372 -3,-3 -0.008,-0.0897 -0.0407,-0.17715 -0.0937,-0.25 -0.009,-0.0215 -0.0194,-0.0424 -0.0312,-0.0625 -0.0269,-0.0352 -0.0585,-0.0668 -0.0937,-0.0937 -0.0886,-0.0938 -0.21479,-0.15116 -0.34375,-0.15625 l -3.4375,0 c -0.0312,-0.003 -0.0626,-0.003 -0.0937,0 z" transform="translate(-71.055314,656.1539)" fill="#000000" fill-opacity="1" stroke="none" marker="none" visibility="visible" display="inline" overflow="visible"/></g></g></svg>
