<svg xmlns="http://www.w3.org/2000/svg" xmlns:xlink="http://www.w3.org/1999/xlink" version="1.1" x="0px" y="0px" viewBox="0 0 235 235" style="enable-background:new 0 0 235 235;" xml:space="preserve"><g transform="translate(230,35) scale(-1,1)"><ellipse transform="matrix(0.2485 -0.9686 0.9686 0.2485 27.8501 293.7764)" cx="203.256" cy="128.94" rx="22.495" ry="22.495"/><path d="M147.973,116.109c-14.063,3.376-34.808-2.891-46.72-3.231c-2.788-0.08-5.928,0.004-9.026,0.456   c-0.702-0.009-1.474-0.015-2.346-0.015c-12.213,0.002-40.872,1.021-79.877,8.978c-6.766,1.38-11.129,7.981-9.749,14.747   c1.208,5.92,6.418,10.003,12.235,10.004c0.829,0,1.669-0.083,2.513-0.255c28.509-5.817,51.057-7.698,64.873-8.256   c3.877,5.553,10.411,10.41,18.444,12.294c5.662,1.375,11.341,2.329,16.999,2.903c22.929-6.793,33.455-19.13,34.841-20.779   c0.071-0.086,0.116-0.146,0.135-0.169l0.001,0.001c2.649-3.517,7.644-4.232,11.175-1.595c3.539,2.644,4.268,7.655,1.623,11.195   c-0.065,0.087-0.238,0.313-0.523,0.669c-1.096,1.368-3.964,4.627-8.766,8.539c2.21-0.483,4.404-1.015,6.571-1.618   c14.181-4.03,19.035-16.243,13.425-24.394C168.142,117.302,157.592,113.879,147.973,116.109z"/><path d="M161.005,141.812c0.263-0.33,0.424-0.539,0.485-0.623c1.931-2.583,1.485-6.201-1.015-8.237   c-0.066-0.054-0.133-0.105-0.203-0.158c-2.639-1.972-6.397-1.435-8.433,1.263l-0.149,0.188   c-2.183,2.595-11.895,13.086-31.211,19.904c-6.391,2.256-13.83,4.111-22.398,5.144c-3.284,0.393-5.638,3.386-5.242,6.672   c0.184,1.55,0.954,2.947,2.169,3.937c1.274,1.037,2.874,1.502,4.503,1.307c23.747-2.835,40.002-11.491,49.842-18.721   C156.407,147.303,160.171,142.852,161.005,141.812z"/><path d="M192.705,75.131c2.333,2.326,2.067,6.08,1.57,9.045c-0.304,1.808-1.015,3.526-1.82,5.159   c-0.453,0.861-0.994,1.664-1.624,2.41c-3.587,4.473-9.354-2.701-5.354-2.996c1.023-0.075,1.545-1.344,0.217-1.246   c-6.061,0.447-2.88,8.677,2.488,7.299c6.785-1.74,9.31-11.328,8.003-17.362c-0.668-3.086-3.112-5.046-6.066-6.159   c5.883-4.96,8.608-13.106,6.671-20.646c-1.393-5.425-5.977-8.771-11.244-10.35c3.751-8.275,5.472-17.307,3.145-25.11   c-2.466-8.271-11.661-11.207-19.45-11.242c-3.302-0.015-6.595,0.508-9.811,1.422c-0.283-1.666-0.759-3.332-1.462-4.985   c-0.328-0.772-2.237-0.2-1.932,0.518c0.684,1.606,1.113,3.329,1.33,5.113c-6.201,2.101-12.053,5.581-17.037,9.409   c-6.24,4.793-12.835,10.786-16.329,17.931c-3.641,7.446,4.298,8.724,9.697,7.051c13.56-4.202,27.55-18.787,25.915-33.746   c10.641-2.998,24.595-1.537,27.604,10.732c1.788,7.295-0.597,15.418-3.767,22.384c-3.494-0.725-7.138-0.729-10.254-0.092   c-8.554,1.751-15.067,6.826-19.547,14.165c-2.09,3.425-5.756,10.947-0.116,12.928c5.703,2.004,13.179-2.921,17.23-6.374   c5.336-4.549,10.592-11.355,14.217-18.883c4.401,1.426,8.069,4.495,9.879,9.647c2.121,6.04-0.47,14.329-5.041,18.571   c-0.203,0.188-0.645,0.565-1.247,1.055c-2.924-0.782-6.115-0.843-8.521-0.387c-2.663,0.505-10.777,7.351-5.389,9.071   c4.124,1.316,10.513-3.986,14.077-7.009C190.216,73.106,191.581,74.01,192.705,75.131z M143.646,34.137   c-4.433,2.558-9.54,5.924-14.832,5.94c-8.711,0.027,0.005-11.486,1.956-13.763c6.921-8.076,15.788-14.734,25.69-18.615   c0.337-0.132,0.681-0.26,1.028-0.383C158.107,17.494,151.983,29.327,143.646,34.137z M181.139,44.437   c-4.202,7.918-10.824,17.102-19.629,20.227c-4.196,1.489-9.75,1.994-8.871-3.877c0.605-4.039,3.343-8.002,5.828-11.122   c5.28-6.627,15.834-10.43,24.422-8.707C182.317,42.159,181.729,43.326,181.139,44.437z M175.137,77.618   c-1.766-4.489,5.804-6.398,8.595-6.319c1.161,0.033,2.326,0.238,3.451,0.581C183.159,75.004,176.059,79.962,175.137,77.618z"/></g></svg>
