<svg xmlns="http://www.w3.org/2000/svg" data-name="Layer 1" viewBox="0 0 100 100" x="0px" y="0px"><title>update 5 mei</title><path d="M87.1,63.06H14.62A1.5,1.5,0,0,1,13.19,62L13,61.44a44.67,44.67,0,0,1,.18-27.14,1.5,1.5,0,0,1,2-.92c.13.05,10.79,4.24,27.34-2.33a1.49,1.49,0,0,1,1.25.06c.23.12,23.1,12,34.65,12.64C82.4,44,85.17,45,86.9,47c2.54,2.9,2.21,7,1.9,10.91-.1,1.28-.2,2.49-.2,3.65A1.5,1.5,0,0,1,87.1,63.06Zm-71.36-3h69.9c0-.8.1-1.6.17-2.39.28-3.47.54-6.74-1.17-8.7-1.17-1.34-3.25-2.07-6.36-2.24C67,46.11,46.85,36,43,34.07c-13.88,5.34-23.73,3.61-27.39,2.58A41.64,41.64,0,0,0,15.73,60.06Z"/><path d="M82.83,69.07H18.75a5.63,5.63,0,0,1-5.62-5.63V61.56a1.5,1.5,0,0,1,1.5-1.5H87a1.5,1.5,0,0,1,1.5,1.5v1.88A5.63,5.63,0,0,1,82.83,69.07Zm-66.71-6v.38a2.63,2.63,0,0,0,2.63,2.63H82.83a2.63,2.63,0,0,0,2.63-2.63v-.38Z"/></svg>
