<svg xmlns="http://www.w3.org/2000/svg" xmlns:xlink="http://www.w3.org/1999/xlink" version="1.1" x="0px" y="0px" viewBox="0 0 100 100" style="enable-background:new 0 0 100 100;" xml:space="preserve"><g><ellipse transform="matrix(0.4544087 -0.8907933 0.8907933 0.4544087 18.6509876 79.6520004)" cx="74.3498688" cy="24.6001587" rx="7.6996741" ry="7.6997075"/><path d="M96.0092926,76.8625946c-0.7735062-1.0044785-2.2112808-1.1915894-3.213974-0.4189835   c-4.2417221,3.2632065-9.5523758,1.6866608-9.5935593,1.6750259l-30.6810417-9.7537079l6.5610504-11.9464035   c0.7690277-1.3992882,0.4413605-3.1477203-0.7806625-4.1745796l-7.4906082-6.2925873l2.6783829-1.5906487   c0.0189667,0.1637764,0.0477829,0.3273849,0.0915413,0.489315c0.3124428,1.1530914,1.2157555,2.0519257,2.3697433,2.3598938   l13.2014465,3.5156708c0.288269,0.076992,0.578331,0.1136971,0.8630219,0.1136971   c1.4798584,0,2.8334885-0.9892578,3.2327728-2.4870186c0.4753799-1.7860374-0.5872879-3.6195221-2.3733215-4.0957985   l-7.6132584-2.0277557l2.5353622-2.5541649c3.2963333-3.1253395,4.1495132-6.729641,2.1718903-9.1942787   c-0.0644531-0.078783-0.1315994-0.1548805-0.2014313-0.2282906l-1.4234543-1.4753819   c-0.1020584-0.1056404-0.2103882-0.2041187-0.3249817-0.2945404c-2.6326103-2.0962982-5.8146858-1.6614265-8.0893631-0.728569   c-1.3895493,0.3941364-4.8654366,1.9593239-8.6473923,4.0833187l-1.0799026,0.5020142L33.153698,22.1097374   c0.7494965-1.2366848,1.0336304-2.3239174,0.6178932-2.6482792c-0.4300003-0.3354969-1.4695625,0.2552032-2.5233898,1.3530121   l-1.3048916-0.8870316c-0.5224934-0.4119301-1.2803841-0.3236351-1.692873,0.1982994   c-0.4124336,0.5218792-0.3235798,1.279768,0.1982994,1.6928177l1.2840214,0.9823761   c-0.7050705,1.1956692-0.9602737,2.2334385-0.555563,2.5491848c0.4067268,0.3173676,1.3587742-0.1899624,2.3523979-1.1743526   l13.4307423,10.275919c-2.5340767,1.658741-4.8978348,3.4640236-6.5382767,5.2283516   c-1.194664,0.9977036-1.954792,2.4983788-1.954792,4.1766472c0,1.9601631,1.0404549,3.6729546,2.5956802,4.6301537   l9.5828209,7.125061L36.8453979,62.641449c-0.2500572,0.1490021-0.4634056,0.3329773-0.6590195,0.5307198L6.5024848,53.7354431   c-1.2077003-0.3849602-2.4950786,0.2837944-2.8791435,1.4897041c-0.3831697,1.2068062,0.2837961,2.495079,1.4897063,2.8791428   l76.6992722,24.3831978c0.1512985,0.0474472,1.9883652,0.6132507,4.5514832,0.6132507   c2.6535416,0,6.0859528-0.606987,9.2265091-3.0241776C96.593895,79.3039551,96.7809982,77.8652802,96.0092926,76.8625946z    M46.3494377,65.6951675c-0.1111794,0.2024384-0.1991959,0.4113693-0.2649956,0.6236572l-1.5208168-0.4834976l2.5397301-1.5129242   L46.3494377,65.6951675z"/></g></svg>
