<svg xmlns="http://www.w3.org/2000/svg" xmlns:xlink="http://www.w3.org/1999/xlink" xml:space="preserve" version="1.1" style="shape-rendering:geometricPrecision;text-rendering:geometricPrecision;image-rendering:optimizeQuality;" viewBox="0 0 100 100" x="0px" y="0px" fill-rule="evenodd" clip-rule="evenodd"><g><path class="fil0" d="M33.44 41.03l1.32 -1.32 -6.64 -3.54c-0.25,-0.11 -0.47,-0.29 -0.64,-0.53l-12.27 -18.35c-0.93,-1.34 0.7,-3.01 2.07,-2.09l18.36 12.28c0.19,0.13 0.36,0.31 0.48,0.53l3.62 6.72 1.29 -1.29c0.59,-0.59 1.54,-0.59 2.12,0l4.21 4.2c0.58,0.59 0.58,1.54 0,2.12l-1.34 1.34 38.61 38.6c0.58,0.58 0.58,1.54 0,2.12l-2.81 2.81c-0.59,0.58 -1.54,0.58 -2.12,0l-38.61 -38.61 -1.33 1.34c-0.58,0.58 -1.53,0.58 -2.12,0l-4.2 -4.21c-0.59,-0.58 -0.59,-1.53 0,-2.12zm3.52 -3.52l0.57 -0.57 -3.87 -7.18 -11.77 -7.87 7.88 11.77 7.19 3.85zm6.94 5.71l-0.68 0.68 37.54 37.55 0.68 -0.69 -37.54 -37.54zm-1.81 -6.6c-1.82,1.82 -3.65,3.65 -5.47,5.47l2.08 2.08c1.83,-1.82 3.65,-3.64 5.47,-5.47l-2.08 -2.08z"/></g></svg>
