<svg xmlns="http://www.w3.org/2000/svg" xmlns:xlink="http://www.w3.org/1999/xlink" version="1.1" x="0px" y="0px" viewBox="0 0 50 50" style="enable-background:new 0 0 50 50;" xml:space="preserve"><path d="M29.8427734,18.4453125l-1.2679443,0.3945313c-0.3290405-0.5061035-1.038208-0.5894775-1.7787476-0.6182861  c0.0685425-0.1682129,0.1271973-0.3178711,0.1599731-0.4329834c0.1962891-0.7026367,0.2597656-1.5595703,0.3154297-2.315918  c0.0224609-0.3110352,0.0439453-0.6098633,0.0742188-0.8798828c0.2226563-2.0126953-0.0976563-2.9291992-1.2705078-3.6328125  c-0.5996094-0.3603516-1.1845703-0.4082031-1.6542969-0.4462891c-0.2832031-0.0234375-0.5283203-0.043457-0.7050781-0.1240234  c-0.6484375-0.2958984-2.4570313-2.2006836-2.5341797-3.1000977c-0.046875-0.5429688,1.0791016-1.9067383,1.8212891-2.3530273  c0.4462891-0.2680664,1.5810547-0.4692383,1.8027344-0.3300781c0.3193359,0.3139648,0.9716797,1.1191406,0.4765625,2.065918  c-0.2255859-0.0698242-0.6582031-0.2734375-1.1298828-0.5883789c-0.2021484-0.1347656-0.4365234-0.1801758-0.6689453-0.128418  c-0.5097656,0.1074219-0.8701172,0.6396484-0.9365234,0.7451172c-0.0830078,0.1303711-0.1005859,0.2915039-0.0488281,0.4365234  c0.0175781,0.0488281,0.4423828,1.2016602,1.7353516,1.8510742c1.2626953,0.6328125,2.5683594,0.0810547,3.2509766-0.6982422  c0.6132813-0.6987305,0.7802734-1.6801758,0.5410156-3.1816406c-0.2705078-1.6875-0.8046875-2.3369141-1.7578125-3.0078125  c-1.2304688-0.8657227-4.4472656-0.8725586-5.5478516-0.0097656c-1.2783203,1-2.8398438,3.215332-3.3496094,5.515625  c-0.3193359,1.4438477,0.6669922,3.8808594,1.0957031,4.5634766c1.1308594,1.7998047,2.4482422,1.890625,3.4101563,1.9570313  c0.625,0.043457,0.875,0.0825195,1.0244141,0.328125c0.328125,0.5375977,0.1669922,1.3378906-0.0195313,2.2641602  c-0.1201172,0.5947266-0.2568359,1.269043-0.2832031,1.9804688c-0.0283203,0.7919922,0.1347656,1.3173828,0.2929688,1.8256836  c0.1767578,0.5717773,0.3447266,1.1118164,0.2451172,2.1152344l-0.0439453,0.3955078  c-0.1025391,0.918457-0.2939453,2.628418-0.2353516,3.8364258c0.0439453,0.9272461,0.28125,2.1040039,0.5097656,3.2421875  c0.1933594,0.9633789,0.3759766,1.8730469,0.4453125,2.6118164c0.171875,1.8286133,0.0390625,3.6606445-0.0585938,4.9985352  c-0.03125,0.4296875-0.0595703,0.8178711-0.0742188,1.1523438c-0.109375,2.3974609,0.1591797,8.8203125,0.1699219,9.0922852  c0.0087891,0.2001953,0.1357422,0.3759766,0.3232422,0.4467773c0.2099609,0.0791016,0.4677734,0.1313477,0.7373047,0.1313477  c0.5908203,0,1.2353516-0.2504883,1.5429688-1.012207c0.4169922-1.0244141,0.7441406-4.4760742,0.7822266-4.9291992  L27.0625,37.6630859c0.0058594-0.1586914,0.1621094-3.9042969-0.0039063-5.2001953  c-0.0654297-0.5087891-0.2246094-1.1801758-0.3916016-1.8911133c-0.2714844-1.1474609-0.578125-2.4477539-0.5214844-3.1992188  c0.0234375-0.3251953,0.1259766-0.6899414,0.2431641-1.1118164c0.1982422-0.7084961,0.4443359-1.590332,0.4443359-2.7426758  c0-0.4663086-0.0986328-1.0083008-0.2041016-1.581543c-0.1259766-0.6904297-0.2685547-1.4726563-0.2539063-2.2255859  c0.0065918-0.3279419,0.1109009-0.6773682,0.2271118-0.9933472c0.7955322,0.026062,1.3158569,0.0977783,1.527832,0.4082642  l-1.3858032,1.2520752l0.7539063,3.5488281l1.4785156,1.4277344l1.4375-1.7348633v-2.0396118l0.0283203,0.015686  l1.3710938-0.1210938l0.0498047-1.934082L29.8427734,18.4453125z M23.6837769,17.9005737  c0.4558716,0.4957886,1.1057129,0.6816406,1.7749634,0.7545776c-0.3659058,0.076355-0.9492798,0.0966187-1.8479004-0.0467529  C23.6245117,18.3690796,23.6489258,18.1328735,23.6837769,17.9005737z M21.9453125,13.1293945  c-0.8710938-0.0600586-1.7724609-0.1220703-2.6328125-1.4916992c-0.3974609-0.6323242-1.1943359-2.784668-0.9658203-3.8149414  c0.4541016-2.0478516,1.8789063-4.0756836,2.9892578-4.9443359c0.6816406-0.5336914,3.4472656-0.6000977,4.3554688,0.0395508  c0.7714844,0.5424805,1.1289063,0.9887695,1.3457031,2.3481445c0.2421875,1.5126953-0.0361328,2.0581055-0.3046875,2.3642578  c-0.3378906,0.3847656-1.1464844,0.9169922-2.0498047,0.4643555c-0.625-0.3139648-0.9726563-0.793457-1.1328125-1.0732422  c0.0351563-0.0488281,0.0576172-0.0888672,0.0478516-0.1054688c1.2568359,0.8378906,2.0683594,1.0009766,2.4121094,0.4863281  c0.8945313-1.3417969,0.3261719-2.6923828-0.5029297-3.5087891c-0.7060547-0.6948242-2.5546875-0.0922852-3.0195313,0.1860352  c-0.7353516,0.4423828-2.4052734,2.097168-2.3017578,3.2958984c0.1162109,1.3457031,2.2128906,3.512207,3.1152344,3.9243164  c0.3359375,0.1533203,0.6933594,0.1821289,1.0390625,0.2104492c0.421875,0.034668,0.8212891,0.0668945,1.2216797,0.3071289  c0.6328125,0.3803711,1.0029297,0.7490234,0.7900391,2.6650391c-0.03125,0.28125-0.0537109,0.5927734-0.078125,0.9169922  c-0.0517578,0.7094727-0.1103516,1.5131836-0.2802734,2.1186523c-0.0283203,0.1010742-0.0839844,0.2329102-0.1474609,0.387207  c-0.0343018,0.0831299-0.0717773,0.1776733-0.1087036,0.2709351c-0.817627-0.0604858-1.5620728-0.2474365-1.928894-0.9803467  c0.0182495-0.0923462,0.0338135-0.1875,0.0522461-0.2788696c0.2197266-1.0854492,0.4267578-2.1108398-0.1064453-2.9833984  C23.3203125,13.2246094,22.5898438,13.1738281,21.9453125,13.1293945z M26.2363281,42.5776367  c-0.09375,1.0195313-0.4052734,3.8295898-0.7109375,4.5825195c-0.1445313,0.3579102-0.4453125,0.4174805-0.6923828,0.390625  c-0.0566406-1.4384766-0.2480469-6.6015625-0.15625-8.6274414c0.015625-0.3271484,0.0429688-0.7060547,0.0732422-1.1254883  c0.1005859-1.3730469,0.2373047-3.253418,0.0576172-5.1645508c-0.0742188-0.7910156-0.2617188-1.7260742-0.4609375-2.7158203  C24.125,28.815918,23.8955078,27.6762695,23.8544922,26.824707c-0.0537109-1.1279297,0.1318359-2.7866211,0.2314453-3.6777344  l0.0439453-0.4067383c0.1210938-1.2055664-0.0947266-1.8994141-0.2841797-2.5112305  c-0.1136475-0.3653564-0.2120972-0.6953125-0.2402954-1.1166382c0.4510498,0.0685425,0.8526611,0.1083374,1.1758423,0.1083374  c0.2562866,0,0.4642334-0.0222778,0.6519775-0.0525513C25.4008789,19.338623,25.3786011,19.5132446,25.375,19.690918  c-0.0166016,0.8535156,0.1357422,1.6884766,0.2705078,2.425293c0.0966797,0.527832,0.1875,1.0263672,0.1875,1.4018555  c0,1.0151367-0.2167969,1.7900391-0.4072266,2.4736328c-0.1269531,0.4536133-0.2460938,0.8823242-0.2783203,1.3061523  c-0.0673828,0.9052734,0.2441406,2.2260742,0.5458984,3.503418c0.1621094,0.6850586,0.3144531,1.3320313,0.3730469,1.7895508  c0.15625,1.2109375-0.0019531,4.9921875-0.0039063,5.0683594L26.2363281,42.5776367z M29.6509399,23.7565308l-0.3961182,0.4782104  l0.065979-0.4928589L29.6509399,23.7565308z M28.7260742,24.4177246l-0.505249-0.4881592L28.81073,23.802124L28.7260742,24.4177246z   M30.8191528,19.9543457l-0.715332-0.4194946l-0.0175171-0.3887939l1.0557861,0.5726929L30.8191528,19.9543457z   M29.5923462,19.2868042l-0.3164063-0.1411743l0.3054199-0.0952148L29.5923462,19.2868042z M29.2754517,19.6921387  l-0.4179077,0.2080078l-0.0075684-0.3972778L29.2754517,19.6921387z M28.295105,19.6509399l0.0609741,0.1850586l0.012085,0.6127319  l0.1243896,0.0687866l-0.94104-0.1952515L28.295105,19.6509399z M29.1526489,20.3114624l0.7015381-0.3490601l0.7028809,0.3911133  l-0.2022095,0.6226807L29.1526489,20.3114624z M30.9320068,20.8169556l0.1403809,0.2209473l-0.21875,0.0192871  L30.9320068,20.8169556z M31.1953125,20.2991943l0.151062-0.1101685l-0.0085449,0.3344116L31.1953125,20.2991943z   M27.3425903,20.7893066l1.3794556,0.2865601l0.1277466,2.206604l-0.9346924,0.2020874L27.3425903,20.7893066z   M29.9140625,23.2678223l-0.5692749-0.0250244l-0.1246948-2.223999l0.0932007-0.0474243l0.600769,0.3322144V23.2678223z"/></svg>
