<svg xmlns:dc="http://purl.org/dc/elements/1.1/" xmlns:cc="http://creativecommons.org/ns#" xmlns:rdf="http://www.w3.org/1999/02/22-rdf-syntax-ns#" xmlns:svg="http://www.w3.org/2000/svg" xmlns="http://www.w3.org/2000/svg" xmlns:sodipodi="http://sodipodi.sourceforge.net/DTD/sodipodi-0.dtd" xmlns:inkscape="http://www.inkscape.org/namespaces/inkscape" viewBox="0 0 105 105" version="1.1" x="0px" y="0px"><g transform="translate(4,-953)"><path style="opacity:1;fill:#000000;fill-opacity:1;stroke:none;stroke-width:2;stroke-linecap:round;stroke-linejoin:miter;stroke-miterlimit:10;stroke-dasharray:none;stroke-opacity:1" d="M 48 2 A 46 46 0 0 0 2 48 A 46 46 0 0 0 48 94 A 46 46 0 0 0 94 48 A 46 46 0 0 0 48 2 z M 15.345703 35.753906 L 80.654297 35.753906 C 81.26542 35.753906 81.757812 36.243204 81.757812 36.849609 L 81.757812 59.150391 C 81.757812 59.756796 81.26542 60.246094 80.654297 60.246094 L 15.345703 60.246094 C 14.73458 60.246094 14.242188 59.756796 14.242188 59.150391 L 14.242188 36.849609 C 14.242188 36.243204 14.73458 35.753906 15.345703 35.753906 z " transform="translate(0,956.36216)"/><ellipse style="opacity:1;fill:#000000;fill-opacity:1;stroke:none;stroke-width:2;stroke-linecap:round;stroke-linejoin:miter;stroke-miterlimit:10;stroke-dasharray:none;stroke-opacity:1" cx="32.707088" cy="1004.3622" rx="5.7448821" ry="6.7275591"/><ellipse ry="6.7275591" rx="5.7448821" cy="1004.3622" cx="63.292908" style="opacity:1;fill:#000000;fill-opacity:1;stroke:none;stroke-width:2;stroke-linecap:round;stroke-linejoin:miter;stroke-miterlimit:10;stroke-dasharray:none;stroke-opacity:1"/><rect style="opacity:1;fill:#000000;fill-opacity:1;stroke:none;stroke-width:2;stroke-linecap:round;stroke-linejoin:miter;stroke-miterlimit:10;stroke-dasharray:none;stroke-opacity:1" width="9.9133282" height="26.365236" x="321.07733" y="904.81598" rx="4.9566641" ry="4.9566641" transform="matrix(0.96592583,0.25881905,-0.25881905,0.96592583,0,0)"/><rect transform="matrix(0,1,-1,0,0,0)" ry="4.9566641" rx="4.9566641" y="-93.988914" x="968.26221" height="26.365236" width="9.9133282" style="opacity:1;fill:#000000;fill-opacity:1;stroke:none;stroke-width:2;stroke-linecap:round;stroke-linejoin:miter;stroke-miterlimit:10;stroke-dasharray:none;stroke-opacity:1"/></g></svg>
