<svg xmlns="http://www.w3.org/2000/svg" xmlns:xlink="http://www.w3.org/1999/xlink" xmlns:sketch="http://www.bohemiancoding.com/sketch/ns" viewBox="0 0 65 65" version="1.1" x="0px" y="0px"><g stroke="none" stroke-width="1" fill="none" fill-rule="evenodd" sketch:type="MSPage"><g sketch:type="MSLayerGroup" transform="translate(3,2)" fill="#000000"><path d="M56.402,48.078 L52.922,44.598 C52.409,44.085 51.515,44.085 51.003,44.598 L50.629,44.972 L38.732,33.075 L40.058,31.748 C40.459,31.348 40.681,30.814 40.681,30.247 C40.681,29.68 40.46,29.146 40.059,28.745 L38.112,26.799 C37.31,25.996 35.911,25.997 35.109,26.799 L33.782,28.125 L15.293,9.637 C13.817,8.16 11.966,7.112 9.939,6.605 C8.265,6.187 6.734,5.32 5.514,4.1 L2.707,1.293 L2.377,0.984 L0.984,1.034 L0.751,4.055 C0.387,8.781 2.102,13.415 5.454,16.768 L25.297,36.611 L23.97,37.937 C23.569,38.338 23.348,38.872 23.348,39.439 C23.348,40.006 23.569,40.54 23.97,40.94 L25.917,42.888 C26.318,43.289 26.851,43.509 27.418,43.509 C27.985,43.509 28.519,43.289 28.92,42.887 L30.247,41.56 L42.143,53.457 L41.544,54.056 C41.018,54.585 41.018,55.445 41.545,55.975 L45.026,59.456 C45.283,59.711 45.623,59.852 45.985,59.852 C46.347,59.852 46.687,59.711 46.945,59.455 L56.402,49.997 C56.931,49.468 56.931,48.607 56.402,48.078 L56.402,48.078 Z M16.811,21.054 C16.616,21.249 16.36,21.347 16.104,21.347 C15.849,21.347 15.593,21.249 15.397,21.054 L10.448,16.104 C10.057,15.714 10.057,15.081 10.448,14.69 C10.838,14.3 11.471,14.3 11.862,14.69 L16.811,19.64 C17.202,20.031 17.202,20.664 16.811,21.054 L16.811,21.054 Z M42.429,39.6 L43.843,41.015 L38.186,46.672 L36.772,45.257 L42.429,39.6 L42.429,39.6 Z M27.506,41.473 C27.482,41.497 27.453,41.509 27.418,41.509 L25.384,39.526 C25.343,39.485 25.343,39.393 25.384,39.352 L36.523,28.213 L36.698,28.213 L38.644,30.159 C38.685,30.2 38.686,30.292 38.644,30.334 L28.832,40.146 L28.833,40.146 L27.506,41.473 L27.506,41.473 Z M34.489,37.318 L37.318,34.489 L38.186,35.358 L32.529,41.015 L31.661,40.146 L34.489,37.318 L34.489,37.318 Z M42.429,50.914 L48.086,45.257 L49.215,46.386 L43.557,52.043 L42.429,50.914 L42.429,50.914 Z" sketch:type="MSShapeGroup"/></g></g></svg>
