<svg xmlns="http://www.w3.org/2000/svg" xmlns:xlink="http://www.w3.org/1999/xlink" version="1.1" x="0px" y="0px" viewBox="0 0 24 24" enable-background="new 0 0 24 24" xml:space="preserve"><path fill="#000000" d="M22.456,18.151c-0.455-0.183-0.973-0.29-1.514-0.29c-0.538,0-1.056,0.108-1.514,0.29  c-0.443,0.17-0.944,0.27-1.465,0.27c-0.521,0-1.021-0.1-1.463-0.27c-0.466-0.183-0.983-0.29-1.519-0.29  c-0.538,0-1.055,0.108-1.514,0.29c-0.443,0.17-0.947,0.27-1.464,0.27c-0.522,0-1.02-0.1-1.469-0.27  c-0.459-0.183-0.977-0.29-1.509-0.29c-0.542,0-1.058,0.108-1.516,0.29c-0.444,0.17-0.948,0.27-1.47,0.27  c-0.517,0-1.022-0.1-1.465-0.27c-0.463-0.183-0.978-0.29-1.515-0.29c-0.536,0-1.052,0.108-1.507,0.29  c-0.455,0.17-0.952,0.27-1.474,0.27v1.892c0.521,0,1.019-0.101,1.474-0.275c0.455-0.179,0.971-0.286,1.507-0.286  c0.537,0,1.052,0.107,1.515,0.286c0.444,0.174,0.947,0.275,1.465,0.275c0.522,0,1.025-0.101,1.47-0.275  c0.458-0.179,0.974-0.286,1.516-0.286c0.532,0,1.05,0.107,1.509,0.286c0.45,0.174,0.947,0.275,1.469,0.275  c0.516,0,1.022-0.101,1.464-0.275c0.46-0.179,0.976-0.286,1.514-0.286c0.536,0,1.053,0.107,1.519,0.286  c0.441,0.174,0.942,0.275,1.463,0.275c0.521,0,1.02-0.101,1.465-0.275c0.459-0.179,0.977-0.286,1.514-0.286  c0.541,0,1.058,0.107,1.514,0.286c0.446,0.174,0.946,0.275,1.467,0.275v-1.892C23.402,18.421,22.903,18.321,22.456,18.151z   M17.633,11.643c0,1.566,1.155,2.843,2.838,2.843c1.567,0,2.836-1.276,2.836-2.843c0-1.57-1.27-2.838-2.836-2.838  C18.903,8.805,17.633,10.075,17.633,11.643z M19.484,17.055l-5.159-9.147l5.501-1.003c0.808-0.155,1.396-0.789,1.396-1.607  c0-0.893-0.729-1.611-1.62-1.611c-0.064,0-0.125,0-0.186,0.008l-8.5,1.548C10.314,5.38,9.527,6.251,9.978,7.332  c0.022,0.054,0.048,0.109,0.07,0.167l2.222,4.012l-8.756,5.544H19.484z"/></svg>
