<svg xmlns="http://www.w3.org/2000/svg" data-name="Layer 1" viewBox="0 0 144 144" x="0px" y="0px"><title>Artboard 70</title><rect x="19.046" y="108.402" width="4.128" height="28.975" transform="translate(-80.711 50.918) rotate(-44.999)"/><rect x="22.285" y="106.121" width="21.254" height="9.933" transform="translate(-68.912 55.81) rotate(-45.001)"/><path d="M62.347,115.277a3.223,3.223,0,0,0,0-4.56L33.283,81.652a3.225,3.225,0,0,0-4.561,4.561l29.064,29.064A3.232,3.232,0,0,0,62.347,115.277Z"/><path d="M44.472,87.185l4.758,4.758,65.5-65.5a2,2,0,1,1,2.828,2.828l-65.5,65.5,4.756,4.756,71.673-68.468,6.107-21.653-21.653,6.107Z"/></svg>
