<svg xmlns="http://www.w3.org/2000/svg" viewBox="0 0 512 640" x="0px" y="0px"><title>tarot icon</title><desc>tarot icon for website, application, printing, document, poster design, etc.</desc><metadata><?xpacket begin="&#65279;" id="W5M0MpCehiHzreSzNTczkc9d"?><x:xmpmeta xmlns:x="adobe:ns:meta/" x:xmptk="Adobe XMP Core 5.6-c145 79.162955, 2018/05/10-01:07:16        "/><?xpacket end="w"?></metadata><g><path d="M228.739,306.767l13.518,23.49-23.491-13.519a8,8,0,0,0-11.844,5.413L200,357.907l-6.922-35.756a8,8,0,0,0-11.844-5.413l-23.491,13.519,13.518-23.49a8,8,0,0,0-4.4-11.58L145.3,288l21.56-7.187a8,8,0,0,0,4.4-11.58l-13.518-23.49,23.491,13.519a8,8,0,0,0,11.844-5.413L200,218.093l6.922,35.756a8,8,0,0,0,11.844,5.413l23.491-13.519-13.518,23.49a8,8,0,0,0,4.4,11.58L254.7,288l-21.56,7.187a8,8,0,0,0-4.4,11.58ZM304,166.987V425.013A32.118,32.118,0,0,0,281.012,448H118.988A32.118,32.118,0,0,0,96,425.013V166.987A32.118,32.118,0,0,0,118.988,144H281.012A32.118,32.118,0,0,0,304,166.987ZM272,208h16V192H272Zm0,56h16V248H272Zm-40-80h16V168H232Zm-80,24h16V192H152Zm-40-16h16V176H112Zm0,72h16V248H112Zm16,112H112v16h16Zm48,24H160v16h16Zm72,16H232v16h16Zm22.934-67.99-23.445-40.739L282.53,295.59a8,8,0,0,0,0-15.18l-35.041-11.681,23.445-40.739a8,8,0,0,0-10.924-10.924L220.5,239.8l-12.646-65.325a8,8,0,0,0-15.708,0L179.5,239.8l-39.51-22.738a8,8,0,0,0-10.924,10.924l23.445,40.739L117.47,280.41a8,8,0,0,0,0,15.18l35.041,11.681L129.066,348.01a8,8,0,0,0,10.924,10.924L179.5,336.2l12.646,65.325a8,8,0,0,0,15.708,0L220.5,336.2l39.51,22.738a8,8,0,0,0,10.924-10.924ZM296,376H280v16h16Zm40-248V464a16.019,16.019,0,0,1-16,16H80a16.019,16.019,0,0,1-16-16V128a16.019,16.019,0,0,1,16-16H320A16.019,16.019,0,0,1,336,128Zm-16,32a8,8,0,0,0-8-8,16.019,16.019,0,0,1-16-16,8,8,0,0,0-8-8H112a8,8,0,0,0-8,8,16.019,16.019,0,0,1-16,16,8,8,0,0,0-8,8V432a8,8,0,0,0,8,8,16.019,16.019,0,0,1,16,16,8,8,0,0,0,8,8H288a8,8,0,0,0,8-8,16.019,16.019,0,0,1,16-16,8,8,0,0,0,8-8ZM416,32H176a16.019,16.019,0,0,0-16,16V96h16V80a8,8,0,0,1,8-8,16,16,0,0,0,16-16,8,8,0,0,1,8-8H384a8,8,0,0,1,8,8,16,16,0,0,0,16,16,8,8,0,0,1,8,8V352a8,8,0,0,1-8,8,16,16,0,0,0-16,16,8,8,0,0,1-8,8H352v16h64a16.019,16.019,0,0,0,16-16V48A16.019,16.019,0,0,0,416,32ZM352,368h25a32.09,32.09,0,0,1,23-23V87a32.082,32.082,0,0,1-23-23H215a32.09,32.09,0,0,1-23,23v9H320a32.036,32.036,0,0,1,32,32Z"/></g></svg>