<svg xmlns="http://www.w3.org/2000/svg" viewBox="0 0 512 640" x="0px" y="0px"><polygon points="139.313 320 160 320 160 299.313 139.313 320"/><polygon points="176 320 196.687 320 176 299.313 176 320"/><path d="M40,344a8.00917,8.00917,0,0,0,8,8H304a8,8,0,0,0,0-16H48A8.00917,8.00917,0,0,0,40,344Z"/><polygon points="168 400 147.313 400 168 420.687 168 400"/><polygon points="204.687 400 184 400 184 420.687 204.687 400"/><path d="M290.03711,241.27637,263.31348,268,280,284.68652l30.51147-30.51147A40.065,40.065,0,0,0,290.03711,241.27637Z"/><path d="M320,408a8.00917,8.00917,0,0,0-8-8H283.31348L320,436.68652Z"/><polygon points="252 256.687 268.687 240 235.313 240 252 256.687"/><path d="M320,280a39.86385,39.86385,0,0,0-1.58057-11.106L291.31348,296l23.48492,23.48486A8.00583,8.00583,0,0,0,320,312Z"/><polygon points="392.687 116 348.687 72 320 72 315.313 72 376 132.687 392.687 116"/><path d="M312,376a8.00917,8.00917,0,0,0-8-8H48a8,8,0,0,0,0,16H304A8.00917,8.00917,0,0,0,312,376Z"/><polygon points="408 228.687 437.9 198.786 432.093 163.22 387.313 208 408 228.687"/><polygon points="376 196.687 428.918 143.769 423.111 108.203 355.313 176 376 196.687"/><polygon points="449.568 270.255 441.076 218.238 419.313 240 449.568 270.255"/><polygon points="404 104.687 419.935 88.751 417.2 72 384 72 371.313 72 404 104.687"/><polygon points="453.983 297.297 278.644 121.957 272.837 157.523 462.056 346.743 453.983 297.297"/><polygon points="364.687 144 292.687 72 286.8 72 281.819 102.506 344 164.687 364.687 144"/><polygon points="292.687 320 212.687 240 187.313 240 267.313 320 292.687 320"/><polygon points="369.441 32 334.559 32 329.758 56 374.242 56 369.441 32"/><polygon points="99.313 400 176 476.687 188.687 464 124.687 400 99.313 400"/><polygon points="232 443.313 232 480 248 480 248 435.313 244 431.313 232 443.313"/><polygon points="216 480 216 459.313 195.313 480 216 480"/><polygon points="75.313 480 108.687 480 92 463.313 75.313 480"/><polygon points="187.313 440 200 452.687 252.687 400 227.313 400 187.313 440"/><polygon points="51.313 400 131.313 480 156.687 480 76.687 400 51.313 400"/><polygon points="440 411.313 403.313 448 472 448 476.687 448 440 411.313"/><path d="M352,448h28.68652l48-48L408,379.31348l-42.34326,42.34326-11.31348-11.31348L396.68652,368l-42.34326-42.34326,11.31348-11.31348L474.54388,423.23047l-8.10864-49.66577-.092.092L269.66107,176.97455,261.9834,224H280a56.06353,56.06353,0,0,1,56,56v32a23.99637,23.99637,0,0,1-11.10046,20.22278A23.93374,23.93374,0,0,1,321.86945,360a23.93374,23.93374,0,0,1,3.03009,27.77722A23.99637,23.99637,0,0,1,336,408v32a55.82364,55.82364,0,0,1-16.86169,40H464V464H352Z"/><path d="M264,480h16a39.86607,39.86607,0,0,0,11.106-1.58057L264,451.31348Z"/><path d="M255.31348,420,305.825,470.51147a40.19713,40.19713,0,0,0,10.83649-14.53662L268,407.31348Z"/><path d="M32.9375,404.251A7.94635,7.94635,0,0,0,32,408v32a40.21925,40.21925,0,0,0,.25165,4.43481L52.68652,424Z"/><polygon points="112 276.687 112 240 96 240 96 284.687 100 288.687 112 276.687"/><polygon points="156.687 280 144 267.313 91.313 320 116.687 320 156.687 280"/><polygon points="128 240 128 260.687 148.687 240 128 240"/><path d="M80,240H72a39.75183,39.75183,0,0,0-16.92,3.76648l24.92,24.92Z"/><polygon points="244.687 320 168 243.313 155.313 256 219.313 320 244.687 320"/><path d="M88.68652,300l-46.5606-46.56061a39.94686,39.94686,0,0,0-8.84955,16.5235L76,312.68652Z"/><path d="M64,435.31348,38.10736,461.20605a40.24341,40.24341,0,0,0,17.91773,15.45533L80.68652,452Z"/><path d="M40,320H60.68652L32,291.31348V312A8.00917,8.00917,0,0,0,40,320Z"/></svg>