<?xml version="1.0" encoding="utf-8"?><!DOCTYPE svg PUBLIC "-//W3C//DTD SVG 1.1//EN" "http://www.w3.org/Graphics/SVG/1.1/DTD/svg11.dtd"><svg version="1.1" xmlns="http://www.w3.org/2000/svg" xmlns:xlink="http://www.w3.org/1999/xlink" x="0px" y="0px" viewBox="0 0 110 110" enable-background="new 0 0 110 110" xml:space="preserve"><g transform="translate(20,5)"><path d="M33.407,21.689c4.266-0.569,7.271-4.483,6.7-8.752c-0.569-4.27-4.498-7.269-8.763-6.7c-4.262,0.568-7.259,4.493-6.689,8.762 C25.225,19.267,29.145,22.257,33.407,21.689z"/><path d="M73.079,29.028c-0.126-0.048-0.253-0.087-0.383-0.119l-22.843-7.071l-0.104-0.035c-0.495-0.246-1.042-0.365-1.595-0.347 c-0.223,0.012-0.443,0.047-0.659,0.104h-0.034l-15.148,2.149l-5.823,0.797l-8.354-0.381l-4.957-6.933l-4.333-6.066 c-0.335,0.046-0.658,0.069-1.005,0.069c-3.06,0-5.655-1.913-6.725-4.576c-1.277,1.135-1.486,3.053-0.485,4.437l7.141,10.018 l6.863,9.567c0.011,0.035,0.023,0.069,0.035,0.104c0.145,0.241,0.32,0.462,0.52,0.659c0.034,0.047,0.068,0.093,0.104,0.139 c0.045,0.036,0.091,0.07,0.139,0.104c0.034,0.035,0.068,0.07,0.104,0.104c0.056,0.036,0.115,0.071,0.173,0.104 c0.056,0.036,0.115,0.071,0.173,0.104c0.056,0.036,0.115,0.071,0.173,0.104c0.022,0.012,0.045,0.023,0.069,0.035 c0.057,0.025,0.115,0.048,0.173,0.069c0.045,0.024,0.092,0.047,0.139,0.069l8.804,3.328l2.53,19.446l-1.178,19.862l-5.581,20.243 c-0.142,0.485-0.196,0.988-0.139,1.49c0.057,0.502,0.204,1.015,0.451,1.456c0.246,0.441,0.573,0.832,0.971,1.145 c0.397,0.312,0.864,0.523,1.352,0.658c0.487,0.134,0.989,0.167,1.49,0.104c0.501-0.064,1.019-0.233,1.456-0.485 c0.438-0.253,0.803-0.569,1.109-0.97c0.307-0.403,0.531-0.863,0.659-1.353l5.72-20.624c0.071-0.258,0.087-0.531,0.104-0.798 l1.04-17.47l5.442-0.659l4.159,16.847l1.456,20.521c0.029,0.504,0.159,1.001,0.382,1.456c0.221,0.453,0.557,0.845,0.936,1.179 c0.379,0.332,0.804,0.6,1.282,0.763c0.479,0.16,0.987,0.242,1.491,0.208c0.503-0.037,1.005-0.188,1.455-0.416 c0.451-0.228,0.851-0.553,1.179-0.937s0.607-0.836,0.763-1.317c0.155-0.48,0.216-0.987,0.174-1.49l-1.491-20.832 c-0.015-0.218-0.052-0.414-0.104-0.624l-4.992-20.104c-0.01-0.071-0.021-0.141-0.034-0.208l-0.035-0.174l-2.564-18.961 c0.035-0.034,0.07-0.068,0.104-0.104l4.438-4.818l21.456,6.655c1.719,0.651,3.64-0.214,4.291-1.933 C75.662,31.601,74.796,29.679,73.079,29.028z"/><path d="M7.841,7.869c2.13,0,3.952-1.823,3.952-3.952S9.971,0,7.841,0C5.712,0,3.924,1.788,3.924,3.917S5.712,7.869,7.841,7.869z"/></g></svg>
