<svg xmlns="http://www.w3.org/2000/svg" xmlns:xlink="http://www.w3.org/1999/xlink" xml:space="preserve" version="1.1" style="shape-rendering:geometricPrecision;text-rendering:geometricPrecision;image-rendering:optimizeQuality;" viewBox="0 0 333.33 416.66249999999997" x="0px" y="0px" fill-rule="evenodd" clip-rule="evenodd"><defs><style type="text/css">
   
    .fil0 {fill:black}
   
  </style></defs><g><path class="fil0" d="M289.8 297.97c-24.54,14.16 -50.07,15.89 -57.02,3.83l-52.38 -90.74 -136.26 21.67c-13.74,2.19 -28.48,-18.72 -32.93,-46.7 -4.44,-27.98 3.08,-52.43 16.82,-54.62l97.44 -15.5 -23.74 -41.13 19.45 -11.23 16.09 27.87 4.83 -2.79 -16.09 -27.87 15.38 -8.88 69.06 119.63 4.82 -2.78 -69.06 -119.64 18.32 -10.57 29.75 51.54 4.83 -2.78 -29.76 -51.54 21.23 -12.26 43.38 75.16 52.92 -8.41 3.53 22.18 -31.78 5.06 0.87 5.5 31.78 -5.05 2.79 17.54 -35.6 5.66 2.99 5.17 33.48 -5.33 3.32 20.89 -25.49 4.05 2.99 5.16 23.38 -3.72 3.85 24.2 -14.11 2.25 32.73 56.7c6.95,12.05 -7.3,33.3 -31.83,47.46zm-268.76 -114.43l-1.27 -7.97c-3.12,-19.59 26.5,-24.28 29.61,-4.71l3.61 22.68 -5.5 0.87 -3.61 -22.68c-1.96,-12.3 -20.57,-9.35 -18.61,2.96l1.27 7.97 -5.5 0.87zm104.54 -15.19l-64.56 10.26 -0.87 -5.5 64.56 -10.26 0.87 5.5zm16.52 23.98l-26.99 4.29 -0.88 -5.5 27 -4.3 0.87 5.5zm141.87 97.35l-6.99 4.03c-17.19,9.93 -32.16,-16.06 -15,-25.97l19.89 -11.48 2.79 4.83 -19.89 11.48c-10.78,6.23 -1.37,22.55 9.43,16.32l6.98 -4.03 2.79 4.83zm-51.58 -92.2l32.68 56.61 -4.83 2.79 -32.67 -56.62 4.82 -2.78zm-69.93 -69.89l46.06 79.81 -4.83 2.79 -46.06 -79.81 4.83 -2.79zm52.01 -13.7l23.96 41.49 -4.83 2.8 -23.95 -41.5 4.82 -2.79zm34.4 59.59l13.66 23.67 -4.82 2.79 -13.67 -23.67 4.83 -2.78z"/></g></svg>