<svg xmlns="http://www.w3.org/2000/svg" xmlns:xlink="http://www.w3.org/1999/xlink" version="1.1" x="0px" y="0px" viewBox="0 0 110 110" enable-background="new 0 0 110 110" xml:space="preserve"><g><path d="M76.4,46.768h-2.185C83.7,24.847,69.72,11.825,62.672,6.946c-2.329-2.239-5.143-3.757-8.153-4.395   c-1.093-0.231-2.206-0.35-3.308-0.35c-4.451,0-8.64,1.856-11.796,5.227c-0.637,0.68-0.921,1.617-0.771,2.536   s0.72,1.717,1.541,2.157c2.807,1.509,4.946,4.28,5.914,7.533c-8.744,3.417-14.306,12.902-13.227,23.253   c0.137,1.315,0.388,2.609,0.736,3.877c-1.572,0.094-2.822,1.386-2.822,2.982c0,1.657,1.343,3,3,3h6.135l4.757,46.291   c0.52,5.059,5.08,9.174,10.165,9.174h0.501c5.085,0,9.645-4.115,10.165-9.174l4.757-46.291H76.4c1.657,0,3-1.343,3-3   S78.057,46.768,76.4,46.768z M50.225,24.649c1.491-0.336,2.491-1.738,2.323-3.257c-0.524-4.738-2.678-8.998-5.964-12.021   c2.034-1.089,4.385-1.438,6.691-0.951c1.968,0.417,3.827,1.449,5.374,2.983c0.13,0.128,0.271,0.244,0.421,0.348   c8.927,6.091,17.502,17.023,8.638,34.796H39.815c-0.497-1.377-0.824-2.804-0.976-4.261C37.964,33.89,42.859,26.308,50.225,24.649z    M59.539,98.445c-0.207,2.018-2.168,3.787-4.196,3.787h-0.501c-2.028,0-3.989-1.77-4.196-3.787l-4.694-45.678h18.282L59.539,98.445   z"/></g></svg>
