<?xml version="1.0" encoding="UTF-8" standalone="no"?>
<svg
   xmlns:dc="http://purl.org/dc/elements/1.1/"
   xmlns:cc="http://creativecommons.org/ns#"
   xmlns:rdf="http://www.w3.org/1999/02/22-rdf-syntax-ns#"
   xmlns:svg="http://www.w3.org/2000/svg"
   xmlns="http://www.w3.org/2000/svg"
   xmlns:sodipodi="http://sodipodi.sourceforge.net/DTD/sodipodi-0.dtd"
   xmlns:inkscape="http://www.inkscape.org/namespaces/inkscape"
   xml:space="preserve"
   version="1.1"
   style="image-rendering:optimizeQuality;shape-rendering:geometricPrecision;text-rendering:geometricPrecision"
   viewBox="0 0 212.19734 212.19734"
   x="0px"
   y="0px"
   fill-rule="evenodd"
   clip-rule="evenodd"
   id="svg102"
   sodipodi:docname="tree.svg"
   width="212.19734"
   height="212.19734"
   inkscape:version="1.0.1 (c497b03c, 2020-09-10)"><metadata
     id="metadata106"><rdf:RDF><cc:Work
         rdf:about=""><dc:format>image/svg+xml</dc:format><dc:type
           rdf:resource="http://purl.org/dc/dcmitype/StillImage" /></cc:Work></rdf:RDF></metadata><sodipodi:namedview
     pagecolor="#ffffff"
     bordercolor="#666666"
     borderopacity="1"
     objecttolerance="10"
     gridtolerance="10"
     guidetolerance="10"
     inkscape:pageopacity="0"
     inkscape:pageshadow="2"
     inkscape:window-width="1482"
     inkscape:window-height="945"
     id="namedview104"
     showgrid="false"
     inkscape:zoom="2.3185965"
     inkscape:cx="105.5687"
     inkscape:cy="126.36955"
     inkscape:window-x="1805"
     inkscape:window-y="23"
     inkscape:window-maximized="0"
     inkscape:current-layer="svg102" /><defs
     id="defs12"><style
       type="text/css"
       id="style10">
   
    .fil0 {fill:black}
   
  </style></defs><g
     id="g100"
     transform="matrix(0.70501022,0,0,0.68384335,26.740315,10.35109)"><path
       class="fil0"
       d="m 85,138 c -2,-3 -14,-16 -1,-8 4,3 10,14 16,14 4,-1 -5,-33 -23,-35 -23,-2 -42,-10 -54,-32 -6,-11 7,6 8,7 23,26 56,10 69,30 C 100,113 92,73 83,64 70,51 50,51 48,49 c -7,-5 29,3 39,13 16,15 15,41 18,29 5,-23 18,-42 9,-57 -9,-18 5,-2 7,6 4,21 -18,68 -9,86 6,-5 13,-20 35,-21 15,0 32,4 38,-10 1,-5 0,-7 0,-11 1,-12 21,29 -33,29 -10,0 -27,5 -30,15 -7,17 -1,25 -1,34 -2,28 19,-21 14,-2 -4,12 -13,24 -13,37 2,31 3,44 34,57 8,4 16,15 6,10 -49,-28 -26,7 -29,9 -2,2 -8,-9 -9,-10 -1,-1 -9,-33 -12,-23 -3,8 -5,9 -9,16 -7,10 -3,15 -2,26 0,8 -6,-4 -7,-7 -1,-3 -2,-13 -7,-9 -9,4 -20,24 -19,18 1,-20 27,-29 30,-43 -9,3 -34,17 -42,25 -6,6 -12,20 -9,7 3,-12 11,-18 -2,-18 -8,1 -10,2 -17,5 -8,3 -5,-1 6,-6 14,-6 24,3 47,-15 19,-16 22,-50 22,-74 0,-15 -11,-16 -18,-27 z"
       id="path14" /><path
       class="fil0"
       d="m 61,141 c 5,-7 15,-8 21,-3 -5,7 -15,9 -21,3 z"
       id="path16" /><path
       class="fil0"
       d="m 70,156 c 1,-9 9,-14 17,-12 -1,8 -9,14 -17,12 z"
       id="path18" /><path
       class="fil0"
       d="m 54,122 c 8,-4 17,1 19,9 -8,4 -17,-1 -19,-9 z"
       id="path20" /><path
       class="fil0"
       d="m 67,110 c 8,-1 16,6 15,14 -8,1 -16,-6 -15,-14 z"
       id="path22" /><path
       class="fil0"
       d="M 0,83 C 6,76 16,77 21,84 15,90 5,89 0,83 Z"
       id="path24" /><path
       class="fil0"
       d="M 3,59 C 12,57 20,64 20,72 12,74 4,67 3,59 Z"
       id="path26" /><path
       class="fil0"
       d="m 29,54 c 6,6 6,16 0,21 -7,-5 -7,-15 0,-21 z"
       id="path28" /><path
       class="fil0"
       d="m 8,98 c 5,-8 15,-9 22,-4 -5,7 -15,9 -22,4 z"
       id="path30" /><path
       class="fil0"
       d="m 43,63 c 4,8 1,17 -6,21 -5,-8 -2,-17 6,-21 z"
       id="path32" /><path
       class="fil0"
       d="m 121,3 c -7,4 -10,14 -5,21 8,-4 10,-14 5,-21 z"
       id="path34" /><path
       class="fil0"
       d="m 97,0 c -4,8 0,17 8,20 4,-8 0,-17 -8,-20 z"
       id="path36" /><path
       class="fil0"
       d="m 86,23 c 3,8 13,11 20,6 -3,-8 -13,-11 -20,-6 z"
       id="path38" /><path
       class="fil0"
       d="m 133,16 c -8,2 -12,11 -9,19 8,-2 13,-11 9,-19 z"
       id="path40" /><path
       class="fil0"
       d="m 91,39 c 5,7 16,6 21,0 -6,-6 -16,-6 -21,0 z"
       id="path42" /><path
       class="fil0"
       d="m 48,21 c -5,8 -2,17 6,21 5,-8 1,-17 -6,-21 z"
       id="path44" /><path
       class="fil0"
       d="m 27,33 c 1,9 9,15 17,13 C 43,37 35,31 27,33 Z"
       id="path46" /><path
       class="fil0"
       d="m 36,60 c 7,5 17,2 21,-5 -8,-5 -17,-3 -21,5 z"
       id="path48" /><path
       class="fil0"
       d="m 64,25 c -5,7 -4,17 3,22 5,-7 4,-17 -3,-22 z"
       id="path50" /><path
       class="fil0"
       d="M 52,70 C 60,73 69,67 70,59 62,56 53,62 52,70 Z"
       id="path52" /><path
       class="fil0"
       d="m 206,65 c -8,1 -15,8 -14,17 9,0 15,-8 14,-17 z"
       id="path54" /><path
       class="fil0"
       d="m 186,52 c -7,5 -7,15 -1,21 7,-5 7,-15 1,-21 z"
       id="path56" /><path
       class="fil0"
       d="m 166,67 c 0,9 7,16 15,15 1,-9 -7,-16 -15,-15 z"
       id="path58" /><path
       class="fil0"
       d="m 212,82 c -9,-2 -17,5 -17,13 8,2 16,-5 17,-13 z"
       id="path60" /><path
       class="fil0"
       d="m 163,84 c 2,8 12,13 20,9 -3,-8 -12,-12 -20,-9 z"
       id="path62" /><path
       class="fil0"
       d="m 141,35 c 0,9 -7,15 -15,15 -1,-9 7,-16 15,-15 z"
       id="path64" /><path
       class="fil0"
       d="m 145,56 c -4,7 -14,10 -21,5 4,-8 14,-10 21,-5 z"
       id="path66" /><path
       class="fil0"
       d="m 212,101 c -6,-6 -16,-5 -21,2 6,6 16,5 21,-2 z"
       id="path68" /><path
       class="fil0"
       d="m 203,119 c -2,-8 -11,-12 -19,-9 2,9 11,13 19,9 z"
       id="path70" /><path
       class="fil0"
       d="m 18,111 c 2,-9 11,-13 19,-11 -2,9 -11,14 -19,11 z"
       id="path72" /><path
       class="fil0"
       d="m 94,50 c 0,9 7,16 16,15 0,-9 -8,-16 -16,-15 z"
       id="path74" /><path
       class="fil0"
       d="m 61,76 c 0,8 -7,15 -16,15 0,-9 7,-16 16,-15 z"
       id="path76" /><path
       class="fil0"
       d="M 63,77 C 71,79 80,74 81,65 73,63 64,69 63,77 Z"
       id="path78" /><path
       class="fil0"
       d="m 77,30 c -5,6 -4,17 2,22 6,-7 5,-17 -2,-22 z"
       id="path80" /><path
       class="fil0"
       d="m 144,69 c -4,8 -14,10 -21,5 4,-7 14,-10 21,-5 z"
       id="path82" /><path
       class="fil0"
       d="m 153,81 c -7,6 -8,16 -2,22 7,-6 8,-16 2,-22 z"
       id="path84" /><path
       class="fil0"
       d="m 174,131 c 0,-9 -9,-15 -17,-13 1,9 9,15 17,13 z"
       id="path86" /><path
       class="fil0"
       d="m 189,129 c 0,-9 -8,-15 -16,-14 0,9 8,15 16,14 z"
       id="path88" /><path
       class="fil0"
       d="m 137,129 c -7,6 -7,16 -1,22 6,-5 7,-16 1,-22 z"
       id="path90" /><path
       class="fil0"
       d="m 161,160 c -7,-6 -17,-5 -22,2 7,6 17,5 22,-2 z"
       id="path92" /><path
       class="fil0"
       d="m 154,138 c -8,0 -15,8 -13,16 8,0 15,-8 13,-16 z"
       id="path94" /><path
       class="fil0"
       d="m 153,182 c 0,-9 -8,-15 -16,-14 0,9 8,15 16,14 z"
       id="path96" /><path
       class="fil0"
       d="m 37,125 c 7,-4 10,-14 5,-21 -7,4 -10,14 -5,21 z"
       id="path98" /></g></svg>
