<svg xmlns="http://www.w3.org/2000/svg" xmlns:xlink="http://www.w3.org/1999/xlink" xml:space="preserve" version="1.1" style="shape-rendering:geometricPrecision;text-rendering:geometricPrecision;image-rendering:optimizeQuality;" viewBox="0 0 212 356.25" x="0px" y="0px" fill-rule="evenodd" clip-rule="evenodd"><defs><style type="text/css">
   
    .fil0 {fill:black}
   
  </style></defs><g><path class="fil0" d="M85 138c-2,-3 -14,-16 -1,-8 4,3 10,14 16,14 4,-1 -5,-33 -23,-35 -23,-2 -42,-10 -54,-32 -6,-11 7,6 8,7 23,26 56,10 69,30 0,-1 -8,-41 -17,-50 -13,-13 -33,-13 -35,-15 -7,-5 29,3 39,13 16,15 15,41 18,29 5,-23 18,-42 9,-57 -9,-18 5,-2 7,6 4,21 -18,68 -9,86 6,-5 13,-20 35,-21 15,0 32,4 38,-10 1,-5 0,-7 0,-11 1,-12 21,29 -33,29 -10,0 -27,5 -30,15 -7,17 -1,25 -1,34 -2,28 19,-21 14,-2 -4,12 -13,24 -13,37 2,31 3,44 34,57 8,4 16,15 6,10 -49,-28 -26,7 -29,9 -2,2 -8,-9 -9,-10 -1,-1 -9,-33 -12,-23 -3,8 -5,9 -9,16 -7,10 -3,15 -2,26 0,8 -6,-4 -7,-7 -1,-3 -2,-13 -7,-9 -9,4 -20,24 -19,18 1,-20 27,-29 30,-43 -9,3 -34,17 -42,25 -6,6 -12,20 -9,7 3,-12 11,-18 -2,-18 -8,1 -10,2 -17,5 -8,3 -5,-1 6,-6 14,-6 24,3 47,-15 19,-16 22,-50 22,-74 0,-15 -11,-16 -18,-27z"/><path class="fil0" d="M61 141c5,-7 15,-8 21,-3 -5,7 -15,9 -21,3z"/><path class="fil0" d="M70 156c1,-9 9,-14 17,-12 -1,8 -9,14 -17,12z"/><path class="fil0" d="M54 122c8,-4 17,1 19,9 -8,4 -17,-1 -19,-9z"/><path class="fil0" d="M67 110c8,-1 16,6 15,14 -8,1 -16,-6 -15,-14z"/><path class="fil0" d="M0 83c6,-7 16,-6 21,1 -6,6 -16,5 -21,-1z"/><path class="fil0" d="M3 59c9,-2 17,5 17,13 -8,2 -16,-5 -17,-13z"/><path class="fil0" d="M29 54c6,6 6,16 0,21 -7,-5 -7,-15 0,-21z"/><path class="fil0" d="M8 98c5,-8 15,-9 22,-4 -5,7 -15,9 -22,4z"/><path class="fil0" d="M43 63c4,8 1,17 -6,21 -5,-8 -2,-17 6,-21z"/><path class="fil0" d="M121 3c-7,4 -10,14 -5,21 8,-4 10,-14 5,-21z"/><path class="fil0" d="M97 0c-4,8 0,17 8,20 4,-8 0,-17 -8,-20z"/><path class="fil0" d="M86 23c3,8 13,11 20,6 -3,-8 -13,-11 -20,-6z"/><path class="fil0" d="M133 16c-8,2 -12,11 -9,19 8,-2 13,-11 9,-19z"/><path class="fil0" d="M91 39c5,7 16,6 21,0 -6,-6 -16,-6 -21,0z"/><path class="fil0" d="M48 21c-5,8 -2,17 6,21 5,-8 1,-17 -6,-21z"/><path class="fil0" d="M27 33c1,9 9,15 17,13 -1,-9 -9,-15 -17,-13z"/><path class="fil0" d="M36 60c7,5 17,2 21,-5 -8,-5 -17,-3 -21,5z"/><path class="fil0" d="M64 25c-5,7 -4,17 3,22 5,-7 4,-17 -3,-22z"/><path class="fil0" d="M52 70c8,3 17,-3 18,-11 -8,-3 -17,3 -18,11z"/><path class="fil0" d="M206 65c-8,1 -15,8 -14,17 9,0 15,-8 14,-17z"/><path class="fil0" d="M186 52c-7,5 -7,15 -1,21 7,-5 7,-15 1,-21z"/><path class="fil0" d="M166 67c0,9 7,16 15,15 1,-9 -7,-16 -15,-15z"/><path class="fil0" d="M212 82c-9,-2 -17,5 -17,13 8,2 16,-5 17,-13z"/><path class="fil0" d="M163 84c2,8 12,13 20,9 -3,-8 -12,-12 -20,-9z"/><path class="fil0" d="M141 35c0,9 -7,15 -15,15 -1,-9 7,-16 15,-15z"/><path class="fil0" d="M145 56c-4,7 -14,10 -21,5 4,-8 14,-10 21,-5z"/><path class="fil0" d="M212 101c-6,-6 -16,-5 -21,2 6,6 16,5 21,-2z"/><path class="fil0" d="M203 119c-2,-8 -11,-12 -19,-9 2,9 11,13 19,9z"/><path class="fil0" d="M18 111c2,-9 11,-13 19,-11 -2,9 -11,14 -19,11z"/><path class="fil0" d="M94 50c0,9 7,16 16,15 0,-9 -8,-16 -16,-15z"/><path class="fil0" d="M61 76c0,8 -7,15 -16,15 0,-9 7,-16 16,-15z"/><path class="fil0" d="M63 77c8,2 17,-3 18,-12 -8,-2 -17,4 -18,12z"/><path class="fil0" d="M77 30c-5,6 -4,17 2,22 6,-7 5,-17 -2,-22z"/><path class="fil0" d="M144 69c-4,8 -14,10 -21,5 4,-7 14,-10 21,-5z"/><path class="fil0" d="M153 81c-7,6 -8,16 -2,22 7,-6 8,-16 2,-22z"/><path class="fil0" d="M174 131c0,-9 -9,-15 -17,-13 1,9 9,15 17,13z"/><path class="fil0" d="M189 129c0,-9 -8,-15 -16,-14 0,9 8,15 16,14z"/><path class="fil0" d="M137 129c-7,6 -7,16 -1,22 6,-5 7,-16 1,-22z"/><path class="fil0" d="M161 160c-7,-6 -17,-5 -22,2 7,6 17,5 22,-2z"/><path class="fil0" d="M154 138c-8,0 -15,8 -13,16 8,0 15,-8 13,-16z"/><path class="fil0" d="M153 182c0,-9 -8,-15 -16,-14 0,9 8,15 16,14z"/><path class="fil0" d="M37 125c7,-4 10,-14 5,-21 -7,4 -10,14 -5,21z"/></g></svg>