<svg xmlns="http://www.w3.org/2000/svg" xmlns:xlink="http://www.w3.org/1999/xlink" xmlns:a="http://ns.adobe.com/AdobeSVGViewerExtensions/3.0/" version="1.1" x="0px" y="0px" viewBox="-10.5 -5.424 100 125" enable-background="new -10.5 -5.424 100 100" xml:space="preserve"><path fill="#000000" d="M38.411,2.732c-3.175,8.62-6.498,14.785-9.986,18.587c-1.477,1.605-1.514,1.55,0.609,1.07  c1.034-0.24,2.732-0.48,3.784-0.554l1.883-0.111v17.184v17.203l-0.406,0.093c-0.24,0.055-2.418,0.387-4.854,0.738  c-3.932,0.59-4.448,0.627-4.633,0.369c-0.111-0.148-0.259-0.997-0.333-1.883c-0.166-2.381-0.959-7.623-1.606-10.725  c-1.458-7.088-4.227-16.593-5.685-19.602c-1.052-2.141-1.237-2.99-0.702-3.101c0.185-0.037,1.163,0.203,2.178,0.536  c0.997,0.332,1.882,0.554,1.938,0.498c0.055-0.055-0.388-0.554-0.979-1.126c-4.669-4.43-11.148-7.752-17.664-9.063  C0.166,12.478,0,12.478,0,12.829c0,0.147,0.941,1.791,2.086,3.636c8.712,14.046,13.696,27.244,15.357,40.699  c0.24,1.864,0.627,7.697,0.646,9.358v0.535l1.624-0.11c0.886-0.056,3.858-0.48,6.59-0.941c2.75-0.462,5.574-0.886,6.275-0.941  c0.72-0.074,1.477-0.147,1.717-0.203l0.406-0.073V76.97v12.183H39.5h4.799V77.007V64.861l1.68,0.147  c0.923,0.093,3.895,0.518,6.608,0.979c5.242,0.867,8.103,1.218,8.25,0.979c0.056-0.074,0.167-1.772,0.277-3.784  c0.479-9.894,2.362-18.365,6.257-28.111c2.548-6.405,5.501-12.108,9.931-19.251C78.243,14.324,79,12.976,79,12.829  c0-0.351-0.166-0.351-2.325,0.092c-5.04,1.034-11.204,3.932-15.154,7.125c-1.514,1.218-3.23,2.861-3.102,2.99  c0.056,0.056,0.905-0.166,1.901-0.498c2.953-0.997,3.138-0.738,1.588,2.381c-0.72,1.495-1.403,3.304-2.233,6.091  c-2.806,9.358-4.375,16.667-5.058,23.682c-0.129,1.311-0.332,2.491-0.443,2.639c-0.166,0.24-0.793,0.185-4.614-0.387  c-2.437-0.352-4.633-0.702-4.892-0.757l-0.461-0.074l0.055-17.166l0.037-17.166h1.163c1.237,0,3.858,0.388,5.427,0.793  c0.867,0.24,0.941,0.222,0.793-0.037c-0.073-0.167-0.369-0.499-0.646-0.757c-0.831-0.757-2.769-3.323-4.042-5.353  c-2.123-3.341-5.039-9.764-7.051-15.468C39.758,0.443,39.574,0,39.519,0C39.445,0,38.965,1.237,38.411,2.732z"/></svg>
