<svg xmlns="http://www.w3.org/2000/svg" xmlns:xlink="http://www.w3.org/1999/xlink" xmlns:serif="http://www.serif.com/" viewBox="0 0 48 48" version="1.1" xml:space="preserve" style="" x="0px" y="0px" fill-rule="evenodd" clip-rule="evenodd" stroke-linejoin="round" stroke-miterlimit="2"><g transform="matrix(1,0,0,1,-288,-192)"><g serif:id="14 tunik" transform="matrix(1,0,0,1,288,192)"><rect x="0" y="0" width="48" height="48" style="" fill="none"/><g transform="matrix(1,0,0,1,-7.38964e-13,-288.001)"><path d="M16,292L32,292C32.197,292 32.39,292.058 32.555,292.168C32.555,292.168 34.282,293.319 35.883,294.387C37.83,295.685 39,297.871 39,300.211L39,317C39,317.552 38.552,318 38,318L34.955,318L36.983,328.816C37.075,329.307 36.79,329.791 36.316,329.949C28.106,332.687 19.895,332.685 11.684,329.949C11.21,329.791 10.925,329.307 11.017,328.816L13.045,318L10,318C9.448,318 9,317.552 9,317C9,317 9,305.864 9,300.211C9,297.871 10.17,295.685 12.117,294.387C13.718,293.319 15.445,292.168 15.445,292.168C15.61,292.058 15.803,292 16,292ZM32.829,294.754C32.075,298.563 28.914,301.511 25,301.945L25,329.985C28.285,329.891 31.57,329.336 34.855,328.318L32.017,313.184C32.006,313.124 32,313.062 32,313L32,305C32,304.448 32.448,304 33,304C33.552,304 34,304.448 34,305L34,312L37,312L37,300.211C37,298.539 36.164,296.978 34.773,296.051L32.829,294.754ZM15.171,294.754L13.227,296.051C11.836,296.978 11,298.539 11,300.211L11,312L14,312L14,305C14,304.448 14.448,304 15,304C15.552,304 16,304.448 16,305L16,313C16,313.062 15.994,313.124 15.983,313.184L13.145,328.317C16.43,329.335 19.715,329.89 23,329.985L23,301.945C19.086,301.512 15.925,298.564 15.171,294.754ZM11,316L13.42,316L13.795,314L11,314L11,316ZM37,314L34.205,314L34.58,316L37,316L37,314ZM19.1,294L17.071,294C17.51,297.064 19.937,299.49 23,299.929L23,297.9C21.042,297.502 19.498,295.958 19.1,294ZM30.929,294L28.9,294C28.502,295.958 26.958,297.502 25,297.9L25,299.929C28.064,299.49 30.49,297.063 30.929,294ZM21.171,294C21.583,295.165 22.695,296 24,296C25.305,296 26.417,295.165 26.829,294L21.171,294Z"/></g></g></g></svg>
