<svg xmlns="http://www.w3.org/2000/svg" viewBox="0 0 96 96" x="0px" y="0px"><title>Artboard 1</title><path d="M82.666,44.1123c-4.0957-1.4453-6.82-4.123-7.8828-7.7441-1.2168-4.1485-.06-9.1836,3.0176-13.1406a2.0012,2.0012,0,0,0-.2891-2.7579l-14.2226-12a2.0242,2.0242,0,0,0-1.8164-.4,1.9816,1.9816,0,0,0-.87.5174l-.0171-.0017a17.4075,17.4075,0,0,1-25.1718,0L35.4058,8.6a1.9769,1.9769,0,0,0-.8785-.5308,2.0432,2.0432,0,0,0-1.8164.4l-14.2226,12a2.0012,2.0012,0,0,0-.2891,2.7579c3.0781,3.957,4.2344,8.9921,3.0176,13.1406-1.0625,3.6211-3.7871,6.2988-7.8828,7.7441A2.003,2.003,0,0,0,12,45.999v40a1.9988,1.9988,0,0,0,2,2H38c5.3318,0,8.33-1.8039,10-4.4753,1.67,2.6714,4.6682,4.4753,10,4.4753H82a1.9988,1.9988,0,0,0,2-2v-40A2.003,2.003,0,0,0,82.666,44.1123ZM58.0134,15.333,48,43.9426,37.9866,15.333A21.0911,21.0911,0,0,0,48,18.0029,21.0911,21.0911,0,0,0,58.0134,15.333ZM38,83.999H16V47.36a15.49,15.49,0,0,0,9.0547-9.8653,18.5394,18.5394,0,0,0-2.584-15.1523l10.6-8.9434L46,50.3389v23.66C46,81.6631,44.1309,83.999,38,83.999Zm42,0H58c-6.1309,0-8-2.3359-8-10v-23.66L62.93,13.3994l10.6,8.9434a18.5394,18.5394,0,0,0-2.584,15.1523A15.49,15.49,0,0,0,80,47.36Z"/></svg>
