<svg xmlns="http://www.w3.org/2000/svg" xmlns:xlink="http://www.w3.org/1999/xlink" version="1.1" x="0px" y="0px" viewBox="0 0 100 100" enable-background="new 0 0 100 100" xml:space="preserve"><g><path fill="#000000" stroke="#010101" stroke-miterlimit="10" d="M52.791,42.037L34.989,64.81l-3.061-2.414l17.76-23.132   L52.791,42.037z"/><path fill="#000000" stroke="#010101" stroke-miterlimit="10" d="M35.6,65.29C23.145,79.354,14.553,91.607,12.83,94.81   c-1.705,2-10.885,2.496-9.899,1.873c3.769-2.363,25.225-29.59,28.181-34.704C31.362,62.181,35.6,65.29,35.6,65.29z"/><path fill="#000000" stroke="#010101" stroke-miterlimit="10" d="M68.87,23.208C65.27,26.024,56.681,38.277,54.955,41.48   c-1.702,1.999-6.658-3.234-5.672-3.855c3.768-2.362,15.099-17.728,15.099-17.728L68.87,23.208z"/></g><g><title>Layer 1</title><g><path stroke="#000000" stroke-miterlimit="10" d="M51.759,8.853c9.355-8.918,23.232-0.605,23.232-0.605    l-9.577,8.543C62.426,11.926,59.064,7.406,51.759,8.853z"/><path stroke="#000000" stroke-miterlimit="10" d="M48.533,9.588c9.473-9.03,22.893,0.997,22.893,0.997    l-8.643,7.042C59.756,12.701,55.931,8.124,48.533,9.588z"/></g><path marker-mid="none" marker-start="none" marker-end="none" stroke="#000000" stroke-miterlimit="10" d="   M72.471,8.427c-0.504,0.063-4.394-0.741-5.083,0.654l-4.394,6.313c-0.647,0.928-0.46,2.255,0.414,2.973l9.773,8.635   c2.167-5.096,6.066-9.204,11.62-11.222l-9.276-7.337C75.093,8.089,72.96,8.365,72.471,8.427z"/><path d="M78.579,34.513c0.779-4.72,5.723-10.508,11.05-12.926c2.65-1.203,4.896-1.342,6.388-0.598   c-1.515-1.252-3.831-2.921-4.309-3.564c-0.71-0.956-1.901-1.451-3.429-1.407c-1.138,0.033-2.456,0.368-3.904,1.029   c-5.15,2.348-9.94,7.982-10.689,12.572c-0.3,1.831,0.091,3.218,0.991,4.08c0.78,0.743,3.267,3.118,4.359,4.289   C78.525,37.118,78.344,35.95,78.579,34.513z"/><path d="M95.994,21.702c-1.432-0.714-3.585-0.58-6.128,0.573c-5.109,2.32-9.852,7.872-10.6,12.399   c-0.225,1.378-0.051,2.499,0.438,3.332c1.122,1.906,3.913,2.286,7.471,0.672c5.108-2.318,9.854-7.868,10.597-12.4   C98.146,24.005,97.437,22.421,95.994,21.702z"/></g></svg>
