<svg xmlns="http://www.w3.org/2000/svg" xmlns:xlink="http://www.w3.org/1999/xlink" viewBox="0 0 56 70" version="1.1" x="0px" y="0px"><title>009 - Water Mill </title><desc>Created with Sketch.</desc><g stroke="none" stroke-width="1" fill="none" fill-rule="evenodd"><g fill="#000000" fill-rule="nonzero"><path d="M20.739,39.676 L16.433,43.981 C16.6220909,44.2988852 16.7651801,44.6419626 16.858,45 L22.949,45 C22.7537449,43.0461588 21.9848093,41.1937547 20.739,39.676 Z"/><path d="M16.433,48.019 L20.739,52.324 C21.9848093,50.8062453 22.7537449,48.9538412 22.949,47 L16.858,47 C16.7651801,47.3580374 16.6220909,47.7011148 16.433,48.019 Z"/><rect x="19" y="27" width="4" height="3"/><path d="M21.487,37.513 C21.5,37.526 21.505,37.544 21.517,37.558 C22.5059994,38.5575703 23.3124914,39.7224655 23.9,41 L33,41 C33.5522847,41 34,41.4477153 34,42 C34,42.5522847 33.5522847,43 33,43 L24.605,43 C25.4126916,46.0438066 24.9701999,49.284185 23.376,52 L40,52 L40,43 L37,43 C36.4477153,43 36,42.5522847 36,42 C36,41.4477153 36.4477153,41 37,41 L40,41 L40,14.378 L27,4.267 L14,14.378 L14,34.051 C16.8079615,34.2827499 19.4439119,35.4985524 21.443,37.484 C21.457,37.5 21.474,37.5 21.487,37.513 Z M30,48 L29,48 C28.4477153,48 28,47.5522847 28,47 C28,46.4477153 28.4477153,46 29,46 L30,46 C30.5522847,46 31,46.4477153 31,47 C31,47.5522847 30.5522847,48 30,48 Z M37,49 C37,49.5522847 36.5522847,50 36,50 L35,50 C34.4477153,50 34,49.5522847 34,49 C34,48.4477153 34.4477153,48 35,48 L36,48 C36.5522847,48 37,48.4477153 37,49 Z M37,25 C37.5522847,25 38,25.4477153 38,26 C38,26.5522847 37.5522847,27 37,27 L37,31 C37,31.5522847 36.5522847,32 36,32 L30,32 C29.4477153,32 29,31.5522847 29,31 L29,27 C28.4477153,27 28,26.5522847 28,26 C28,25.4477153 28.4477153,25 29,25 L37,25 Z M23,15 L31,15 C31.5522847,15 32,15.4477153 32,16 C32,16.5522847 31.5522847,17 31,17 L31,21 C31,21.5522847 30.5522847,22 30,22 L24,22 C23.4477153,22 23,21.5522847 23,21 L23,17 C22.4477153,17 22,16.5522847 22,16 C22,15.4477153 22.4477153,15 23,15 Z M17,31 L17,27 C16.4477153,27 16,26.5522847 16,26 C16,25.4477153 16.4477153,25 17,25 L25,25 C25.5522847,25 26,25.4477153 26,26 C26,26.5522847 25.5522847,27 25,27 L25,31 C25,31.5522847 24.5522847,32 24,32 L18,32 C17.4477153,32 17,31.5522847 17,31 Z"/><rect x="25" y="17" width="4" height="3"/><path d="M46,42 C46,40.8954305 46.8954305,40 48,40 L52,40 L52,34.38 L42,26.605 L42,52 L46,52 L46,42 Z"/><polygon points="38 0 32 0 32 5.622 38 10.288"/><rect x="48" y="42" width="4" height="10"/><rect x="31" y="27" width="4" height="3"/><path d="M14.413,47.413 C15.1911018,46.6324605 15.1911018,45.3695395 14.413,44.589 C13.6324605,43.8108982 12.3695395,43.8108982 11.589,44.589 C10.8108982,45.3695395 10.8108982,46.6324605 11.589,47.413 C12.3695395,48.1911018 13.6324605,48.1911018 14.413,47.413 Z"/><path d="M4.513,54.487 C4.5,54.474 4.495,54.456 4.483,54.442 C4.343,54.301 4.214,54.148 4.083,54 L0,54 L0,56 L6.381,56 C5.72609675,55.5659496 5.11519176,55.0689195 4.557,54.516 C4.543,54.5 4.526,54.5 4.513,54.487 Z"/><path d="M19.324,38.262 C17.8064267,37.0157269 15.9539791,36.2464253 14,36.051 L14,42.142 C14.3580374,42.2348199 14.7011148,42.3779091 15.019,42.567 L19.324,38.262 Z"/><path d="M14,49.858 L14,55.949 C15.9539791,55.7535747 17.8064267,54.9842731 19.324,53.738 L15.019,49.438 C14.7008379,49.6253507 14.3577725,49.7667516 14,49.858 Z"/><path d="M41,54 L21.919,54 C21.786,54.148 21.657,54.3 21.519,54.442 C21.507,54.456 21.502,54.474 21.489,54.487 C21.476,54.5 21.459,54.504 21.445,54.516 C20.8861772,55.0690225 20.2745985,55.5660558 19.619,56 L56,56 L56,54 L41,54 Z"/><path d="M6.676,53.738 C8.19357332,54.9842731 10.0460209,55.7535747 12,55.949 L12,49.858 C11.6419626,49.7651801 11.2988852,49.6220909 10.981,49.433 L6.676,53.738 Z"/><path d="M9.567,43.981 L5.261,39.681 C4.01609622,41.197372 3.24721463,43.0479065 3.051,45 L9.142,45 C9.23481989,44.6419626 9.3779091,44.2988852 9.567,43.981 Z"/><path d="M9.567,48.019 C9.3779091,47.7011148 9.23481989,47.3580374 9.142,47 L3.051,47 C3.24625514,48.9538412 4.01519072,50.8062453 5.261,52.324 L9.567,48.019 Z"/><path d="M12,42.142 L12,36.051 C10.0460209,36.2464253 8.19357332,37.0157269 6.676,38.262 L10.981,42.567 C11.2988852,42.3779091 11.6419626,42.2348199 12,42.142 Z"/></g></g></svg>