<svg xmlns="http://www.w3.org/2000/svg" data-name="Layer 1" viewBox="0 0 512 512" x="0px" y="0px"><title>Artboard 1</title><path d="M470.652,352.749c-12.574,0-18.451-5.485-25.891-12.428-8.133-7.59-17.351-16.193-35.444-16.193s-27.31,8.6-35.443,16.193c-7.44,6.943-13.317,12.428-25.892,12.428s-18.448-5.484-25.887-12.428c-8.132-7.59-17.349-16.193-35.44-16.193s-27.308,8.6-35.44,16.193c-7.439,6.943-13.315,12.428-25.888,12.428s-18.448-5.484-25.887-12.428c-8.132-7.59-17.348-16.193-35.439-16.193s-27.307,8.6-35.439,16.193c-7.439,6.944-13.314,12.428-25.886,12.428s-18.449-5.485-25.888-12.428c-8.132-7.59-17.349-16.193-35.44-16.193a7,7,0,0,0,0,14c12.573,0,18.448,5.485,25.887,12.428,8.133,7.59,17.35,16.193,35.441,16.193s27.307-8.6,35.439-16.193c7.438-6.944,13.314-12.428,25.886-12.428s18.448,5.484,25.886,12.428c8.132,7.59,17.349,16.193,35.44,16.193s27.308-8.6,35.44-16.193c7.439-6.943,13.315-12.428,25.888-12.428s18.449,5.485,25.887,12.428c8.132,7.59,17.349,16.193,35.44,16.193s27.311-8.6,35.444-16.193c7.44-6.943,13.316-12.428,25.891-12.428s18.452,5.485,25.892,12.428c8.133,7.59,17.351,16.193,35.443,16.193a7,7,0,1,0,0-14Z"/><path d="M470.652,293.123c-12.574,0-18.451-5.484-25.891-12.428-8.133-7.59-17.351-16.193-35.444-16.193s-27.311,8.6-35.443,16.193c-7.44,6.944-13.317,12.428-25.892,12.428S329.534,287.639,322.1,280.7c-8.132-7.59-17.349-16.193-35.44-16.193s-27.308,8.6-35.44,16.193c-7.439,6.944-13.315,12.428-25.888,12.428s-18.448-5.484-25.887-12.428C191.308,273.105,182.092,264.5,164,264.5s-27.307,8.6-35.439,16.194c-7.439,6.943-13.314,12.427-25.886,12.427S84.227,287.639,76.788,280.7c-8.132-7.59-17.349-16.193-35.44-16.193a7,7,0,0,0,0,14c12.572,0,18.448,5.485,25.887,12.428,8.133,7.59,17.35,16.193,35.441,16.193s27.307-8.6,35.439-16.193C145.553,283.987,151.429,278.5,164,278.5s18.448,5.485,25.886,12.428c8.132,7.59,17.349,16.193,35.44,16.193s27.308-8.6,35.44-16.193c7.439-6.943,13.315-12.428,25.888-12.428s18.449,5.485,25.887,12.428c8.132,7.59,17.349,16.193,35.44,16.193s27.311-8.6,35.444-16.193c7.44-6.943,13.316-12.428,25.891-12.428s18.452,5.485,25.892,12.428c8.133,7.591,17.351,16.193,35.443,16.193a7,7,0,0,0,0-14Z"/><path d="M470.652,233.5c-12.574,0-18.451-5.485-25.891-12.428-8.133-7.591-17.351-16.193-35.444-16.193s-27.311,8.6-35.443,16.193c-7.44,6.943-13.317,12.428-25.892,12.428s-18.448-5.485-25.887-12.428c-8.132-7.59-17.349-16.193-35.44-16.193s-27.308,8.6-35.44,16.193c-7.439,6.943-13.315,12.428-25.888,12.428s-18.448-5.485-25.887-12.428c-8.132-7.59-17.348-16.193-35.439-16.193s-27.307,8.6-35.439,16.193c-7.439,6.943-13.314,12.428-25.886,12.428s-18.449-5.485-25.888-12.428c-8.132-7.59-17.349-16.193-35.44-16.193a7,7,0,0,0,0,14c12.572,0,18.448,5.484,25.887,12.428,8.133,7.59,17.35,16.193,35.441,16.193s27.307-8.6,35.439-16.194c7.438-6.943,13.314-12.427,25.886-12.427s18.448,5.484,25.886,12.427c8.132,7.591,17.349,16.194,35.44,16.194s27.308-8.6,35.44-16.193c7.439-6.944,13.315-12.428,25.888-12.428s18.449,5.484,25.887,12.428c8.132,7.59,17.349,16.193,35.44,16.193s27.311-8.6,35.444-16.193c7.44-6.944,13.316-12.428,25.891-12.428s18.452,5.484,25.892,12.428c8.133,7.59,17.351,16.193,35.443,16.193a7,7,0,0,0,0-14Z"/><path d="M470.652,173.872c-12.574,0-18.451-5.485-25.891-12.428-8.133-7.59-17.351-16.193-35.444-16.193s-27.31,8.6-35.443,16.193c-7.44,6.943-13.317,12.428-25.892,12.428s-18.448-5.484-25.887-12.428c-8.132-7.59-17.349-16.193-35.44-16.193s-27.308,8.6-35.44,16.193c-7.439,6.943-13.315,12.428-25.888,12.428s-18.448-5.484-25.887-12.428c-8.132-7.59-17.348-16.193-35.439-16.193s-27.307,8.6-35.439,16.193c-7.439,6.944-13.314,12.428-25.886,12.428s-18.449-5.485-25.888-12.428c-8.132-7.59-17.349-16.193-35.44-16.193a7,7,0,1,0,0,14c12.573,0,18.448,5.485,25.887,12.428,8.133,7.59,17.35,16.193,35.441,16.193s27.307-8.6,35.439-16.193c7.438-6.944,13.314-12.428,25.886-12.428s18.448,5.484,25.886,12.428c8.132,7.59,17.349,16.193,35.44,16.193s27.308-8.6,35.44-16.193c7.439-6.943,13.315-12.428,25.888-12.428s18.449,5.485,25.887,12.428c8.132,7.59,17.349,16.193,35.44,16.193s27.311-8.6,35.444-16.193c7.44-6.943,13.316-12.428,25.891-12.428s18.452,5.485,25.892,12.428c8.133,7.59,17.351,16.193,35.443,16.193a7,7,0,0,0,0-14Z"/></svg>
