<svg xmlns="http://www.w3.org/2000/svg" xmlns:xlink="http://www.w3.org/1999/xlink" version="1.1" x="0px" y="0px" viewBox="0 0 100 100" enable-background="new 0 0 100 100" xml:space="preserve"><g><path d="M69.711,43.07c6.397,0,11.602-5.205,11.602-11.602c0-6.397-5.204-11.602-11.602-11.602s-11.602,5.205-11.602,11.602   C58.109,37.866,63.313,43.07,69.711,43.07z M69.711,22.367c5.019,0,9.102,4.083,9.102,9.102c0,5.019-4.083,9.102-9.102,9.102   s-9.102-4.083-9.102-9.102C60.609,26.45,64.692,22.367,69.711,22.367z"/><rect x="68.461" y="46.865" width="2.5" height="7.431"/><rect x="68.461" y="8.642" width="2.5" height="7.431"/><rect x="46.884" y="30.219" width="7.432" height="2.5"/><rect x="85.106" y="30.219" width="7.432" height="2.5"/><rect x="52.482" y="16.704" transform="matrix(0.7071 0.7071 -0.7071 0.7071 29.1579 -34.48)" width="7.43" height="2.5"/><rect x="81.975" y="41.267" transform="matrix(-0.7071 0.7071 -0.7071 -0.7071 173.8807 17.9411)" width="2.5" height="7.43"/><rect x="81.976" y="14.238" transform="matrix(0.7071 0.7071 -0.7071 0.7071 37.0718 -53.5907)" width="2.5" height="7.432"/><rect x="54.948" y="41.267" transform="matrix(0.7071 0.7071 -0.7071 0.7071 48.2673 -26.5628)" width="2.5" height="7.431"/><path d="M23.311,44.548c2.331,0.524,4.79-0.383,6.258-2.215c0.455,0.141,0.926,0.213,1.399,0.213c2.675,0,4.851-2.176,4.851-4.851   s-2.176-4.851-4.851-4.851c-0.836,0-1.647,0.215-2.364,0.62c-0.799-0.641-1.742-1.08-2.744-1.275   c-0.828-2.716-3.368-4.664-6.264-4.664c-3.065,0-5.631,2.069-6.346,4.96c-2.751,0.487-4.848,2.896-4.848,5.785   c0,2.899,2.099,5.312,4.896,5.778c1.126,1.781,3.056,2.861,5.188,2.861C20.382,46.91,22.153,46.025,23.311,44.548z M21.688,42.482   c-0.648,1.189-1.875,1.928-3.203,1.928c-1.406,0-2.665-0.797-3.287-2.079l-0.325-0.671l-0.745-0.033   c-1.81-0.08-3.227-1.554-3.227-3.355c0-1.839,1.479-3.34,3.311-3.375l1.259,0.003l0.096-1.146c0.179-2.125,1.911-3.729,4.028-3.729   c1.994,0,3.715,1.497,4.005,3.481l0.151,1.033l1.043,0.036c1.068,0.036,2.045,0.508,2.752,1.329l0.856,0.995l0.952-0.904   c0.441-0.419,1.014-0.65,1.613-0.65c1.296,0,2.351,1.055,2.351,2.351s-1.055,2.351-2.351,2.351c-0.419,0-0.826-0.117-1.208-0.349   l-1.125-0.681l-0.624,1.158c-0.903,1.676-2.949,2.473-4.76,1.745l-1.032-0.414L21.688,42.482z"/><path d="M86.917,60.924c-0.835,0-1.645,0.215-2.36,0.618c-0.801-0.649-1.737-1.085-2.748-1.277   c-0.828-2.715-3.368-4.661-6.264-4.661c-3.065,0-5.631,2.069-6.346,4.961c-2.751,0.487-4.848,2.896-4.848,5.785   c0,2.899,2.099,5.312,4.896,5.777c1.126,1.781,3.055,2.861,5.188,2.861c1.896,0,3.668-0.885,4.826-2.362   c2.34,0.526,4.788-0.384,6.258-2.215c0.455,0.142,0.927,0.214,1.398,0.214c2.675,0,4.851-2.177,4.851-4.852   C91.768,63.1,89.592,60.924,86.917,60.924z M86.917,68.125c-0.418,0-0.825-0.117-1.21-0.35l-1.124-0.678l-0.622,1.155   c-0.903,1.675-2.935,2.478-4.762,1.744l-1.031-0.411l-0.53,0.975c-0.647,1.188-1.875,1.928-3.203,1.928   c-1.406,0-2.665-0.797-3.286-2.08l-0.325-0.671l-0.745-0.033c-1.81-0.079-3.227-1.553-3.227-3.354c0-1.84,1.479-3.34,3.311-3.374   l1.259,0.003l0.097-1.146c0.178-2.126,1.909-3.729,4.027-3.729c1.994,0,3.716,1.497,4.005,3.481l0.151,1.032l1.043,0.036   c1.068,0.037,2.045,0.51,2.752,1.33l0.856,0.995l0.952-0.904c0.441-0.419,1.014-0.65,1.612-0.65c1.296,0,2.351,1.054,2.351,2.35   C89.268,67.07,88.213,68.125,86.917,68.125z"/><path d="M64.51,60.586c0-3.968-3.228-7.196-7.195-7.196c-1.427,0-2.804,0.424-3.979,1.211c-1.432-1.306-3.191-2.132-5.102-2.395   c-1.103-4.397-5.109-7.602-9.7-7.602c-4.865,0-8.904,3.413-9.804,8.102c-4.422,0.508-7.867,4.273-7.867,8.829   c0,4.51,3.357,8.24,7.769,8.792c1.677,2.893,4.707,4.661,8.068,4.661c3.055,0,5.896-1.513,7.641-4.009   c0.842,0.237,1.702,0.357,2.567,0.357c3.115,0,6.008-1.528,7.805-4.058c0.835,0.331,1.718,0.503,2.603,0.503   C61.282,67.782,64.51,64.554,64.51,60.586z M57.314,65.282c-0.844,0-1.657-0.233-2.417-0.693l-1.124-0.68l-0.624,1.155   c-1.255,2.327-3.647,3.772-6.243,3.772c-0.891,0-1.779-0.175-2.639-0.521l-1.032-0.414l-0.532,0.977   c-1.213,2.227-3.514,3.609-6.005,3.609c-2.637,0-4.997-1.492-6.16-3.894l-0.325-0.671l-0.745-0.033   c-3.425-0.15-6.108-2.942-6.108-6.355c0-3.501,2.831-6.353,6.324-6.388l1.289,0.007l0.096-1.146   c0.33-3.936,3.538-6.904,7.463-6.904c3.694,0,6.884,2.771,7.42,6.446l0.15,1.033l1.044,0.035c1.993,0.067,3.815,0.947,5.132,2.478   l0.855,0.994l0.952-0.902c0.883-0.838,2.029-1.299,3.227-1.299c2.589,0,4.695,2.106,4.695,4.696S59.903,65.282,57.314,65.282z"/><rect x="20.86" y="71.25" width="2.5" height="7.25"/><rect x="60.041" y="69.75" width="2.5" height="13"/><rect x="49.143" y="74.875" width="2.5" height="3.625"/><rect x="49.35" y="81.25" width="2.5" height="8"/><rect x="41.687" y="76.25" width="2.5" height="10"/><rect x="41.436" y="88.25" width="2.5" height="3.75"/><rect x="31" y="76.688" width="2.5" height="6.063"/><rect x="31" y="85.25" width="2.5" height="4.875"/><path d="M16.416,24.409h25.552v-2.5H16.416c-2.021,0-3.666-1.645-3.666-3.666h-2.5C10.25,21.643,13.016,24.409,16.416,24.409z"/><path d="M24.251,16.065h25.552v-2.5H24.251c-2.021,0-3.666-1.645-3.666-3.666h-2.5C18.085,13.299,20.851,16.065,24.251,16.065z"/><rect x="87.572" y="73.738" width="2.5" height="7.512"/><rect x="76.81" y="78.5" width="2.5" height="4.25"/><rect x="76.81" y="85.25" width="2.5" height="6.75"/><rect x="68.461" y="76.25" width="2.5" height="9"/></g></svg>
