<svg xmlns="http://www.w3.org/2000/svg" xmlns:xlink="http://www.w3.org/1999/xlink" version="1.1" x="0px" y="0px" viewBox="0 0 64 64" enable-background="new 0 0 64 64" xml:space="preserve"><g><g><g><path d="M5.5,60c-0.553,0-1-0.447-1-1V40c0-0.553,0.447-1,1-1s1,0.447,1,1v19C6.5,59.553,6.053,60,5.5,60z"/></g><g><path d="M9.5,60c-0.553,0-1-0.447-1-1V40c0-0.553,0.447-1,1-1s1,0.447,1,1v19C10.5,59.553,10.053,60,9.5,60z"/></g><g><path d="M9.5,64h-4c-0.459,0-0.858-0.313-0.97-0.758l-1-4c-0.075-0.299-0.008-0.615,0.182-0.857C3.901,58.142,4.192,58,4.5,58h6     c0.308,0,0.599,0.142,0.788,0.385c0.189,0.242,0.257,0.559,0.182,0.857l-1,4C10.358,63.688,9.959,64,9.5,64z M6.281,62h2.438     l0.5-2H5.781L6.281,62z"/></g><g><path d="M5.5,57c-0.256,0-0.512-0.098-0.707-0.293c-0.391-0.391-0.391-1.023,0-1.414l2-2c0.391-0.391,1.023-0.391,1.414,0     s0.391,1.023,0,1.414l-2,2C6.012,56.902,5.756,57,5.5,57z"/></g><g><path d="M9.5,57c-0.256,0-0.512-0.098-0.707-0.293l-2-2c-0.391-0.391-0.391-1.023,0-1.414s1.023-0.391,1.414,0l2,2     c0.391,0.391,0.391,1.023,0,1.414C10.012,56.902,9.756,57,9.5,57z"/></g><g><path d="M5.5,52c-0.256,0-0.512-0.098-0.707-0.293c-0.391-0.391-0.391-1.023,0-1.414l2-2c0.391-0.391,1.023-0.391,1.414,0     s0.391,1.023,0,1.414l-2,2C6.012,51.902,5.756,52,5.5,52z"/></g><g><path d="M9.5,52c-0.256,0-0.512-0.098-0.707-0.293l-2-2c-0.391-0.391-0.391-1.023,0-1.414s1.023-0.391,1.414,0l2,2     c0.391,0.391,0.391,1.023,0,1.414C10.012,51.902,9.756,52,9.5,52z"/></g><g><path d="M5.5,47c-0.256,0-0.512-0.098-0.707-0.293c-0.391-0.391-0.391-1.023,0-1.414l2-2c0.391-0.391,1.023-0.391,1.414,0     s0.391,1.023,0,1.414l-2,2C6.012,46.902,5.756,47,5.5,47z"/></g><g><path d="M9.5,47c-0.256,0-0.512-0.098-0.707-0.293l-2-2c-0.391-0.391-0.391-1.023,0-1.414s1.023-0.391,1.414,0l2,2     c0.391,0.391,0.391,1.023,0,1.414C10.012,46.902,9.756,47,9.5,47z"/></g><g><path d="M10.5,41h-6c-0.553,0-1-0.447-1-1s0.447-1,1-1h6c0.553,0,1,0.447,1,1S11.053,41,10.5,41z"/></g><g><path d="M59.5,28c-0.553,0-1-0.447-1-1c0-13.785-11.215-25-25-25s-25,11.215-25,25c0,0.553-0.447,1-1,1s-1-0.447-1-1     c0-14.888,12.112-27,27-27s27,12.112,27,27C60.5,27.553,60.053,28,59.5,28z"/></g><g><path d="M35.5,52c-13.785,0-25-11.215-25-25c0-0.553,0.447-1,1-1s1,0.447,1,1c0,12.683,10.317,23,23,23s23-10.317,23-23     c0-0.553,0.447-1,1-1s1,0.447,1,1C60.5,40.785,49.285,52,35.5,52z"/></g><g><path d="M55.5,28c-0.553,0-1-0.447-1-1c0-11.579-9.421-21-21-21s-21,9.421-21,21c0,0.553-0.447,1-1,1s-1-0.447-1-1     c0-12.683,10.317-23,23-23s23,10.317,23,23C56.5,27.553,56.053,28,55.5,28z"/></g><g><path d="M35.5,48c-11.579,0-21-9.421-21-21c0-0.553,0.447-1,1-1s1,0.447,1,1c0,10.477,8.523,19,19,19s19-8.523,19-19     c0-0.553,0.447-1,1-1s1,0.447,1,1C56.5,38.579,47.079,48,35.5,48z"/></g><g><path d="M7.5,41c-0.553,0-1-0.447-1-1V27c0-0.553,0.447-1,1-1s1,0.447,1,1v13C8.5,40.553,8.053,41,7.5,41z"/></g><g><path d="M51.5,28c-0.553,0-1-0.447-1-1c0-9.374-7.626-17-17-17s-17,7.626-17,17c0,0.553-0.447,1-1,1s-1-0.447-1-1     c0-10.477,8.523-19,19-19s19,8.523,19,19C52.5,27.553,52.053,28,51.5,28z"/></g><g><path d="M35.5,44c-0.553,0-1-0.447-1-1s0.447-1,1-1c8.271,0,15-6.729,15-15c0-0.553,0.447-1,1-1s1,0.447,1,1     C52.5,36.374,44.874,44,35.5,44z"/></g><g><path d="M35.5,44c-0.256,0-0.512-0.098-0.707-0.293l-3-3c-0.391-0.391-0.391-1.023,0-1.414s1.023-0.391,1.414,0l3,3     c0.391,0.391,0.391,1.023,0,1.414C36.012,43.902,35.756,44,35.5,44z"/></g><g><path d="M35.5,44h-4c-0.553,0-1-0.447-1-1s0.447-1,1-1h4c0.553,0,1,0.447,1,1S36.053,44,35.5,44z"/></g></g></g></svg>
