<svg xmlns="http://www.w3.org/2000/svg" viewBox="0 0 32 32" x="0px" y="0px"><title>54- wind -air-windy- weather</title><path d="M3,13a1,1,0,0,1,0-2H15.83a2.24,2.24,0,0,0,2-1.29A2,2,0,0,0,17.5,8,2.28,2.28,0,0,0,15.8,7h0a2.45,2.45,0,0,0-2,1.45,1,1,0,1,1-1.79-.9A4.39,4.39,0,0,1,15.86,5a4.25,4.25,0,0,1,3.26,1.85,3.94,3.94,0,0,1,.66,3.45,4.19,4.19,0,0,1-3.9,2.7Z"/><path d="M3,16a1,1,0,0,1,0-2H25.83a2.24,2.24,0,0,0,2-1.29A2,2,0,0,0,27.5,11a2.28,2.28,0,0,0-1.69-1,2.34,2.34,0,0,0-2.08,1.45,1,1,0,1,1-1.79-.9A4.4,4.4,0,0,1,25.86,8a4.25,4.25,0,0,1,3.26,1.85,3.94,3.94,0,0,1,.66,3.45,4.19,4.19,0,0,1-3.9,2.7Z"/><path d="M14.75,28a4.4,4.4,0,0,1-3.82-2.55,1,1,0,1,1,1.79-.9A2.38,2.38,0,0,0,14.8,26a2.28,2.28,0,0,0,1.69-1,2,2,0,0,0,.38-1.7,2.26,2.26,0,0,0-2.1-1.3H3a1,1,0,0,1,0-2H14.83a4.2,4.2,0,0,1,4,2.71,3.94,3.94,0,0,1-.66,3.45A4.25,4.25,0,0,1,14.86,28Z"/><path d="M22.75,25a4.4,4.4,0,0,1-3.82-2.55,1,1,0,1,1,1.79-.9A2.4,2.4,0,0,0,22.8,23a2.28,2.28,0,0,0,1.69-1,2,2,0,0,0,.38-1.7,2.26,2.26,0,0,0-2.1-1.3H3a1,1,0,0,1,0-2H22.83a4.2,4.2,0,0,1,4,2.71,3.94,3.94,0,0,1-.66,3.45A4.25,4.25,0,0,1,22.86,25Z"/></svg>
