<svg xmlns:dc="http://purl.org/dc/elements/1.1/" xmlns:cc="http://creativecommons.org/ns#" xmlns:rdf="http://www.w3.org/1999/02/22-rdf-syntax-ns#" xmlns:svg="http://www.w3.org/2000/svg" xmlns="http://www.w3.org/2000/svg" xmlns:sodipodi="http://sodipodi.sourceforge.net/DTD/sodipodi-0.dtd" xmlns:inkscape="http://www.inkscape.org/namespaces/inkscape" viewBox="0 0 8.4666665 10.583333625" version="1.1" x="0px" y="0px"><g transform="translate(0,-288.53332)"><path style="" d="m 4.9500678,290.35488 a 0.13229178,0.13229178 0 0 0 -0.2483008,-0.091 l -0.2186872,0.5942 a 0.13229178,0.13229178 0 0 0 0.2483012,0.091 z" fill="#000000" stroke="none"/><path style="" d="m 2.760872,292.84968 0.4548658,-0.2796 a 0.13229217,0.13229217 0 0 0 -0.1385628,-0.2254 l -0.454866,0.2796 a 0.13229221,0.13229221 0 0 0 0.138563,0.2254 z" fill="#000000" stroke="none"/><path style="" d="m 5.943565,290.91338 a 0.1323215,0.1323215 0 0 0 -0.121893,-0.2349 l -0.892239,0.4632 a 0.13229333,0.13229333 0 0 0 0.121893,0.2348 z" fill="#000000" stroke="none"/><path style="" d="M 11.080078 4.9980469 A 1.4999999 1.4999999 0 0 0 10.072266 5.3691406 L 8.6582031 6.6074219 A 1.4999999 1.4999999 0 0 0 8.515625 8.7246094 L 9.3222656 9.6445312 L 2 16.050781 L 3.8808594 18.199219 L 11.203125 11.796875 L 12.007812 12.716797 A 1.4999999 1.4999999 0 0 0 14.125 12.855469 L 15.539062 11.617188 A 1.4999999 1.4999999 0 0 0 15.71875 9.546875 L 12.150391 5.4667969 A 1.4999999 1.4999999 0 0 0 11.080078 4.9980469 z M 9.9804688 10.398438 L 10.542969 11.042969 L 3.9746094 16.791016 L 3.4101562 16.146484 L 9.9804688 10.398438 z " transform="matrix(0.26458333,0,0,0.26458333,0,288.53332)" fill="#000000" stroke="none"/><path style="" d="m 3.442745,292.74978 -0.09622,0.6728 a 0.13229168,0.13229168 0 0 0 0.261919,0.037 l 0.09622,-0.6729 a 0.13229168,0.13229168 0 0 0 -0.261919,-0.037 z" fill="#000000" stroke="none"/><path style="" d="m 4.7722268,291.84508 -0.1067649,0.1019 1.9331911,2.0269 -1.2852871,-0.2372 -1.2024868,-1.2608 -0.1067642,0.1018 a 0.13229168,0.13229168 0 0 1 -0.182609,-0.1914 l 0.7681121,-0.7326 a 0.13229363,0.13229363 0 0 1 0.1826088,0.1914 z" fill="#000000" stroke="none"/><path style="" d="m 2.9104169,294.14138 a 2.1708246,2.1708246 0 0 0 3.576407,-0.052 H 6.731414 l -0.203713,-0.645 a 0.53137403,0.53137403 0 1 1 1.0380808,-0.1601 0.12773,0.12773 0 0 1 -0.25546,0 0.27591427,0.27591427 0 1 0 -0.2759128,0.2759 h 0.868793 a 4.7519749,4.7519749 0 0 1 -3.188014,2.1167 H 2.9104169 Z" fill="#000000" stroke="none"/><path style="" d="M 6.1582958,294.08958 H 3.203322 a 1.9062413,1.9062413 0 0 0 2.9549738,0 z" fill="#000000" stroke="none"/><path style="" d="m 7.9375,293.97668 v 1.7004 H 5.7042978 A 5.0165582,5.0165582 0 0 0 7.9375,293.97668 Z" fill="#000000" stroke="none"/></g></svg>